<mxfile host="app.diagrams.net" modified="2024-02-19T07:20:01.046Z" agent="Mozilla/5.0 (Windows NT 10.0; Win64; x64) AppleWebKit/537.36 (KHTML, like Gecko) Chrome/121.0.0.0 Safari/537.36" etag="DcNLUL6teXXB9xxTnV6z" version="23.1.5" type="github">
  <diagram id="sQ8EXhfYu_Z4RW1TYD9f" name="Page-1">
    <mxGraphModel dx="1434" dy="746" grid="1" gridSize="10" guides="1" tooltips="1" connect="0" arrows="1" fold="1" page="1" pageScale="1" pageWidth="827" pageHeight="1169" math="0" shadow="0">
      <root>
        <mxCell id="0" />
        <mxCell id="1" parent="0" />
        <mxCell id="wOnGFkAYj0Utu0_wV-MN-16" value="구현" style="swimlane;fillColor=#dae8fc;strokeColor=#6c8ebf;" parent="1" vertex="1">
          <mxGeometry x="270" y="50" width="330" height="660" as="geometry" />
        </mxCell>
        <mxCell id="9A0mLHsorhuxDrabdEOj-9" value="에러 | 수정" style="swimlane;fillColor=#f8cecc;strokeColor=#b85450;startSize=23;" parent="wOnGFkAYj0Utu0_wV-MN-16" vertex="1">
          <mxGeometry x="339" y="390" width="511" height="270" as="geometry">
            <mxRectangle x="620" y="440" width="90" height="23" as="alternateBounds" />
          </mxGeometry>
        </mxCell>
        <mxCell id="wOnGFkAYj0Utu0_wV-MN-18" value="고려" style="swimlane;fillColor=#e1d5e7;strokeColor=#9673a6;" parent="wOnGFkAYj0Utu0_wV-MN-16" vertex="1">
          <mxGeometry x="340" y="1" width="231" height="380" as="geometry" />
        </mxCell>
        <mxCell id="wOnGFkAYj0Utu0_wV-MN-17" value="분석 | 논의" style="swimlane;strokeColor=#82b366;fillColor=#D5E8D4;" parent="1" vertex="1">
          <mxGeometry x="49" y="50" width="211" height="270" as="geometry" />
        </mxCell>
        <mxCell id="MTrl5ynQiznJmTlUDSWs-4" value="대기 | 요청" style="swimlane;strokeColor=#d79b00;fillColor=#ffe6cc;" parent="1" vertex="1">
          <mxGeometry x="49" y="330" width="210" height="380" as="geometry" />
        </mxCell>
        <mxCell id="hDPYIisuoytdxOGGVnbc-3" value="    폐기 | 완료" style="swimlane;strokeColor=#666666;fillColor=#f5f5f5;fontColor=#333333;align=left;" parent="1" vertex="1">
          <mxGeometry x="1130" y="50" width="610" height="940" as="geometry">
            <mxRectangle x="1130" y="50" width="90" height="23" as="alternateBounds" />
          </mxGeometry>
        </mxCell>
        <mxCell id="b3EFWp87HoEQgZqNGqgz-4" value="장착된 마석에 소유자 표기" style="rounded=1;whiteSpace=wrap;html=1;" parent="hDPYIisuoytdxOGGVnbc-3" vertex="1">
          <mxGeometry x="10" y="40" width="159" height="60" as="geometry" />
        </mxCell>
        <mxCell id="EdSWONilKh17CuWe-m5M-2" value="아이템 아이디가 같은 각인석이 다수 존재할 때 의도한대로 클릭이 되지 않는 이슈" style="rounded=1;whiteSpace=wrap;html=1;fillColor=#f8cecc;strokeColor=#b85450;" parent="hDPYIisuoytdxOGGVnbc-3" vertex="1">
          <mxGeometry x="10" y="110" width="159" height="60" as="geometry" />
        </mxCell>
        <mxCell id="EdSWONilKh17CuWe-m5M-4" value="마석 슬롯 클릭시 장착된 마석이 있을 경우 마석 리스트에 있는 해당 마석을 눌렀을 때와 동일하도록 처리" style="rounded=1;whiteSpace=wrap;html=1;" parent="hDPYIisuoytdxOGGVnbc-3" vertex="1">
          <mxGeometry x="10" y="180" width="159" height="60" as="geometry" />
        </mxCell>
        <mxCell id="b3EFWp87HoEQgZqNGqgz-2" value="본인이 장착한 마석에 대한 예외처리" style="rounded=1;whiteSpace=wrap;html=1;" parent="hDPYIisuoytdxOGGVnbc-3" vertex="1">
          <mxGeometry x="10" y="250" width="159" height="60" as="geometry" />
        </mxCell>
        <mxCell id="EdSWONilKh17CuWe-m5M-3" value="현재 각인석 상태에 따라 다른 아이템 디테일 창을 띄우도록 수정" style="rounded=1;whiteSpace=wrap;html=1;" parent="hDPYIisuoytdxOGGVnbc-3" vertex="1">
          <mxGeometry x="10" y="320" width="159" height="60" as="geometry" />
        </mxCell>
        <mxCell id="b3EFWp87HoEQgZqNGqgz-3" value="장착된 마석 우선 정렬" style="rounded=1;whiteSpace=wrap;html=1;" parent="hDPYIisuoytdxOGGVnbc-3" vertex="1">
          <mxGeometry x="10" y="390" width="159" height="60" as="geometry" />
        </mxCell>
        <mxCell id="EdSWONilKh17CuWe-m5M-6" value="장착 마석 제외 필터" style="rounded=1;whiteSpace=wrap;html=1;" parent="hDPYIisuoytdxOGGVnbc-3" vertex="1">
          <mxGeometry x="10" y="460" width="159" height="60" as="geometry" />
        </mxCell>
        <mxCell id="6kkVd8V_ymKgZ0_L0vxy-3" value="My Comment" style="swimlane;" parent="1" vertex="1">
          <mxGeometry x="49" y="730" width="1071" height="260" as="geometry">
            <mxRectangle x="49" y="720" width="100" height="23" as="alternateBounds" />
          </mxGeometry>
        </mxCell>
        <mxCell id="KfCYHrgsOKh0RXw9eGPa-2" value="&lt;h1&gt;Memo&lt;/h1&gt;&lt;div&gt;&lt;br&gt;&lt;/div&gt;" style="text;html=1;strokeColor=none;fillColor=none;spacing=5;spacingTop=-20;whiteSpace=wrap;overflow=hidden;rounded=0;align=left;" parent="6kkVd8V_ymKgZ0_L0vxy-3" vertex="1">
          <mxGeometry x="1" y="20" width="1070" height="240" as="geometry" />
        </mxCell>
        <mxCell id="oumLD8d3DvaTa1NXrWpt-27" value="Tool" style="swimlane;horizontal=0;" parent="1" vertex="1">
          <mxGeometry x="850" y="50" width="270" height="380" as="geometry" />
        </mxCell>
        <mxCell id="oumLD8d3DvaTa1NXrWpt-31" value="" style="group" parent="oumLD8d3DvaTa1NXrWpt-27" vertex="1" connectable="0">
          <mxGeometry x="31" y="90" width="220" height="80" as="geometry" />
        </mxCell>
        <mxCell id="oumLD8d3DvaTa1NXrWpt-28" value="" style="rounded=1;whiteSpace=wrap;html=1;" parent="oumLD8d3DvaTa1NXrWpt-31" vertex="1">
          <mxGeometry width="159" height="60" as="geometry" />
        </mxCell>
        <mxCell id="oumLD8d3DvaTa1NXrWpt-29" value="" style="rounded=0;whiteSpace=wrap;html=1;" parent="oumLD8d3DvaTa1NXrWpt-31" vertex="1">
          <mxGeometry x="100" y="60" width="120" height="20" as="geometry" />
        </mxCell>
        <mxCell id="oumLD8d3DvaTa1NXrWpt-30" value="" style="rounded=0;whiteSpace=wrap;html=1;" parent="oumLD8d3DvaTa1NXrWpt-31" vertex="1">
          <mxGeometry x="100" y="40" width="120" height="20" as="geometry" />
        </mxCell>
        <mxCell id="oumLD8d3DvaTa1NXrWpt-32" value="" style="swimlane;fillColor=#dae8fc;strokeColor=#6c8ebf;" parent="oumLD8d3DvaTa1NXrWpt-27" vertex="1" collapsed="1">
          <mxGeometry x="31.5" y="180" width="50" height="40" as="geometry">
            <mxRectangle x="31.5" y="180" width="219.5" height="60" as="alternateBounds" />
          </mxGeometry>
        </mxCell>
        <mxCell id="oumLD8d3DvaTa1NXrWpt-34" value="" style="swimlane;" parent="oumLD8d3DvaTa1NXrWpt-27" vertex="1" collapsed="1">
          <mxGeometry x="31" y="260" width="50" height="40" as="geometry">
            <mxRectangle x="31" y="260" width="219" height="50" as="alternateBounds" />
          </mxGeometry>
        </mxCell>
        <mxCell id="Fb32EvJjGHJRLybvlaYY-3" value="Text" style="text;html=1;align=left;verticalAlign=middle;resizable=0;points=[];autosize=1;strokeColor=none;" parent="oumLD8d3DvaTa1NXrWpt-27" vertex="1">
          <mxGeometry x="220" y="20" width="40" height="20" as="geometry" />
        </mxCell>
        <mxCell id="tH88tRurDEZZYX3UZ1Wb-1" value="" style="rounded=1;whiteSpace=wrap;html=1;" parent="oumLD8d3DvaTa1NXrWpt-27" vertex="1">
          <mxGeometry x="31" y="20" width="159" height="60" as="geometry" />
        </mxCell>
        <mxCell id="8vmb4RLjWRvc2X2qJKQM-1" value="" style="rounded=1;whiteSpace=wrap;html=1;fillColor=#f8cecc;strokeColor=#b85450;" parent="oumLD8d3DvaTa1NXrWpt-27" vertex="1">
          <mxGeometry x="101" y="210" width="159" height="60" as="geometry" />
        </mxCell>
        <mxCell id="G6Y90BfXApPEU-ohdSH0-5" value="" style="shape=image;verticalLabelPosition=bottom;labelBackgroundColor=default;verticalAlign=top;aspect=fixed;imageAspect=0;image=data:image/png,iVBORw0KGgoAAAANSUhEUgAAAi8AAAFpCAYAAABUPcioAAAAAXNSR0IArs4c6QAAAARnQU1BAACxjwv8YQUAAAAJcEhZcwAADsMAAA7DAcdvqGQAAGarSURBVHhe7Z0JYBRF9sZf7oQEwiGI3CooqHgtIIIiIAuCon8VWFQU8VZWRUA5V+5LBUFFEXVx1dVdF3c9cHU5dBUEvFY8EBA8QEBuyEXu5F/fq+7JMMwkk5CEmeT7QaW7q6ura8765r1XVRFt2rQpFENERAQ2HnyPjweFhdq0I9oSqu0Cx7ttodquUCaUnzO+/0sH3/+lJ9Tf/6HaLhBqbQv11xKUR9vi4uJ0G6l/CSGEEELCBIoXQgghhIQVFC+EEEIICSsoXgghhBASVlC8EEIIISSsoHghhBBCSFhB8UIIIYSQsILihRBCCCFhBcULIYQQQsIKihdCCCGEhBUUL4QQQggJKypdvFx//fXy3XffaRo3bpyTSwghhBASHLS8VCKNGjWSu+++W1Pfvn2dXEIIIYSUBoqXSqRx48Ye8XLllVc6uYQQQggpDRQvVQgsLx4ZyZeUEEJI1aZCerrbb79dY1quuOIKJ6dkPvroI71m1apVUqNGDRkzZox8/PHH8tVXX8lf//pXOe+885ySRbRt21aeeOIJWbZsmZZbsWKFTJs2TZo3b+6UsLzzzjvy7bffyocffigtW7aU559/Xj7//HNZuXKlzJw5Uxo0aOCULCIxMVHuv/9+WbJkiXz55ZeyevVqefbZZ6Vdu3ZOiSJq164tI0eO1LJffPGFfPLJJ/LMM8/I7373O6eEyLvvvisvvPCCcyRywQUXyDfffCMTJ050ckQSEhLkrrvukn/+85/y2WefyZo1a/SxDxgwQKKiopxSlrfffluvx+No06aNvPbaa/ocnHnmmU4JQgghpGpSruLllFNO0S0sACA2Nla3derU0W0w1KpVS0XCDTfcIPXq1dM6zjnnHHnuueekSZMmTilRtws69m7duknDhg0lOjpaRQjyX3/9db+dOOpbtGiRCof4+HgVHZdffrm89NJLel+X5ORkrfu2225TIYQ21KxZUzp16qTC59JLL3VKitSvX1/+9re/yeDBg6VZs2aesp07d1ax0rt3b6dk8SQlJclf/vIXueeee1RgoX0QUBBo48ePl9mzZ/u1qsTFxenzhccLgbN9+3bnDCGEEFI1KTfxctZZZ6k1AFaO7t27a95ll10mf//732Xp0qXaGQcDOmh0yLC83HvvvfLzzz9rPq7v16+f7kMcwdKBbUFBgTz++ONy5513quUDwHLz4IMP6r43KL9r1y61qIwaNUp+++03zUcsCoSKC+o+9dRTdR+WlD/+8Y/yyCOPSH5+vgqEP/3pTxITE6PnMWIK1wNYZ+677z6ZM2eOlsVjweOAsEJ7YOVxWb9+vQqeP//5z3qMe7Zu3Vr3YYEaPny41r17927Nw3MKQeePnTt3ahtvuukmOXjwoJNLCCGEVE3KTbxAGMBd0rRpUxUyAJYKuDS+//57OeGEEzQvGCAAIII++OADdb+4nHbaabqFgHAtJRAgEAAQDhMmTFD3E9xNe/bs0fO+PPTQQ1rvv//9b7VouLguLlg73P3c3FwVEajz5Zdflv/+97+aj8cCaxC2rlBLS0uTYcOGaZkXX3xRBRuAdQdCCM/B5s2bNQ+kp6erm2fbtm0qttwAXtxz6NChsnz5cn0ORo8erfkAw8z9gcfhutgIIYSQqk65iRfElMD6MXfuXCdHpLCwUK0BsDCUxp2Rl5fn7InH8gAgLADOIzYGwOoB98zAgQPVbQXhg84fIsUf2dnZzp5ovMjhw4d1H+4fCI3TTz9dLSUgJSVFhcyNN96oCe4kl5NOOkmFmesiW7dunWRlZek+gKXmmmuu0bR161Yn1z+wuLj3hNXF23qCeBsIHYDH6s8F5z4GQgghpDpQrjEvJ598srovYD2ACwcd+4gRI44KNi0NcAu5eMd8jB07Vt566y11z3To0EFdLP/4xz/UqoKhyK5bpzggrg4cOOAc2Xgb79gXWFYggtzkHazrxra4HDp0yNmz7N+/X7Zs2aLJW9T4w7sef24f7zzvsoQQQkh1pFzFC6wRsGzA6gBxgXiRunXrlsplFCypqanqLunatavGk7zxxhtqKUFQLoJecf9gQKCsC0SGtxUD1iKM/vGXYPlxLSLA2ypTWuBycvFnWfHO8y5LCCGEVEfKVbwg7gSjdzBsFxYTxItce+21R7h+ygPE1CD4Fen888+X999/X4ccw8WTkZGhZdAOf6NzvPMQiwJXEcB1+/btkx9++MFj7cHoJVhOEMvjm/CYNmzYoNYbgBgYd3QVeOCBBzRuBcmN1YGVyMV1N4FNmzZ5XGUYNeS2CWCIuCuwEJjLgFxCCCHVnXIVL8DbfQKXTEkuk7IA60OfPn1UoGDkEIYzQwy0aNHCIyDguvJ2OblA8GD48u9//3t57LHHnFxRkYHyaL8bbIu6MEQbwbRwTeG6Rx99VIctg7179+rcMQCWF+RfdNFFOirquuuuU/GDYFwE5QJvEXfGGWdofYixgXDCSC2Aez711FPSo0cPFWOzZs3SfABRSAghhFR3Itq0aaOmA29LAPA9Li8wYsZ16aAzxqRyACN64PIBcAXBCgKrBiwrGOkDMJoGAcAAQblw37hAeHhbVaZMmaLzvQCM2oGwARA1vvEwsGZgIjgMowawfGDOFXfeGl9gQcH8MrgOgb5onztc2hu0Ca4tdwg32oc2uZYYgLYhXgfWFYyacodL+4LnB6OZXOsNxI77mDAkHVYZ1wpUWa9lVSCUnzN/bQvVdoHj3Ta+/0tPqL//Q7VdINTaFuqvJSiPtmEqFVDulpfKYv78+TqyaO3atWqJQaeODhyz7WJ0kytcfEEAMUYZITYH18HiMmjQII9wAbC+QGQtWLBAfvzxRy2LhFFDCAqGVcUN9IX1BSOdIHZgYYE4QiwMYmJuueUWj3ABEDNwpWFYM2J2YJVCeYBr0O6nn37ac8/MzEwdfTR9+vQjhAshhBBSnal0y0tp8KfWytIub8tLr169VOQcC1TeVYdw+7USqu0Cx7ttfP+XnlB//4dqu0CotS3UX0tQHm0Le8sLIYQQQqonFC+EEEIICSsoXgghhBASVlSLmJfyhj7PqkO4+YlDtV3geLeN7//SE+rv/1BtFwi1toX6awnKo22MeSGEEEJIWELxQgghhJCwguKFEEIIIWEFxQshhBBCwgqKF0IIIYSEFRQvhBBCCAkrKF4IIYQQElaUSryce+65zh4hhBBCyPEhaPHSqlUruWXIEGnQoIGTQwghhBBS+QQlXqKjo2XgwIHSsmVL+f3vf6/HhBBCCCHHg6DES4sWLeTcc86R2NhY6XThhXLCCSc4ZwghhBBCKpcSxQusLBd17ixJSUl63KRJEznzzDNDYr0EQgghhFQ/ShQvJ598snTt2lWioqL0ODExUXr06CH16tXTPH8pMjLoUBpCCCGEkFJR7KrSECJDhgyRAf36SaTZd8nNzZW3335b1n76qRQUFGieXm2uwTY9I0PS0tIkPT0duWXG76qi+ufIvMom1FcVBce7LeFOKDx/fP+XDr7/yw++/wNTpd7/5pq8/HznoOII5jmDrggGd1XpiHPPPVdrzcnJ0QwXVFqzZk0ZN26ctPvd75xcQgghhJDy5f+uvtrZKx6PePlt504VL5f26KEZLhAvxVlennv+eVm2bFmR5SVYpVcKqLxLR5mUN/FLKDx/fP+XDr7/yw++/wNTpd7/5poqaXkBmN9l3NixGqjrsn79epk2fbrs2bPHyakY/D3goF+UCiTU37yh1q5QJpSfM77/Swff/6Un1N//odouEGptC/XXEpRH21zxEpmdnS1Igfj555/lU6/YloyMDHnvvfdk3759ekwIIYQQUpmUOCwoLy9PPl65UjKc4NsdO3bIN99+6xEzhBBCCCGVSVBjmjdt2iT/W7dOfVJffPml7N271zlDCCGEEFK5BCVeYH3529/+pi6kFStWBB1YQwghhBBS3gQ9m9zmzZvllVdeka1btzo5hBBCCCGVT6mmwl29Zo2zRwghhBByfCiVeCGEEEIIOd5QvBBCCCEkrKB4IYQQQkhYQfFCCCGEkLCC4oUQQgghYQXFCyGEEELCCooXQgghhIQVFC+EEEIICSsoXgghhBASVlC8EEIIISSsiGjTpk2h7kREaIYLjiMjIzX5niOkqrB//36pV6+ec0QIISSUiIqKkujoaOdIJC4uTrcBLS+4AInChRBCCCHHg/z8fMnLy3OOiggoXihaCCGEEFIZJCUlOXtHAwHjC8ULIYQQQsIKBuwSQgghJKygeCGEEEJIWEHxQgghhJCwguKFEEIIIWEFxQshhBBCwoqQFS8tWrSQN954Q4YPH+7k+CfYcuFGVX1chBBCyLFS7uKldevW2unee++9To5l1KhRmt+sWTNp3Lix7rvptddek0mTJsnpp5/ulLYznz7zzDPy3HPPyS+//OLkBubQoUNBlatoMCPxiy++qI/rd7/7nZNbMv/3f/8nV199tXNU+sdPCCGEVBcqzPJy4MAB2bZtm3NUxMaNGyU7O1v3N2/eLBMnTpSFCxdK06ZNZfLkyWpxAGlpafL+++/LTz/9FFbTt59zzjlSs2ZN3T/zzDMlNTVV90vCFS+7d+/W43B9/IQQQkhFc0zi5fHHH3f2ysb27dvlH//4h7z++uvy0EMP6foFf/jDHyQ9PV1FzFtvvSUzZsxQMdChQwe9H6w0TzzxhHTs2NGp5UhOPfVUmTZtmvz1r3+VJ598Ui677DLnjMiFF14oTz/9tLz00kvSp08ftY7AQoR87F9//fVaDnXg2HXZwCI0c+ZMefXVV2Xu3Lly3nnnab4/Lr74YiksLFSR9vvf/14OHz7snBE544wz5JFHHvHU41pmYKnBY0xMTJRVq1ZJ7dq1j3r8gR6Xd9thvULdY8eOlYSEBD1PCCGEVDXKLF6OVbi4xMbGSv369WXfvn0qWtDB79q1yzlr3UEQAyNHjlRxA1cKrnnggQeOWKwJwEIBS85JJ52k7hZYMW6//XYVGyeccIJeEx8fLy+88IJccMEFeg0sRLg3QPnffvtN9wHuDQvIww8/rNcvWLBA11hAW9AGX2JiYlRkffvtt/L3v/9datSooQKloKBAr0c9tWrVkmeffVbLjxgxQq95+eWXJTMzU7KysrT9n376qWc6ZLcNgR6XS7du3WTt2rXyzTff6D3bt2/vd0plQgghJNwpk3gpL+HiS05OjooCb2sFQAc+ZswYGThwoFopYJ2AcIE48F6wCZYO5KF9Tz31lLqhQK9evaRt27a60OT8+fM14Xww9OzZUwXPv/71L3n33Xflo48+0mMIidzcXKeUpV27dmrxeO+997SN4PLLL1fXESwyECqzZ89W6w/a+MEHH0hGRoa6h1AXEiwrdevW1dgZl+IeFwQfgAXr0Ucfleeff16PmzdvrnEzhBBCSFWj1OIlWOHiuzaSewwrSiCw1DUEjG8ZCJQrrrhClixZoi4SWBkABAzKu0BQAMTaNGzYUAUArm3UqJG6ZNxzDRo0kDp16uhxSbh13nLLLbJ06VK5+eab9RjXu8LB5aKLLtIt7o34FZzv2rWrthGWF7Bjxw49v3XrVn0ud+7cqW10nx9sYYnyfv6Ke1ywyrhA9LiLW0FgwZpDCCGEVDVKJV6CES4pKSm6PeWUUzwiBB0xRhiBQNaA0047TQXGhg0bjui4AQRDly5dZPr06dK7d2+1gLh4Cx3X5dOkSRO14EBgQOBAILiuIQgXiCRvXBEC64Yve/bs0S2sHYg7cRMsQN5WH1hc3BiWwYMHyz333KNCAvdCfI57fwgOtO3kk0+WIUOGqPvKjU/xfdwuxT2u4lxDcFcRQgghVY2gxUuwFhd0tN99952Oupk1a5ZcddVVMn78eO20V6xYoTEmcN8AdMZwBSEhyBQd8Zw5c44KNnXjSxCkOmXKFBkwYIAeww3jzbJly9TldN9992ngrxtwi/iT1atXq9CBqMD1N954o54DW7ZsUSHSt29fFRRILqgTsSj333+/Pg4Ezb7zzjtqZYGFxAUiBO2BS8oVOAgKBqgXggsWmGHDhkn//v21vn79+ml8D0ZfHTx4UMUOhpS7j9eluMflPpeEEEJIdSEo8RKscHGBaIFlAqN0IEzcYFd02MnJyZ5A21atWmlnDYHz448/yk033SSff/65x03igjiQr776SkfWYPgxRgsBb+sOgFUHQbFwr2D0DYJj0RbEqyBuZt68eWqNgHjASCcXXIfh2qjrmmuukcWLF3uGcyM4FnViyDIeS/fu3VWg4XpvywtiWgBcSyeeeKKce+65KsJgHencubOKFATdwgIzaNAgvRZiBAG2sLhgFNXevXvluuuu03sH+7jcYdmEEEJIdSGiTZs22kv6uix8f/2XFlhR0PFDNCAQ1XV3wG2DmA1YMzCc2AX3h9sGwsWN20DMxqZNm3ToMNxOmKwNFgiIAnTgEAQoj323HIYYIwgWogHXwxoC8eRaSSAEcB1iUSCoEOCK0T+YPA/Cwh3pBEsRBArq9q0T1g64uNAmb+sPBBhiUOAC83ZBwRUGqwuEF66H+MHjx3OC++AeAC433BPPHYQfhFYwjwvPMZ4bPLeoz33eIBThniKBwfuB8+gQQsjxBf2+bxypN264h7utMPESitx2221q8UBnf+mll2pHDysI3EZuTA6pXlC8EELI8ae04qXUo43CGVg7EDyLmBdYJ+CyWrNmjcfyQQghhJDQp1pZXgDcLgiOhWsGjxGuFgwxJtUTWl4IIeT4Q7cRIaWA4oUQQo4/dBsRQgghpEpD8UIIIYSQsILihRBCCCFhBcULIYQQQsIKihdCCCGEhBURp556aiFGFvmONnJXQSakKoPZjn2XoyCEEFK5YFZ6zKAfCHfJHs9oo+KGJhFCCCGEhBqRWD+HEEIIISRcYMwLIYQQQsKKiPr16xcivoUxL6Q64hvzEh0dLVdccYV06tRJV/MmoQEWU129erUsWbJEF1clhFQtSh3zon8JIcqVV14pffr0oXAJMfB64HXB60MIIRQvhHjRuXNnZ4+EInx9CCGA4oUQL2rWrOnskVCErw8hBFS4eKlfv74sWrQo6Biabt26HdMqv8nJyXq/s846y8kRadWqlUydOtU5IqT0vP3223LJJZfImDFjZNeuXXLTTTc5Z46Nbdu20ZpQAfz7o0RnjxBSFalw8dKxY0cNsLvgggucnOKBeKlbt65zVDK+gcYuN954o8TExDhHhBwbr776qowbN05mzJghDRs2lJdeesk5Q0INV7hg650GDYnVfEJI+FMp4uWNN944Srx07dpVpk2bpp1B7969NW/IkCHaMdxxxx3Stm1bzcOvUpSbPn26DBw4UMUKLCnIGzZsmAbx+QKx9Msvv8jll1/u5BxJjx499PpZs2bJgAEDNA91TpgwQW6//XZ59NFHZejQodKuXTuZOHGitrFFixZaDqBNsOSgTT179nRySVVl8uTJsmHDBn2/rF279ghryZdffqnvy9GjR+t74dZbb5WsrCzNx6ilu+++WxYuXKhlX3nlFX1Potxjjz2meaT86XNJhm6b1FlzRLr+5hjZvXu3niOEhDcVKl6aNWsmWHrgP//5jyQmJnqGpDZu3FhHDaDzh2Do3r27iha4e2CSx5f9t99+q+X79++vncaf/vQnre+iiy7SOmrVqiXPPfecvPvuu3rsy2uvvaZWnBNPPNHJscTHx0vr1q21Qxo/fryKK9QL4NrCdfiF3bJlSznjjDNUvCxbtkyuuuoqLdOoUSNt08yZM7WOXr16qWuMVF0efvhhfT9AsOL94svWrVvlwQcflKVLl0pubq6+38G+ffv0vQsxjiGAn332mSxevFiH+yJBEJGKwRUwZ599ticBihdCqgYVKl7wRY9fqoWFhfrF7Vpf2rRpI+vXr5eMjAzJycmRSZMm6Re9LxAP3333naSmpkp+fr6sWbNG80BKSopeHwjMC/HWW28dFZuAX8XoQLp06eKx2iBOBqBOLJeANu3YsUN++OEHzccvbVegoO1oC35tDxo0SKKioqRp06Z6jlRPIHrdOC2IHAhwgPcMRDbAHAbDhw/X9x5ENz4T/t7zpPxwBQshpOpRYeIF7p0OHTqoe2jOnDlqMfH3qxVAMAQ78VSgGBd/fPjhh2pp8b5v8+bNNegSImbz5s2SmZnpnDkSdC5I7j5EiguEDX5lI+Gxbdy40TlDqjt4f/pbcgNWlhtuuEFFzPnnny9JSUnOGUIIIaWlwsTLaaedpjPi3XvvvfqLE1sIAIgHfJHDgpGQkKBBtXDNwG0EYHZHPvj+++/lzDPP1OGRkZGRarmBxSZYIDpefPFFtbK4wEUES8rKlSvVhFzaoZebNm2SJk2ayP79+7UedFTFzQpICMB7Ge7Ka6+9VuOnDh486JwhFYVvwO6rL+Y6Zwgh4U6FiRcIDbiMvIHrCFYQWC7g80fMCVxGKOea2rF/2223qbjB1O0wsyMYEvEGuO6TTz7RcsHy66+/yvLly50jkXXr1umvX8Tb9OvXT/bu3esRS8Gwfft2efPNN2Xs2LEyZcoUueaaa9S6Q0hxIK4rLS1NXZWzZ89WAcwV3SsWxL14B+w+9MAXR8XAEULCE65tRKo1vmsbuSODSOiCAGhCSNWCaxsRQgghpEpD8UKIF3DtkNCFrw8hBFC8EOJFaWOqSOWyevVqZ48QUp2heCHEC6xhhABvzC1EQge8HnhdMHcTIYQwYJdUa3wDdgkhhFQ+DNglhBBCSJWG4oUQQgghYQXFCyGEEELCCooXQgghhIQVFC+EEEIICSsoXgghhBASVlC8EEIIISSsoHghJACFhYVMXokQQkIFTlJHqjWBJqkrKCiQ/Px83Vb3jhvfDZGRkRIVFaVbQggpb0o7SR3FC6nW+BMvECt5eXmSmZmpWwiY6gwES3R0tCQkJOjW97uCEEKOFYoXQkpBIPGSk5MjGRkZ+oGZOXOGfj6QH2H+4b+LNcrgjznj06dreec6b0pbl2++W6/mmmw3z5ui+3pVpHUA//X7ttUei4wePVq/MBITEyU2NlbzCSGkPOHyAISUE3AbIaGz93TqKhTcBAFiO/kjcM754paz15l95zK3qD2tZzz123qssPC+jXvezfNtg15ma9Iy9jTqcOpx7glwWHS9W6boMRc9D4QQEhpQvBDiB7fjLsJ27sh2u3mAUt5FVXA4+64gUDFg/tk6VSqYMraUtwBx72nP2bLuP+/2FAkN5344V3RasUVsHZ4yqBlFtbjdd69z6yhqi3sf91qnDCGEhAAUL4SUgO3P0XE7nblz7HbuRR2+zbOHRYJDtybTyhBbi6eUc7G3MNA6nLo11xbBoS2nme79nZNuGYPmH3GhVzmD3cM9UMz+01wce9VPCCGhCsULISWhvb3t8osoOrbCwwoA7FsxUNT5Q0xYTVD0z71cyxcVVWweMlHIntQ6dM/W41ag+sVg6/Bqk/PXnseRzbGCxRsUsNfZe+K8uc78820XIYSEChQvhARFkYXFdv/eAsMfRYLAioCjlQDOQZSofNDK3brcbdE1qKPo/sBk4L8WsVYUrcHs2HqRj/NFdaCEPbapqJzdoiVuO6xAIoSQ0ITihZAScAWCdvbmnz1yO3p7ZHE7fPcYoJz564gCe721arhCQ6WEl5Aoqsdiy7pbe71iNji01+EqK5RsvXarhdzynnptO9xyAFt7vSNk9Fq3PCGEhBYUL4SUCDpxJPTqODadvnb02LfnbGfv4uRpYSsIkGw+sPs2D0LBigV77NZTVN8RVStuPWYP1ziH9n4uRfd0r8c93DJ6Rq+zF9syrqBx8o6ojxBCQgeKF0JKIDouQaJiTYqLl8jYeLMfp1tNMXYr0bFOihOJMclsC81xYVSMs42VArOvKRIpWrf5JuVJlOSaj2JeRJTZN1v32GwfH3mTvDTlDskpiJScwgizNakQ+5GSbfaz8yMkq0DMVsy2ULLykcy+J0XI4dxCycxDKpCM3HzdugnnDuea/BykPCcVSHp2nqTn5Os5QggJNSheCAkGGCGsIcOxVYCiPaCWDS9jRWGh6fjV2mHxtWTgas1xs72qQ9bfp90mCfHR8vNvaTLm1n4y9tb+9mShtfrAQmItPo61xIgb/NN8LYi/2LcV2+aYPK/7WFCuwFNXUQF7H0IICTUoXggpgQJ04KYX13/Y6rFmFeXZInZflxOwwgLHBThhKDDqAYJGy5qkkgGKwjkPoQNwBOEC9hzM0jpqJURpskVdGYT67b1wLe5ja8I+qrXrMrnV4yz2cahbzdcj7Hjl2dpt/fYcIYSEEhQvhJSAKwBUZ9gMKxSQjErAOZzAcYFzDPGQ7+oSHDv5hYVGEJh9HOuij6ZMgebZMm69P+5M0+TSomGSJNeMlScfGmTKFNhy5nrcB/UW5MPCYkSHk29vZi5EwsarLW4Z7/ajXfakxeY5dRJCSIjBtY1ItSbQ2kZYRyMtLU23jz4+F7n2pNOZa8eve2qfcDr/IowMcXc85SAIUFb3PRnmOrNxXUzIGnfbAC1TMz5SWjaupfv7UrNl/rwJ8nV6C3uJXgPrjjmp9UTqcRFWlBThtg/5Xif0ev1v8T6l9ymUSePHSnx8vNSsWVPXFfH+rsB+rVq1dN0jrDpNSKiAJS2wPllqaqrPZ4OEIlzbiJByBl97sEGgp9d953vQIwdc4WLy8SVpLR/o+Z1rcFhgasA5LWOyHUuItXw4QkOTdRFBuPz1z9Nly45UtcBAuKCAlocuMuVQu70e97AVu1/SWsZps3e73POu/sAhkh5i615iKnDLFgeECxKFCwk18J5035+k6kHxQkgJWGGALdwzcPUgWRFhxQO2cOGoYlANYt1CNtm4FJvvigXsOzm6B6xYiJDUzHw5ITlO3n7tDSNgpskrL0zTi15+/lXH6uHUp5fi2NajcsbsqnjCMQSIR7CYhKIAZZwsTUD3TXv18dlMFTz2JgGBxYWQUIbv0aoJxQshJeCO4FF54JgmIBQ0Rzt4IxYcUwb6eu3vVUeoIvDkQxPgyBO46+S5gbZ6rREmU5/7m/y0K1NOP725TJs6354w9bX9wxhz3pTANSiv/9x6cUO0Azn2Ej1pm1t0bBLuYUWNkyC8cKwFUEYLmYQLUUFgaHEhoQ7fo1UTihdCSsC1qLgBtbabN/9UVEDYmHP5Jt8Uc8WMa62xeY4AgCAwGdAXqg9wrMm6fXAt6sHtpi78m1w/+Q1pkFxDHnlkgSkEIWH+o15n3z1WcQXxYY4L8m079TTaYuoqapfZR4a5H6rRqlBXUXWeZEqZLf5h7/hx0UUXyZNPPil33HGH1K1bV8aNG+ecOTZOPPFEmT/fCMMgue222+Syyy4Lqg2lrbui8G5Hy5YtZebMmbpfEqHSfkKKg+KFkBKBOMBf+w8qwOOayc83h5AzOLb71ggDMVEkBQoKzTlzXpWLWkcgJpw6zDndmnK4dsiN18kdt9yo189ftkleXfWLfJXaVEu4lhJN5h+uKyjIs/l6jIY6W+ToPWzS+6O8uR/sRkj6wNx2QvTgsZm8CLRXE649fvTo0UMee+wxFQ7vvvuujB07VpYtW+acPTbwWN944w3nqGS2bt0qq1evDqoNpa27ovBuBwJYlyxZovslESrtJyQQUYmJiRMR5es72gh5hFR10tPTdRSNL/iiz8nJ0W1304Gi6y8oQGduO3gVNOjkIyL1sxMZic+PkTZmH5YPb7Q8ThsdoOIHySkCwYHzduhzodxz+xCJNHXivvY+lvfeeUuuuPJqcymsJkXCxRRClrk/foegHXbreI/0VnAJqVtI89z2Rzp12Kbgsdg2aAkt6w6fXvnf/0p0dLRG+WPr/V2RnJzs7In07NlT7rzzTo+F4rvvvpPTTjtNhg0bJqeffroMGjRIj9GWe+65R/r06SObN2+WQ4cOOTUcyc033yznnHOOtG7dWl+LM844Qx5//HHZuHGj1vPHP/5Rz11//fVy3nnnyeeffy6nnnqqPPTQQ3odRkxu2rRJevXqdVS7kpKS5JJLLpHZs2drvf644oortJ0dOnSQ2rVr63UYvfLiiy9qG4C/x+xb98UXXyxDhw7Vsg0aNNAyAMLsvvvu0/pbtWolLVq0kA0bNug5b1B/w4YN9bnCY+nfv7+sWrVKGjduLLNmzVJRV1I7YMHCc7RgwQLp16+fjB8/Xj755BPPCA5vgm2/v3y8LnfddZe0a9dOBgwYICeffLJ89dVXznvu+IERRyS0iYmJkdzcXOfoaPCdCPAdBGh5IaQEXGuL22njixhWDBUdjqCBuwcqAN/RKGfLQuDYL2290vyx8S2mPOQQzpn/Rv6oYImMjDIf3jzTUedKXl6+iiDncskynbfrvjIl9RrFbJCtAsXs5LvtwX20bvMLxQgafOCjo4zwwL3MMcSKWw6PwX4vmMpU9VgxBj1mxVbJQNi0adNGBg4cKGeffbacf/75kpmZqefQmQ4ZMkS6dOkiTZs21eObbrpJO8dOnTrJgQMHtJwvEAkQH3DZPP/887Jv3z5ts2sRQIeJDrtz584qgCBC8Txge/XVV8uIESPk559/Dtiu4oAw6N27t3bAF154odbvXue2objH7NKoUSP5wx/+oG4vlIEwaNasmQor1I3nAeIlNjZWtm/fLt98841zZRHIw2P9/vvv9R7169dXoQbB8+WXX8r7778f9GPE84/nbNKkSfr8lvRcBGo/phfwl+9eM3jwYOnYsaO+75o0aeLpeMqLCRMmFJtI1YfihZASQHeOzhx6xHb6RiiY72IIjFyTcsyvhTzz5ZyTl2vEgP2SRgcXaS5QAaD9vyto7Dn1HjnHBc65u269SetE/QAixwV13XXLYMnMypKs3GzJzs3RsvmIkTHXw9jjCg0IEtQHiZRnGoq25RlRZF1NuG+UxETHSKz5pROnKU7iTOcZHRWl98GdTVEjhMz1+XlaZ0ngF/xf//pX6d69uzz11FM6Lww6LMyVg47/119/lTPPPFMFyIoVK2TXrl3a4cEi46/DdsFIESR0hL5zT6Hen376Sa0suD+sE7t375aDBw9q/RBGp5xyit92paSkOLX4BxYEWAzWrFmj1/r75R7oMXvXDcvF//73P/nwww+la9eualmBVQIWK4gRPBdu/bAu+ePbb7/Va3A/WID+85//qKBCHMt///tfHQoczGOEAILbCGLn2WefVWtMQkKCc9Y/gdqP59pf/s6dO/V12bJli4ooPEZYfPA6lScQX4Eo7hypOlC8EFICKjLUhRJpOvdIiYqKVjGDUQw4hiJAJ5+XV2A6mFyTcoyoydOEvPx8uG0gCGDpKLJ42HwjVgpQLlc7HKs/9I+W08qVCD1fw3RMcTGxKj703hAo5t75JuF+6h4yCfXiUggaK0gijJCx+Vk5WZKZnSUZhzPlcFa2Oc5Wcy3ORZjHFW3qjomOMoImTuKdCaFKonnz5jJ58mSpV6+edqjowIDbIaNDhaUCjwkdJjpS7MPiANddWUG9qM+tN8uIOzcfdQdqlz93iTcwYUNQoJNGu/Ee8O3og60b1g3UgzYBiDbk4XHDiuK66AMJCZTbu3evuscgqN566y11/cAl8+9//1tdPMG0A0IS4gXuKYhGvAbB4K/9EEb+8vfv36/7yEPCexbt2rNnj+aXJ/5ECoVL9YHihZAScEfvaJArTCkGdcVERWonHxsbYzp6pGi1ZkSafHR20AwRppyNQ4F9RSRa900+zkP3mIpzjYj54123qSXFg97Gig7QoaXtIOAjilLhhPtHaUJHC0GlIsuUx0bba+4FgaXxKqZ9CaYTTohLkCTTSdaIM51+fJy5FsNIYbnJk+zcPNP55xhRc1jSTcfkboMBHSJ+bSPeZMeOHeoaCnaIqhVpx459/EdS1nbBUgBLgjsBH9xIvgRTNywPcAuhA8f7ANYguHxgbYK7BdcgH+6c4oD1BbEkcFch9gXWDIiUH374Qdq3bx/UY4TYGDNmjJ6DEArmeQ/UfgQu+8sHsCqhDXg9UAZ1qDCvALzFCoVL9YLihZASUCtKbo66hfJy4aoxqQAJVg+zdd1HOUYA5OTYuJXcXMnKzjEp2+wj8LdQ8k1ngWsgPvCFHx1phQdEBerQvsTtT3RrDyCd6tayQcX5ar1BPIs5Z/pqUxN6f7WuoLOA1QVtys7JlcysbEnNSJeD5hd3SkaGHEo12/QMtbjA2mJdVEZQRUWo6EqIizWCxiRsTZsgymKNKAoGuBDwSxudLDpRWApCIei/rO2CGPjoo4/knXfe0aHRcHeh8/cmmLrhRoFL56WXXpIZM2ao++zpp59WywWsIKj/4Ycf1vdBcVOjf/311yo6Xn/9dbV2/PLLL+o+wnW4f7CPEe+7v/zlL3LrrbfqfkkEaj8Cl/3lQ8zkmc8L9jFKDJa3uXPnVuhyMxAtFC7VD65tRKo1waxtNHn6TPNFj1+yBeqq0SgTWDdcoeEC1xLyjYBAHXmYrdZs4dJBXIpebzoM/aSZeqw7x3QoZnvLTYPUbYMq4epxg3PxuYTl54r2DeW9L/fIlHs6S62zb3aCcF03VpS2JxK/tk0b3F/Ueq2pR6NfjHhyg3NRGEVwjVqTzA4S2oYrrTvKAqE2+eHx2jn6W9vI22KA5woxEHBB4Zc3nj8EksId8tlnn+noHfDBBx9oLAosFxAFiCtBx+vdmcL9hSHJ4L333lNLAzpt1Ll06VK59tpr1RXhXS9++eNecId45wdqF/ZRF4KCA90bogFBvxADSPhehBXGbUNJdaMMgCUHFgi8NghoRTwInksIIJzDiKFXXnlFhg8ffsSMsN5twXMFtxDqxGuA0UJw1bgxPyW1A9evXbtWnxeIDzyvaBPcay7u/byfZ+Cv/WiDb/51112nwbqIlUF8DlxvderUUcuMO0rkeABxRUIbfL5Ks7YRxQup1gQjXsZPnqKiwA6Ldq0cVsRgH+VdwYHOH/OuQLjYyeAgYBBrYk5AYKgwKDTiI8p0mIgvMVtzYsGi0bL710NyelKcvP+/vSo0AOqHtebC02rI5z9myfN/ecnUZS0v+s/Uq4JI24RW4CYQJuYP6lBB5cbcIHgXMTgQSbZe5Hs++5jXxVxsg5N1zwijSJk1dXJQ4uVYQfwGOk8XPC4Mp64Mjse90dFDeOBeGHp94403ahwLxEBltqU8HzsCnSFe8Lhc8RgKULyEPhQvhJSCYMTLg+Pt0EsIj5ho06E7bh9YPzRwxXT5KhK88QgCa31RHSEQC+gkYE3B1ggEUwc+e4/Mvk/2bEuVx+a9JEPGTpFzGh2QuH2H5LMtWdLs1CTZ+mOadDotQW4a9Yy6hVAfAnD13hAs9gb2vmYfzYoyf7CNibLDpDHESUWNg22XbZ9aZVCFqVOTqQbXo33TJ0+sFPFSHYHlBa4ZgOBdxIj4fheHG74WsVCA4iX0Ka14KfomqyDwgVy0aFFQYggmztGjRztHpQeBYrhX3759nRwLvgwwmRPmJCgr3bp1U38uqX4kJyZIzRrxkpgQq0OLYf6GGykCriSIBsVsdfwz9lQFqAiwo4pgick3H75cOZyZLakIhD2cJenYz8iUlLTDkpOdJ4m14yQlPU3OqnNAcs3xbok2wgUuhEJp0bKm1G1/mo1NiccooBhJio+VGohPiYlyRiBZcRVj2herI4awjZaoaLQ1QgUM2u0mHOvIIlMnRhbVMPVq3QkJ5rpY1UK5pu2k4oD7BZ080gUXXBD2wgXAbRdKwoVUTSpcvGB+hry8PP1glgQmqwp2/Y3iwPwF3l8CpRkWGAiIF4grUv1IO5xpUpYRGkgZkpqeYURGuhxKS9eA2LT0w2Z7WDJMmUwjSBB3oIG8COrVLQJ1MYW/NckjCDYqKkLMf3ULQfDAfQOREhMVJXV2RcjO/+2TtIPZknEoR9IP5sjPu+MkKTlR41tioqzYiIuLNyImXmokJEpiDSOwMCdKfLyOLIJ1CG6hrBwrmNIPm3abtmMEUYZpc2bWYcnOyXLaWqCfUQQa5+WZtpp9HMM6hOPiqKhRJISUF3yPVk0qfHkA+D8xKRImVUJAGcDMkHfffbeKCszSCP8oZoqEZWP69OlaHmXuvfde9aHCN4wtzNuwnmCK7B9//NEzn4ELTNuYchvDBTHfAALUAGbbxBsY8yXgPgCzcmLoIcrDOrR+/fqA7cIsmAh+O+uss3TyK5hFcR0i9tEWiBpcDy699FKdUhzDFzGJFIIS4c/G/TCzJa5DB4T2k+NPMMsDdOrS1WYiwMQFmsO8H+2QaQxFxsghWD+iNA8JLhp1L5nXW60cMUa4xJiyplx8bKwGSmIf1pyPPl6i1Xfr1lc+/GappO3OkBo5kRKTLSZFyAkFuXJi2/pyeouO6upBbAviVtQ8Yv7YeBYIJQgP03YIESNKrDvIxrZ4RkeZfYygQhlMdoeRSZjVNzcP1iLM9YJgYDvsG8O/PzKfWx1uHXf08gB4fK4Zl5BQBMHJ7vw/JHSBBRg/pgLhilA38LtCLS+YLhpf0BjShwh679gCjBzAsD+4idAYdPa+wNX02muv6VBFCAFEsE+cOFEXRbvqqqucUkeDIY5YdwNg9AGuc+cgAGgH1geBK+lPf/qTthPWGuCvXXBFQbQsXLjQMywRa6pgYiisEQLrkjvl9zXXXCPTpk3TurE6K0AUPu4HqxKugeCBYCLhQU3zHkqMh1vFiA7TUds5U2IlKdHk10gwebFGrESrtQOqBqLCWlIsiHXBXxtOi/OINTHnzX98IHPzcu2xyYCVpEadaKl9ek3JTI6Qw7UiJKqFEQenxMmPS7fIm8tnS0pquhxMTZWUtFRJM+ILQ6JzjGCxw7fRAgzDhpsI1h0E3yKZfE02wNhN+ApAq60byZk/xjwWzGED0YX5Y4oDo0kQG+R+sRASKuA9ifdmSbMpk/CkQgN2sXYH3kCYWAmWDATcvPnmm2rhgEUGHT9AlD2m9EaQF4TK/ffff1SZkSNH6mJkGOoHIYNF29xzLoh5wdwCsJ5APOA83FVYWwOBmVi0DQIE1hFE9WO9FAChA4GDIZz+2oX5GCA6Xn75ZZ0gCkDktG3bVi1UmOESAsedxhzzGgBMBIUAJHyAEL3vLroGCw7mR0CwHjm+BBOwO2XGLE9+gVEHiAPBvC74xMAKgo7ejkSCGyhKfxJgpA5ECoJ89bNlEmQLNA2sJGoFcVw22J/7+Ait+7Rzmspvv+yX9NRMR1zoXbSO+gVxMu2BfrI+8ly9Hya8izICG7Etdi0i2waVQeYP9gHqwfVwA9kt8ty1k9Am57GYP6ZGFTKmapNnMsz/SX8aFzBglxBCyoOQCdjFFxwi57HuxZw5c9SygY7dH+6Xa3GgjP0yt/v4VRgI+Ou/+OILvR+ECeZGKAl/9w/ULkwLjpkqYYqEmHEnryrO7AVXFuZNQMLz4a5KS0IfTFB3ODNLY10w42xWthEdiBFBIK5RAtm5+XI4O0cysnIkzZxPy8iQQ+lpkn4404mNwVTqiDFxpuA3/+BWio3BpHCY9TZOhQvea3D5ZKQdbeLGWx/veQgNWHlg7cGHGFYg11UFoWE/IXg/mz/mQN/DOGFwRzbZGXqtWwjvWdQHw0lWVq5p82FPPA8mtztwKE2vJYSQUKLCxAtiVKCUELeCiZewxZcvOv7KAILl8ssv11+bWK3VG8yjgEXi8EsSX+iwzrgxK4GAKHHXHoGLaNu2bbJy5UpdCM6NmcBkVnjcsMCgXlh8ACbBwj7icHAd2lScwiShBYRJTl6Ovm7uvC0AggJJ52SBatBjxKNEqRUEQbkQGUk1kqzIiIFFwwgIiAckHRkUZcrEyBWnNNaUn1dg8uHaEdn1U4bs/jlddpvtHmwPpEuOEUiYBRf1w9oCMJoJ7QK4zqNgFHMQAeFvXVf2vy0Eiw+CdCHO4LrCsf2BYId0q2VGyxJCSGhRYeIFggAuHm/gFgpkfSlv4A7A6CV/VhecW7x4sca1TJ06Va0imK2yOPBYsDQ/AnfXrVunJi4EF2OBNEzHDWEDkYR4HMTlwP2FmBl0BsiHuwwzV06ZMkXjYmCGJ+FBnHkdY6Ni9fWEaFALh3ef7ugCJFg04oxIwQKKGHoMYYJYEgTBAo2IwZBq7EN7oC6zgRDBe+WO886Wg79kGtGS4dhLDKYgRM+Uu3rqflrGYUk36WBKqkkpcjA1XfYfTJH9hw7JodRUk1IkNTVNRxZheQKsV+SOJkJcDCaj0wDfvHzJzTfCTIN77dwxNtlGoT0UL4SQUIST1JUzCFDGKBU8nw8++KAGD3/66afOWRJqBBPzMnn6DCMkIC4KdG4XxIvYzh1WF8SwWKuHpUAtjCjv+UhBC5jCWoeTBaBhbFxvoexe/pT8+tsBWZuZJnVPrCsfvfGd85lEAVvRzCef1hgZF5xGG+yB8wcZ7o3NftF5ew4buJh0OLVpZyTGaxuxgvbhelhxdLVrcwwXFR7avEdnMuaFEFKhhEzMS3UFw7JhzUHCkGrvUU4kPIHk0BFD2v/b4Fb0324CcCsezsqUjMwsSc/I1DlV0sw2Iyvbzv2SgyBfzJ1iRAJcONh46omQ7bsOyJbkKMlIRbxLocRGm4+mR3mgsF0ryRuc9iRUqQG4dquVa8sdzAk0FaOJXOEClxVm39UtXFgxkUakxJovkTipmZQgyTWTpE5ykr2eEEJCCFpeSLUmKMvLtOkqMiAM7HnR+BC4YLCStForvK0vHsVgPUr60TJ5uM7WYxd4xEKKuk6S+Qe30d/fmiE7f94rJ5/RVLas3CE79xyE/rCYazGqacLsJ50MZCG+Rk/pFp9hFTC679zPOa8xOEagYMZduL9iYqLNOfcsysIqg+Mj98HEPwVemDFYEAeGWVexACHm1ilPsDghpi7AKESMAsSPBryuX3311VFzQRFCQhNaXggpZzBvCoB7CBO5HTYfIowkyjiM2XStcIFQULEAt5Lp223CH3MhDlQo2ENgg2VzJQcpL1feXDpH0g8dlqTadnJICAuIFQV1mw0sL7CE1K6ZJLWSakiS+bDrZHfRGDFkJ8SzE+PBtXXk/RBygwnykDC0+gjhgq0trpRFnBQHhMuoUaPksssuM0KvfOeDwfQImNIAUxFgQki0HfMqYZQhYtSQRwipelC8EFICmLX2cFauZGRmS9phzNbpjjxSZ5J2/OjvkQoQ+KouHJPvWDA0nkTjZJwTjqJwRwxhwrucrGzJSMuUE07CEhSINynQSfEAiqucMH+wGjXcPHFGtCAouGZSkuPeSZbatWpK3dq1zDZR6pj9ZHOuZmINSUyINyInTl1E2kg/QMygndpWzUA5Z/8YgLXmgQce0AUcMaGdO61AeYDnFm5aTPiIOZOeeOIJefzxx2X27NmyfPly/SV37bXXSq1atZwrguPfH2E9KUJIKEPxQkgJYG6XnNwc6xoy/91+HYaRCGQUquPHZHnFmAAjQCBvYPXAaCP3HNxFdkkBDKOOlzgjXlBTfl6h3HDVGLnuyjEeIWFnyMVpKzruvnmQ1mNFhi2DThxWFwgbWF6wjTYCJ9YZng2rTL5pS0o6Riil66gkjE46kJKqs/UeduauwcR7iMnRlI/6IWhw17IBVxOmSMDkkADmXiy5geU33AQ3T1mBmwjTFnz99dc6kaRrcsZzsnr1ap3UElYf3CdYXOGCrXcaNMQKSUJIaEDxQkgJJCUkGJGBhQ9rSHLNGmYbL4kQHbouUaxaNKAtIk1nbyWGgxESGE6ECeigeyAiIHIwOVxijVgNjsWqzhAcOZj4LjffChxTCWJudUVqb/Hg7KM8gFjSG5utXfwRE91BzKADh8UoX3JNndk5ObqEgDvXC0YT5WGCPSNWsowoS8/IkpS0NDl4KFUOmLQPw64PHpK9ByByyhYzAncOXEWYKdsF4mXYsGE6RYGbMK3AKaec4pQoHRAlECruemW+wBqTl5d3VExTcfS5JEO3TeqsOSJdf3OMzulECAkNKF4IKQG1ZpiE4FqM0rFWkxidHRfrGyUlGUGTlGhSDY1FqWXydB0kUyY2NloisXyAqQdBsrC0ID86KkZjU3TeGNMB337TVDmxMFctKFNG3iuFUDsmPzE+Rleahuiw2sVO8499CBR03nAxRRrRgonvrOhBssHEmVlZRrzk4XKNN3GHdeMxqfVG69CNhubAQmOuNsd22QLMIFwWhg4dGlS8CQQN5koqC7gW4iTQonuIKcJjLq11xxUwZ599ticBihdCQgeKF0JKAG4ZtVmYHh59OTp+JJ1Z14gJTHSro3lU2BhhEgNhkyAJCfFGrCRK7Vq1dOgxAmWhYuwCiiY5o5RcS8qdDz8vE6bcp/fLyMpVQZGbj6UwIH1ccOx8bPX+FrQL1hfcAHE3mHgOwcAYnq3tVlFiL0Fb3WNbs9k37XFjcrCrj9NzvvT88MMPzl7JYImCsrBz5069NtCs3YiFwbxLmPm6tLiChRASmlC8EFICEBOqJJyNBuqaHl4tHSoYUEY3Pr09LCEFkpOdpXO9ZGRmSmpauqQ46eAhuGcO6iy56ekZkpmVKU0b2piL5KR4Sa6ZaC0L2XlaF8bp5Jr7wWKiLii9l/cNMckcRi8Z4ZJjtiZBrOjkel5l4TZyr4JIQX0YJaVxOyhv7oT5bHCddTWVHsxg/eGHHzpHgcHj++c//+kclY7vvvvOtL9AZ+1u0KCBk2tBrEv37t31tduyZYuTSwipKnCeF1KtCWael4lTvOZ5cbZw0+AAf/HH/fjgGNej04fbJjsXsSy5+vlSN43Bdd3YIyspcAoGmLf/9ZhERUfJ4fRsyc7Kkd92HJLUfdYKgzrmLFgoWILADovGpHN2CQoAFwmGbmfnmGuNcEHF+HWC09BY2KLdWtxc7DRZgZsI2erGMkCcWSLk2SfnlnmelyFDhkiXLl10H+6dBQsWHOHmwXMMC0pZ6Ny5sy78CosXRjEhSBfzumCUUbt27dTygrleMLeM+5wHixu46/Lqi7ny0ANf0CJDSAXBeV4IKW+cvtroBQV9d0FhkXBBNIp1IZl900lioUOsPYRkrR8I2LWWDBUNXn0/XE4AizXiNIQLRgrVSIpV4QKlUeuEGPOJNedjRVLTDsuhlFTZf+CQ7Nt/SPbu26cWHKxjBOGCtmKUERZvjPYIEWt5wb3QVogP3BZWIYgW3aL5JqGdEEGREVhEMsrz2MvKokWL5OOPP9Z91IuRQVio1E1lFS6XXHKJXHrppSpc8KWGLY4xNLp3794qXLCuWVmEC0Dci3fALoTLiSee6JwlhBxvohITEydC8fj+mkIeIVUdzPbqrgruDTparFGF7SXduqvosPLEYHb044IM/dgYCZCPANc805FimYAsycuzHaaKE5N0ZJBJEDca44JRQcjR6201uOKnHz9VIYS4lj2/pdgC5jg+LkrGT5pjRYZzje4bEAisw6KjMQkdAnxj9NcJrCWJCTU09gZiJi7e5JvzUZikztQBt5fGv6iVxanUoFYi/HNu8OVna3VWXtSJbWksLwALmSJ4F8OaMf8KAmmPlcGDB+sWr8/bb78tK1askF9++UUXQf3mm2/0eOPGjZ7HUBYgVrwTZvIlhFQMiF8r7rsBn3WA7yBAywshwWD6QLfL9vTdusXQ43ydJyUlNUMyM61LxFpprICBWIGbRysxwBIAK4u1yEAkWJeNigkjWmB52bplj5aFQtmTmSTDRz+mZTCpHS5GTAqqjI+L1YTh2u7K1N7CAzpJlwOIhrixoiaxBtYtqinJybWkdu1kqX/CCXJC3TpSr05tzceQcEyApzPxOtabYwUTyL333nueL55jBSu5Y9K7d955R9avX6/7CBLGyvWIhcGK8oSQqkv5fDMRUoVxo0NUDpg/VhdYa0t2NuZQyZKcHCeOI8KKGdeNBKGC0T8YwoOh1si1Vg9YZfDxM/UYIQPXDSwgrlUjNaVoJtpHpk6y9zXlMEIJwKWjw7UT4s02Tie+c4GIwb0AJr5TsWT+qbvIyYebysbN2DxYeiAsYK2pgTltaiZK3TrJ0uAEzPh77EBMvf7665KSkuLkHBvPPPOMzJ07V60shJDqB8ULISWA/l77fAgI8w9CA6IlNT1N41rycvNwyhTCH8wHg3ldIAqwtR03AmZ11loUNEm9ShANRkDo0GecMnk9egxFJR6Gj56t2wiEn+in1VpxMDsvhmPjerQJigqjhXBfdwQURExUtG04tJRaZbCDHHuJnsMaShAw7nm02563bi5CCAk1KF4IKQHMl5KXbwNZYfnIyrILMtqoFZF807/rQohIBg3M1R3oEysMjHRR8QFXj5EyRsjkqaVFlxwwqHvGFMP2q/9t1zwlokDvCxEBCwoESWx0rNRIiJfomCi1uLjWFNTrYodzm4Rh0VqvmyCq7D6A2MGCjyiLtqmI0X1YZkx7vSw6hBASKpivJ0JIcWBeFCtE4I6JkoT4eElKTJTkJHcCuhomL05isY4QrCh6jREncAU5QqawMFJFgdYRaVd2xilYONS1ZA5gCHl63miJzLdBayPGPGbKqqIw/+HWiZF4c58aNeL1GMLDFUpqfQGuQME/DOeGGDEbjyUFW9MOa4HBVWiTvQYX636kFT75eVYwEUJIqEHxQkgJYOFEDGGOioYVxWToHC+wSkTaANuoaA2aRZxIraQkqVO7tq7ynFwrSYNj7SgdWDAwiRym6C9awwjVgUizAxdQoxNPs0rDAGGiM/Bi36TYKCOc4mBxwZIDtj5bkdmD5caIE11HCZYaUweq0faafBUyECpIuJnWasUM9IndQrSYbANEGB4vLDCEEBJqULwQUgLqSjG9u1pgPMAdA/uGnb5fyxREGFEB60yEWkmiIjG8OF5H79SpXcsmI2ogcGC9iYUIgWXFgLph6XDFCJgz8yH584uz5G9/naEiKCEhVsvDcgKzjbW64L64yLbBFVTAbbfqGtM2a3GxYsSc0oT7qXso0nUVQcBAZFlXEhIhhIQaFC+EBIEKA+33zR9oB5Ng5QDqjrF7KhasqwfXuK4dPWXy4VaK0fkMaiQkSHKtZKlbt44zTLmuWmr+b+ANMmbCPK0NpOzaL7fcPlkS4rACdawVHKjV3AMiBVu9bwHEDLY22TyztQ2zogoiy4gTe96Cx4VpXnRUkk6jAAGDtuJxYl9vSAghIQXFCyElkI/FDSEKcKDuFygTZ6NCxYoEWClgDIHVwhUQHvVgsGLDiBuvhRatBcTO7RITEyv16p5oREwt56wFE8sVfVStNQWuIYgnHQ0E04oDdpE0kFeFh7W42LLYNy1CW2FZyYdVplDdQxiVFBllBQzqt7iChhBCQouibz1CiF9gMVFRYJQGxAZkjNv5u9YXtWqYk+j2dQ4VCJUijaKCwYoas28v8WBFDeZaUSVjciJkxmMvyLRZC+VPk5+Sg4dSZd/+/bJ3/wFJSUvVeWWyc3MkLy/XCQjGSCZcZ8VTkbBB7Q5ouxEq9j72frgPBE1+HhQLxJetQ91FKmzQNr2aEEJCCooXQkpARwJ5LCkQM5g/BcOUrZjROBTHWlFYmGc6fiSjHBwx4wK9AKGC8rhOa3TiS6ButIpCG9ALQZGdm28XMbQ6w+RjscccycjIkLS0dNl/MEV279kne/YYYbN3r6Slp0lmdqbkmOvy8nJwS3OdFSx6P3MbWJFcEQVsuzE3DB6HXZZAY1+MaEEZ52ERQkhIQfFCSAmgQ/d04iowiiwcOveLnXHOCpkITKmPuVdMjvmDEUSuVyc/P1dFjc54a+qBJikoyNEtsMImypwrUOvKYSNSrGaywgbXaSCt2ccxRAYmmCsUW19mVo6kp2XIodQ02XfgkOzas8eIm71y8OAhk5+uq03rsGwjjjSGJ8oVK7gJHo+1DrlxMCpqnBl9CSEklKB4IaQEMGcL1hJSS4Q51q4eFg1n5WVXqLgqpADWF9P7W6FiSlttYMoidsUROUY0WBcO8qwYQXksTHY4M8uuEg2xo0IjSkUQhIoVK8gzdRhVhOtQfZ5po06kh/K4iymgAbzmZGZWtmRkZkpKarocgAvqwH4VNnv3HZRUI3Rw3s5LgyHcaLeNy0GKirbtI4SQUCKifv36hSeccIL98vUCeYRUdX777Tc56aSTnCMLOv3s7GxJS0vTbffuPzpnqicrVpyiax5h9W3MWeP7XUEIIcdKjRo15LD50RYIfBcDfAcBWl4IIYQQElZQvBBCioWWFkJIqEG3EanWBOM2Km59n6rQsbsjpQKB0VEw1dJtRAipKErrNqJ4IdWaQOIFQ5LT09N16925e39OfD8zxZ3zprhzx0ogIeKbX9wx9r2PIV5iY2MlKSlJtxXZfkJI9YTihZBSEEi8YAg05ljJw+y65tj9fHhvvT8z/o5dvPeB77FLoHxfvIWFN775gY6D2Xrvo13R0dEatIttsO0khJBgoXghpBT4Ey8AnbZdAdq6jLw/H4H2XUrq3Es6fyy4osMf/s755nkfe+/D+hKFJQcqsO2EkOoLxQshpSCQeAGBhEBV7sADPWZA4UIIqSg4VJqQcgKdtb9UlfH3eN1ECCGhAsULIYQQQsIKihdCCCGEhBUUL4QQQggJKyheCCGEEBJWULwQQgghJKzgUGlSrfEdKo1J2K644grp1KmT1K5d28klx5tDhw7J6tWrZcmSJTpxICGkasGh0oQcA1deeaX06dOHwiXEwOuB1wWvDyGEULwQ4kXnzp2dPRKK8PUhhACKF0K8wMrJJHTh60MIARUW85KcnCxz586VHTt26DEWuXvjjTdkw4YNeuyPBg0ayLhx4+T+++93csrG3XffLY0bN1bfGNqxZ88ezcf9t27dKnfccYfMnDlT80j1xjfmZeHChc5eEW+//bY899xzOnX+73//e7/vz2DKkMBMnz5dXnrpJefIsnHjRmfvSPD5JYRULUIq5gWBdePHj9e0aNEiuf3226Vp06bO2YrjmWee0Xu+8MILKp7cNnz11Vdy4MABChcSNDt37pQ5c+bIK6+8Im+++aasXbtWPvroI+esJZgypHjGjh0rQ4YMcY4IIaR4Ks1tBBGxYsUKufTSS/UYvuupU6fqL66ePXtqni89evSQadOmyaxZs2TAgAGaN3ToULnqqqt0HyNDIFRKI4hg3Zk3b57ut2rVSiZMmKCi6tFHH9W627VrJxMnTpQZM2ZIixYttBwIpr2k6vH1119LmzZt1IKH99vFF18sn3/+uXPWEkwZUjKjRo2SW2+91TkihJDAVGrMC36hnnjiidKoUSPp37+/WkAmT54svXr1kvr16zulLPHx8dK6dWs9D6tJx44dpVmzZvqLtkOHDlqmbdu2snfvXvn111/1uCzAPfbaa6+pu6ply5ZyxhlnqHhZtmyZRyQF015SNcnIyJDY2FjnSCQmJkbS0tKcI0swZcjRPP30085eEQ8++CAFDCGkRCpVvLhxNfiVmp+fLwMHDpRBgwZJVFTUUdYTxMgsXrxYunTpokMkAX7Zrl+/Xn1eTZo0kfbt28snn3yi58pKSkqKpKenS05OjlqHfvjhB83ftm2bR6AE015CSOl44okn5Mknn3SOioCAYVwLIaQ4KlW8IDBy9+7dug+hsHTpUk2IF/ANzmvevLmMGTNGRczmzZslMzNT8xEQuWrVKp1EDJaXNWvWaH55gLqR3H2IFJeS2kuqJomJiSpsXXJzcyUpKck5sgRThvhn/vz5Gtjvy/Dhw509Qgg5mkoTLxj9g3iXDz74QDZt2qSWk/3796uFo6Cg4KgoY7iIcG7lypUqeLyHSCKve/fusmXLFklNTXVyK45g2kuqJmeffbZa+zDDKwLQIZwRF+VNMGVIYBYsWOBXwBBCSCAqVLwgeBFBrki33HKLPP/889r5b9++XUdlYITBlClT5JprrtEYF2/WrVunQ6cQINuvXz+NbUlISNBzEBG7du3STqIyCKa9pGoC0T1ixAh1FyIGCq7Kbt266fvvhhtuKLYMCR4IGFg0CSEkGMJybSME0I4cOVIeeughrnNCjolg5nkhoQXjYQipelT5tY0w6gii5eWXX6ZwIYQQQqohYSdeMAHYsGHDdMI5QsobDnEObfj6EEJA2IkXQiqSYx16TyqW1atXO3uEkOoMxQshXmCNouXLl1fKKDYSPHg98Lq89dZbTg4hpDoTlgG7hJQXvgG7hBBCKp8qH7BLCCGEkOoNxQshhBBCwgqKF0IIIYSEFRQvhBBCCAkrKF4IIYQQElZQvBBCCCEkrOBQaVKt8R0qjcVEr7jiCunUqZPUrl3bySXHG6zYjQnqlixZwmVBCKmCcKg0IcfAlVdeKX369KFwCTHweuB1wetDCCEUL4R40blzZ2ePhCJ8fQghgOKFEC9q1qzp7JFQhK8PIQRUmHhJTk6WRYsWydSpUz1p6NChztngqVu3rowePdo58k+DBg1k3rx5zlERd999t9730UcflYULF3racd555zklCCmZffv2SevWrY9YtPHLL7+Uvn37OkeEEEIqkwq1vCCwbvz48Z40f/5850zwHDhwQGbOnOkclY5nnnlG7/vCCy/Ijh07PO346quvnBKEBM+kSZMkJyfHOSKEEHK8OC5uox49esi0adNk1qxZMmDAACdXpGvXrpo/Y8YM6d27t+b5WlUCXVtaYAW66qqrdB8jTCB0mjZtKq1atZJRo0bJfffdp/e4/fbb9TyAvx2Wm+nTp0vPnj01j1QPYmNj5cwzz5Rnn33WyTmSN998U0cpIagU75vCwkK1zgwcOFAth3i/3HrrrZKVleUpD8sNyv/lL3/RPEIIIcFRoeIlMjJSunXr5kl16tSR+Ph4NcFPnjxZrSAdO3aUZs2aSePGjXUkAYTBhAkTpHv37tKwYUOnJkuga8vCRx99JB06dND9tm3byt69e+XXX3/V4yZNmsiLL74oY8eOlfr168tFF10kjRo1kv79+6sVCPfv1auXniPVB7wf/va3v8nWrVudHMtPP/0ks2fPlpdeekneeecd+f777+Vf//qXnkPZBx98UJYuXSq5ubnyn//8R3788Uct//LLL8vixYvVvbp9+3YtTwghpGQq3PKCMdlugpjBL098YXfp0kV/dQLEx7Rp00bWr18vGRkZapqHiR6xBt4EurYs4F5oE4RK+/btj4hnSElJkdTUVMnPz5e1a9fKaaedpu3DMX5JDxo0SKKiotRSQ6oPEKuw2OG96Q3eI7DKIT4L7wuIcMxJAjBfUr169XS/ZcuWsmvXLi2Pcq4Qxvtq06ZNWoYQQkjJVKh4KSgokPfff9+T9u/fL82bN5cxY8aoENm8ebNkZmY6pY8kPT39qMmogr02GGDWX7VqlU5GBsvLmjVrnDNHgl/LcBkAxM3gFzTSnDlzZOPGjZpPqg/XXXedCux3333XyTkaTPiI95cvyMdnAsA9OXjwYE0IJnetgIQQQkqm0mNe4ObZtm2brFy5Unbv3u0Z+rhhwwa1biQkJEhMTIxMnDjxKLdRoGvLCuqBe2rLli1qaXFBvUlJSdrZtGvXTt0C+GUMKw0EGNqATqi42QBJ1QTvCVhe/vGPfzg5ou5LWFoOHjyo7wsIG4jiQMDSB/ENVyTe87DCcAgwIYQET6WLl3Xr1uk0wIht6devn8aaQLDAqoGpvxHLgs4BpnWY2L0JdG1ZgRDBPWCB8QZmfATqwqwPy8uKFSs0JgFBloh7mDJlilxzzTUag0OqH4i7guvQ5ZRTTpHhw4fLjTfeqEG7cA9dffXVztmjgRvyj3/8o9xwww3qYpo7d65acwghhARHtV7bCL98R44cKQ899JDHReWa8yGiSNXHd20juHBIaHPHHXc4e4SQqgLXNgoSmPohWjDigwu9EUIIIeEDV5Um1RpfywuGMDP+JHRJS0uTESNGOEeEkKoCLS+EHAPeQ+ZJ6OEOQSeEVG8oXgjx4u2335bly5cfMfqMHH/weuB1eeutt5wcQkh1hm4jUq3xdRsRQgipfOg2IoQQQkiVhuKFEEIIIWEFxQshhBBCwgqKF0IIIYSEFRQvhBBCCAkrKF4IIYQQElZQvBBCCCEkrOA8L6Ra42+el8aNG8vFF18sDRs2dHKKByuTr1y5UldGJ4QQUno4zwshx0ifPn2CFi4AZXENIYSQyoHihRAfEhMTnb3gKcs1hBBCykaU+dKdCHONr9sIecdCcnKyLFiwQNq3by/du3fXlJmZKdu3b3dK+Kdbt266cizKlie+7bnkkktk//79smfPHqdE+eLv8bdp00Y+//xzp0Rw1K1bV+6//35ZtWqVk3M0DRo0kOnTp8v777/v5JBgSU9PP2oV6Y4dOzp7pWPt2rXOHiGEkNIQExMjubm5ztHR5Ofn6zY6Olq3FWp5ycvLk/Hjx2uaPXu2DBo0SJKSkpyz/oF4QYcdLL6iqzi82/PCCy/IXXfdVarrS4v3/ZDmz5/vnAmeAwcOyMyZM50jQgghhFSa2+jgwYMacAOLBOjcubNMnTpVLQY9e/bUvCFDhmj8wB133CFt27aV1q1by+TJk/UcgPjp27evtGrVSqZNmybDhg3TWAMcjxs3Tm677TaZNWuWjBgxQmJjY52r/INVaqH0oqKi9LhHjx5aJ64fMGCA5gHsz5gxQ1OXLl2cXP/tD5ZA9+ratavm4169e/fWPFhV5s2bp/sg0LWEEEJIdaFCxUtkZKRaUi699FK588471WW0c+dOadSokfTv318tChAnvXr1kvr168uiRYt05MbChQvl22+/dWrxT61ateS5556Td999V48hel5//XUZPXq0mpXgrvEFQuW+++7T9PDDD8srr7yi1pH4+HiPUIKFBG6DZs2aSdOmTaVTp06aB0EB1w8ET6D2++I+fjfVqVMn4L0wwuXKK69UMTRhwgS9l2/QaKBrCSGEkOpEhVteWrRoIc2bN1chAOtLYWGhxn7AfzVw4EC1pkBU4HxpSElJkYyMDOfIHsOagvohkCAUfCkoKJDVq1drWrp0qVxzzTXa+WdlZcnixYvVsuKOGoGFaO/evRoTMXjwYLXuwNICn1xp2o9hXW6CmAl0L9S5fv16fUw5OTkyadIk2bdvn553CXQtIYQQUp2oUPECsQBryp///GeZMmWKdOjQQd0gAHNiQEAgzZkzRzZu3Kj53kAglCUmBQLG33XI/+KLLzQhuBUi5sILL1RxNWbMGBUHmzdv9gQL4xhWEARiwo01ceJEjzsqmPbj8eM+bkKAcKB7+QLRBKuQN8FeSwghhFRlKi3mBfEusIxgSOmmTZukSZMm2plv27ZNO3l3chpYNhISEnQflgcE78JqAVcQOu/yAlYQuH8QEAvrC9qBicZ2797tGX1yzjnnyNChQ1WYvPrqq1K7dm21dBTX/pIIdK8NGzao9QWPHa4pCCVft1GgawkhhJDqRKWJFwAxgtgOxL68+eabMnbsWLXIwH2DeA4AKwcCb9GRw820bNkyjfEYOXKkunGOBQgguH6QEPSKIdkffvihrFu3ToeGI96kX79+eh+IiO+++07LPPLII3oObcG54tpfEoHuBUvOkiVLNJYFLiM8D4j/8SbQtYQQQkh1gssDkGqNv+UBMIqtLMydO9fZI4QQUhrww5zLAxByDCDeqLSU5RpCCCFlIxKxH4SQIpYvX37ESLaSQFlcQwghpHKIaNmyZSECROk2ItURf24jQgghlUup3UYQLoQQQggh4QJ9RoQQQggJKyheCCGEEBJWULwQQgghJKygeCGEEEJIWEHxQgghhJCwguKFEEIIIWEFxQshhBBCwoqINm3aFOoOJ6kj1RDfSeqweOcVV1whnTp10lXESWhw6NAhWb16tS5empeX5+QSQqoKXNuIkGPgyiuvlD59+lC4hBh4PfC64PUhhBCKF0K86Ny5s7NHQhG+PoQQQPFCiBc1a9Z09kgowteHEAIqVLwgbuaBBx6QadOmyeTJk6VLly7OmeLp1q2b1KtXzzkqIjk5WZ577jnnqIi6devK6NGjnaNj45xzzpGJEyfK1KlTZdy4cdK8eXPnTOlo0KCBzJs3zzki4czbb78tffv21VgYf6/p66+/rufdhPf5Pffc45wlwTB9+nRp3br1EelY+PdHic4eIaQqUmHiBYGPw4cPl48//lhFwKxZs6Rr165ywQUXOCUCA/ECQRIsBw4ckJkzZzpHZSc+Pl7uvPNOefrpp2X8+PHy5ptvyn333eecJdWRnTt3ypw5c+SVV17R98PatWvlo48+cs5aBgwYIO+8844mlGncuLHcdtttzlkSDGPHjpUhQ4Y4R8eGK1yw9U6DhsRqPiEk/Kkw8dKqVSuNDv7yyy/1OCMjQ7/cIUwAflnBGuMyaNAg/dWKL7CGDRvKHXfcIW3btnXOFo+3lQP3hVhC5wHBNGLECImNtV9a8JfDooJfeT179tQ8b1AuKipK2wrWr1+vv6qRByC+YEWaMWOG9O7dW/NAjx49NB/3Q0fmj5LuTUKTr7/+Wtq0aaNWPwjyiy++WD7//HPn7NHAMgiBfv755zs5JFhGjRolt956q3NUdvpcYj+/TeqsOSJdf3OM7N69W88RQsKbChMvcBnt37/fObLs3bu3xCHYixYtkl27dsnChQvl22+/dXJLB8QPRAdcSehw2rdvL40aNZL+/furhQaiqVevXlK/fn3nCktqaqr8+9//lkmTJsnVV1+tQ2g//fRTyc/P11/TGOkA8TFhwgTp3r273gfWGleIwVrTsWNHadasmVOjJZh7k9AEQtYVvyAmJkbS0tKcoyM5ePCg/OMf/5Dbb7/dySHFAQunLw8++GC5Cpizzz7bkwDFCyFVgyoZsJuSkqJCpLCwUM3+derU0V/PECEDBw5UKw+sKU2bNnWuKOKtt95SC0pOTo66vRDnAHA9LDHozHAOAmffvn2SlZUlixcv1jgHDOUE+JXuTbD3JuEN5iCBdS4xkfEWwfDEE0/Ik08+6RwVAQEDy+ux4goWQkjVo8LECzp236BbWBuQD9CZ+06MVxFAwLj32bFjhyxdulQT4hg2btyo+S6wCsHtBAvRu+++q1aSq666ShISEpwSRaSnp+tkWQjoHTNmjIqYzZs3S2ZmplPiSEq6NwlNIEQgVl1yc3MlKSnJOTqSTz75RNq1a+cckWCYP3++zJ071zkqAj8cCCEkEBUmXtCRw6Xyu9/9To/RCSCm5b///a8eQ8QgKBez5cG14z2qBx2EP8FwLGzatEmaNGmirqxt27ZJQUHBUbP5oY133XWXJ1gYnRREFkTKhg0b1IKCdsF1gBFJcBvBRYT6Vq5cqSZpf0M5g7k3CU3w6x0WN8zwivfBqlWrAgoUzNaL+CtSOhYsWOBXwBwrvgG7r76Y65whhIQ7UfXr15+IHV8rCKbqPRbQQX/zzTdquYDrBQGrGKWBL38ASwViCW666SYNbkTHDmvGDz/8oILmuuuuk19++cVjqQEQQ3DNIIYFMSdIsJTAigG3zfvvv6/WnnPPPVc++OADvQadDwKHv/jiC7WKICAYQcMQSwjG9J5qHO4mJLh2EISLdr300kvaKSHOAb/A3evxK3vdunUa54Agzssuu0zjYvA8bt26VTs7t01wYZV0b3J8wHvOW3BCYHtTq1YtFbOIZ3rttdf0tcZ7E3FZGJl27bXXOiVFnn/+eX2/M54pOJ566ilnT/Tzic/XhRde6OQEBoH/wfBXI1ZGDf9S5szarmnZf3bKiSeeGNByRgg5fsAoAMNFIGBIADB2AK5tRKo1vmsbIVCchDblEQ9DCAktuLYRIYQQQqo0FC+EeBFoGDQJDfj6EEIAxQshXiCWiYQuq1evdvYIIdUZihdCvMA6RsuXL9cgaxI64PXA64J5mAghhAG7pFrjG7BLCCGk8mHALiGEEEKqNBQvhBBCCAkrKF4IIYQQElZQvBBCCCEkrKB4IYQQQkhYQfFCCCGEkLCC4oUQQgghYQXneSHVGn/zvGB1cKwe3bBhQyeneLDC9MqVK2XHjh1ODiGEkNLAeV4IOUb69OkTtHABKItrCCGEVA4UL4T4kJiY6OwFT1muIYQQUjai6tevPxE7vm4jmHCOheTkZFmwYIG0b99eunfvrqlNmzaydetWmT59urz//vtOyeBp1aqVDB8+XD744AMn52gC3ffzzz93SgRH3bp15f7775dVq1Y5OUfToEGDgI8F5+6++265/PLLtQ0FBQXyyy+/OGdJqJCeni41a9Z0jiwdO3Z09krH2rVrnT1CCCGlISYmRnJzc52jo8nPz9dtdHS0bivU8pKXlyfjx4/3pPnz5ztnKpbyuO+BAwdk5syZzlHpiIqKkmHDhsnHH38s48aNk1mzZkmvXr3k9NNPd0oUj6+QJIQQQkgRx9Vt1Lp1a5k8ebJzJDJo0CDp27ev7g8YMEBmzJihqUuXLpoHoM5uvvlmmTZtmjz44IOe4J1g6NGjh14HMYH6Xbp27ar5uFfv3r01D5aTefPm6T4IdK0/TjnlFBVQn332mR6npaXJv/71LxU1gR4zrEqoH6IH8RPIv/LKK51SInPmzJFGjRrpfufOnWXq1Klq9enZs6fmEUIIIdWFChUvkZGR0q1bN0+qU6eOc6Z4mjZtKp06dVKrCQQF3C4QLSAhIUH++c9/6jnU36FDB833xt994+PjPcIB18I10KxZMx1ZApEAITBhwgS9l2+wZqBrA1GvXj3Zt2+fc2SBkPn++++dI//UqlVLnnvuOXn33Xdl9erV0q5dO80/+eSTVQDt3LlTBUz//v3VKoT2wKJTv359LUcIIYRUByrc8gLLiJsgKoJh7969GoswePBgtUjAyuD6wlJTUzUVFhbK9u3bNTbFH773zcrKksWLF6sVxx0ZgvgYxMOsX79eMjIyJCcnRyZNmnSU8Ah0bXmTkpKi7QA//fSTxMbGqgXo/PPPlzVr1mg+2gvf38CBA9U6A2sOxB4hhBBSXahQ8YIgVQSzumn//v3OGQs6YX/xHRALsIIgALJt27YyceJE7ch9gYDxd72/+zZv3lzGjBmjdW/evFkyMzOd0kcC0QSXjzfBXuuC+/nOk3PBBRfIWWedFfAx+wOCBdaX8847z+OCAphPZOnSpZrgTtq4caNzhhBCCKn6HNeYF1g4YDmBdQQRxBAJ4JxzzpGhQ4dqp/zqq69K7dq1j9nSATfPtm3bdDKx3bt3e0aYbNiwQa0ZcEfBNQWh5Os2CnRtIGA1weNx3T4YRnvVVVfpJDuBHrM/IF7g9oLLCAHEYNOmTdKkSRMVSGgThFpxE/sQQgghVY3jKl4OHjwoy5Yt09iNkSNHqrsIfPfdd9phP/LIIxqLgjLuubKybt06Hf6N+vr166f1QbDAirFkyRKNZYHLCNYezJjqTaBrAwHryty5c1V4IAh31KhR8t5776nVJtBj9seePXvk0KFDRwzBhavszTfflLFjx8qUKVPkmmuu0ZgcQgghpLrA5QFItcbf8gAY8VUWIFgJIYSUHi4PQMgxgrin0lKWawghhJQNihdCfFi+fLln1FcwoCyuIYQQUjnQbUSqNf7cRoQQQioXuo0IIYQQUqWheCGEEEJIWEHxQgghhJCwguKFEEIIIWEFxQshhBBCwgqKF0IIIYSEFRQvhBBCCAkrKF4IIYQQElZQvBBCCCEkrOAMu6Ra42+G3caNG8vFF18sDRs2dHKKB6uQr1y5UlcoJ4QQUno4wy4hx0ifPn2CFi4AZXENIYSQyoHihRAfEhMTnb3gKcs1hBBCykaFiZd7771XLrvsMt2HS2revHlqigdRUVGycOHCgAvi1a1bV0aPHu0ciXTr1k3q1avnHB3JCy+8IDVr1nSOyofi7kcIIYSQ40uFiZfNmzdLy5Ytdb9Zs2aSlJQkZ5xxhh43adJE/VeIFfDHgQMHZObMmc6RFRMQNJVFZd+PEEIIIcFTYeLlhx9+8IiXM888U77++mvdwgpzyimnqLgpLCyUHj16yLRp02TWrFkyYMAALd+gQQO11IAhQ4ZoTMEdd9whbdu21Tx/tGrVSsaNGye33Xab1jVixAiJjY3V/FGjRsl9992n+bfffrtER0dL69atZfLkyc7VIoMGDZK+ffsGfT9CCCGEHB8qTLxs3bpVEhIS1P0C0bJq1SpJS0uTpk2bqniBuImPj/eIiPHjx0vHjh3VSuPNokWL1EIDN9O3337r5PoHouP1119XlxMESvv27TUflp4XX3xRxo4dK/Xr15eLLrpI8/1RmvsRQgghpPKpMPGSn58vP/30k7qKIFa+//57FQMQMq54ycrKksWLF0uXLl08ozWSk5N1WxZSUlIkNTVVLTo7d+6UOnXqHJGPNq1du1ZOO+00zSeEEEJI+FFh4gXANQRh8vPPP6tQccULrDGwzDRv3lzGjBmj51A2MzPTufLYgYDxnbsG5ObmqjsJQsbfeUIIIYSENhUqXty4F9f9smnTJjn55JPVIgPxABfRtm3bdIKv3bt3Bxw1BMEBF1RZQb0IGIZYadeund5/3759GpSLCW/gYoKQcjnW+xFCCCGk4qhQ8bJlyxYpKCiQb775Ro/z8vLUwoIE1q1bp7PqTZ8+Xfr16yd79+71Kxrg6kEgbps2bZyc0gGhhEBdjGCCMFmxYoUcPHhQli1bpvE2I0eO1Hu7HOv9CCGEEFJxVPnlATDaaPDgwRoQTIgv/pYHGDZsmLNXOubOnevsEUIIKQ1cHoCQYyQ9Pd3ZC56yXEMIIaRsVHnxAhcVrS6kNCxfvlwyMjKco5JBWVxDCCGkcuCq0qRa489tRAghpHKh24gQQgghVRqKF0IIIYSEFRQvhBBCCAkrKF4IIYQQElZQvBBCCCEkrKB4IYQQQkhYQfFCCCGEkLCC4oUQQgghYQXFCyGEEELCCooXQgghhIQVFC+EEEIICSsoXgghhBASVlC8EEIIISSsoHghhBBCSFgRULwUFhY6e4QQQgghoUNA8ZKVleXsEVJ1Oemkk5w9Qgghx4vDhw87e0eTn5/v7BURULxkZmZqKigocHIIIYQQQioHeIAgXPLy8pycIiLatGmj/qGIiAjNcPE9Ph64rivvtoRqu8DxbluotiuUCeXnjO//0sH3f+kJ9fd/qLYLhFrbQv21BOXRtri4ON0yYJcQQgghYQXFCyGEEELCCooXQgghhIQVFC+EEEIICSsoXgghhBASVlC8EEIIISSMEPl/8R0ff0iRNA8AAAAASUVORK5CYII=;" parent="1" vertex="1">
          <mxGeometry x="1680.3899999999999" y="1022.61" width="410" height="264.78" as="geometry" />
        </mxCell>
        <mxCell id="G6Y90BfXApPEU-ohdSH0-29" value="" style="shape=image;verticalLabelPosition=bottom;labelBackgroundColor=default;verticalAlign=top;aspect=fixed;imageAspect=0;image=data:image/png,iVBORw0KGgoAAAANSUhEUgAAAq8AAAIACAYAAACsK4WmAAAAAXNSR0IArs4c6QAAAARnQU1BAACxjwv8YQUAAAAJcEhZcwAADsMAAA7DAcdvqGQAANX0SURBVHhe7J0HgBRF9sbf5iXnICCiIoJgJimICJwBzIoigoginoEznYqIipjgFMOdWU8x66lnRM/8R1QQAyIoIIKKoOS8bN791/eqa6ZndmaZ3R3YGfb7Ydldoauqe3Z6vn71qjql/+AxpSKlkiLFZpMiYvYQl5QSTRVJlRQTTRZKS73OYmPOQU/Bw51GoIyHnrGXhi3OV7feidu84LVBNEXrtXGbZstqm8BcS5fkx99ONMyRWjMoLTWfgymbYhp0+wDxIMgLpvvrxh4+SYvpp/l/Cv6hjJes9SNqtqmpaN2VN2ne6QBXN/6hHLBt2eBvFyCGtvB/jXv5OA+bayktNX97hpSUNN0Gynmn6K9Xk4JR7TfSwtuOBMq4cygpKdF9HFuC/piKUnFNw69fhHrD04rNP9SVapJRr35nUHdIMVwfezFxXrYO2x89J4d30uFtmB57exZ7zcyxKakhZd0ezgk1u/pD6ivxlTfpWsYEF3dpIccYXLrdt59hsAzSg8e4cvjr8+M+61Jznq4NDaY44v523fXzx12tmuZ911w+2vLXmZqaatIQt7kA6bZrXjmkIWpwfdZjva2rD21j6z8fRHH97b6rBWDfFw+ciOu9JfSY0PbLgr760qPVFfpHZ7D9LfHKhxxliup9wKDnqWneNTEFXZ3mL0yPC/Yr9JzdNUJbwTT8D8chL9hqsA5L8NhQAmnufupR4rUdCj4fXzns6/HaCZtk4uVf3/ji2nBtOsLjOxv/ufv7Ut39SmQS9bMEidy38ohH/yLdCQghhBBCCElIKF4JIYQQQkjSQPFKCCGEEEKSBopXQgghhBCSNFC8EkIIIYSQpIGrDRj0jL00bN3MYq42YNJ8k3hd3fjH1QaCcLUBgPTgMa4c/vr8cLWBIKHHhLZfFvTVlx6trtA/OoPtL1cbsJ+l29/RuDZcm47w+M7Gf+7+vlR3vxKZRP0sQSL1rXHjxnLQQQfJwQcfLFlZWfpbWFxcrFv/Pvqcl5cnv/32m3z33Xeybt06r4aKkbZX5x4TsGNvXThh76T1JmjjO/8yxAmcQwydDy/i4qGfPyLBBJsXUsAS+PGIkBcjoS35/zhd3S7uCO5H+qMNHmXBJxpeysXLHO872J8XqZ1I2JbCy4b3yJ1j2A9ThCbCkyLVXh6u3/gCYR8x/bk2O5oX43n5wfGBuvRmYva9eCjeefsyypaL1n6ka2bbiYT2ycsvUyKsKi0TVk+0eoPp4f1BevCY6OVcPKxNs4u4P82XqyAeklZGqAUFCrD74bUgXf+v+34ite3SgjmhbfqPiUqgSPllY6orQJSyZZJtf/HXAMKzXbxM274odkNzw2KBY4PXRpNMsH99oeX9bPecwz5jdx7heNLbw+2Htl2x6xsfwtusjj5Ew9+XROpXopIsnyWojr41atRIunXrJgMGDJB99tlH2rRpI61bt5bddttNWrZsKc2bN5dmzZqpyK1fv75s27ZNli1bJlu3bvVqqBiRHmMJIYQQQgiJCQhmjHZlZmZqgPXVH7KzswNb5KNsVUQ2xSshhBBCCKkSEKTp6ekqTjMyMsqIWAhXJ2JRjuKVEEIIIYRUGxCjEKVOuEYLyK+qawPFKyGEEEIIqTIQpS7AEusPaWlpGrBP8UoIIYQQQqqVcOHq3w8PVYXilRBCCCGEVAm3dBfw7zuQFim9MlC8EkIIIYSQqGCJq1atWunyV5FCu3btpGHDhmppdWu7RgsQsHXq1NHltFq0aKEBS2m55bQQmjZtKnXr1vVaL0vcX1KQnpYm/3n8DqlXt7bGH37qv/Lq2x/r/s4goOqx4UsKtHf4JC1Y/ROlzT+U8ZK1fkTNli8pCLt+EeoNT+NLCgDSg8e4cvjr88OXFAQJPSa0/bKgr770aHWF/tEZbH/5kgL7Wbr9HY1rw7XpCI/vbPzn7u9LdfcrkUnUzxLszL7169dP9txzz8Cwv2sDW/QDwhVi9MADD9QJWUVFRfpiAmwLCwtDAtZ4xUsK/vzzT9mwYYMe74QtjnHxFStWyNy5c7WdcOIuXrsd3FluH3eRFxNZuPhXGTPuLi9WOVo0ayLHHNVD9/9ctU4+mP6l7kfCfZg4BYpX9Ex/UmwE/TT/xw8KxSvFK0C6ljHBxV1ayDEGl2737WcYLIP04DGuHP76/FC8Bgk9JrT9sqCvvvRodYX+0Rlsfyle7Wfp9nc0rg3XpiM8vrPxn7u/L9Xdr0QmUT9LsDP7dtVVV0nv3r11tQCsKOCWunJtYYvJWMh3otWFcPFaUFAgubm5GvLz8wNp/i2Ow9u3XnnlFa0/nEh3gipx5OEHe3uWjvu0k+ZNG3uxytGyeWMZPnighr8c2d1LJYQQQgghOxqszVq7dm0NGM6vV69eSEA6LK7hwjWSeEUahDfELo5BgBj2r0bg8qIRV/EKl4HDux7gxYL0OSxU0CYaeHCwVhpCCCGEEOIHo4pOeLotQiSx6g9+0eqCs666gHKoBwHtQNj6RwkiEbNiO+uUo+WDl++X/kd081LKcuiBnQK+rnPmLdItODKKeK1fr45ceM4p8tS/bpJ3nr9XXpt6p9xx/SWy/37tvRIiT90/Qe6acJkXEzl4/321H1dedLaXIpJtngiGnX6cPDZlnEwz9bz5zBT516Sr5fij+5QRpVPvmyAfv/Kw/O/5f8k+e7WVhyZfJ++/9KDsu/ceXglCCCGEEOKAsPSLTSc4/cLTxV3wuwC4YyMJVwR3PMSrC+UJ2O2K17atW+rW+TVkZKTrtn69srPA/C4D/532ifz8y3LdV9eBZqGuA40bNZAHJl0jp5/QX1q1bKb11q1TS7oe1EnFat9eh3oly6dO7Vpy761XyIgzB0m7tq0kKzNDatfKlk6mzctHnyU3XTXa+jKGkWnK3XnDZSpaIXD/WLXGyyGEEEIIIQ5nefULThfKS8M23J/VhfBj/KK1SpbXffduJ0/cM16euPcGObybdQfoe/ghKjqfe/BmFYAO+Csc5rkM5OXly7ffL5Ivvvpe4yDc+jpm1BnSsnkT3f9m7gK5cfIj8ugzrxnlXaJic8z5Z6gbwq13PyEPPPGylgM/LVkmV9xwj7z42vsah+V273ZtdH/Rz7/JzXc9LpP/9bSsWbdR03p1P1BOGdRP98NZuWadjLvjAbls/J2yafNWL5UQQgghhDj84jU8OJHqAkRquGB1aS6O4ESr33K7PYuro1zxCoPl10ZY7tayqezb3g6rwzWg/V67y+JflkvjhvU1DXQ9sKNaTsHs736UAtOxz33itc9hh3h7Io3Mcb08MZyzLVdu/MejMvPrefLymx/JpzO/1XS4FLTdfTdZvHSZ/LLsD00DKD9/4RL5Y+UaqZWdJX/pa1chKDQX4Po7HpIZs+boagS33/ukpoNTjjvK2wtl8v1TZdY387Q+QgghhBBSFghLv/CMJYQLV3+eE7zhAtZvfS2PcsXrwp9/lbG3PSD/fu5NL8UuzQDL55U33iMrV6/zUuEyEBSnX8y2onXpr8sDZToa8Yslr8A+Rvw6N4QfFi41J1Wo++Chqa/KBVfdrmHFn6u91Mi033N3tc6Cn35eFmI9nffjz7JtW57uw8LbIIKbw7bcfG+PEEIIIYREwlleI4lQF/zpLviFa7RjIwnXKolXsHvrFnLumYPUsvnRjK9UdI4ednLIRCj4qx7WdX8vZidVXTTydA2FRXZdR9DnsIN0Cz9Vx+atOd6eZcOmLfLrsj805OcXeKmRqeNZesHGCMP+G7ds8fZCyxJCCCGEkNiAqAwXny74BWp4uj/uBK4TreHC1YnWuIjXFk0bqwsA3pQFX9Lvf1wsDRrUlcaN/C4DnUIE6TFH9ZRTB/bVsHur5l4q/F6tddZZREG9unW8vYqTk5Pr7Yk0qF+2nob16nl7oWUJIYQQQkhs5OXlGR2VI1u2bJHNmzfLpk2bNGzcuFG3SMebs5xg9QvXSGIVwZVDiCRmEY/GdsUrfF5H/G2ivPm/T1UJT5zyb/nr1ZNkrTchCvhdBn5fsUrfquUPzoIKv1m4Diz+5feAqt6vQ7vACgZg1LCT5YVHbtWw1x6tNa3E90Yg524Afv51uRSZkwRYNcAvhLt02ltq187W/VVr1smmLZyQRQghhBBSURYtWiTz5s2TOXPmyFdffSWzZs2SL774Qj7//HMN8+fPlz/++ENFbrjFNVzAIkDorl+/Xl8Ru3LlSlm1apWsWbNGw9q1azUgLRppe3XuMQE79uWAEIaeONTXDNp4QX7QJxVCFKrYAeF51V/P1i0EKXxVsUzWux99EQhYCqv9nnZFgHXrN6kg3rvd7tK2dQvJyszU1QK25uTKwV06yPDTj9PJWujOv59/07RVIngV6amD7KSr+kagrlq7Xt0W1pgtxPA+e+4uaWmpcsB+7WXL1m3SYe+2ctnoIQFr8HOvvis//rRU908+rm/A//XVaR/rBLCgHLa4uE8nG+y1cNi8kAKWwOsZI+TFSGhLtj4r2l3dLu4I7oemW4JHWfDKxvBSLl7meN/B/rxI7UTCthReNrxH7hzDnqUiNBGeFKn28nD9xt8q9hErRftmR/NiPC8/OD5Qlz6UmX0vHop33r6MsuWitR/pmtl2IqF98vLLlAirSsuE1ROt3mB6eH+QHjwmejkXD2vT7CLuT/PlKoiHpJV5FWrwFaDA7ofXgnT9v+77idS2SwvmhLbpPyYqgSLll42prgBRypZJtv3FXwMIz3bxMm37otgNzQ2LBY4NXhtNMsH+9YWW97Pdcw77jN15hOO93NbD7Ye2XbHrGx/C26yOPkTD35dE6leikiyfJdgRfYNldfny5bJ06VINP//8syxZsiQQYI2tU6eO1K9fX38H/aIVmtFtEZAOa+3ChQvlxx9/lN9//13rdmHFihUaIGohhiOxXcvr9uh+cOeAhXPh4t9kw8bNuu/ns9lzvb2glfafj78UmMzV89Aucvu4i+TyC8+SrKxMKTEn/s9/v2TUuxXNq9asl6W/rdB9tDXusnNl8Al2+atHnvqvLPnVrifbqcOeMuHqC2Ts30ZIsyaNNA2rCUCkEkIIIYSQigP3AFhWEZy49AtOCFpYS/2WV7+l1QlXuANgC8sr6oB1dfXq1RHDhg0bvNbLUmXx6n/16+dfBUWqn2/nLtS1XwGsopj9v37DJrlk7D/klbc+0mWvMCEMVtDZc36Uv990n3z06VdaHkDFY/3WL7/9QS2r+UbUFhZaXwgcc/n4e+Spl6bJr7//qYIXbWHN1389/qLc+I+H9WIRQgghhJAdA7SWs7iGi9dwAQtdZ0cqK0dK/8FjzNEYjCk2G5iaEUxSiqlc91PLjs4lMIGLgY05B9+oUWAwKfyC6Rl7adjifHXrnbjNC14bRK1V3sZtmi2rbQJzLV2SH3870cAQmFZvKC21HzKGAdw+CB0WQF4w3V839vBJWjCYjNLmH8p4yVo/omYLFw1bymKaDODqxj+UA7YtG/ztAsT8w4YuH+dhcy2lpdYNJSXFLnsWKOedor9eTQpGtd9IC287EijjzgFfHuzj2BL0x1Skb2ILv34R6g1PM19HrSvVJNsHJfOdQd0hxXB97MXEedk6bH/0nBzeSYe3YXrs7VnsNTPHpqSGlHV7OCfU7OoPqc/nQ450LWOCi7u0kGMMLt3u288wWAbpwWNcOfz1+XGfdak5T9eGBlMccX+77vr5465WTfO+ay4fbfnrtCuiIG5zAdJt17xySEPU4Pqsx3pbVx/axtZ/Pog6Vxeb58C+Lx44Edd7S+gxoe2XBX31pUerK/SPzmD7W+KVDznKFNX7gEHPU9O8a2IKujrNX5geF+xX6Dm7a4S2gmn4H45DXrDVYB2W4LGhBNLc/dSjxGs7FHw+vnLY1+O1EzbJxMu/vvHFteHadITHdzb+c/f3pbr7lcgk6mcJEqlvzZs3l969e0unTp0kIyMjIFSLfKIV+/iNxBaW1ZkzZ+q2MkS6ExBCCCGEEBIzzvKan5+vwb+KgBOuCPF4gKR4JYQQQgghlQaCFMLULX0VyefVCVcXqgLFKyGEEEIIqRLO8uqEq9s6i6s/ULwSQgghhJBqBYLU+bY6a2u8La4OildCCCGEEFJpcnNzdemrdevWBd66hYD1XxGwTuzWrVv1LV2IY4ks+MVWFq42YNAz9tKwdTOLudqASfNN4nV14x9XGwjC1QYA0oPHuHL46/PD1QaChB4T2n5Z0FdferS6Qv/oDLa/XG3AfpZuf0fj2nBtOsLjOxv/ufv7Ut39SmQS9bMEidy38ohH/yLdCQghhBBCCElIKF4JIYQQQkjSQPFKCCGEEEKSBopXQgghhBCSNFC8EkIIIYSQpCG1U/u23i4hhBBCCCGJTeoZxx8pjRvU8aKEEEIIIYQkLqnt2rSUI7ofIGneup2EEEIIIYQkKqkZGely6AH7SsP6tL4SQgghhJDERidstWzWRPZp18bs7fg3jxBCCCGEEFJZVLxmZaZLrx4HSYN6tfUVmXj1p25dMHE6FRBCCCGEkOom5c8//lBza3FxsXzw6dfy7fcL7bve8U5sff9sqgrXbdtyJTc3V7bl5klhYSEOSTzMmYS8/xv7EVQ33gfsLwUFX+Le+Yyt7nrHun1fRSiilyaAqS9wjO6Y3bIN2yJe2669KOBovG1c/2lZ25ngu4x14+HeD453w6Pq0LqDb/22beujiCkT6CrSTByHea9qN9hM/yvD8T5id+30tfFmxyulIbxdtGSDRY/UInj3uCYp7r395jFJt7aFYBFfUVubLwHngDR3TFRMNsrou9bxr8T3rnNt3x/3UeackBSaVoLjzbGpJtn+HaEVvcpB9LrZ89Q/Da0C/TH4C3p/N7YJfzv+fcRsXfavN5jnDtM+mj7hlLQ5/+GIeHF3Tey5m5hmBa9TALfr+qoVorw/w/0datMa9//1gdLAH5StCOX1CBMNvO/aVWlASqBOX7pJDCQE+2A/BxfHgzdq0KhWhP9snjs/xGyKLeIKunbd3zyasvW60g57/UNTI5WLQHgRr4+RCO2pIez+ErgGIRcJ2HhphPsR8lxxd55A/2+KuziulL0eGjV4dQXa1MJIsMeYqJbQypHnlTfoeXiHKfoZhaUZglc0NMP2JByU8ZVDH7Q/kcp6uL7vIFztIT3Qc93xlJaUSEGU3+jA34kh8H3z2Dm9Sz4ifpZgJ32e5aLft7DPMRH6tR2q2se8vLygeCWEEEIIISSR6dGzpxWvGzdulKLiYnnn41ny6RffGjEP60iJ95RrFXLia3mDkeGhNhA8lXi7PvD06S8F2wktr6jbbK3x02AzaXktW2/Z62uON8fS8ur+DrVpjfv/+gAtrz7Ci3h9jERoTw1h95fANQi5SMDGaXkNw/V9B+FqD+mBnuuOh5bX+BLxswQ76fMsF/2+hX2OidCv7VDVPoZYXhf/slz+9cR/ZMOmXBPDBXHiNbXs/TCBCXw5sTHn4P+Lc6fh/wIDFHFp2LofqhTvxG0eSmlJEzd7Wq+N2zRbVtsE5obtkvz424mG+7EA+LG3fUF9dh+EfvjBHx5bLlg39vBJWuxPgooVlPGStX5EzRb+zcEfDpPm0x6ubvxDOWDbssHfLkAMbeH/GvfyrYAJli0tLdZtSkqabgPlvFP016tJwaj2G2nhbUcCZdw5lJgbPPZxrLrJmIpU7IRfvwj1hqcVm3+oS8WrqVe/M6g7pBiuj72YOC9bh+2PnpPDO+nwNoJi1WKvmTnWPG2E9Nfb4pxQs6s/pD4j3B1I1zImuLhLCznG4NLtvv0Mg2WQHjzGlcNfnx/3WUNMuTY0mOKI+9t1188fd7Vqmvddc/loy19nqj5hIW5zAdJt17xySEPU4Pqsx3pbVx/axtZ/Poji+tt9VwvAvi8eOBHXe0voMaHtlwV99aVHqyv0j85g+1vilQ85yhTV+4BBz1PTvGtiCro6zV+YHhfsV+g5u2uEtoJp+B+OQ16w1WAdluCxoQTS3P3Uo8RrOxR8Pr5y2NfjtRM2ycTLv77xxbXh2nSEx3c2/nP396W6+5XIJOpnCRK5b+URj/7pnWBbbr58PONL2bgpRxMJIYQQQghJRFS8rlq7XhYuWeY9XxNCCCGEEJKYpBYVFcv3P/4sG7ds85IIIYQQQghJTFJ//2O1fPbV91JUHOpbRAghhBBCSKKR+tr/ZsifazZ5UUIIIYQQQhKX1G9/WOLtEkIIIYQQkthEWneEEEIIIYSQhITilRBCCCGEJA0Ur4QQQgghJGmgeCWEEEIIIUkDxSshhBBCCEkaKF4JIYQQQkjSQPFKCCGEEEKSBopXQgghhBCSNFC8EkIIIYSQpIHilRBCCCGEJA0Ur4QQQgghJCkoLCykeCWEEEIIIclBbm4uxSshhBBCCEkOSktLKV4JIYQQQhKZO++8U37//XfZbbfdvJTq57DDDpNly5bJhRde6KXsPCheCSGEEFKt9OzZU9544w356aef5KuvvpLx48dLRkaGl5v4HHLIISour7zySi8leUDfIUJd+Pbbb+XGG2+UzMxMr0TVuOKKK+Tkk0/2YvGB4pUQQggh1UazZs3k6aefVqvivffeK7NmzZK//vWvcvXVV3slyM7gk08+UdH62WefyahRo+S+++7zcqoGxOtJJ53kxeIDxSshhBBCqo0OHTpI7dq15fHHH5cHH3xQxowZI2+//bY0aNBA84cOHaqCdtGiRSpymzZtKq+88oosWbIkYB2cOXOmWmzB0UcfrUJswYIFWmfDhg01vTo56qij5MMPP9Q+vfTSS7Lnnnt6Ofb80P+FCxfKU089pecHICC/++47+d///ie77767pu1I0NbUqVPlb3/7m0ybNk0GDRok7du317y//OUv8vHHH8sPP/wgjz32WMRrGqnM3LlzNa9///5qWQco99FHH2m5Rx99tFKfD8UrIYQQQqqN+fPny9q1a9XaeuaZZ0qtWrV0/9prr5WDDjpI/vGPf+hw9nPPPSf9+vWT6667Tt5//33JysrS/BYtWqi4Q9oee+yhgignJ0cF1IABA2Ts2LFeS9VD27Zt5d///reUlJTIQw89JPvtt5+KxLS0NDnwwANl8uTJen7PP/984Pw6d+4sN910k6xcuVJF78EHH+zVtnOYMWOGbvfdd1+9po888oheUzwMQIjis/ETrcwdd9yh+XAHQT7KPfzwwyHlrrnmGi1TESheCSGEEFJtbNq0SX0iv/nmGxVyc+bMUZ/X7Oxsta5C4Jx33nkyZcoU2bBhg3Tq1Enee+89PRaThrp37677SDvxxBMlPT1dLYewZsIPtXfv3ppfXaBP8N+9/vrr5Z///KeKt7322kt9TZcuXaoC+/zzzw+cX8eOHTUN3HDDDXLXXXfJW2+9pfGdBZajArBsn3DCCYFrCgs4rmmvXr003xGtzIsvvqj5iL/zzjuBcth3n094XbFA8UoIIYSQauXXX3+VCy64QLp27aoWOsxgnzhxoooniD4MP8MtAEPMED+//fabuhH06NFDxeuWLVtUDLVq1UrrwzEvv/yyDs83btxY06oLt0LA8uXLdQvBBpCO8xs3bpwO2fvPr3nz5lrGHYPloXYmsH6DgoKCwDVFP53LQ/g1jaUMcOVgXS6v3PageCWEEEJItTF8+HC11kG4wn3gnnvuUf/Pvn37qv8rhtJPP/10HW5fs2aNd5SomwCO6datm/q44s1Lq1at0rzBgwdLmzZtNOC46uTPP//UrRNuzn8V6ZdeeqmeH/rrPz9YowEms1UHRxxxhG4x3O+uKVw64AKB0KVLF01zxFIG+MvBhQBh//3317SKkLZX5x4TsJMiUPUpXsAmGPdSkg+cQwydDy/i4ikhGYgEE2xeSAGLXjfd8bYVJ7QlW1+KNujqdnFHcD803RI8yoJPNLyUi5c53newPy9SO5GwLYWXDe+RO8ewZ6kITYQnRaq9PFy/8RSLfcRK0b7Z0bwYz8sPjg/UpU/HZt+Lh+Kdty+jbLlo7Ue6ZradSGifvPwyJcKq0jJh9USrN5ge3h+kB4+JXs7Fw9o0u4j703y5CuIhaYHvmsN+Dg67H14L0vX/uu8nUtsuLZgT2qb/mKgEipRfNqa6AkQpWybZ9hd/DSA828XLtO2LYjc0NywWODZ4bTTJBPvXF1rez3bPOewzducRjv39crj90LYrdn3jQ3ib1dGHaPj7kgj9gqUVVlRM3Dr++ON1Ug8ELYav4RcKf9HTTjtNh9rXr1+vE7fgNzlixAi1UmI4HpZYiN9hw4apqIXbASYd4RjUVRW291nCinrWWWdJXl6eTjSDLy7CunXrVACec845GoeVcfTo0erLChcJuAfg/IqLiwPnB9cB+MhC4MFFomXLllo3fHzhx7t161avVcv2+rY90PchQ4Zo32H5hYsGXB3effddnUDmrumhhx6qFtmBAweqD+6KFStUdMM/FpPKIpXBdcdnhDYgXLGSwdlnnx34fFy5L7/80uvN9snPz6fllRBCCCHVx/fff6/iDkIPM91POeUUee2113SpLEy+mjdvnvrEQlzBLxbWVEx2givB6tWrpaioSC2v4Oeff1ZxCDF41VVXSZ8+fbTMzgKrCtxyyy2BAGsqJmPBpxXuABdffLGK7JEjR2q/IUbDz69169a6xYsJ2rVrpwLczdTfkaDvcNXANXviiSf0swDwO8bDBR4gsOwVrLLh17S8MvDlhc8vLOz4fDAZD5+PK+e3psdKSv/BY8xjKp5ni80Gah3BJKWUeE+5qWUNHAlMwC8EG3MOvgfvwPN4uO+InrGXphY5s6tb78RtXvDaIGofbGzcptmy2iYw19Il+fG3Ew1YEbR6Q2mp+RxMWTxJuX0Q+mSFvGC6v27s4ZO0qI3RlDb/UMZL1voRNdvUVLTuyps073SAqxv/UA7YtmzwtwsQ81teXD7Ow+ZaSkvN354hJSVNt4Fy3in669WkYFT7jbTwtiOBMu4c8AXDPo4tQX9MRam4puHXL0K94WnF5h/qSjXJqFe/M6g7pBiuj72YOC9bh+2PnpPDO+nwNkyPvT2LvWbm2JTUkLJuD+eEml39IfWV+MqbdC1jgou7tJBjDC7d7tvPMFgG6cFjXDn89flxn3WpOU/XhgZTHHF/u+76+eOuVk3zvmsuH23560xNxbM54jYXIN12zSuHNEQNrs96rLd19aFtbP3ng6gbLbB5Duz74oETcb23hB4T2n5Z0FdferS6Qv/oDLa/JV75kKNMUb0PGPQ8Nc27Jqagq9P8helxwX6FnrO7RmgrmIb/4TjkBVsN1mEJHhtKIM3dTz1KvLZDwefjK4d9PV47YZNMvPzrG19cG65NR3h8Z+M/d39fqrtfiUyifpYgkftWHlXtH1wqIt0JCCGEEEIISUgoXgkhhBBCSNJA8UoIIYQQQpIGildCCCGEEJI02AlbpcWybf1vkr95jZQUFXhZhBCy88GM4yZNmngxQgghRHSJNBCYsLVt3TLJXb+CwpUQQgghhCQ0Kl7zNts3HhBCCCGEEJLIqHgtLS7UCCGEEEIIIYkMJ2wRQgghhJCkgeKVEEIIIYQkDRSvhBBCCCEkaaB4JYQQQgghSQPFKyGEEEIISRoSXry2a9dOXn31Vbnyyiu9FEIIIYQQUlNJ26tzjwm565d50Yqzxx57yKWXXiqjRo2S0047TQ488ED5448/9C052+Pkk0+WTp06ycKFC72UsmnFxcXy559/yptvvik//fSTNGzYUNN3BqmpqfLkk0/K8OHDZcmSJdqPWIh0XoSQ2MjNzZXatWt7MUIIIcT+NoD8/PyqWV5r1aolN998s3Tp0kX+85//yL///W9p06aN3HDDDVKnTh2vVHQg8k455RRZtSr4koTwtC1btsj//vc/Wbp06U5/ZSSEeL169XS/c+fOsnnzZt3fHpHOK1ZSUlK8PUIIIYQQEk7Mltd77rlH3nvvPS9mwZD+oEGDNP36669Xgbl69Wq1jn799deydetW2W+//eTqq6+W8847T4444ggVdCtXrpSpU6eqMMzMzNS8999/Xx5++OEyaS1btlTrZ4cOHSQrK0vuu+8+SU9Pl9NPP11Gjx4t++67r7ZVVFQkhx12mIwbN07OPPNMVeaTJk2SFi1ayOzZs70eV4wzzjhDLcuLFi2SQw45RJ544gmpW7eu5rnzGjlypJ7XmjVr1DIb6bzy8vJk7733lr///e9y/vnny1FHHSWlpaXy888/y8EHHywPPPCAtGrVSs4++2y19qI9ilhSU6HllRBCSDgVtrxCuEZi2bJl6iIwYMAAueaaa+SAAw6QH374QcaOHStz5szRH6Abb7xRmjZtqsIUAhMCDsLumWee0Y5A2E2YMEG+/PJLFX7haXAbABs3blSBCCD+Zs2aJd9//70ceuih0q1bN2ncuLFcccUVkp2drRbgHj16aNn169drPx0Qhc2aNQuE+vXrezmhZGRkSPfu3WXevHny0ksv6bmgrZKSEj0fnBeOfeSRR7T8VVddpcdEOi9YobG/2267yWOPPaYC/oILLlDh6sC1e+211+Tll18OnCchhBBCCAllu+I1mnAFBQUFanHFhKohQ4bIQw89JLfccov07NlT2rdvL8ccc4yKSYiyadOmyfTp0zUOEQdXgMLCQg3PPfecis+PP/64TBoskeFA4N15553y+OOPaxzWUbgupKWlqRUT4f7779e8cGA5hZB2ASISojqcrl27qlvEu+++K5999pmmwcoM1wFYWiFUp0yZIg8++KBeI/Q9Jycn4nn16dNHxS/KoV8TJ07U+nB94BYBXn/9dbUqo/4GDRpoGiGEEEIICaVc8VqecHVAbL3wwgty3HHHyZgxY9TKCD9YDNfDsgnc8Pm5556r8UaNGqlLgRsad9ZQCNXwNBcPB6LQDeFDEKNOACtr8+bNA/Fwtm3bJrfeequKVoTJkyfL77//7uUG6d27t27htgD/VfS3b9++KthheQUrVqzQ/N9++02vFazQEMLh54D+APQN5XGeKAdXASde4UaAPuO6wT2CEEIIIYSUJap4jUW4HnnkkWq9hHCF6IKYg1UUVklYQ92EJVga4fPpAtwDnLUzkjiNJljLY8OGDbqFUCxP/MEN4dtvv5VffvlFA6yl6LsfWFzhIgBGjBghF198sQpl1Aur8tq1azUP4hMuEHvuuaf6vsJVAccC/zk4NwBMZkN5iFT47Tqx66jMeRNCCCGE1CQiitdYhCtwS1dhohGsk1gqa9iwYZoHf1QMucP387LLLpPx48fLbbfdJm+99ZZaNWGRhOCEKLz22mtV1IFIabEwY8YMtV5CaGKiFZa3igZEIobmXQifHAIRCgEO9wMnuAcOHKh5J5xwgrpAwAJ7+eWXy+DBg/X8MIEME9HgSBx+Dl988YVafP/2t7/pZDK3Zi18aSFiCSGEEEJIbJQRr7EKV4DZ9Zic9c0336g/KAQc3AgwKQsTqjAkjolNWIUAPrH9+vXTY5YvX64WR7gbwCp51llnqejDZKjwNAjSWEAb8BlFHRCUaKOywKcVwNUBVtmDDjpILaqwlPbq1UtFKiZgwQILsY5zgTCFYIcwDj8HTBrDdYDbwNChQ3WiF9wV4AvsluIihBBCCCHbJ6X/4DGl6xbP8KKVA0PvcBGAdRHiEcPrfr9T5EP4YRY+JlXBL7Z169Zq3dy0aZMKTQznY9krHBuehjqxfBSsvAi//vqr1o9he9SJPFhQMXyPlyNAXMI/FS4NmNSFFQHatm2rfYkVvJQA4htLdPktswsWLFCrK9Z9RdsQ47Auw8KK/rjVCyKdl/864NzhOwsLNAQ/xDf2cV0IqcngO7yz13QmhBCS2MAQCKCv4iJeEwW85QtWUCyr1b9/fxWTsIxiPVWKQkKSA4pXQggh4fjFa7mrDSQbsIBiQhV8XmHdhM/pzJkzo67lSgghhBBCkotdyvIKMCyPCVMYrsdQPtwLsKwWISQ5oOWVEEJIOLus5RXAVQD+qHhjVceOHSlcCSGEEEJ2IXY58UoIIYQQQnZdKF4JIYQQQkjSQPFKCCGEEEKSBopXQgghhBCSNFC8EkIIIYSQpEGXyipcNdeLEkJI9YK31u22225ejBBCCBF9uyrYJZfKIoQQQgghuy4Ur4QQQgghJGmgeCWEEEIIIUkDfV4JIQlFuM9renq6HH/88XL44YdLw4YNvVRS3WzcuFG++OILefvtt6WoqMhLJYSQHQN9XgkhScOJJ54oAwcOpHBNMPB54HPB50MIITsTildCSELTq1cvb48kIvx8CCE7G4pXQkhCU69ePW+PJCL8fAghO5u4itdmzZrJk08+KU2bNvVSyueoo46SJk2aeLGK06BBA22vS5cuXorIPvvsI7feeqsXI4QQy4svvqj+tKR6eGd6HW+PEEKqRlzFa8+ePdVxv0ePHl5K+UC8Nm7c2Ittn5SUFG8vlOHDh0tGRoYXI4SQskC8/vHHH16M7EyccMXWH4aNzNR0QgipCHEXr6+++moZ8dq3b1+57bbb5I477pDjjjtO00aOHCktW7aU0aNHy/77769p8J1Cudtvv12GDBmiYhWWVKRdfvnlOjkgHIhlzEAbNGiQlxLKgAED9PjJkyfLGWecoWmo86abbpILLrhA7rzzTrnkkkuka9euMmHCBO1ju3bttBxAn2DJRZ+OPvpoL5UQUt08++yz+r3H9/Kuu+7yUkW/07jPHHvssfLKK69o2g033CC//PKLXHvttTJjxgxNi3Y8iT8Dj8zRbZtGM0PC0HMzZNWqVZpHCCGxEjfx2rZtW8nMzJT33ntP6tSpE1jqpnXr1jobFeIPgrFfv34qWjHcv3LlSnn00Udl3rx5Wn7w4MEqMvFDg/p69+6tddSvX18ee+wxmTZtmsbDeeGFF9SK26JFCy/Fkp2dLR07dpSJEyfK+PHjVVyjXgDXBhx3/fXXS/v27WW//fZT8frBBx/ISSedpGVatWqlfZo0aZLWccwxx6hrBCGketm2bZvMnj1bxSmWakJYsGCBLFq0SN544w2NP/fcc/odLygokFtuuUX23HNPvb8cccQRUY8nOw4nYA844IBAABSvhJCKEjfxCmE4a9YsKS0t1R8FZ33t1KmT/PDDD5KTk6M/IjfffLOsXbtW8/xAPM6fP182b94sxcXFMnPmTE0DWNMLx0cD6w3iB+ucc87xUix5eXn649SnT5+A1RZ+sgB1bt26Vfu0YsUK+emnnzR92bJlAYGKvqMvsAIPGzZM0tLSZPfdd9c8Qkj1Ubt2bbnyyiv1+40HW9x3cF9p06aNNGrUSG688UaZM2eOugrgoTqcaMeTHYsTrIQQUhXiIl4xvN+9e3d1D7j77rvVYgoxGwkIxlgXtI7m4xqJTz75RC2t/nb32GMPue6661TELl68WHJzc72cUPDDheD2IVIdELbvv/++BpzbwoULvRxCSHUBK+nZZ5+tIvSQQw6RunXrajpGfV5//XV9qcGnn34qp556quTn52uen2jHE0IISXziIl47dOigPxBjxoxRawa2EIAQj/iRgAWzVq1aOqkKQ/NwGwCFhYWaDn788Ufp3LmzLruSmpqqlltYbGMFonPq1KlqZXXARQCWVPi4YWiqoku6YAgSlpx169ZpPSUlJTrcSAipXnC/gEvQaaedpj7qGzZs0PTp06fr/Qf3D7gErV69WtasWaN5sMC6EZxox5MdS/iEreenFno5hBASO3ERr/ihgMuAH7gOwAoKyyX8yeBzCpcBlIOvK8D+qFGjVNxiCRsM4Y0dO1YnSOG4zz//XMvFyu+//y4ffvihFxP57rvv1LICf9vTTz9df8ScWI6F5cuXqxVn3Lhx6jMHKw6su4SQ6gW+81u2bFF3oClTpuhDJkZ1MOqD5fcwUROTtkaMGKF54IQTTtD7y5dffhn1eLJjgd+rf8LWNVd8XWauAiGEbI+U/oPHlBaumutFCSGkesGDrJvwCTCpkyQ2WDWGEEJ2JFhZCmDOUtwmbBFCCCGEELKjoXglhCQ0GN4niQs/H0LIzobilRCS0FTU953sXL744gtvjxBCdg4Ur4SQhObNN9/UiZhYA5okDvg88LlgjW1CCNmZcMIWISShCJ+wRQghhHDCFiGEEEIISUooXgkhhBBCSNJA8UoIIYQQQpIGildCCCGEEJI0ULwSQgghhJCkgeKVEEIIIYQkDVwqixCSUIQvlZWeni7HH3+8HH744dKwYUMvlSQ7Gzdu1BccvP3221JUVOSlEkJIZLhUFiEkaTjxxBNl4MCBFK67GPg88bni8yWEkIpA8UoISWh69erl7ZFdEX6+hJCKQvFKCElo6tWr5+2RqrJlyxZvr2pUtJ7yyvPzJYRUlLiK12bNmsmTTz4pTZs29VLK56ijjpImTZp4sYrToEEDeeyxx7xY/GnevLncd999ut+4cWMZO3as7hNCqpf58+fLcccd58Usr732mlxyySW6v99++8mGDRt0P5xvvvlGTjjhBC9WMxg0aJB06dJFhg8f7qVY3nzzTb0W8Cl29zoQLb2i9UQrXxnemV7H2yOE1HTiKl579uypjvc9evTwUsoH4hWiMFZSUlK8vZ3P+vXrZdKkSV6MEEKSh2nTpskTTzzhxSx//PGH3H333fLss8/K66+/LrNmzZLp06dHTQcVqQdEKl8ZnHDF1h+GjczUdEJIzSLu4vXVV18tI1779u0rt912m9xxxx0Ba8nIkSOlZcuWMnr0aNl///01Db5PKHf77bfLkCFDVKzus88+mnb55Zerc3+sRKoLROoLGDBggKZPnjxZzjjjDC81iN8K27t3b7n11ls13HvvvRocaBfpaPfoo4/2UgkhiUR+fr7ceOONahk877zzJDc3V9MhvmBBxL3mqaee0jRYamFRvOiii+TRRx/VNJRDGsrhnlFaWqrp4eBY3H8waoP7wfnnny95eXmaB7GH9pF+1113aRrKn3baaXLttddK//795bLLLpP3339f04499lj54YcftByI1NeKMHfuXOnUqZOOYGFFhyOOOEK++uqrqOnRqGj5yjDwyBzdtmk0MyQMPTdDVq1apXmEkJpD3MRr27ZtJTMzU9577z2pU6dOYKmb1q1b62xSiLmbbrpJ+vXrp6IV7gUrV67UH4N58+Zp+cGDB+sPwQ033KD1QSSC+vXrq3sAnuJjIVpd0fqSnZ0tHTt2lIkTJ8r48eNVhOOYaHz22WdabsKECbpkw8svv6zprVq10nZhoUVdxxxzjLpSEEISi61bt6owxD0Fo0XvvvuuLFmyRKZMmSLPPPOMvPLKK3qPWr58uZZfu3at3k/wsL106VIt9/TTT8tbb70lP/74o7osROO3336Tq6++WkVoYWGh3iO3bdsms2fP1nawVBTCggULtDwsmdddd5288847MmfOHJk5c6YaBc455xy5//77tUx5fY2VnJwcvWc7MjIy1Dc1Wno0Klq+sjgBe8ABBwQCoHglpOYRN/EKwYfhIlggcFN21lc8kcNagBtcQUGB3HzzzfpDEA581ODHtnnzZikuLtYbNtIABCKOj5VodUXrCywh+AHo06dPwLoLK8L2gDUEAvzzzz/XOOpHe7C0DBs2TNLS0mT33XfXPEJI4gBfe+dvv+++++r3GPcvfGfdwye+y4sWLdIyeAjFQzRAOYywwOUJ5fFAjPVKo4E5AK6t9u3ba1u1a9eWK6+8Uu87eDDHfdPdF1Eey0hlZWXpyFPXrl01HfcXJ1DL6+uujBOshJCaTVzEK4bku3fvrkPy8H2ClRNiNhKweMS6IHU8fVwj1eX6sscee6ilAyJ28eLFgSHE8sAPSbdu3coM161YsUItLAi4FgsXLvRyCCHxAqM74d9TPJTWrVvXi8UO7g0lJSW6D7E4YsQIDRgVwn1te+D4aG4D4bi2YGU9++yzVcQecsghUfuN8u7elZqaGnLvrExf/eAa4iHeAasw+hEtPRoVLU8IIVUlLuK1Q4cO6kM2ZswYtSZgC6sARCFu0hB6tWrV0uEkDLVjqB7gJod0gKG3zp0767IpuEnDcuv376oI0eqK1he4CCxbtkxmzJihQ1DbW7oFN2v4rj3++OM6/OeA5aNNmzaybt06rQ8/Uv58Qkh8wL0F95iPPvpI4xhlwdC9czWqDHgYxcMr3H9wn0D9ke4FeDCHpRWrGeA7DtcDvP2rIuAeBVcljN60a9cu6soI0Yi1r+UBKybui3jTFUQx3KFg5Y2WHo2Klq8K4RO2np9a6OUQQmoScRGvEIcYxvID1wHc5GGJhD8XfEQxTI9yGDYD2B81apTefPFKSAyhYWIDJjzhODccXx6YIOAmTyFceOGFUeuK1pfvvvtOLSDwhT399NNlzZo1AVEdCViY4VYA1wDXLob5MKSHSRTjxo2TW265RU499VT1pyWExBc8lD744IM68oGJU0OHDtXJT5jAVFnwEH7ppZeqRRSuAJiIGcldaa+99tKHdCz/hLbhCnDKKad4ubEBf3v4hcJNCb6reOjFSFCsxNrX8sAcgKuuukrvYyeddJIKYqwAEy09GhUtXxXg9+qfsHXNFV9LixYtvFxCSE0hpf/gMaWFq+Z6UUIIqV7w8OkmfAI3w78ynHzyyeoP6oCFEg+YO4Kd2VY0EqEPlQET4QghpDx+/fVX3WIeFMUrISShiKd4JckBxSshZHv4xWvcVhsghJAdwY5YdokkDvx8CSEVheKVEJLQxOL7TpKX8pYZI4SQSFC8EkISGrw3/8MPP9QVBciuAz5PfK5vvPGGl0IIIbFBn1dCSEIR7vNKCCGE0OeVEEIIIYQkJRSvhBBCCCEkaaB4JYQQQgghSQPFKyGEEEIISRooXgkhhBBCSNJA8UoIIYQQQpIGLpVFCEkowpfKSk9Pl+OPP14OP/xwadiwoZdKEp2NGzfqCwjefvttKSoq8lIJIaRycKksQkjScOKJJ8rAgQMpXJMMfF743PD5EUJIPKF4JYQkNL169fL2SDLCz48QEm8oXgkhCU29evW8PbI9tmzZ4u1VjXjVA/j5EULiTVzFa7NmzeTJJ5+Upk2beinlc9RRR0mTJk28WMVp0KCBttelSxcvRWSfffaRW2+9VfcbN24sY8eO1f1o7L333oHy0dheOzsD9OGxxx7zYvGnefPmct999+l+LNeNkOpk/vz5ctxxx3kxy2uvvSaXXHKJ7u+3336yYcMG3Q/nm2++kRNOOMGL7XhefPFF9eMFK1eulHPOOUf3gT9v2bJllbZSDho0SO9Pw4cP91Isb775pp4rfIbd9xtES49XPZXhnel1vD1CCCmfuIrXnj17qmN+jx49vJTygXiFUIqVlJQUby8U3GgzMjK8WJD169fLpEmTvFjVidbOrka8rxshNRkI1D/++EP3W7ZsKU8//bTuA39eVZg2bZo88cQTXsyCeu+++2559tln5fXXX5dZs2bJ9OnTo6aDeNVTUZxwxdYfho3M1HRCCPETd/H66quvlhGvffv2ldtuu03uuOOOgLVk5MiReiMfPXq07L///poGqwPK3X777TJkyBAVq7BwIu3yyy9X5/9wIJYxAw0Wg3D81kQQqR9+0A/cjOvXr++lBCmvHTBgwACte/LkyXLGGWdoGvp+0003yQUXXCB33nmnWoW6du0qEyZM0D60a9dOywGcOyy5OPejjz7aS42NSNcNRDvfSH31479uvXv31n4h3HvvvRocVekzIdVJfn6+3Hjjjfp9Pu+88yQ3N1fTIcJgScS95qmnntI0WGphWbzooovk0Ucf1TSUQxrK4XtUWlqq6eHccMMN8ssvv8i1114rM2bMCLGuhueFE6kvFWHu3LnSqVMnHbXBig1HHHGEfPXVV1HToxGvespj4JE5um3TaGZIGHpuhqxatUrzCCHEETfx2rZtW8nMzJT33ntP6tSpE1jqpnXr1jrbFAIHQq5fv34qWjEMjyE0/BjMmzdPyw8ePFh/CHBTR30QTgBiEkPmsApE4oUXXlArbosWLbyUskTrhwPuC6NGjZJHHnlENm/e7KWGEq2d7Oxs6dixo0ycOFHGjx+vIh79B3ChwHHXX3+9tG/fXoczIV4/+OADOemkk7RMq1at9Nxh7UQdxxxzjLpgxEK06xbtfMvrayQ+++wzLYc+Y3mKl19+WdOr0mdCqputW7fKZZddpvcUPJi+++67smTJEpkyZYo888wz8sorr+g9avny5Vp+7dq1+h3Dw/bSpUu1HCyob731lvz444/qshCJW265Rfbcc089FuLOT3l55fUlVnJycvSe7MCoEXxZo6VHI171bA8nYA844IBAABSvhJBw4iZeIYIwbAQLxOzZswPWVzyZ//DDD3qjKygokJtvvll/CMKBqIMfG4RjcXGxzJw5U9MARBOOjwbWE3zjjTdCfMnCKa8fEJjw8fzkk09k0aJFmhaJaO3k5eXpD0yfPn0C1mFYIwD6jh9KtLlixQr56aefNB0WGCf20DecM6ymw4YNk7S0NNl99901b3tEu27Rzre8vpbHaaedpg8bn3/+ucar0mdCqhs8rDp/+3333Vf/tnH/wt+xeyDD37e7H+C76kZkUA7WU7g8oTweErGeaTwpry+7Mk6wEkJIecRFvGKYunv37jpMjWF3WP4gZiMBIRfrgtXRfFwjAeEJq2K0dsPx9wP73333nXTu3FlSU8u/JJHa2WOPPeS6665TYbh48eLAEGQ4EPZueBFb/Dg5IGzff/99DbiGCxcu9HIqTqTr5s431r76gVDt1q1bmaHLePaZkIqA0Z3wv108qNWtW9eLxQ6+LyUlJboPV58RI0ZowKgQ7mvbA8dHcxuoCpXpix9cIzy4OgoLC/X6REuPRrzqIYSQeBEX8dqhQwf1IRszZoxceeWVuoUwg1BasGCBip9atWrpsBKGn91wPW52SAcYeoN4xLIqEJCw3MJyGCv48Zg6dapaFCNRXj8g5DC0jx8w+JiVR6R2MOwOSyr81jDEVdGlYWBRadOmjaxbt07rQT+2bdvm5ZZPtOsW7Xwr2lf8QJ1//vny+OOPh/SpKn0mpKrg3oJ7zEcffaRxjDxg6N65GlUGPKDhgQ4uMfjuoP5I3w88uMLSitUM8HcP1wO8/SsaGFqPNnIULS/WvpQHrJi4F2DECA+ucAGCz3209GjEq55YCJ+w9fzUQi+HEEKCxEW8QjBhmMsPXAdwk4d1Dq8HhN8khq5RDkN0APvwM8XNGcvFYDgbw/eYBITj3BB1rPz+++/y4YcferFQyusHwI8Q/F379++vy2eVR3g7sNrWrl1b/UtPP/10WbNmTUCUxwJ82TA5Y9y4ceoHd+qpp6p1NxxMinCTpxAuvPDCqNct2vlWtK+wpsOtAK4Brl28OSfWPhOyI8CD2oMPPqijAZg4NXToUJ18tb2Hz/LAQ/ill14qZ599troCYHJiJGG511576UM6Vh9B2/BlP+WUU7zcsqBP+H5++eWXXkqQaHmx9qU84Pd+1VVX6XcX/vUQxPDZj5YejXjVEwvwe/VP2Lrmiq/LnctACKl5YLQrpf/gMaWFq+Z6SYQQUr3ggcxN+ARuhn9lOPnkk9Vf1AELJh66dgQ7o62deT7xBBPdCCGkKmDFJ4BRe4pXQkhCEU/xShIDildCSFVx4hXEbbUBQgjZEcTzVaVk58PPjxASbyheCSEJTUV930liEe9lxAghhOKVEJLQ4P35mCAZ7eUhJDHB54XPDWtjE0JIPKHPKyEkoQj3eSWEEELo80oIIYQQQpISildCCCGEEJI0ULwSQgghhJCkgeKVEEIIIYQkDRSvhBBCCCEkaaB4JYQQQgghSQOXyiKEJBThS2XhPdabNm3SLdk1SU9PlwYNGkhmZqaXQgghofiXyqJ4JYQkFOHide3atTJx4kQ55phjJDWVg0W7GiUlJfLpp5/KVVddJc2bN/dSCSEkFIpXQkjCEi5eEf/6669lw4YNUlxc7KWSXYW0tDRp1KiRHHnkkVK/fn0vlRBCQuFLCgghSUVBQYEUFRVJaWkpwy4W8Lni8yWEkFiheCWEJDyRRA/DrhWqQp06deTMM8+UunXreinxA3V27dpVhgwZIpdffrkMHTpUjjrqKGnYsKFXoupcc8018uSTT+qWELJ9KF4JIQkPxA18Ixl2zVAV8Qrheu2118qxxx4bd7cSTCIbPny4DBw4UNq1aycpKSnSqlUrOeKII2TUqFGaFg86deoUso0He+21l9x1110yduxYvUYO7CMNeShDSDISV/HarFkzfXps2rSpl1I+eHpt0qSJF6sccPD/+9//Lrfddpvceuut0rdv30D6fffdp/uEkOTGb6GD/+vxxx8fkrYrBfj4Dhs2LGJeZcMLL7wgf/zxR8S87YU33nhDr/egQYPk3nvvDaS//vrrmgbReOONN6pw9B9X0VAZ6tWrJ1dccYXsvvvusnnzZsnNzfVyqg6E6imnnKK/a99++63885//lHvuuUemTJkiH374odSuXVtOO+20hPTTxcTGK6+8Un9f9913X/2NhGhFwD7SkIcyFZ0E+c70oBAmpLqIq3jt2bOn+i/16NHDSykfiNfGjRt7se2Dm4kfOPpjGAczVa+//nqZPHmyzkjGF5MQsusAcRNuqfPHd5UAAYgH76eeeipifmXDiy++KMuXL4+YV17AMRBrTz/9tPz3v/+VWbNmySeffKICe9KkSWqsePPNN2XBggXy8ccfR6wjllAZ8ZqdnS1jxoyRvffeW+NZWVly4IEH6v3fhZYtW2peZWjfvr20bdtW5s6dK2+//bZs27ZN09HXL774Qj777DMVg4n4e4Nris/OAQsxrNMIfmvxsmXLtGysOOGKrT8MG8klzsjOJa6rDcD6OWPGDDn88MP1SdwBa+hf/vIXfcKD0Hz33Xdl5MiRcthhh+n6jbgxzps3T3r16qXDMxCp33//vbz00kt6Azn33HNlzZo1snjxYpk2bZpXq8g+++yjQzr+trp37y5bt27V5XUgaC+77DJNHzBggIplrCf4zTffyH/+8x9NP+OMM+Tggw/WffQL/QPR0gkhO5ZIqw383//9n6xbt07jsIJdd9110qFDB/nll1+kS5cuupTW/Pnz5YEHHlAfxZ9//lkOOuggmTBhgmRkZOhxflAHrGh77LGHfPfdd9KmTRu1Kv74449R63jllVfk2WefVYEJixvuS5G444479KH8wgsv1DjufQ8//LCKrOeff17vPXjI79+/v1oN0ZdbbrlF+wDxdfTRR8uIESNUJEYjUj3g7rvv1msFgYV77Kmnnqr9h/iCBXH8+PF6n412fDjvvfeeHvuvf/1L4zgPWDdRN64PfEHBxRdfLMcdd5yccMIJGj/ggAN0Gw3c3/3ACggrbqxWTAznw3CxvWH7/Px8+cc//iFLly71UmIH1mb8BkCg+4WgAz6vOG/83UHAVwT4tsbiIoCHAvS/MkBYox0I8Ehg5jZcB3JycryU2IBYbdNophezLN9wmBzacam0aNHCSyEk/uyQ1QbwBcEC07jZ4Uvjfnxat24tJ554otx+++1y0003Sb9+/fRpGDeElStXyqOPPqrCFeUHDx6s1tMbbrhB6+vdu7fWgRvaY489FiJcAW54EKl+Zs+erT9AfvCE3rFjR/2Bw80bFmLUj6EmCG2k4QcHfcOPVLR0Qkj1AJEFIYKA/S1btujw58svvyyrV6/WLdLxgAthC2EGq9Krr74aOM4fUPa3336TSy65JFDmnXfeiVoH7ikQbrgPQcDCkoly4fUiQHx+8MEHuj9nzhwVWhCmGzdulC+//FKtqhjGx/0M9z60ifsY7o94GMfLGCA+w+t1IVo9EFFvvfWW9g33VWxxnXAuEHk333yzis1ox0dqC8YFjHC5OAwQSKtVq5bsv//+mrZo0SIVshDFrtxXX33lfXJlQZ4r5wKuQUWsr/jcYvE3hTX29NNP92IVA8eiX3l5eV5KKPic8CBTGeturL6tVfGBhSiF8P3999+9lCBIq4xwBQOPtMfgAcUFsGrVKt0SsjOIm3iFIMSQEm5AEJDOdQBfvh9++EG/JFgOBTfQcMEJ9ttvP735wm8JN4SZM2dqGsDNsjJfMgduPrCa9OnTRy27AD8osObCSgsrB6y48JnFDSlaOiGkesD3D/cPBOzDigjrJsQFLIfwg0U61gvFwzOGQmHxRLo7zh9cWVhYEYcFFhbeaHVA7EH44UEYAu7xxx/X9sPrRYBFGEPMsAp/9NFHWgfSIQJhjYUYfuKJJ/ReiQd4tIm6IJZcHcDth4do9eCa4L6G+xVGlyC2XT04F7RT3vH+NlzA9cWx0eJYexfWPbxgAA/4Lh3h888/1/b9IM1fxgX0rSL89NNP3t72qazhAT7COBZ/G5HA9YbBBp9zRcHDQizEWm5nsz3LOiE7mriIVwzzY7ge7gEYtoLFFGI2EhCFuAHGQriPazgYRgyfHAbRjGFEP7j5wPoAEQtriXPqRxzWDohuWBEwvIabUbR0Qkj1gAdaZ6WD2IHgcnGISXynw9Nx/0C6i/tDeFm/uItUhxNtLh0i1l8uPEBQY1IP3Kjw0Iw0PMT/9a9/VUGEkSBM+InUZng8PESrB6L0kUce0cX+4ZOJoX0YA3AM6kO95R3vb8MF3Pf8cdwbIbLdPly2MDJ16KGHhpRzAX6wDuxHKoOAzxd9jBUYI8pzq3Dgc4OvbmWAMQWfOX7Lwt/8hYcbnDf+PmB1rij4ncTn44IffzrKVRbnNoCRxHCQ5iZxEZKMxEW8wtKAGxCc5zF7EVvcSCEa4bMD6yuGmXCzhBB0wyy4YSIdYFiuc+fOOnsUP0YQobjJlgf8mODD6vyu8EU86aSTtC9+4CKA4T/8kGBoA20A+Jdh+GnhwoXqAwYfJlguoqUTQqoHiBAndHDfwOjIihUrVEDBHx0jJEjHkDjyIDghbpDujvMHlPULRIgntBGtDowCwZq5fv16wVD86NGjZcmSJSF1+gMEJPwgca+B2xPScC/E0kQQPRBDaAfthfdle+I1Wj24v8HlCn3FMk4Y4YJFFcfgPokRrPKO97fhAsrByonrgdEvjKrhfo68Bx98UO+5GJYPP84fMGcAIVKeC7EaNPxgroR/LgL+FuC3jIlkLsAIgfOtDLAu4nOAexpG4eAWgd+obt26yTnnnKOuIHALgftJIoLfYb+/K1wF/C4EcLvA71xlCJ+w9fxUjkySnUtcxCuEJqyUfnCTwxMrfmDg8A//UbgMoBxuqAD7uMniZoghOzxNY/05DHvhuEjDTn7wg4ObFSZiYbIYZlLiJgnrqh9MyIB1AX63uNHiRgzRjCdr/BDBLwh58FNDXrR0Qkj1AAsYvu8I2MdEzvvvv18uuOACjWOiELYQaXfeeafeV2A1hJuQO84fUBbCxMWxjxCtDliqsAg+JjbhBx/iFH76/jr9AaIQD70o59IgejDyhD7D5x+TWxAP7wviwMXDQ7R6MLkMD9mw2EFcY64BhrZxDPqBVQMgtqIdH94OAka2INyuvvpqnZyEUS0YC5wvMIQhXBAQ4A8cqY5YgjvnioL+OwGLerAyAHxwXcDQf2XA9YL1HEYYiGtsEcdEPUxMw3XFxDj4C1e27zsSGIAgrh2Y6IL5JAj+SS8QtyhbUeD3iklbLlxzxdecrEV2KnFdbYAQQqpKpNUGIJT8P7qRwOgNrIEQtX6w4giEjQNCJNoa0NHqiEZF6q4MO7p+PzuzrXBgBcTatpV9axX6DvF+6aWXVml+hMOtYIPrgfVsYbHEiCH6B39miGJY4eMFRizhogYf16q4CvjBAx4eODChEatFuOsCazmssnjAwt96ZdweCKkO/L8BFK+EkIQiknjFqMz2JsbACvjQQw/pYvKVJR51kIqz55576koLlRWv8D3FajVY7QbuEVXloosuUt9e+OmGL+tFCKkeKF4JIQlLJPGKpbAqM6ubJAcQr/Ajrax4JYTs+vjFa9yWyiKEkB2F80dl2DUDPl9CCIkVildCSMLjJlQx7NqBEEJigW4DhJCEItxtAEs+YV1S98Y9suuBt27hdb2YREQIIZGgzyshJGEJF69YgxSTcLAluyZYngzLfPFlMISQaFC8EkISlnDxSgghhHDCFiGEEEIISUooXgkhhBBCSNJA8UoIIYQQQpIGildCCCGEEJI0ULwSQgghhJCkgeKVEEIIIYQkDRSvhBBCCCEkaaB4JYQkDZFeKVqTAyGE1ET4kgJCSEIR7SUFJSUlUlxcrNuaLtxSUlIkNTVV0tLSdEsIIbs6fMMWISRhiSReIVaLiookNzdXtxCwNRkIVrxStVatWrqFmCWEkF0ZildCSMISTbwWFBRITk6O5Ofny6RJd6hgQ3qK+Yf/HNYoi/+ZnDBNp+W94/xUtK7wdFevpppkl+Yn2K6vIq0DRK4/vK82LjJ27FjJysqSOnXqSGZmpqYTQsiuDF8PSwhJSuA2gACxFxB1KhRdgAC1Ii8ELy8cV84eZ/a9w1xRm605gfptPVZY+ptx+S4tvA96mK1Jy9hs1OHV47UJEA0e78oEzzl4HQghpOZB8UoISQqccAtixR2SncwDKOUvqoLT23eCUMWg+WfrVKloythSfgHq2rR5tqz75+9PUGh67SEvmK3YIraOQBnUjKJa3O6741wdwb64dtyxXhlCCKlhULwSQpIOq+cg3Dwx58WduAsKPptmo0HBqVuTaGWorSVQyjvYLwy1Dq9uTbVFELXlNNG172W6MgZNDznQV85g99AGitl/moq4r35CCCEUr4SQZETVnpV8QYJxKzytAMS+FYNB8QcxaTVh8J87XMsHiyo2DYkoZDO1Dt2z9bgKVL8abB2+Pnn/t/mI2RQrWP2ggD3Otol8c5z5F94vQgipiVC8EkKSlKCF1co/v8CMRFAQWhFYVgkiD6JU5aNW7upy2+AxqCPYPjAJ+E+LWCuq1mB2bL1IR36wDpSwcRuC5ewWPXH9sAKZEEIIxSshJOlwAlHFnvlnY07o2ZjFCT4XByhn/u+JQnu8tWo6oalS0ickg/VYbFm3tccrZoOoPQ5HWaFs67VbLeTKB+q1/XDlALb2eE/I6rGuPCGE1FwoXgkhSQhEHAJUHeJG9KnQw77Ns2LP4aVpYSsIEWw6sPs2DULRikUbd/UE6wupWnH1mD0c40Vte45gm+54tOHKaI4eZw+2ZZyg9dJC6iOEkJoJxSshJOlIz6olaZkmZGVLama22c/SrYYMu5X0TC9kiWSYYLalJl6aluFtM6XE7GtIRUjXbbEJRZImheb2WJSSZvbN1sV1my4FpalSUGJCaYrZmoC4CflmP784RfJKxGzFbEslrxjB7AdCimwrLJXcIoQSySks1q0LyNtWaNILEIq8UCJb84tka0Gx5hFCSE2G4pUQkpzACGkNmZ6tEgT3gFo2fcbK0lIj/NTaaQm3ZOJoTXHJvuoCJT0raAgmDcmwkFqLr2ctNeIW/zRdC+L/2Ld12O6YtDJVolxJoK5gAdsOIYTUZCheCSFJRwkEnFFx+g9bjWtSMM0Wsfv6OlkrLBEvQYahxKhHCFota4JKRihKLx9CF2g+6kF6iq3PtuCKOhmM+m1bOBbt2FLYR1m0h3o0UevAPqK61XSNYceXZmu39ds8QgipqVC8EkKSDicAVWfaBCsUEYxKRB4yEC/x4hCPxU6XIu6ll5YaQWj2ES+BKDVlSjTNlgnUq2VN0Hxf/SbBBlPGHI88lCsphoXViE4v3R5sjwOoB0k2zZbx9x/9spkWm+bVSQghNZiU/oPHlBaumutFCSGkevnzzz9lt91282IWiLb8/HzZsmWLbu+8516k2kxPzKnw0z21T3riL4iRmW4nUA6CEGV1P5AAwYldU14ttbYF5KMNi9sizTvEbFVcamEkpvrKAytKg7j+Id2X4TUWSPFnaTulcvP4cZKdnS316tWTrKwsk+7qQpkUqV+/vtSpU0fS0tK8VEKqH7zSOCcnRzZv3hz23SBk+/z666/eHi2vhJAkBD97sEFC6em+9zsYkINOuJp0/EhayyeUn3cMoiWmBuRpGZPsWUKt5dMTmhq8MihvK/TSvV2Uhy42EdRuj0cbtoD7kdYyWgL9QBaOs9ZWzUGWAVEEjWLrDjEVuLLlAeGKQOFKEg38Tbq/T0KqAsUrISTpsMIQWwzPY6gfwYpIKx6xtcP5Wt4E6xZgg/VLtelOLGLfS9E9YMWipyrh64pyXraKTxOs1dOrT/MQx47Jd0IV4hlxCNCAYDXBq1rLeEkagO6b/ur52UTXZnnA4kpIIsO/UVJVKF4JIUmHm8Gv8tAzTVq7qBV3bsgfQOup3lMdqYowkA5NiFhg4paX5iZa6bFGmGowVSIN9dh81I+tycUxgZitwwpX9EOPsn1AwGHIcnETbP2uD3Zf/W+1AMpoIRNwICqIDi2uJNHh3yipKhSvhJCkw1lU3YQqK/PMP4g8I1qxwYQpGDydmHXWWpvmCUAIQpMAfan6EHENdtgfx6IerznN0309HhHEcQBEpcuHbMXxEKLoh+2nZqMv5vhgv8w+Ekx9qEarQl3B6gJBm9V/2Nv1aNy4sVx//fVeLJRRo0bJscceKy1atJAHHnjASyWE1FQoXgkhSQjEIf5v/0EFBobmi4tNFHIWcbtvjbAQk0EpWFJq8ky+Kle1jkJMenWYPN2acjjWWmZtPvJwnG3DS4NQRTD/cFxJSVEgX2Wn1u/qxtYGbR/lTZ2wGyPoibl+QvR67aagXQ04dtdj/fr1Mm7cOPnggw+8lFB+++03Wbp0qV6PV1991UslhNRE0vbq3GNCSc4qL0oIIdXL1q1bdRZ9OJipXFBQoNsBfzkaks+IRIg5I/pUnHqYiF3P1YhDaEFYUc2OCkSvIOLQvNCQtoweZvNURNoItrYoZKUVkVqXJypROiUl1AYQEJemCq+Ii2o8NdWtQoAabd3qImAi9liVsD5ce8i35zJj+v9Jenq6rjSArTsv0KBBA29P5Oijj5YLL7xQrZawbM6fP186dOggl19+uey7774ybNgwjaP9iy++WAYOHCiLFy+WjRs3ejWEgrKXXnqpdOzYUYYOHSoHH3ywfPXVV7L33nvLX//6V+nataucccYZsueee8qcOXO0r0cddZTWfcwxx0hGRobWHwlYVe+55x5ZuHChxo8//ng9rnv37tKwYUPt+x9//CEnn3yyTJkyRfbbbz854ogjtAzOE0PRP//8sx5LEh+sOEBIRfDfl2h5JYQkHVZAWqGHUGz21ZLqWSaRD1EJoWj+U3GXmpqOIzUPeK6okmqqCAhXL08Fo6mn2Ihja0UtRqYKzVTU6wUULzFiGmXRH5TXLgFPw6alpepxWrXJKw5YZZFqRTH6qX1MSdM0bd8IVhdcpehrqk+olgeEbadOnWTIkCFywAEHyCGHHCK5ubmaByE7cuRI6dOnj+y+++4aP+ecc1QUHn744WoFjUbz5s1VEPfq1Ut/TPCggXNv1aqVjBgxQnr27KmCuk2bNpp2yimnyLnnnqtCF3VjqaRo4PrDqtq6dWs57rjjVAgfdthh2o7ruwNlzjzzTLngggtU4EIkYyk1Uj3cdNNN5QZC4gnFKyEk6YAQNFJP92GJLS4qkcLCYsnLL5KCoiIpMnG1ZsJiaYLqPYjPgJXUiEIdtodItfWBtLR0rdWK0zRPVKaqgCwsKpbR542QC00oKi407RaZA+FWAHFq5SUEcXFxqfapEKLWiFkcB1GWapQn6s1IzzQhXdJQNwJaLEmxProqmNF3U5cKVXOcilorWtFX5McC1sN97rnnpF+/fnL//ffrurDoFwQexODvv/8unTt3lrVr18pHH30kK1eulLp166pF9vvvv/dqKQuOxfD9gQceqG20bNlSVq1apemwfEIk//jjjypWYU399ttv5fPPP5fevXvLrbfeKp9++ul2rW6w8MJyO3PmTO1/pPKwvBaZz/rss8+WZ599Vmew16pVSy33ZOdz8803e3tlKS+PkMpA8UoISTpS1FxqBSNEYXp6mqSnmWBEodGjagGFaCwyQg/7EG0QsSpoTb7qP0ySKkZ+kYrMIlO+uMiIUpMHkQjxiPpR90WjRsroc4er20K+CRecOwLdME3BogqxaQSrpzi1a6noj9kxbaBUkakXx+UasZebl6vbgsIi0x58XlMkxZTNzMzQc8jQc0k3qbg9exZbA7Zad0CAl88ee+whEydOlCZNmsj//d//qbgEOAcAMQvrLIQ1RB8sqtjPzMzcrgDEsTjGHZuXlxdIdyIZ7UIoIw8CF23Begoxur2lkuBeAMHqjoNVGu2EAxcETOCCxXj48OEyffp02bBhg5dLdjaRRCqFK9kRULwSQpIPVXSweqZYC6bZpqelSoYJmUb4WAEIqyZsqxCrRlxiqF6PgwBEjlGCUINGYMKKWlhUJHkFhbLNiK2t27bJttw8Ey+S888ZZoRnIXSkNttrnwbSq0N9tZ6mm+NTjVCFmIYVFa2hXrXYmttrejosrWnapywTsjPNMUaYos+wshYUFhoha9rLyZWtuTmm7XzJM8K2sKhARTXag1a1ZwFRjXOIzfLarl07tYRec801smLFCnUNiHWJInedYgHXEsDXFm0gjmF8WF9hcYUfLFwLIEhheUW/ttcPWHZxnHvZAlwEwoFvLHxtIXLxUNK2bVu1+sLaS6oPv1ilcCU7CopXQkjSAZEJ1wBYV4thPVULqnUBgJBRX1Gzr+IPAQJL9RiEVolqVhhGIUAzM9IlO7uW1MrOktom1DGhVpYd2ofEzcsvEF13FSZZU+GyLbUlrXEbeePFB4wg9trDTmmxlikwfcvLyzV9tJZWHF9QZPprOgRRmGYazkjPMG1kSd062VKnVrbUq23az8yWrMxMFWsQv2gLXYZBV88DQtkoWQjfWMBwPayg8+bNUwG7Zs0aqV27tpcbfzCE/+CDD8pdd92l1t17771X1q1bJ6+88oq89NJLKlw/++wzeeKJJ7brNgDRDSvqW2+9pctnwbUh3OcVbg8vvvii+sg+9NBDcv755+v5wXJMqheIVgpXsiNJ6T94TGnhqrlelBBCqpc///xTdtttNy9mgeiDfyWGobG9bfKdXgaEKSyS1q8VAT6nZqPiFS4DcAdw7gLFpUVqEYV4VV9Vs5MGQZim5k2T6NWH8qYctiYmF4w4x8RRwGInVYlMfe55e4D2AxZgCFTkwFXATh6DqMYwOgQ1spCGsugDqjF7kor2PXQCmCkJIexsrDgWFVsf2RKZcsftKkxh0XTD6g5MwHLgWn3yySdSWFioVlFcP0ziwhD87NmzdUY/+Pjjj2WvvfZSqyiEInxNIXpVRHvgWmApq9WrV4cci9UGMBFrwoQJ6oeKlQEgThs1aqTpcOXA8P6iRYvMKZRK+/bt5bXXXotYN/r3/vvvy2mnnabpc+fOlV9++UVFKULTpk3VCusvs2TJElmwYIFeA/jsok1YeUlig4cPQirCr7/+6u2ZWyfFKyEkkYhFvI698WYjfqwlEkPzEJNBAWqFHNJU/qlotP6uEI26TU2TUiNs06yK1XRTHPOvsNFqLKXyxccvyUcffC7P33ax/GvaTFm5cp3cdt4gmbWtjcmHT6pdLQATqmx9Zh/CzFuaS0VrKWy4kKJG1KqVFvIUXgvopTkP03d1czDHuji6hIlcpSk4zmz18BJzfLHcOuHGmMRrVXnnnXf0ejlwXlhOKxxMsMJKA5jE5UTt9oi1brJrQvFKKgrFKyEkYYlFvE68fbIRbEaEwvNJdRsEqC2nk6SQpgrUug8YFagTqrAqAYbwIShR3uapNDT/UAFWHIA7QaamQSA7YdglxVtDFMeYpG/y9/CEqa0L4llXKTAVYGg/sKSV2WoZs+sdqpZiWIUxiawQLgXFRswaHaf2XpQ3fVVBjNNTQWvFrFej3D5xwk4RrxUh3CJLSHlQvJKK4heveLavMnDUf/LJJ9WnCWH8+PE6NLU9MLxz9913q69SRcHM2Pvuu8+Lia7xh9mt0WjWrJn2EcNO2wPDa2PHjvViFcddjxNOOMFLseAHZvLkyTJ69GgvpeJs7zwJqQnk5OXJlm35snnbNtmy1YScHNm8NUdy8wpU3EIQ2vVZIRqNZDT/waKJlQOyMzMl2wg+bLN00lWqZKbbCVW1szOllhGF8IO1E78ydYLVyOFnS/dhE+Seu6dq+/96+TMth5CdlaFiFT648G/dui1H+7Npy1bZnLNNckx8m+lnrulzfn6eKZMnBQX5UlSISWKmn1hCFsIaqx4Uw4e3SCeXYQJZfmGxCQVSYAJ8SiHA1UqcgOCeTOFKCNkZxO0uiBsrRCsChBsWjt6eBQBLpjz//PPy73//20upPBB1EJ3RwMLZ6GOPHj28lOhgge5JkyZ5scqDdQ39FhGsn4gbfFXY3nkSUhPAXPU0892ybgPpKkTr1KolWVmZkonJVlhqKsWUwvfPBPiK6lJaJmCyVFYmhKnZGhGLfRSDX6ouZ5WL2f/bdNWBbXnbdPY/JlJhiHv35vXl0LNvVBNoIUSlEaF5+YWSZ4RoQRGW5oKvqskrNuLT7BcUFcg2I2ixakG+itUSI6gxRJ6ufpm1smtJ3Tq1pX69+tK4QUNp0qiBNG7YQBrVry8N6tWTBnXrSt1atb2JXOlqjd3eagM4D0ISGf6NkqoSl9fDYvgKr+fDzFCAoT38oHTp0kW+++47fRML3sgyYMAAcwNOUwd7rMmHt77AeX/58uU6SQD5sMLiNYIQaD/88IO+hvBvf/ubTjoAeJ0h1i/E0i94O8z//vc/fVMMLL1oDwttY/gqHPhjoSze1uLq2meffeSiiy5SUYk3tcBf65tvvlHL5u23367lUWbMmDHq03XWWWfpFtYcWE/RT5yLWz/RgeuBc0EfMdsW5wbwphl8abGGItoBuDZ4rSLKwzqMc47WL7wBJ/w8I10z0L9/f31tYrdu3fQaYyIGlpaJ9FkQkkjE8nrYo485Vu8x6jPqPR+6SU2BwXnP2grgb6pZBohQWDAxiQnCVFcugLXT1GtXLSgRLEkF31KEKy/5q4paPIhu+Gm1NDfb1p32klsn3S2DzzxLBXMWVizIzJJsiGcjSrONIIb1FiI60/TTLt1lfVnTjHBNxT7cAby+69bbd93XB1/4ypqO41+xefiGQMbyWl9+8ZmeP8Q3tv6HZAhcpBOSqOAta25tYEJixa+1dtj4E95BjfX28HrAwYMHqyUTC2ZDZEGkPfPMMyruYKXFTFEIPghVlIH1FpZSrNsXC6gDYu7RRx/VGbLhoB4sn/Lee+/p4th+fzosgv2f//xH3QTwIwCxFw5cDV544QVdsgVCEDNqMbP2gw8+kJNOOskrVRYs9YJ3bwPM7sVxmJnrQD9wbeBKcMMNN2g/Ya0FkfoVfp7Rrhn6e+qpp8ptt92mdbt1D6N9FoQkGzl5+bJ1W65sNT+A2M/JNcHsb83N1aH6jVu3aNiCIfu8bSp6IVChb2GFhXDMzICLQC2pi2WqzHepVhbcACBEYZWFO0G6XPO3S8yx1kcWivJH3DHN7lf//VAFJVLht4pbKYS0qVp9X9XCC+FqBCzWgYVwLigs1nVcN+dslY1btsr6TZtk/WYTNm2WjZtMf03YZAJcDrZtg2sBltjKU1HtBLeR8FC1ZhsdzPSHAQHHEZJI4G8Sf5ubzN8+IVVhh1heAYQSFpCGdQOCD2IMllZs4XSLSRl9+/bVhayx/iCG9JctW6aLW0PkwVIIUYub9v777x+wlqIO+LT5La8Aw+l4pWGkd3JDpME5HG1h+Rb0AVZIWFgh/t59910th6VigL9uVwb7+OKhL3htIazFsFzCkollZvy46/HYY4/pe8VnzJih7gp42sSTAyyksKQiDdcHy9LAugKLCc4dS8NE6tdPP/0Ucp7RrhnOD8vK4K06qBeCFu1gwe9onwUhiUIsltdeffqqcMTkfrWoYuvFIUzhEmCtn5k6PI84vq+2FMqYguY/nVhlArZqHTWiFQ+6OA6+sG+/+boRjcVaxh3bzDORrjF1HH+i7+EVfTBFkOsmZOE7irVo4duK18Vi1QGUsNZUr+8G91pY+Lri/JCOMlikNs2IX33JQRZ8dbOltgn/9/FHUS2vAFYtiAQIWQaGRAn4m6TFlVSWnWJ5hVUR77sGEINYlw8BE7QgHMOBK8B1112nf9hYE9AtSI0befiNuSLgWIg7CGW0DcsmLJSRwI/F9trSHx3vFwdb+4MYGfxwff3119oeLLAQk9sjUvvR+hXtmuHHGmI1ErF8FoQkOrCW1q9TO7DFIv918XIBDbCgZun3ABZQiFlVlNCC3j8LRKS3p0lWVOJ7i1e4bjMBQ/T47ul30PsH5uuyV6JW1A1qOd1ktptk02ZrOYXItvcHIzCNGK5t+lS3lumXEdRZGUaM4s1bWJ0AXfPq19sx+phi39gFIZ6Vnq3nAfFsBTTuB+X7vBJCyK7ODhGvWEQaPpewSGJh6jZt2qjvJ6yEsKRi5m04sA4iH1ZKiF5neYG/KCyVzsIAwRYJiLVI776GjyostfBbvfLKK3ULwRmtnngDwTpo0CA9b1hr/cAS3LlzZz1X/DDBEut8VqPhP89o1wyWW5w3XCRQL64/iPWzICQZCEpQI+jM33JBoRGdcB/I3aYiEmHz1q2BV73qbH/z/YEgxdJUOqu/BL6uCKWanue5I+B1sJhc5QStQ+2lXhTp0JEQmSo2zXctMzM94PeKlQ0Q7Bu10tRyWrtWltSB4Dbf1fr16krjBg2kUb360qh+PRPqSIN6dXTiWaYel2b6afph+lVozg2iGl2xi24RQkjNJW7iFcLSLZV13nnnyeOPP64CCYLt9ddf17en3HLLLeqLiWH1cDCxC0PdmCh1+umnqysBRNqGDRvUtxQ+mn//+981PRKzZs2SUaNGlVmiC4IQeX6wFmE062u8wZA8hvgjWV2Rh1cnwq8V1w1WUbwLvDz85xntmuGa45rBLxd+uvhs8EMb62dBSKKDBy8sIbUtt0B9XLfmWcFZZNL1NbFGVCJg+SpdQSA/T7aZh1isIgBxunnrFnNsvvqzQhCmppaqwKxlxGX9urVNqCXXXHaxaSnU4qqY3S4p1scVqRCuWGoLPrPqL2tCWrrJ00PsqAn0ropgHIMMo3o1H1vTtrWsam2m30aoGnGdk5srW43o1mW3tubIRiPG12/cqL6yhBBSk+FLCnZR4LeHoUv8UF599dU6eezLL7/0cglJXGJ5ScHfx91g06VERapFJaIJnrXU7qp1FEJRxaJJyMQyWbrsVIrgrVYo5kgxEZ1/ZVJHnzdCrblTn31e/j3sHFlrRGW+ydHHPVNXt1MGyBEnD1erLcS0HdaHEIU1Nk2/e/qCAVRqG9d+OTcBK2KRZ9o0dRSXFktRIVY4gBW5QM8LZUpMOkgRTPyyvX3gnn/ogydGWzAqpXURQsguTNxfUkASDyzL5SzhWFLLv8oBIclOvTp1pG6tWlLbCLdamMiky1JBMJpbGtSn1XgWI+yQB1/YurWzpTbEK4b0IVwhIlEE5X2HQQxOvPpiGXHyAM3TMuZ/TrgCCNefXrxLl9vK2ZYrW7bm6AsTNm3eJus3wUq6WdZu2GjCJrO/SVcTyNmWJ1tNGawNm59vX1IAtwC4L0C44oETlmIs2QXf1hJ9g4HVuBCxuuSX529LCCE1lbisNkASD/jOwucYAe4FzmJDSKITy2oD/fr3sxZO8z8IU7jGYLQBKwzYt2fhRQSZ+gICvMAgI8OKVWcRDQWWUG/PZGmu+V/hd+9J6aY10vzAw+Wf/31FJEtkW7oNe/foKnvvd6BsXjRbsvc6RI8FVljCMxYVwrpq/q9uDCYYMep8VyFQ8YIDrNtabIIY0Q0/V/TdvrXL9D0L52Df9OVesGBXR0grd53XWIFPPFyHfvvtN72u8aRu3bq6oglWbcGa0lgxBUv4YbYwZ5sTQirDTlltgBBCdhR+qaa6E/+z4/2KtVSWGFFWpFZRXVd18xaz3SKbTHBv0MrNyzdCMt8IykIjijEhCmP1OL5EGv/lfG3H1lUqa42+W1NQaoLIxzO/kr9dPFoO676/KWGtpAiw0qK820K4mo0BAtn22sZNihGseHGBLs1lBChEKUQodCheYoDJXliyC0K2Tu1sqVenlk7owsSuqgLheu2118qxxx6rDwPxBK/HxktoBg4cqMv34ZywdCJWXIG/PtIIIaQqULwSQpIO9QzwjZ47WycmaGHVgFxMzjKiFRO1CjFL35RFgG9qUXGpvlULS8vpcL8RspuMuN1gxC2G+BE2bt6qqxWgVghcCDAnQ/3MnD1fRagjIFS9fddF2z9bA4KuRZuRJllYh9aIVFiQw42nmA6GEZPgqIk7umrAqn3FFVfo67ux9qZbYi8e4DrBZQkvP/n222/ln//8p9xzzz0yZcoU+fDDD3WC6WmnnaZrTleEd6ZXXbATQnYdKF4JIUmH03kp5hZW7IlS+JHm5OXq0lhYeUD9Rj0hGQAWUkjKFGx9UtBTjjYtOMwPMYZh+VDRaAUlNOXh3btI44YNpFGDetKwfl1dqaBOLbwmNssb7ocotWu2atsmpMHimp6qKxOkmbrT0jK85l2P0Gs32ctaYi3YsemVBZO8sFwgXiAD4HaA10/jVdQu4OUllQUvQcESfnPnzpW33347sBQfrtcXX3whn332mVp90U6sOOGKrT8MG5mp6YSQmgfFKyEk6YDEg/W1oAhrs+bKFqzlmrdNiuA/qiLP6lEM2we0nwHH6YEwiZqNljFbtW4ibkK6ScRrXdutmoHSsviluyAZ9R9AUQhILJV18sTnNA0vI8BbvLKysqWuEWf169aVBvXq6TquELcuNKxf34hbLKmVqXVAzEIkwy3B1KKyFaAt64qAdP8ZAKRVHAznw1Vgn3328VKseL388st1uT4XsMSee6tfRYEoRZ/xBsFIwBoLn9/w1STKY+CRObpt02hmSBh6bkbgRTiEkJoFxSshJOmAnyZeu1pghBBeuwo9B59RKEtrsSxVNwFYLgN4ZTBED/lnJSDUKw7DeqtGzGWmSy28CatWlmzYZ6D07NbFljHY8iiLNoLxQB1mD4IWehOCNBV9QK5JQ58gcGGBRR78beGqsA5uCus3mrBB1qxfLxs3bpYtW2E9zpHcvAIpKMR52uXAELRuiO9KcMkll8TkbwpBi3WjKwOOhTiNNilLV1Ywn1dFrbtOwGISmAuA4pWQmgnFKyEk6cDbp7Iy0/R1q3g9bP26sHbiDVX1pF6dbKmTnS21a+FNV1asQjSajao/FZZIMBoQlllMjsK6r5jlX7t2LX3JgF2zFT6t8+S+jxeYohCMdjjfHRvEREwSgKsCzLoqUrGrWN9VTAqDZTgvv0AFHvoB4PIAUVpsthDjELbww7WvnsVSW+tlzbr1ul23YaO+qKAy/PTTT97e9sE1qAx//PGHHhvtDYbwhcUENbwFsKI4wUoIIRSvhJCkA9pRxSGG3nEbM1sIRviSpqWmS0ZmlmRn19JXsTbEa1fr19OAV7LWrV3biFv4pdoltLJN2bpG+CKuM/5NtagLjXQ6+1pty7kMgKnPvmDS7AB/IB2FDLDIlpTC0uqJZeQbZarruKpwzZcirGpgklFG8w2qY42Qhoi1mhZv2rKi1pyZySpWiyWOxQS0yoC3+X3yySdeLDoQ1v/973+9WMWYP3++9htvMGzevLmXaoGva79+/dQS/fPPP3uphBBScSheCSHJB0Set02z+hDaz4o96EFkmoAJXSr/YH01AWulYmg7MwuuAVhPNUvFFmbcwyKan5+nArGoCBZa63oAUJ0Tqm7Y3lpjdcdpULtr9lHEFis19RVKIVY3yLMrHzhRCvGNw+yUMhPMgRo3/1M3BrOPPpeYf3bSl33DFo6tLE8//bR8+umnXkx0eP/ee++VSZMmBcJNN90kCxYs8EpUDFhH0ccmTZrIiBEjpFevXtK5c2fp1q2bnHPOOdKmTRuZM2eOri1bUcInbD0/tdDLIYTUNCheCSFJhzeqr+oP+tJZOT0ZaHYhLb1/EIsqGOE7avexhVjFeq/5hYWBfQQskYXh+g2b7JuxrMC0PPLEk0bYFpq4TQnqSFfC+rxC9EJwwopZWAhRbARsUXFAuKpyhSzVt2bBh9bWCFcCXQ3BqwflYXnFrVrdDFAOzrlV4MknnwwIWFhzsTLAokWLAgFD/5XhyCOPlP79+6tLB17hiy3iWBrruOOOU5eB//u//5Np06bpeVUU+L36J2xdc8XX0qJFCy+XEFKToHglhCQdsIpC7MHKpwrSBFgsdV91pPUz1XyNmkSzW1xSqi8lwKtcMYRvrauQjxYUh67SUGwiRjAWFFgLH8ps2LhZNhpxC7GJNvD/LVvx2tetkp+Xp5bbErgIFBfqW6vw+lcI44JCO9SP9V21Ea+vWgOagTBFvqfKA/02qMB1+Sa4/aoAAYs372EoHyEeQLwCCGIsk/Xggw/Kiy++KP/73//UDeH+++9X0VwZ4erwT9hCoHglpGZC8UoISU6M7gu3gEKGumF9tWYiG/rQJEFI5njW1aCAgsDFBCuISpRDOo7HtkQnUWVkpGu9WhdSsX6sqdCLqjvAttw82WwE8cZNm3VS1bZtELHm2LR0qVe3rjRqUF8a1KsrtWvV0klhWANWl8oK/IOwtpZZgFULXP2qY/E/EyC+4wVeIPDuu+9669hWnTVr1uhLD9566y19PTX2MUls9uzZ6gu7fv16ryQhhFQNildCSNIBaae61LuDBayRqvRsPDAUX1wsubkQrblGwNp3+MM6iHSoRntEiaSZulTEemISAYIVZa0CtnFw9bH7a7hjyn2mLVPeiE67ikGqTvzSlxRkZhhhmKFLZKUbAYw4hCvEbMMGDaRZ08bSomkTadKokTTChDIjbvEaWAjbNM8Ci/awuoG6EuB8TLD9rTro93/+8x/ZtGmTl1I1HnroIfWf/f77770UQgjZMVC8EkKSDifgVLNCV3oJKRB9JoIh/+IiI1rz8mXz1lxdM1WtpUacoowd9jfgOBNQT5HWBYFo6sA+8sy+teTaBmAYRfbh3e2yTdi3FlSDqR/CtVZWti4XZaWzFZ+B9gy61JZXH9rD62GzsrOkVq1aUrcOhG19adqksTRt3FgaN2gojUxoWL+B1DPCthaEsRHEhBBSk6F4JYQkHbCa6lupIFyNolQ5qOLU5mPFgG25uSbke0PxdpKWakYIUD3CvphA9S7yzTElJbCymjSYYU1Z1A0L6zXHHiCT7r7H1G8nfC2of6iWs3WnSDrcA4zwhMUVltYUFahevV4Z94IExNFP11c4IOipeHHtm/kvLT1VMjLT1G0hG6sj1K4j9erVk/r169mChBBSQ6F4JYQkHVhyCjP5i02A8NNgRGFBvl2SCu/Uzy/MNyU9QQtxaDYY2nehtDTVHIN8CEu83jXdxK0gRcBarOYwFZNNjxllyuF2aa2s+jYvzbH1wiUAi+9nmK2+YxaYeu0xEKfwZ7XBxrWEtm37V2r+Q6L1gIW1156TzU9JtQdAaOOlCoQQUpOheCWEJB052/Jky9Zt+iaq3LxcI0YxI79UxV12lh1+r5NdW62WaUZopqUbsQkR6B2vQ/lmC6Go/q9GVEIewuKKdAhGGE8RkA7NCQOq863dd9Ns8/9SI3gzpXZtrBcL31YrhnEAhDQCsALVdAxqWOM2TVc5UJFqBDT6gwyvh1hmClErZG3boFQVtS1DCCE1FYpXQkjSkZJSagReivqAYgZ/epp9pWtqWrrZGlGJN2dlZxkRW1tDg3r11Xe0QX0jamvVlsz0DMnINGWNqISMtULSCk6IVWv1tG1BQjogQvHviy+/1+NWvfuItPlzuk7McvnqUwsVrfV6dULUAq3X7kPsqnuBEaOuLdcu/HXhtwuRjfNBXajSCl+vLkIIqaFQvBJCkg4I1rq16+jEKCg6/2oDEIBW5WFjLZoQfrCqpqVlShYEb+3aUq9uHWnUsKE0atRIJ0nVrVtXJ07p0lEQkSkl3koDqM8IUNOG+q+aep/4aL689uViWb5ms8ycPU8WvXCX3HzJ+VrGCWG1pqqQRUdgXTUb7BuQX4wlt0xZ6xKASWamj6YMrMTONUAtvsVm3xSx+2aXlldCSA2H4pUQknRkZmTaIX6IVKMmrUC0ediB1VL1rGekhOaEqrWWTCtocfuzgjZFRXBWZoYK4sYNG0jTJo2kSaOG0mnzN7Jb80b2lbLpWJvVNnPjfQ/J3+96UPqPuUX2HXKN3PvudzLhoSdtn9TqappTC2uwH05f276iD96+pmmSFBcZUVtkBbO61XonAIFrRa1J8c6JEEJqKhSvhJCkQ0WfEXFYcUBXHoAFU9ORa62car20xZCjog8vHXDiD+XVT1aH+o2oVT9TWw77qakZcvNjb0t6pyNl/fuPSyMjZps2biL169e1a7FiVQFUYnhw6jMqVvECgyCmIlOZ9kUtsCZqsgNiFn1SK621qMI6ixUG0G/7di/vHMwOzq+osFDTraglhJCaC8UrISQJsVZUWE2dNRVK0glTndnvCUBr4bTpanVF8ERnqSnnhu81aKrJNBXhRQE//rlRnvzXv6QxXiSw5B2TXyyFhUWycfNmWb12raxZt142bd4kubl5kpefJ0VFEJh4nSwaMCJUBS2W4ELNXufM1vXBiVpN9USs9luPtfsw5KYbMQ1hC1ToEkJIDYbilRCSdEDoWdFphaodojc3NChBowpTU+xSVgAiUYUplqsyQlLLmjQrINNUPAbEpB6Csqi3RB566jmZv2K91D/qHFmzx1+koKBQCgqNOPVUMvqQl18oObnbjIjdYsTsBiNq15ntWiNwN8k2k55fUKBv9gpYZU1DWOILfcHx2plAsJZaFeVqdUU/0I4VtAg4D0IIqclQvBJCkg4IPPiX2hUG7Dg6rJR2jVZssXSWXQMWBk91C0iFW4B1DVAjaECAYr1YvIHLJiEboBz2H376ea03Nz9PNm/JMQLWCFGdNGXEM954gK05DtZRuBOYltQ9AUIXS3pt3LRF1hpR++eqNbJy9SpZt269vkAhL69AiopNKCwy5xB0B4AbBEQtLKxWwCLAgou4ndBFCCE1mZT+g8eUFq6a60UJIaR6+fPPP2W33XbzYhb4pubn58uWLVt026/fEi+nZvLRR3tJdna2vnELk8nsBDRCCNl1+fXXX709Wl4JIYQQQkgSQfFKCCFJBi2thJCaDN0GCCEJRSxuA/qygCjsCsIO51se8PWFuwDdBgghNQW/2wDFKyEkoYgmXjFRauvWrbr1izu/cAsXceXl+dmR4i+aEA1PLy+OfX8c4jUzM1PfCobtjuw/IYQkAhSvhJCEJZp4xata8/KwlipWESgNCDb/1i/iIsUd/n0QHndESw/HLyz9hKdHi8ey9e+jX3iNLSZtYRtrPwkhJFmheCWEJCyRxCuAaIOAdS4DfsEWbd+xPXG3I8WfE52RiJQXnuaP+/dhfU3z3gpGCCG7OlxtgBCSdECkQaxlZGRogMUxUkCZ8KDrwZYTUPeOCpHacyFSXyOdkwvu3BFQFvUTQkhNg+KVEJI0hAtDF3ZlIp2vC4QQUhOheCWEEEIIIUkDxSshhBBCCEkaKF4JIYQQQkjSQPFKCCGEEEKSBi6VRQhJKMKXyiosLJRNmzbpliQWWAGhQYMG+qIEQgjZkXCdV0JIwhIuXteuXSsTJ06UY445RpeXIokB1tv99NNP5aqrrpLmzZt7qYQQsmOgeCWEJCzh4hXxr7/+WjZs2KAvKSCJAdaZbdSokRx55JFSv359L5UQQnYMfEkBISSpKCgoCLwWliExAj4PfC6EELKzoXglhCQ8kcQTQ2IEQgjZ2VC8EkISHogk+FgyJFageCWEVAdx8XnFbNN7771XVqxYoXFMqvjuu+/k5ZdfVp+o0aNHy6RJkzSvohx11FHy/fffy7p167wUy0UXXSStW7eWrKwsbX/16tWa/uqrr8qcOXN0nxCSfETyeZ0xY4Zs3LjRSwmybNkyufnmm2XVqlX6utRhw4bJmWee6eVWjBdffFH9N/1tk/Jp2LChHHvssTH5vL4zvY4MPDLHixFCSMWI+4QtiMe77rpLLrjgAo1nZGTI2LFj5b333pPZs2drWmXBLONnnnlGFi9e7KWE0rFjR/2xwg8YIST5iSReMasdE7b8wOfy5JNPlksvvVQFFPLPPvtsvRd069bNKxU7p556qlx//fVy6KGHeinlA6sjBHNNBsaJ4447brviFcI1Es9PLZRnn6TfLCFk++zwCVtYj/Hnn3/WHyAsoXLfffdpOqwiJ554ou6Du+++W1q1aqX7vXr1kttuu01uv/12GTJkiP4ojBw5Ulq2bKmW2/3331/LxcIll1wiJ510ku5jHcKHHnpIdt99d9lnn33k2muvlb/97W8yefJkFdvIB2j/1ltv1faPPvpoTSOEJAYYooZY9Ydvv/1Wv78DBgzQeL169fS7n5+fr/H//ve/csIJJ8igQYNk6tSpmoaH6bPOOksfriF4R40aJVu3bpXx48fL0qVLNX369OnlHo80jPw88sgjmrYrhP3226/cEOkYBHwuseAsrm0azQwJQ8/NUKs5IYRUBLW8ipRKihSbDawICCYppURToW9TksitKeCDhY05Bz0FD3ca4X5aesZemlpTzK61qgTTbCl7bRC1Bhcbt2m2rLYJzLV0SX787UTDHKk1g9JS61cGMe/2QajFB3nBdH/d2MMnaTH9NP9PwT+U8ZK1fkTNNjUVrbvyJs332+Tqxj+UA7YtG/ztAsTQFv6vcS8f52FzLaWldvmjlJQ03QbKeafor1eTglHtN9LC244EyrhzwI8u9nFsCfpjKkrFNQ2/fhHqDU8rNv9QV6pJtj/m5juDukOK4frYi4nzsnXY/ug5ObyTDm/D9Njbs9hrZo5NSQ0p6/ZwTqjZ1R9SX4mvvEnXMia4uEsLOcbg0u2+/QyDZZAePMaVw1+fH/dZl5rzdG1oMMUR97frrp8/7mrVNO+75vLRlr9OuyYs4jYXIN12zSuHNEQNrs96rLd19aFtbP3ngyiuv913tQDs++KBE3G9t4QeE9p+WdBXX3q0ukL/6Ay2vyVe+ZCjTFG9Dxj0PDXNuyamoKvT/IXpccF+hZ6zu0ZoK5iG/+E45AVbDdZhCR4bSiDN3U89Sry2Q8Hn4yuHfT1eO2GTTLz86xtfXBuuTUd4fGfjP3d/X6q7X4lMon6WIJH7Vh7x6F+kOwEhhBBCCCEJCcUrIYQQQghJGiheCSGEEEJI0kDxSgghhBBCkgaKV0IIIYSQBObOO++U33//PaHWoT7ssMN0re0LL7zQS9l5ULwSQgghpFrp2bOnvPHGG/LTTz/JV199pcvXYc34ZOGQQw5RcXnllVd6KckD+g4R6gKWIbzxxhslMzPTK1E1rrjiCl2TO55QvBJCCCGk2mjWrJk8/fTTalXE2zpnzZolf/3rX+Xqq6/2SpCdwSeffKKi9bPPPtM1sN0a/VUF4tWtvR8vKF4JIYQQUm106NBBateuLY8//rg8+OCDMmbMGHn77bf17Z1g6NChKmgXLVqkIrdp06byyiuvyJIlSwLWwZkzZ6rFFuBFQxBiCxYs0DrxGuPqBq+6//DDD7VPL730kuy5555ejj0/9H/hwoXy1FNP6fkBCEi8av9///ufvmhpR4O28EIWvMhp2rRp+oKW9u3ba95f/vIX+fjjj+WHH36Qxx57LOI1jVRm7lz7Btf+/furZR2g3EcffaTlHn300Up9PhSvhBBCCKk25s+fL2vXrlVrK173XqtWLd3HGzEPOugg+cc//qHD2c8995z069dPrrvuOnn//fclKytL81u0aKHiDml77LGHCqKcnBwVUHgDH96cV520bdtW/v3vf+tLbPDGT7y1DiIxLS1NDjzwQH3jJ87v+eefD5xf586d5aabbpKVK1eq6D344IO92nYOM2bM0O2+++6r1xRvFMQ1xcMAhCg+Gz/Rytxxxx2aD3cQ5KPcww8/HFLummuu0TIVgeKVEEIIIdXGpk2b1Cfym2++USE3Z84c9XnNzs5W6yoEznnnnSdTpkyRDRs2SKdOneS9997TYzFpqHv37rqPNLyCHq+NhuUQ1kz4ofbu3Vvzqwv0Cf67119/vfzzn/9U8bbXXnupryleSw2Bff755wfOr2PHjpoGbrjhBrnrrrvkrbfe0vjOIjc3V7ewbOOV2O6awgKOa4pX6vuJVubFF1/UfMTfeeedQDnsu88nvK5YoHglhBBCSLXy66+/ygUXXCBdu3ZVCx1msE+cOFHFE0Qfhp/hFoAhZoif3377Td0IevTooeJ1y5YtKoZatWql9eGYl19+WYfnGzdurGnVhVshYPny5bqFYANIx/mNGzdOh+z959e8eXMt447ZGa819gPrNygoKAhcU/TTuTyEX9NYygBXDtbl8sptD4pXQgghhFQbw4cPV2sdhCvcB+655x71/+zbt6/6v2Io/fTTT9fh9jVr1nhHiboJ4Jhu3bqpj2thYaGsWrVK8wYPHixt2rTRgOOqkz///FO3Trg5/1WkX3rppXp+6K///GCNBpjMVh0cccQRusVwv7umcOmACwRCly5dNM0RSxngLwcXAoT9999f0ypC2l6de0zATopA1ad4AZtg3EtJPnAOMXQ+vIiLp4RkIBJMsHkhBSx63XTH21ac0JZsfSnaoKvbxR3B/dB0S/AoCz7R8FIuXuZ438H+vEjtRMK2FF42vEfuHMOepSI0EZ4UqfbycP3GUyz2EStF+2ZH82I8Lz84PlCXPh2bfS8einfevoyy5aK1H+ma2XYioX3y8suUCKtKy4TVE63eYHp4f5AePCZ6ORcPa9PsIu5P8+UqiIekBb5rDvs5OOx+eC1I1//rvp9Ibbu0YE5om/5johIoUn7ZmOoKEKVsmWTbX/w1gPBsFy/Tti+K3dDcsFjg2OC10SQT7F9faHk/2z3nsM/YnUc49vfL4fZD267Y9Y0P4W1WRx+i4e9LIvQLllZYUTFx6/jjj9dJPRC0GL6GXyj8RU877TQdal+/fr1O3ILf5IgRI9RKieF4WGIhfocNG6aiFm4HmHSEY1BXVdjeZwkr6llnnSV5eXk60Qy+uAjr1q1TAXjOOedoHFbG0aNHqy8rXCTgHoDzKy4uDpwfXAfgIwuBBxeJli1bat3w8YUf79atW71WLdvr2/ZA34cMGaJ9h+UXLhpwdXj33Xd1Apm7poceeqhaZAcOHKg+uCtWrFDRDf9YTCqLVAbXHZ8R2oBwxUoGZ599duDzceW+/PJLrzexQcsrIYQQQqqN77//XsUdhB5mup9yyiny2muv6VJZmHw1b9489YmFuIJfLKypmOwEV4LVq1dLUVGRWl7Bzz//rOIQYvCqq66SPn36aJmdBVYVuOWWWwIB1lRMxoJPK9wBLr74YhXZI0eO1H5DjIafX+vWrXWLFxO0a9dOBbibqb8jQd/hqoFr9sQTT+hnAeB3jIcLPEBg2StYZcOvaXll4MsLn19Y2PH5YDIePh9Xzm9Nj5WU/oPHmMdUPM8Wmw3UOoJJSinxnnJTyxo4EpiAXwg25hx8D96B5/Fw3xE9Yy9NLXJmV7feidu84LVB1D7Y2LhNs2W1TWCupUvy428nGrAiaPWG0lLzOZiyeJJy+yD0yQp5wXR/3djDJ2lRG6Mpbf6hjJes9SNqtqmpaN2VN2ne6QBXN/6hHLBt2eBvFyDmt7y4fJyHzbWUlpq/PUNKSppuA+W8U/TXq0nBqPYbaeFtRwJl3DngC4Z9HFuC/piKUnFNw69fhHrD04rNP9SVapJRr35nUHdIMVwfezFxXrYO2x89J4d30uFtmB57exZ7zcyxKakhZd0ezgk1u/pD6ivxlTfpWsYEF3dpIccYXLrdt59hsAzSg8e4cvjr8+M+61Jznq4NDaY44v523fXzx12tmuZ911w+2vLXmZqKZ3PEbS5Auu2aVw5piBpcn/VYb+vqQ9vY+s8HUTdaYPMc2PfFAyfiem8JPSa0/bKgr770aHWF/tEZbH9LvPIhR5mieh8w6HlqmndNTEFXp/kL0+OC/Qo9Z3eN0FYwDf/DccgLthqswxI8NpRAmrufepR4bYeCz8dXDvt6vHbCJpl4+dc3vrg2XJuO8PjOxn/u/r5Ud78SmUT9LEEi96084tG/SHcCQgghhBBCEhKKV0IIIYQQkjRQvBJCCCGEkKSB4pUQQgghhCQNdsJWabFsW/+b5G9eIyVFBV4WIYTsfDDjuEmTJl6MEEIIEV0izaGW123rlknu+hUUroQQQgghJKFR8Zq32b7xgBBCCCGEkERGxWtpcaFGCCGEEEIISWQ4YYsQQgghhCQNFK+EEEIIISRpoHglhBBCCCFJA8UrIYQQQghJGiheCSGEEEJI0pDw4rVdu3by6quvypVXXumlEEIIIYSQmkraXp17TMhdv8yLVpw99thDLr30Uhk1apScdtppcuCBB8off/yhb8nZHieffLJ06tRJFi5c6KWUTSsuLpY///xT3nzzTfnpp5+kYcOGmr4zSE1NlSeffFKGDx8uS5Ys0X7EQqTzIoTERm5urtSuXduLEUIIIfa3wVEly2utWrXk5ptvli5dush//vMf+fe//y1t2rSRG264QerUqeOVig5E3imnnCKrVgVfkhCetmXLFvnf//4nS5cu3emvjIQQr1evnu537txZNm/erPvbI9J5xUpKSoq3RwghhBBCwonZ8nrPPffIe++958UsGNIfNGiQpl9//fUqMFevXq3W0a+//lq2bt0q++23n1x99dVy3nnnyRFHHKGCbuXKlTJ16lQVhpmZmZr3/vvvy8MPP1wmrWXLlmr97NChg2RlZcl9990n6enpcvrpp8vo0aNl33331baKiorksMMOk3HjxsmZZ54p+fn5MmnSJGnRooXMnj3b63HFOOOMM9SyvGjRIjnkkEPkiSeekLp162qeO6+RI0fqea1Zs0Yts5HOKy8vT/bee2/5+9//Lueff74cddRRUlpaKj///LMcfPDB8sADD0irVq3k7LPPVmsv2qOIJTUVWl4JIYSEU2HLK4RrJJYtW6YuAgMGDJBrrrlGDjjgAPnhhx9k7NixMmfOHP0BuvHGG6Vp06YqTCEwIeAg7J555hntCITdhAkT5Msvv1ThF54GtwGwceNGFYgA4m/WrFny/fffy6GHHirdunWTxo0byxVXXCHZ2dlqAe7Ro4eWXb9+vfbTAVHYrFmzQKhfv76XE0pGRoZ0795d5s2bJy+99JKeC9oqKSnR88F54dhHHnlEy1911VV6TKTzghUa+7vttps89thjKuAvuOACFa4OXLvXXntNXn755cB5EkIIIYSQULYrXqMJV1BQUKAWV0yoGjJkiDz00ENyyy23SM+ePaV9+/ZyzDHHqJiEKJs2bZpMnz5d4xBxcAUoLCzU8Nxzz6n4/Pjjj8ukwRIZDgTenXfeKY8//rjGYR2F60JaWppaMRHuv/9+zQsHllMIaRcgIiGqw+natau6Rbz77rvy2WefaRqszHAdgKUVQnXKlCny4IMP6jVC33NyciKeV58+fVT8ohz6NXHiRK0P1wduEeD1119XqzLqb9CggaYRQgghhJBQyhWv5QlXB8TWCy+8IMcdd5yMGTNGrYzwg8VwPSybwA2fn3vuuRpv1KiRuhS4oXFnDYVQDU9z8XAgCt0QPgQx6gSwsjZv3jwQD2fbtm1y6623qmhFmDx5svz+++9ebpDevXvrFm4L8F9Ff/v27auCHZZXsGLFCs3/7bff9FrBCg0hHH4O6A9A31Ae54lycBVw4hVuBOgzrhvcIwghhBBCSFmiitdYhOuRRx6p1ksIV4guiDlYRWGVhDXUTViCpRE+ny7APcBZOyOJ02iCtTw2bNigWwjF8sQf3BC+/fZb+eWXXzTAWoq++4HFFS4CYMSIEXLxxRerUEa9sCqvXbtW8yA+4QKx5557qu8rXBVwLPCfg3MDwGQ2lIdIhd+uE7uOypw3IYQQQkhNIqJ4jUW4Ard0FSYawTqJpbKGDRumefBHxZA7fD8vu+wyGT9+vNx2223y1ltvqVUTFkkITojCa6+9VkUdiJQWCzNmzFDrJYQmJlpheatoQCRiaN6F8MkhEKEQ4HA/cIJ74MCBmnfCCSeoCwQssJdffrkMHjxYzw8TyDARDRPFws/hiy++UIvv3/72N51M5tashS8tRCwhhBBCCImNMuI1VuEKMLsek7O++eYb9QeFgIMbASZlYUIVhsQxsQmrEMAntl+/fnrM8uXL1eIIdwNYJc866ywVfZgMFZ4GQRoLaAM+o6gDghJtVBb4tAK4OsAqe9BBB6lFFZbSXr16qUjFBCxYYCHWcS4QphDsEMbh54BJY7gOcBsYOnSoTvSCuwJ8gd1SXIQQQgghZPuk9B88pnTd4hletHJg6B0uArAuQjxieN3vd4p8CD/MwsekKvjFtm7dWq2bmzZtUqGJ4Xwse4Vjw9NQJ5aPgpUX4ddff9X6MWyPOpEHCyqG7/FyBIhL+KfCpQGTurAiQNu2bbUvsYKXEkB8Y4kuv2V2wYIFanXFuq9oG2Ic1mVYWNEft3pBpPPyXwecO3xnYYGG4If4xj6uCyE1GXyHd/aazoQQQhIbGAIdcRGviQLe8gUrKJbV6t+/v4pJWEaxnipFISHJAcUrIYSQcPzitdzVBpINWEAxoQo+r7Buwud05syZUddyJYQQQgghycUuZXkFGJbHhCkM12MoH+4FWFaLEJIc0PJKCCEknF3W8grgKgB/VLyxqmPHjhSuhBBCCCG7ELuceCWEEEIIIbsuFK+EEEIIISRpoHglhBBCCCFJA8UrIYQQQghJGiheCSGEEEJI0qBLZRWumutFCSGkesFb63bbbTcvRgghhIi+XdVByyshhBBCCEkaKF4JIYQQQkjSQPFKCCGEEEKSBvq8EkISinCf1/T0dDn++OPl8MMPl4YNG3qppLrZuHGjfPHFF/L2229LUVGRl0oIITsG+rwSQpKGE088UQYOHEjhmmDg88Dngs+HEEJ2JhSvhJCEplevXt4eSUT4+RBCdjYUr4SQhKZevXreHklE+PkQQnY2cRWvzZo1kyeffFKaNm3qpZTPUUcdJU2aNPFiFadBgwbaXpcuXbwUkX322UduvfVWL0YIISJz586VE044wYsFiZZO4s870+t4e4QQUjXiKl579uypjvs9evTwUsoH4rVx48ZebPukpKR4e6EMHz5cMjIyvBghhJBEwglXbP1h2MhMTSeEkIoQd/H66quvlhGvffv2ldtuu03uuOMOOe644zRt5MiR0rJlSxk9erTsv//+mgbfKZS7/fbbZciQISpWYUlF2uWXX66TA8KBWMYMtEGDBnkpoQwYMECPnzx5spxxxhmahjpvuukmueCCC+TOO++USy65RLp27SoTJkzQPrZr107LAfQJllz06eijj/ZSCSHVDb67uJ8ce+yx8sorr3ipIq+//rpaU3G/eOqpp7zUIDNmzJAjjzxS1q1b56VYwtO3Vw+JnYFH5ui2TaOZIWHouRmyatUqzSOEkFiJm3ht27atZGZmynvvvSd16tQJLHXTunVrnY0K8QfB2K9fPxWtGO5fuXKlPProozJv3jwtP3jwYBWZN9xwg9bXu3dvraN+/fry2GOPybRp0zQezgsvvKBW3BYtWngpluzsbOnYsaNMnDhRxo8fr+Ia9QK4NuC466+/Xtq3by/77befitcPPvhATjrpJC3TqlUr7dOkSZO0jmOOOUZdIwgh1cuiRYvkjTfe0GWannvuOf0uFxQUyJIlS2TKlCnyzDPPqKDFfWb58uXeUXYZrrFjx2oZv8tSePr26iEVxwnYAw44IBAAxSshpKLETbxCGM6aNUtKS0tl9uzZAetrp06d5IcffpCcnBz9cbn55ptl7dq1mucH4nH+/PmyefNmKS4ulpkzZ2oa2LRpkx4fDaw3iB+yc845x0ux5OXl6Q9Pnz59AlZb+MkC1Ll161bt04oVK+Snn37S9GXLlgUEKvqOvsAKPGzYMElLS5Pdd99d8wgh1UebNm2kUaNGcuONN8qcOXPkxRdf1Idn3IPwPXUPnPj+QugCfM/hYoTvM0ZaHJHSy6uHVB4nWAkhpCrERbxieL979+7qHnD33XerxRRiNhIQjLEuaB3NxzUSn3zyiVpa/e3usccect1116mIXbx4seTm5no5oUBwI7h9/Gg58MP2/vvva8C5LVy40MshhFQXGN3BsD5eXvDpp5/KqaeeKvn5+ZoHt6ARI0ZowMgO7k0AD664R2Fh/ZKSEk0D0dKj1UMIIaR6iYt47dChg/5wjBkzRq688krdQgBCPC5YsEAtmLVq1dJJVRiah9sAKCws1HTw448/SufOnXXZldTUVLXcwmIbKxCdU6dOVSurAy4CsKTClw1DUxVd0gWWFlh44AOHevDDtm3bNi+XEFJdTJ8+Xe8zuE/A9Wf16tWyZs0a6datmz6owuUH9x3ch9z3vm7dujJu3DhNe+ihhzQNREovrx5SecInbD0/tdDLIYSQ2ImLeMUPCIbZ/MB1AFZQWC7hlwafU7gMoBx8XQH2R40apT8O8DnDED/8zjBBCsd9/vnnWi5Wfv/9d/nwww+9mMh3330ntWvXVn/b008/XX/cnFiOBfi4wbqDH7ZbbrlFrTuw7hJCqheM7sA3FRMyMWkL1lE8aOJB+tJLL5Wzzz5bfe3vvffeEJcjPBjfdddd6ieLZbIc4enbq4dUDvi9+idsXXPF12XmKhBCyPZI6T94TGnhquBNnBBCqhM8yLoJnwBD9iSxwaoxhBCyI8HKUo64TdgihBBCCCFkR0PxSghJaLZs2eLtkUSEnw8hZGdD8UoISWgq6vtOdi5YpYEQQnYmFK+EkITmzTff1ImYWAOaJA74PPC5YI1tQgjZmXDCFiEkoQifsEUIIYRwwhYhhBBCCElKKF4JIYQQQkjSQPFKCCGEEEKSBopXQgghhBCSNFC8EkIIIYSQpIHilRBCCCGEJA1cKosQklCEL5WVnp4uxx9/vBx++OHSsGFDL5UkOxs3btQXHLz99ttSVFTkpRJCSGS4VBYhJGk48cQTZeDAgRSuuxj4PPG54vMlhJCKQPFKCEloevXq5e2RXRF+voSQikLxSghJaOrVq+ftkaqyZcsWb69qVLSe8srz8yWEVJS4itdmzZrJk08+KU2bNvVSyueoo46SJk2aeLGK06BBA3nssce8WPxp3ry53HfffbrfuHFjGTt2rO4TQqqX+fPny3HHHefFLK+99ppccsklur/ffvvJhg0bdD+cb775Rk444QQvVjMYNGiQdOnSRYYPH+6lWN588029FvApdvc6cPnll0v//v01D2HWrFmaXtF6opWvDO9Mr+PtEUJqOnEVrz179lTH+x49engp5QPxClEYKykpKd7ezmf9+vUyadIkL0YIIcnDtGnT5IknnvBilj/++EPuvvtuefbZZ+X1119XgTp9+nTNW716tdx7773y1ltvacC9HVS0nkjlK4MTrtj6w7CRmZpOCKlZxF28vvrqq2XEa9++feW2226TO+64I2AtGTlypLRs2VJGjx4t+++/v6bB9wnlbr/9dhkyZIiK1X322UfTYAmAc3+sRKoLROoLGDBggKZPnjxZzjjjDC81iN8K27t3b7n11ls14AaP4EC7SEe7Rx99tJdKCEkk8vPz5cYbb1TL4HnnnSe5ubmaDvEFCyLuNU899ZSmwVILi+JFF10kjz76qKahHNJQDveM0tJSTQ8Hx+L+g1Eb3A/OP/98ycvL0zyIPbSP9LvuukvTUP60006Ta6+9Vi2fl112mbz//vuaduyxx8oPP/yg5UCkvlaEuXPnSqdOnXQECys6HHHEEfLVV19pHsQrzglCdOvWrZoWjfLqiRcDj8zRbZtGM0PC0HMzZNWqVZpHCKk5xE28tm3bVjIzM+W9996TOnXqBJa6ad26tc4mhZi76aabpF+/fipa4V6wcuVK/TGYN2+elh88eLD+ENxwww1aH0QiqF+/vroH4Ck+FqLVFa0v2dnZ0rFjR5k4caKMHz9eRTiOicZnn32m5SZMmCCbNm2Sl19+WdNbtWql7cJCi7qOOeYYdaUghCQWEGQQhrinYLTo3XfflSVLlsiUKVPkmWeekVdeeUXvUcuXL9fya9eu1fsJHraXLl2q5Z5++mm1Sv7444/qshCN3377Ta6++moVoYWFhXqP3LZtm8yePVvbwVJRCAsWLNDysGRed9118s4778icOXNk5syZahQ455xz5P7779cy5fU1VnJycvSe7cjIyAj4pkK84v525513qkhft26dpkeivHriiROwBxxwQCAAildCah5xE68QfHhKx9M6bsrO+oonclgLcIMrKCiQm2++WX8IwoGPGvzYNm/eLMXFxXrDRhqAQMTxsRKtrmh9gSUEPwB9+vQJWHdhRdgesIZAgH/++ecaR/1oD5aWYcOGSVpamuy+++6aRwhJHOBr7/zt9913X/0e4/6F76x7+MR3edGiRVoGD6F4iAYohxEWuDyhPB6IsV5pNDAHwLXVvn17bat27dpy5ZVX6n0HD+a4b7r7IspjGamsrCwdeerataum4/7iBGp5fa0qqAuWXzyUQzRjZMw9oFc3TrASQmo2cRGvGJLv3r27DsnD9wlWTucjFQ4sHrEuSB1PH9dIdbm+7LHHHmrpgIhdvHhxYAixPPBD0q1btzLDdStWrFALCwKuxcKFC70cQki8wOhO+PcUD6V169b1YrGDe0NJSYnuQyyOGDFCA0aFcF/bHjg+mttAOK4tWFnPPvtsFbGHHHJI1H6jvLt3paamhtw7K9NXP7iGeIh3wCqMfqB/GPqHOAZ48C/P8hqtHkII2VHERbx26NBBfcjGjBmj1gRsceODKMRNGkKvVq1aOpyEoSgM1QPc5JAOMPTWuXNnXTYFN2lYbv3+XRUhWl3R+gIXgWXLlsmMGTN0CGp7S7fgZg3ftccff1yH/xywfLRp00Zv9KgPPwL+fEJIfMC9BfeYjz76SOMYZcHQvXM1qgx4GMXDK9x/cJ9A/ZHuBXgwh6UVqxngOw7XA7z9qyLgHgVXJYzetGvXLurKCNGIta/lASsm7ot40xVEMdyhYOXFvRzuT0h3I1duXkIkotWzIwifsPX81EIvhxBSk4iLeIU4xDCWH7gO4CYPSyT8ueAjimF6lMOwGcD+qFGj9OaLV0JiCA0TGzDhCce54fjywAQBN3kK4cILL4xaV7S+fPfdd2oBgS/s6aefLmvWrAmI6kjAwgy3ArgGuHYxzIchPUyiGDdunNxyyy1y6qmnqj8tISS+4KH0wQcf1JEP+GQOHTpUJz9hAlNlwUP4pZdeqhZRuAJgImYkd6W99tpLH9Kx/BPahivAKaec4uXGBvzt4RcKNyX4ruKhd3sTo/zE2tfywByAq666Su9jJ510kgpirAADqynO76yzztLz23vvvXUbjWj17Ajg9+qfsHXNFV9LixYtvFxCSE0hpf/gMaWFq+Z6UUIIqV7w8OkmfAI3w78ynHzyyWo9dMBCiQfMHcHObCsaidCHyoCJcIQQUh6//vqrt0fxSghJMOIpXklyQPFKCNkefvEat9UGCCFkR7Ajll0iiQM/X0JIRaF4JYQkNLH4vpPkpbxlxgghJBIUr4SQhAbvzf/www91RQGy64DPE5/rG2+84aUQQkhs0OeVEJJQhPu8EkIIIfR5JYQQQgghSQnFKyGEEEIISRooXgkhhBBCSNJA8UoIIYQQQpIGildCCCGEEJI0ULwSQgghhJCkgUtlEUISivClstLT0+X444+Xww8/XBo2bOilkkRn48aN+gKCt99+W4qKirxUQgipHFwqixCSNJx44okycOBACtckA58XPjd8foQQEk8oXgkhCU2vXr28PZKM8PMjhMQbildCSEJTr149b49sjy1btnh7VSNe9QB+foSQeBNX8dqsWTN58sknpWnTpl5K+Rx11FHSpEkTL1ZxGjRooO116dLFSxHZZ5995NZbb9X9xo0by9ixY3U/GnvvvXegfDS2187OAH147LHHvFj8ad68udx33326H8t1I6Q6mT9/vhx33HFezPLaa6/JJZdcovv77befbNiwQffD+eabb+SEE07wYjueF198Uf14wcqVK+Wcc87RfeDPW7ZsWaWtlIMGDdL70/Dhw70Uy5tvvqnnCp9h9/0Gl19+ufTv31/zEGbNmqXpFa0nWnpleGd6HW+PEELKJ67itWfPnuqY36NHDy+lfCBeIZRiJSUlxdsLBTfajIwMLxZk/fr1MmnSJC9WdaK1s6sR7+tGSE0GAvWPP/7Q/ZYtW8rTTz+t+8CfVxWmTZsmTzzxhBezoN67775bnn32WXn99ddVoE6fPl3zVq9eLffee6+89dZbGnDvBhWpp7z6K4oTrtj6w7CRmZpOCCF+4i5eX3311TLitW/fvnLbbbfJHXfcEbCWjBw5Um/ko0ePlv3331/TYHVAudtvv12GDBmiYhUWTqTBUgDn/3AgljEDDRaDcPzWRBCpH37QD9yM69ev76UEKa8dMGDAAK178uTJcsYZZ2ga+n7TTTfJBRdcIHfeeadahbp27SoTJkzQPrRr107LAZw7LLk496OPPtpLjY1I1w1EO99IffXjv269e/fWfiHgxw7BUZU+E1Kd5Ofny4033qjf5/POO09yc3M1HSIMlkTca5566ilNg6UWlsWLLrpIHn30UU1DOaShHL5HpaWlmh7ODTfcIL/88otce+21MmPGjBDranheOJH6UhHmzp0rnTp10lEbrNhwxBFHyFdffaV5EK/oMwTn1q1bNS0a0eopr/6KMvDIHN22aTQzJAw9N0NWrVqleYQQ4oibeG3btq1kZmbKe++9J3Xq1AksddO6dWudbQqBAyHXr18/Fa0YhscQGn4M5s2bp+UHDx6sPwS4qaM+CCcAMYkhc1gFIvHCCy+oFbdFixZeSlmi9cMB94VRo0bJI488Ips3b/ZSQ4nWTnZ2tnTs2FEmTpwo48ePVxGP/gO4UOC466+/Xtq3b6/DmRCvH3zwgZx00klaplWrVnrusHaijmOOOUZdMGIh2nWLdr7l9TUSn332mZZDnzdt2iQvv/yyplelz4RUNxBsl112md5T8GD67rvvypIlS2TKlCnyzDPPyCuvvKL3qOXLl2v5tWvX6ncMD9tLly7VcrCgwmr5448/qstCJG655RbZc8899ViIOz/l5ZXXl1jJycnRe7IDo0bOlxXiFd9pPFRDhK9bt07TIxGtnvLqrwxOwB5wwAGBACheCSHhxE28QgThKR5P87Nnzw5YX/Fk/sMPP+iNrqCgQG6++Wb9IQgHog5+bBCOxcXFMnPmTE0DEE04PhpYT/CNN94I8SULp7x+QGDCx/OTTz6RRYsWaVokorWTl5enPzB9+vQJWIdhjQDoO34o0eaKFSvkp59+0nRYYJzYQ99wzrCaDhs2TNLS0mT33XfXvO0R7bpFO9/y+loep512mj5sfP755xqvSp8JqW7wsOr87ffdd1/928b9C3/H7oEMf9/ufoDvqhuRQTlYT+HyhPJ4SMR6pvGkvL5UFdQFay8eRDFShhEn91Ba3TjBSggh5REX8Yph6u7du+swNYbdYflzPlThQMjFumB1NB/XSEB4wqoYrd1w/P3A/nfffSedO3eW1NTyL0mkdvbYYw+57rrrVBguXrw4MAQZDoS9G17EFj9ODgjb999/XwOu4cKFC72cihPpurnzjbWvfiBUu3XrVmboMp59JqQiYHQn/G8XD2p169b1YrGD70tJSYnuw9VnxIgRGjAqhPva9sDx7nsdTyrTFz+4RnhwdRQWFur1wbnC0uvuP3jYLc/yGq2eaOmEELKjiYt47dChg/qQjRkzRq688krd4sYIobRgwQIVP7Vq1dJhJQxVueF63OyQDjD0BvGIZVUgIGG5heUwVvDjMXXqVLUoRqK8fkDIYWgfN3X4mJVHpHYw7A5LKvzWMMRV0aVhYFFp06aN/oCgHvRj27ZtXm75RLtu0c63on3FD9T5558vjz/+eEifqtJnQqoK7i24x3z00Ucax8gDhu6dq1FlwAMaHujgEoPvDuqP9P3AgyssrVjNAH/3cD3A27+igaH1aCNH0fJi7Ut5wIqJewFGjPDgChcg+NzjXg2XH6S70Ro37yAS0eqJll4VwidsPT+10MshhJAgcRGvEEwY5vID1wHc5GGdw+sB4TeJoWuUwxAdwD78THFzxnIxGM7G8D0mAeE4N0QdK7///rt8+OGHXiyU8voB8CMEf1csH4Pls8ojvB1YbWvXrq3+paeffrqsWbMmIMpjAb5smJwxbtw49YM79dRT1bobDiZFuMlTCBdeeGHU6xbtfCvaV1jT4VYA1wDXLt6cE2ufCdkR4EHtwQcf1NEA+GwOHTpUJ19t7+GzPPAQfumll8rZZ5+trgCYnBhJWO611176kI7VR9A2fNlPOeUUL7cs6BO+n19++aWXEiRaXqx9KQ/4vV911VX63YV/PQQxfPZhHUX/zzrrLO0/7nfYRiNaPdHSqwL8Xv0Ttq654uty5zIQQmomKf0HjyktXDXXixJCSPWCBzI34RO4Gf6V4eSTT1brogMWTDx07Qh2Rls783ziCSa6EUJIVcCKTw6KV0JIQhFP8UoSA4pXQkhV8YvXuK02QAghO4J4vqqU7Hz4+RFC4g3FKyEkoamo7ztJLOK9jBghhFC8EkISGrw/HxMko708hCQm+LzwuWFtbEIIiSf0eSWEJBThPq+EEEIIfV4JIYQQQkhSQvFKCCGEEEKSBopXQgghhBCSNFC8EkIIIYSQpIHilRBCCCGEJA0Ur4QQQgghJGngUlmEkIQifKmswsJC2bRpk25JYpKeni4NGjSQzMxML4UQQuKLf6ksildCSEIRLl7Xrl0rEydOlGOOOUZSUzlYlGiUlJTIp59+KldddZU0b97cSyWEkPhC8UoISVjCxSviX3/9tWzYsEGKi4u9VJIopKWlSaNGjeTII4+U+vXre6mEEBJf+JICQkhSUVBQIEVFRVJaWsqQYAGfCz4fQgjZWVC8EkISnkiiiSGxQlWoU6eOnHnmmVK3bl0vJX6gzq5du8qQIUPk8ssvl6FDh8pRRx0lDRs29EpUnWuuuUaefPJJ3RJCdjwUr4SQhAfiCL6VDPENcMPAZLhIeRUJVRGvEK7XXnutHHvssXF3C8EksuHDh8vAgQOlXbt2kpKSIq1atZIjjjhCRo0apWnxoFOnTiHbeLDXXnvJXXfdJWPHjtVr5MA+0pCHMoTUROIqXps1a6ZPn02bNvVSygdPv02aNPFilQMTBP7+97/LbbfdJrfeeqv07ds3kH7ffffpPiEkufFb+OD/evzxx4ekJXOYM2dOxPOJll7R8MYbb2g9gwYNknvvvTeQDkHXpUsXGTZsWEj5yobKUK9ePbniiitk9913l82bN0tubq6XU3UgVE855RT9Xfr222/ln//8p9xzzz0yZcoU+fDDD6V27dpy2mmnJaSfLiYmXnnllfr7uO++++pvHEQrAvaRhjyUqegkxnemB4UwIclKXMVrz5491f+pR48eXkr5QLw2btzYi20f3Iz8YKIAhoEw0/X666+XyZMn64xkfLEJIbsOEEfhlj5/PJmDE3+xplckLF++XMXa008/Lf/9739l1qxZ8sknn2jeW2+9JY8//rhe3/DjKhrQz4qSnZ0tY8aMkb333lvjWVlZcuCBB+r924WWLVtqXmVo3769tG3bVubOnStvv/22bNu2TdPR1y+++EI+++wzFYOJ+HuBa4rPzgELMazTCH5r8bJly7RsrDjhiq0/DBvJJc5IchF38frqq6+WEa+whsIyescdd8hxxx2naSNHjtQb0+jRo2X//ffXtF69emm522+/Xf2TIFb32WcfTYNIhaXAD4ZMIJZnz56t8S1btshrr72mojacAQMGaD0QuGeccYaXKrqPfiH06dPHS42eTgjZ+eAHGt91BAwt5+TkyEUXXaRDzbBEQZjgPjBixAi55JJL9CEWP/Sw5Lnj/AFlzzrrLB1+RR0YQt66dWu5dbz44otqwcQ9DKIvvE5/+Mc//qH3K5T9z3/+E0iHgDzhhBPUCjp16lRNw/lAUGF/+vTper9ctWpV1PRo9UQKsN527NgxMOx82GGH6Tm6fH8b/rDffvuVG8LLV0RAAQzn49ri/u6AeMV9Hp+JCxMmTKj00DhEKc7tm2++8VJCgTUWffevbBErzsfVBT/+9Kr4wP7rX/9SceqAdRrBgZnXDzzwgBeLjYFH5ui2TaOZIWHouRn6t0VIshA38YonXCxQ/d577+mN0t0QWrduLSeeeKIK0ptuukn69eunohVf7JUrV8qjjz4q8+bN0/KDBw9WcXnDDTdofb1799Y6MKzz2GOPybRp0zTuwLAJ1oD0gxvzjz/+6MUseMLHDRxrRY4fP15FNurHjeDwww/XNIhU9C0jIyNqOiGkeoDIyM/P14B9PKhCtL788suyevVq3SJ98eLFct1116lgxA8/Hqbdcf6Asr/99puKVFfmnXfeiVoH7ikPP/yw3oeeffZZFbIoF14vwvz589WqiTK4v2GL/i5cuFCH7R955BF56qmnNCxdulRfvgCRhf5gBAnuT5hkFC09Wj2R+gJ/VjzMuziGmJHm4q4NF3fhq6++8q58WZAXXh7XDfXECq57LP6mELSnn366F6sYOBb9ysvL81JCwblDvFfGuhurb2tVfGDxgIaHoN9//91LCYI0+LyiTEVxAvaAAw4IBEDxSpKJuIlXCEIMSeEGBgHprK/48v7www/6JcNyKjfffHMZwQnwNI+bPvyecEOZOXOmpgHcbCvzJXXg5vXKK6+oBdVZb/Hkv2bNGrW2wNICCwB+HHBDi5ZOCKke8P3D/QMB+/BjhMsRxEn//v3VDxbpWG8UD8+wBP7lL3/RdHecP7iyEIOI77HHHrqebLQ6vvzyS52xjgdhCEBYXtF+eL0I6BvuL7hvwOoH0Qtwf8SxGMbHQzH6vmDBAm0TbWMU6qSTTpLOnTtrPdHSo9Xj74MLyMN5xBr3h88//1z77QdpkcqirxXhp59+8va2T2UNB3/88Ycei882EvicYHD55ZdfvJTYgcElFmItt7NxgpWQZCUu4hXD+927d9dhrbvvvlstphCzkYAoxA0zFsJ9XMNZt25dmclhEM2YhOAHNy9YUiBiYS1xkwIQhzUYPwZwXcAQFW5m0dIJIdUDHmidlQ9iyW8thJDDdzo8HfcPpLu4P4SXhYCDAItWhxN5Lh0i1l/OH2DphFUUi/bDtxIuUngoRx2wNmISEQKEpxOkmLiEeyYe/F2fo6VHq8ffBxdw3/LHcW+DRdLFw883PHz88cfeJyC6H6kMgnM/iBUYE+B7uz1wrnCRqAwwhuAzw/ULf/MXHk4woobP9+eff/ZSYwe/c/hcXfDjT0e5yoI+wu3A7yrgQJqbxEVITSQu4rVDhw56A4PzPWY/YosbOEQjLAKwvtaqVUufgiEE3TANfiyQDjAshxswbtb4MYIIhcW2PDBUhndqwyIC8EWGhQJ98QMXAQz/zZgxQ4dG0AbA5AAMX2EY7vnnn9d1/2AxiZZOCKkeIGKcUMJ9A6MjK1asUDGGCZsYIUH6xo0bNQ9CD+II6e44f0BZv2iD+EIb0erAKBCsqOvXrxe4AMAaumTJkpA6XcB9Bq5POAa+tBhpgosU7oO4Z+F+AvGBNnFPdPdBlIWYgg8r6omWHq0efx9cgL8orJw4H4xeQQTjeJcffh0ihXfffVdDpDwXcO0qCiaR4bNz4LOEO8SkSZMCAUYE/IZUBlgXcW5wL8MoGuZU4DemW7ducs4550ibNm3UJxhuGYkIfkfx2+WAq4DfhQAPMPidqgzhE7aen8qRRZJcxEW8QmjCSukHN0k88eIHBjM94T8KlwGUw40cYB83ZtxMMTyGp3E46WO4DcdFGrbyg5s2bnZYtQCTsTABADdZWFf9fPfdd7osCvxu4T+FGzl+FPBkjh8i+BUh74MPPtC8aOmEkOoBFjR83xGwj5nk999/v1xwwQUax+QlbPEwe+edd+p9BVZHuAm54/wBZSFsXBz7CNHqgEjEIvpY1gmCAVZV+On763ThoIMO0oddWN4gcuHzjyFq1IEF8mExw2QziFGMRLm+ICAP/rJ4mI+WHq2eSH3ByBSE29VXXy0XX3yxjkrhYd/lh1+HygbUUxkw98EJWNSDlQEWLVoUCBj6rwz4fOBO4vx9sUUcS2NhEh0+j//7v//TeRSV7fuOBAYciGsHJmdhPgiC/xWZELcoW1Hg9+qfsHXNFV9LixYtvFxCEp+U/oPHlBaumutFCSGkesGDrH8GOOKYNOX/0Y4EhN2DDz6ootbPZZddpsLIASETbQ3oaHVEoyJ172iqsy+wAmK92Mq+tQp9h+i/9NJLqzS/wXHjjTfqFtfj9ddfV4slRvzQP6xMAVEMK3q8wIgjXMzg41oVVwE/eEDDAwcmJGLlAXddMMIIqyxcIfC3Whm3B0KSEf9vAMUrISShiCReMSqzvYk1GF5+6KGHdDH6yhKPOmoie+65p77JqrLiFW4RWG0Gq9Vggm5VgUUavr3w0/3++++9VEJIMkPxSghJWCKJVyyFVZlZ4WTnAPEKP9LKildCCNkefvEat6WyCCFkRwG/TPgmMiRmwOdDCCE7C4pXQkjC4yYuMSR2IISQnQHdBgghCUW42wCWmvrrX/8aeOMeSTzw1q177rmnzHqqhBASL+jzSghJWMLFK9YixSQebEliguXFsDwYX+ZCCNlRULwSQhKWcPFKCCGEcMIWIYQQQghJSiheCSGEEEJI0kDxSgghhBBCkgaKV0IIIYQQkjRQvBJCCCGEkKSB4pUQQgghhCQNFK+EEEIIISRpoHglhCQNkV5JWpMDIYTURPiSAkJIQhHtJQUlJSVSXFys25ou3FJSUiQ1NVXS0tJ0Swghuzp8wxYhJGGJJF4hVouKiiQ3N1e3ELA1GQhWvJK1Vq1auoWYJYSQXRmKV0JIwhJNvBYUFEhOTo7k5+fLpEl3qGBDeor5h/8c1iiL/5mcME2n5b3j/FS0rvB0V6+mmmSX5ifYrq8irQNErj+8rzYuMnbsWMnKypI6depIZmamphNCyK4MXw9LCElK4DaAALEXEHUqFF2AALUiLwQvLxxXzh5n9r3DXFGbrTmB+m09Vlj6m3H5Li28D3qYrUnL2GzU4dXjtQkQDR7vygTPOXgdCCGk5kHxSghJCpxwC2LFHZKdzAMo5S+qgtPbd4JQxaD5Z+tUqWjK2FJ+AeratHm2rPvn709QaHrtIS+Yrdgito5AGdSMolrc7rvjXB3Bvrh23LFeGUIIqWFQvBJCkg6r5yDcPDHnxZ24Cwo+m2ajQcGpW5NoZaitJVDKO9gvDLUOr25NtUUQteU00bXvZboyBk0POdBXzmD30AaK2X+airivfkIIIRSvhJBkRNWelXxBgnErPK0AxL4Vg0HxBzFpNWHwnztcyweLKjYNiShkM7UO3bP1uApUvxpsHb4+ef+3+YjZFCtY/aCAPc62iXxznPkX3i9CCKmJULwSQpKUoIXVyj+/wIxEUBBaEVhWCSIPolTlo1bu6nLb4DGoI9g+MAn4T4tYK6rWYHZsvUhHfrAOlLBxG4Ll7BY9cf2wApkQQgjFKyEk6XACUcWe+WdjTujZmMUJPhcHKGf+74lCe7y1ajqhqVLSJySD9VhsWbe1xytmg6g9DkdZoWzrtVst5MoH6rX9cOUAtvZ4T8jqsa48IYTUXCheCSFJCEQcAlQd4kb0qdDDvs2zYs/hpWlhKwgRbDqw+zYNQtGKRRt39QTrC6lacfWYPRzjRW17jmCb7ni04cpojh5nD7ZlnKD10kLqI4SQmgnFKyEk6UjPqiVpmSZkZUtqZrbZz9Kthgy7lfRML2SJZJhgtqUmXpqW4W0zpcTsa0hFSNdtsQlFkiaF5vZYlJJm9s3WxXWbLgWlqVJQYkJpitmagLgJ+WY/vzhF8krEbMVsSyWvGMHsB0KKbCssldwihBLJKSzWrQvI21Zo0gsQirxQIlvzi2RrQbHmEUJITYbilRCSnMAIaQ2Znq0SBPeAWjZ9xsrSUiP81NppCbdk4mhNccm+6gIlPStoCCYNybCQWouvZy014hb/NF0L4v/Yt3XY7pi0MlWiXEmgrmAB2w4hhNRkKF4JIUlHCQScUXH6D1uNa1IwzRax+/o6WSssES9BhqHEqEcIWi1rgkpGKEovH0IXaD7qQXqKrc+24Io6GYz6bVs4Fu3YUthHWbSHejRR68A+orrVdI1hx5dma7f12zxCCKmpULwSQpIOJwBVZ9oEKxQRjEpEHjIQL/HiEI/FTpci7qWXlhpBaPYRL4EoNWVKNM2WCdSrZU3QfF/9JsEGU8YcjzyUKymGhdWITi/dHmyPA6gHSTbNlvH3H/2ymRab5tVJCCE1mJT+g8eUFq6a60UJIaR6+fPPP2W33XbzYhaItvz8fNmyZYtu77znXqTaTE/MqfDTPbVPeuIviJGZbidQDoIQZXU/kADBiV1TXi21tgXkow2L2yLNO8RsVVxqYSSm+soDK0qDuP4h3ZfhNRZI8WdpO6Vy8/hxkp2dLfXq1ZOsrCyT7upCmRSpX7++1KlTR9LS0rxUQqofvNI4JydHNm/eHPbdIGT7/Prrr94eLa+EkCQEP3uwQULp6b73OxiQg064mnT8SFrLJ5SfdwyiJaYG5GkZk+xZQq3l0xOaGrwyKG8r9NK9XZSHLjYR1G6PRxu2gPuR1jJaAv1AFo6z1lbNQZYBUQSNYusOMRW4suUB4YpA4UoSDfxNur9PQqoCxSshJOmwwhBbDM9jqB/BikgrHrG1w/la3gTrFmCD9Uu16U4sYt9L0T1gxaKnKuHrinJetopPE6zV06tP8xDHjsl3QhXiGXEI0IBgNcGrWst4SRqA7pv+6vnZRNdmecDiSkgiw79RUlUoXgkhSYebwa/y0DNNWruoFXduyB9A66neUx2pijCQDk2IWGDilpfmJlrpsUaYajBVIg312HzUj63JxTGBmK3DClf0Q4+yfUDAYchycRNs/a4Pdl/9b7UAymghE3AgKogOLa4k0eHfKKkqFK+EkKTDWVTdhCor88w/iDwjWrHBhCkYPJ2YddZam+YJQAhCkwB9qfoQcQ122B/Hoh6vOc3TfT0eEcRxAESly4dsxfEQouiH7admoy/m+GC/zD4STH2oRqtCXcHqAkGb1X/Y2/Vo3LixXH/99V4slFGjRsmxxx4rLVq0kAceeMBLJYTUVCheCSFJCMQh/m//QQUGhuaLi00UchZxu2+NsBCTQSlYUmryTL4qV7WOQkx6dZg83ZpyONZaZm0+8nCcbcNLg1BFMP9wXElJUSBfZafW7+rG1gZtH+VNnbAbI+iJuX5C9HrtpqBdDTh212P9+vUybtw4+eCDD7yUUH777TdZunSpXo9XX33VSyWE1ETS9urcY0JJziovSggh1cvWrVt1Fn04mKlcUFCg2wF/OdbouiIrQFXcGeHnuQno1oTUVE/YmgDLJ1BBaQKstWZHj1Mrq9ngMCcUzf+1DKyoVrgiE0LX1piaYp/7tYVU7Hv1Q5SiMoCCWi+OtUnaHEqVFGufrAW2RIp9/dMWvGNtKiJwI/DqMqmf/t//SXp6uq40gK07d9CgQQNvT+Too4+WCy+8UK2WsGzOnz9fOnToIJdffrnsu+++MmzYMI3DReHiiy+WgQMHyuLFi2Xjxo1eDaGg7KWXXiodO3aUoUOHysEHHyxfffWV7L333vLXv/5V/r+9Mw+SsyrX+Jmlu6d7JpMgiltcC/5QUKvcNRowcEtFLVTE5XLF4EKVReFVKgjcAlmTC6VhK5cSRMoLglqWWiXGnUAEUQuRiBsUlguKAYFZu6e3mbnv7znfmXQmM5meyRBmyPtMznzb+c53uifzza+f7z3vefnLXx7e/e53h+c973nhN7/5jb2eyfCGN7xBbb/xjW8MuVxO7c8kXNVLL700/OlPf9L2W9/6Vp33yle+MqxatUp9f+CBB8Lb3/72sHnz5vDCF74wvP71r1cdXiePou+77z6d61r6IuOAyzUftd6X3Hl1uVzLTtEZtRuYgSPgJj7MoFGwiWNJYZcd6+xK9bqsdAo+Y0xqBpLWHlAc2zDwtbq03dlp9bUH5ASgJ0LTQK8x3lR9hSxAlVaDPnR1dk/1ybqh6wuU1QLYGb9z/W6DrW7rF/W7BMCow0A29qVJaQK5lATjsU47Amxf8IIXhPe+973hxS9+cXjpS18axsbGdAyQPfHEE8PatWvDs571LG2fcMIJgsLXvva1ckFn00EHHSQgXrNmjf6Y8EGD9+AZz3hG+MAHPhBe/epXC6hXr16tfe94xzvC+vXrBbq0Taqk2cT7j6v6zGc+M7z5zW8WCL/mNa/RdVLfk6jznve8J3zkIx8R4ALJpFJzPT4655xz9lhcrsWUw6vL5Vp2ggcFiLaUk2rwRGk0GwLMcVunpP2qL2iMg0UEjAaQXV3Apm1nTioCFuO5Ta13GJBytmGmfUVwBLKoU6s3lHd2rFYNVVvW6jVBJ9fTNQziANPOjkm7FkvAmMEq9J3O2z8c1cmODGa7Qy6Hm5qTS5nP0TeuOWkga9drjOua7Yh+ffWrXw3r1q0Ln/3sZ5UXFigG8IDB+++/Pxx66KHh4YcfDj/96U/Djh07Ql9fnxzZ3/72t1kru4tzeXz/kpe8RNd42tOeFh588EHtx/kEkv/whz8IVnFT77zzznDbbbeF173udeHCCy8M27Ztm9N1w+HFub399tvV/5nq47w2m81w/PHHh+uuu04j2IvFopx7177Xeeedl63trj0dc7kWIodXl8u17GTMZ2AZIRIQxE3NuFLgCMRWa3WDSsCyLsiqNZq2P7mZWWiAHtfjnBrY4rIaKOLOakDWJA4qEw1MCEQJD8DBxS3Nd3cZWHaHHgNMHM5CLj81ghqgqtbroVIdk1tIP7g2IQ/JSY0ObHRlBcJ2DaC30WhM1RtX3Um7roGtwWxPvhD6Sj2hv800Q895znPC+eefHw488MBw8803Cy4R7SNglr5zfaAPR5X1fD4/JwByLuekc6vV6tT+BMlcF1DmGIDLtXg/gNG5UiUB7gBrOo+fC9eZLkIQGMCFY/z+978/3HLLLWFgYCA76trXmglSHVxdj4UcXl0u17ITDmpHh0GlnEyA0wDP4DPf3R1yBpY9BjxFgygAE9gEbAknkKvKI39bApkpnhWGHZ+I+8cnGga5BpsGktV6NYxVa2F0rGwQbDBqIAYQ1xvUoycTocuuzTUBrmJPIZTsun1Flga1Bpw5A88YShABmM50ZaCMG9stEKbvtNGlfdYp9QfoHavWw2h5NAyVR8LQSCUMjLQXK/jc5z5XTugnP/nJ8M9//lOhAe2mKIofCtoTrwMRa8s12OYxPu4rjitxsIQW8P7gvNKvufqBs8t5abIFQgSmi9hYYm2BXD6MPPvZz5bri9vrevzUCqsOrq7HSg6vLpdr2YnH9LU6gBmdVDmVAs+d4QJsC8EyDptUOMF45nZmj/UNtDp4pG/rOQPfvB7VF0KvwWdvqScD0WLoNRjmGKBJiAHt4JLyGB9nt1oz4JW72gj1JvAbXVOBchYfCwzX5MhWDYYroTxWtTIWypVYqnYuIQ+EN3AdwJd+9BV7Qn9frxxX9cv61I54XI8Levfddwtg//3vf4dSqZQdXXzxYeDzn/98+MxnPiN397LLLguPPPJI+OY3vxm+/vWvC1xvvfXW8OUvf3nOsAGgGxf1u9/9rtJnEdowPeaVsIevfe1ripH9whe+ED70oQ/p9eEcux5fAa0Orq7HUh1HHnfKZOPB7dmmy+VyPb7617/+FZ7+9KdnW1E4gTz65zE0y40Xfzo7gvPH9wiku4vYUtzVGKMKRKaY2Nb6cnIV+8owLhzSLBTBKmnAlZacz3kEqXbKxY2DvqwB24dD2NWFq9qpEATgmOsz0Irrx35Gl5ImJjsMsq09xeXacYErzaludJNpHFhmNW7Hti4452yBKY5meqyexACsJN6rrVu3CrRxRXn/GMTFI/hf/epXGtGPbrrppvD85z9friigSKwp0BtfQxT9JJXVQw89tMu5ZBtgINa5556rOFQyAwCnBxxwgPYzeIvH+/fcc4/6fvDBB4dvf/vbM7ZN/370ox+FY489Vvu3b98e/vKXvwhKKU9+8pPlwrbW+fOf/xz++Mc/6j0gZpdr4vK6lrb48OFyzUd//etfszW7Ezq8ulyupaR24PWMT+HqAHmM1I9QB79pcJPt02N6nRfBEDiCGAkPoC14E5DVeXw3jurqMOA0+CT8gMbYTzucw3oUZxJmAGjGZXJ0le6KtmMVLRUCQD/tK8Ea50Wgpg6xrhGqqRVd4wivkvoar6U29NpC+PSmC9uC173Vli1b4nuXiddAOq3pYoAVmQYYxJWgdi6127briSmHV9d85fDqcrmWrNqB19POOkcOZzew2dVt8MlIfgZddRuj4oxCj9nJSdoXXdi0jXsKQMWcq4AUsAgQp4FahoxW7+KzTg1nbLzM1nFcad9qGnQ2x5sKWbBWI3iqab5RATqN1yFHLH0kw4EGfanv3XYs9hnoBlJ1nkmOLCcDr1ZaIY8qm847d5/A63w03ZF1ufYkh1fXfNUKrzuf2+yFCNS/5pprFNNEOeuss/Roai7xeOeSSy5RrNJ8xcjYyy+/PNsKyvHH6NbZ9JSnPEV95LHTXOLx2hlnnJFtzV/p/Xjb296W7YnSH8GLLw4nnXRStmf+mut1ulz7g/pLxdBTyClOFWzjRoYzCYxG/oMarRgcpi9BqoEgkFlvEqeaDcaqjIXRsWqoVOuhUmtoQBb7ynZspFINw+VKOPnMjapLOixiWAFkfp/zuXzo7S2FvlIp9NtypZUVtr6iWFSsarGQDyXrZ08+H4pW6G/O4LWzq8tgNgNvgSvCLY4QKgfY6uQYcNZNrG0c9AUPE1u7FMU92cHV5XLtCy0KvCKC9YFWCuBG4ui5HABSplx//fXh6quvzvYsXEAd0DmbSJxNH1/1qldle2YXCbovuuiibGvhIq9hqyNC/kRu8HujuV6ny7U/aBi4HAMuyQQwZoBZDoOjVkYoo2FodFTQWTb4rDfqSjuVJjbgV5LJBJRT1WASsCwZZPYUAEvysvKInzoAZGcokKbKjhcMQgt58q/mdS4OKgXxOJ+cscR3Tg38ypPxIBvolcVgcg+qVBsarDU0PBIGhofD4PCgrQ+HEevzaKVsfa5EULZSq9Wz3LVNhRfg9Mb0XrMrhkO4XEtX/n/UtbdalOlheXzF9HyMDEU82uMmfthhh4W77rpLM7EwI8tRRx2lQQ0E2JOTj1lfCN7/xz/+oUECHMeFZRpBAO33v/+9piH82Mc+pkEHiOkMyV9I6hdmh/nBD36gmWJwerkeibZ5fDVdxGNRl9laUluHHHJI+OhHPyqoZKYW4rV+/etfy9nctGmT6lPnlFNOUUzX+973Pi15jId7Sj95LSl/YhLvB6+FPjLalteGmGmGX1pyKHIdxHvDtIrUxx3mNc/WL2bAmf46Z3rP0JFHHqlpE1/xilfoPWYgBqllZvpZuFxLSe1MD7tm7RFx5+TOx+kCToNIYLOQNygtFASj3ItiOq3obLKMsaPApwEqKaqsDvUYqZ638yNw2nlqeVKObRxcZeCYubcxbjXGpyoGlppYo/pnX1Y3hhUAnmQbIBWXHcQNzvqdNadC3Kxm1bJzGs0sJGGcdghTiKEMeYNnYPvmrTepv4QMsGz9kMzrYr/LtVTFLGspN7DL1a5aWWvRnNfpYg5q8u0xPeBxxx0nJ5OE2UAWkHbttdcK7nBpGSkK8AGq1MG9xSklb187og1g7sorr9QI2emiHf4o/fCHP1Ry7NZ4OpJgf+Mb31CYAH8EgL3pItTghhtuUMoWQJARtYys/fGPfxyOOeaYrNbuItULc28jRvdyHiNzk+gH7w2hBGeffbb6iVuLZurX9Nc523tGf9/5zneGjRs3qu2U93C2n4XLtdzU31sMfaVYeos9VmzZY8W2C4W8/c7kBJNpSlUGQ03FuppifGkcSMUXR1hOGDzidDJTVrlcUVqrWqOhXKuEFZRte7hSCcPl0TBokK1iH9ZxUB8dHgpDI6NheHQkVCpjSpnFNck8INA08CSMQDlh5fAC0Li2XB+CpafqNV2z/Vn2AqsbIZxtwg32fNtmpD8GgrtbrqUm/k/yf3NoaCjb43ItTI+J84oAJRJIk6IF4APGcFpZEnTLoIwjjjhCiazJP4g78fe//13JrYE8nEKglji1F73oRVNuKW0wYKPVeUU8TmdKw5nm5AbSCA7nWqRvoQ+4kDiswN/3v/991SNVDGptO9VhnV88+sK0hbjF/CHBySTNTKvS+3HVVVdpXvGf/exnClfg0yafHHBIcVLZx/tDWpr4R65Tr53UMDP16957793ldc72nvH6SCvDrDq0C9ByHRJ+z/azcLmWitpxXtcd9R8GeEI+uZUAJrlVyaNKPtVGg8ftmZNpEKkBWVYb9zRJJijgaEt+l9KsXJync6lAPYxPAWZES32zk7SeKWJnHIgVp3UlThW3lPAEQgoAT4PQHCEFeYGsJlKwUjL4juvsZ2KDGMtLRALwqmsZhMdBZYQ/hLDt5tmdV4SrBSQAsl68LJXC/0l3XF0L1T5xXnEVme8aAYPk5aMwQAtwnC5CAc4880z9xyYnYEpIzR+q6Tfm+YhzgTtAmWvjbOJQziRAb65rUYeS1vmjNJv4g3jHHXfoejiwwORcmun6s/VrtveMP57A6kxq52fhci11jcr9rGhgFa4oOVL5feNxflOP3yfj7FQGowzCKlcrYcQ+PKb42HJ1zH5HajqHR/gKHTCwxLll8NWK3jgAq2Rw2NtDKAGhBdEptd9I+33MgJUVg0qcURxfYDKfjy4poQlUincL6to329D9Y5INFOFZ/nAWGoBTm+4rtRqvoRaGR63/lXIYUlxvezNsuVwu1xNVjwm8kkSamEscSRJTr169WrGfuIQ4qRX7wzNduIMcx6UEepPzQrwoTmVyGAC2mQSszTT3NTGqOLXErZ566qla8odhtnYWWwDrW97yFr1u3NpW4QQfeuiheq24rjixKWZ1NrW+ztneM5xbXjchErTL+4/a/Vm4XEtdxIPipfJ/uDWGVFxoJU4swA7AMD6CxwFl+ljCDEo9RQ2oAjLjB8NJPb5nFceTurlcZ+gxcO3pKYQ+MgnY79eq/v5w4MqV4YCVrPcqs0CvFcAXWAVM7fO2+qcZvqxbdEV9mRKgmvocl9FDjrG0DM6q1RhoFmcNi3G2Md6WqWwpLpfLtT9r0eAVsEypsj74wQ+GL33pSwIkgO073/mOZk+54IILFIvJY/XpYmAXj7oZKPWud71LoQRA2sDAgGJLidHcsGGD9s+kX/ziF+HDH/7wbim6AEKOtYpchLO5r4stHsnziH8m15VjTJ1IXCvvG64oc4HvSa2vc7b3jPec94y4XOJ0+dnwR7Xdn4XLtdSFI1rozusRPI/qMTkFiUmRCwWjuKI8ku8r9Wr0fy6HK0olYJDH/9FJRVpaEUoKFAFHjmSQadsqEwzSmlR4AemzyB4wUibelUIGgdHw6OBweHRoUOWRwaEwMDSk42VlFKgaoDZCvR6njgVMcYEJcSA7QlonyiF2IXZK144dcrlcrv1WPknBE1QMUCM+EFfptNNO0+CxX/7yl9lRl2vpqp1JCs7f9L+GcxlpBmanyiBPgJlNJMBRO0zhCQSVtKAyLGgrabBWUodtYHRSmd8d1TXRBvU5j7bJtdoQYJIRIF4LxXppI/um87Sh9Z1t0n4cVEXqLVxgcrt2C645j77guMYmuH5yYjdftFEfPHnawlOp6B67XC7XE1eLPkmBa+mJtFzJCSelVmuWA5druQvkjEOwIriCbhTFmRrkNcfJEFBTfOvwaFVOaFyPkw9UKrXQqE/EHLA4n1ZIbaW2rAmyFACMMCHtAo5AK05pRRMaVOPgrhZwRREyswJ06lF/XKpx9TyKNtNsXgJX4mpz3XEWLruwJjHoJn0XpctgNRd6SwasfbuHR7lcLtf+JHdeXS7XklJbzuvGTdHlBC3tWIwVxREdN6CsK6tAgkSpZQPclFEJT1pRO0aagG9HJzGwkwaUeLKkqbJ9wKQBLe3jghLPCsiKRzNnNAmgzprWUu5qguLY1Z3HrV2uQ+oscsoSj0v95KLymmdaR+eefdZeO6/ExDMj1ve+9z1leFhM9fX1KWNKym7CB2h+rmRqmZ4X2+VyudqRO68ul2vZCxAkLnRqilcrpMyaGI9wyHEKuMgYp1j4xkFgLwKfqpiUqcDaa2apssYNTIFC5WXtzodiTzGUioXQ39cbVvWvtLIiPGnlynDgqv6wckWfshOQpaBkUEmqLNJdaWIEwW+X9WXn9eJ+MoN0GXzmBK7UmYJVasVVA2rqxo25cry2K8D19NNPD29605vkPC+mmB6bSWiOPvpope+j76ROJOMK8frsc7lcrr2Rw6vL5Vp2Ig3WCFPEVupKh9VsRvtTM2HZMgIfkGggaPviI3w7YOvAFPsC8abpQEawPLIHVsm/2isIzRtUdnOinUMDWtW6nFpdo0OptEiVVSz0KPvAKoNZshMcuLI/PMng9knKTmAlg9xST95KnAEstpNuxTtvyTi/XICQhrgDF3fvQRO39hOf+ISm7yb3ZkqxtxjivSBkiclP7rzzznDFFVeESy+9NGzevDn85Cc/0QDTY489Vjmn56Mtt/Rmay6Xy+Xw6nK5lqEY4a9QAZ7ZY1JmoEqaK8M92wf6ddqhnTGmkkEneIuByf50TLNgGUiSGqu3WBKIapYuGuUcAWssRsa6FmfLVbWitnQQyFUla9PqWYmhB5mDiyObZwIDgDhoxq6BodHw8MCglYHw6OCgbQ+H0fJYqIzV5CrjBAPnE+OxXTW/QBFqQLpAJpBBhBww/TRTUafCY/6FijABUvht37493HjjjVOp+HhPfv7zn4dbb71Vri/XaVcJXFm2lv86Ma/9Lpdr/5PDq8vlWnZaUSqGFcViWNlny74eOZ75XDaNqpUEs5CeODMJh3PC8FUDrXicb2Bpy0KhK5SKcZKBzq4IiDo9K9qIxAqe6hyAlDjYGF4Qb6W6murZMbsOcA24sYs2cYYjjDYFppyvEAGTJloYHw91O8agMCZVGCbllsEs5ZGBR8NDjwzacmExozzOJ1TgkEMOyfZEeP34xz+udH2pkGIvzeo3XwGlvF5mEJxJuLG89ukxzXvS0YeXtVx9wO27lP9cn5uaCMflcu1fcnh1uVzLTsBimo0q181Uq0w+UNQMWSv6ekN/X0lLYlGJQ+01MO3Jd2uCEoC1swvHNNi+vNUrhUKuoHYihOqBfQaw0UGNipDJgXErHCcrAf1gABdHyRIAvJHiivoa+GX7GNxFo0xAQAq7sWpVKbZijlcGfSUAtor8i4sYp8tSjnFUE7d5ATr55JPbijcFaMkbvRBxLnA62xSgTLLCa56vu5sAlmmtU0EOry7X/imHV5fLtewE3AkPWdoK4Acg4mwCngJbANdgFSgtFHpCycAWqCX2tL+vL/T1FvVIX7KTOHcqrpVt+0rbwlnoETjVngiocfYru17WDu7plGx/dF/Z6DCoY1ICJiFgYgL6HuvyGhDtsU7/xcsaeWZ12G8LXifncHwhuvfee7O1uUV4w0L0wAMP6NzZZjAkFpYc1MwCOF8lYHW5XC6HV5fLtewkWAT6ElPaV3w8vxPtplazpWJgJw0ijRwByeHRciiPjWnWq8GhkTA4zKP5AVsfDuXKWBgbqyl7gWa84vG+XYhr7JQ1bBchbID9AHO8ZrxgNGzpF9kL6gJXQgWAV0GoVcO5RcAp9E3zQCrupNJ2qc+8xnG1w3kJeucrZvPbunVrtjW7cE6/9a1vZVvz0+9+9zu5yMxgeNBBB2V7o4h1XbdunX5G9913X7bX5XK55q9d8rzuemN2uVyufa8dO3bs9liZexOP2xkdT57Xcy/YmO23b8Z/8dYVN4DCiIRR7OV8oKppIFqpNmzd4NAqpv0opaHSI3xbqjVb4TCDwIBJwgAIVSA8gHACIFphCBm44vRSO91LWQKDdYPg6hgTIjQUssDhVDqZ1otz9D1qwkBV/bN1HGTJNthPrSs/d4Ue0TNqHyezFdrn0vr168PatWu1zuP9L37xi7s85ieXLg7qQrRmzZpw+OGH630giwGDtIaGhpRl4GUve5mcV6a1Jrdset/b1Y1bd804cMNXGuH0U+9wR9bl2g/EPa41z6vgtb7jrmxzV6UbsMvlcu0r7Qle0yQFnzrvfIEfzKZ4UtWJSzBOg6rEc4adE83QqI+HmnK4MsGAHbdvGasKSlM6qsSAass2NDOWAhRQbJlBX9laBF3bwPklhIB1ZsrqsjaZeEAxsPZFOAFTysbrZ+1ZXV4XN2UcVhSvG13enYqOLPWAZNav+tzlU5MUzBde0QknnKC8q+VyWQO2FkO0l6CYnxF9om+t2rZtW7jtttt2vgfz1N13352tReHuPvWpT822XC7Xchb3jMSdM93T/va3v2VrdrwVXjkplbTtcrlc+1IMwpkOJNyLgFdmggKMTjvzfwSMreJel25Zk8SrGh8RItAgznS8KRDlDKoAlFpB3POyVbVo33BhJw04ExiDoAlOtcu+xYFcxL2mEAE1pcJ2D3lcu/OC2NQuoh2cX8W42jUYgKVMA0ywkF2PfK6xt1On6bqcgxP7f1dfKeeVmawWAq/opJNOCocddpgyDKSUVnujDRs2aEnIw5YtW+TeApe4w7iw/FwHBgZUx+VyufakdE9jmcqM8Mon4VZ4TcXlcrn2pZhKdHq8JPeiBK8s//vUDQZ1dnNrZbYWyms0G4JcpotNO/lCuJwdnXzCBwYZFMUNMmYMiIgYlW6YSquVZQ3gJPKtZquZootIHzs6uuS85nNW8gVdBxd2utMo8KWtLH6Vbd2DbX08m3CB2FZAN7m1xNYi4PD6r1wjaN0beOUcZsHCDcXR3lsdf/zx6guhAvfcc0+21+VyueavdP9tLffff392NIT/BxvWKfuWLP/ZAAAAAElFTkSuQmCC;" parent="1" vertex="1">
          <mxGeometry x="1470" y="1030" width="174.44" height="130" as="geometry" />
        </mxCell>
        <mxCell id="G6Y90BfXApPEU-ohdSH0-30" value="" style="shape=image;verticalLabelPosition=bottom;labelBackgroundColor=default;verticalAlign=top;aspect=fixed;imageAspect=0;image=data:image/png,iVBORw0KGgoAAAANSUhEUgAAAq8AAAIACAYAAACsK4WmAAAAAXNSR0IArs4c6QAAAARnQU1BAACxjwv8YQUAAAAJcEhZcwAADsMAAA7DAcdvqGQAANX0SURBVHhe7J0HgBRF9sbf5iXnICCiIoJgJimICJwBzIoigoginoEznYqIipjgFMOdWU8x66lnRM/8R1QQAyIoIIKKoOS8bN791/eqa6ZndmaZ3R3YGfb7Ydldoauqe3Z6vn71qjql/+AxpSKlkiLFZpMiYvYQl5QSTRVJlRQTTRZKS73OYmPOQU/Bw51GoIyHnrGXhi3OV7feidu84LVBNEXrtXGbZstqm8BcS5fkx99ONMyRWjMoLTWfgymbYhp0+wDxIMgLpvvrxh4+SYvpp/l/Cv6hjJes9SNqtqmpaN2VN2ne6QBXN/6hHLBt2eBvFyCGtvB/jXv5OA+bayktNX97hpSUNN0Gynmn6K9Xk4JR7TfSwtuOBMq4cygpKdF9HFuC/piKUnFNw69fhHrD04rNP9SVapJRr35nUHdIMVwfezFxXrYO2x89J4d30uFtmB57exZ7zcyxKakhZd0ezgk1u/pD6ivxlTfpWsYEF3dpIccYXLrdt59hsAzSg8e4cvjr8+M+61Jznq4NDaY44v523fXzx12tmuZ911w+2vLXmZqaatIQt7kA6bZrXjmkIWpwfdZjva2rD21j6z8fRHH97b6rBWDfFw+ciOu9JfSY0PbLgr760qPVFfpHZ7D9LfHKhxxliup9wKDnqWneNTEFXZ3mL0yPC/Yr9JzdNUJbwTT8D8chL9hqsA5L8NhQAmnufupR4rUdCj4fXzns6/HaCZtk4uVf3/ji2nBtOsLjOxv/ufv7Ut39SmQS9bMEidy38ohH/yLdCQghhBBCCElIKF4JIYQQQkjSQPFKCCGEEEKSBopXQgghhBCSNFC8EkIIIYSQpIGrDRj0jL00bN3MYq42YNJ8k3hd3fjH1QaCcLUBgPTgMa4c/vr8cLWBIKHHhLZfFvTVlx6trtA/OoPtL1cbsJ+l29/RuDZcm47w+M7Gf+7+vlR3vxKZRP0sQSL1rXHjxnLQQQfJwQcfLFlZWfpbWFxcrFv/Pvqcl5cnv/32m3z33Xeybt06r4aKkbZX5x4TsGNvXThh76T1JmjjO/8yxAmcQwydDy/i4qGfPyLBBJsXUsAS+PGIkBcjoS35/zhd3S7uCO5H+qMNHmXBJxpeysXLHO872J8XqZ1I2JbCy4b3yJ1j2A9ThCbCkyLVXh6u3/gCYR8x/bk2O5oX43n5wfGBuvRmYva9eCjeefsyypaL1n6ka2bbiYT2ycsvUyKsKi0TVk+0eoPp4f1BevCY6OVcPKxNs4u4P82XqyAeklZGqAUFCrD74bUgXf+v+34ite3SgjmhbfqPiUqgSPllY6orQJSyZZJtf/HXAMKzXbxM274odkNzw2KBY4PXRpNMsH99oeX9bPecwz5jdx7heNLbw+2Htl2x6xsfwtusjj5Ew9+XROpXopIsnyWojr41atRIunXrJgMGDJB99tlH2rRpI61bt5bddttNWrZsKc2bN5dmzZqpyK1fv75s27ZNli1bJlu3bvVqqBiRHmMJIYQQQgiJCQhmjHZlZmZqgPXVH7KzswNb5KNsVUQ2xSshhBBCCKkSEKTp6ekqTjMyMsqIWAhXJ2JRjuKVEEIIIYRUGxCjEKVOuEYLyK+qawPFKyGEEEIIqTIQpS7AEusPaWlpGrBP8UoIIYQQQqqVcOHq3w8PVYXilRBCCCGEVAm3dBfw7zuQFim9MlC8EkIIIYSQqGCJq1atWunyV5FCu3btpGHDhmppdWu7RgsQsHXq1NHltFq0aKEBS2m55bQQmjZtKnXr1vVaL0vcX1KQnpYm/3n8DqlXt7bGH37qv/Lq2x/r/s4goOqx4UsKtHf4JC1Y/ROlzT+U8ZK1fkTNli8pCLt+EeoNT+NLCgDSg8e4cvjr88OXFAQJPSa0/bKgr770aHWF/tEZbH/5kgL7Wbr9HY1rw7XpCI/vbPzn7u9LdfcrkUnUzxLszL7169dP9txzz8Cwv2sDW/QDwhVi9MADD9QJWUVFRfpiAmwLCwtDAtZ4xUsK/vzzT9mwYYMe74QtjnHxFStWyNy5c7WdcOIuXrsd3FluH3eRFxNZuPhXGTPuLi9WOVo0ayLHHNVD9/9ctU4+mP6l7kfCfZg4BYpX9Ex/UmwE/TT/xw8KxSvFK0C6ljHBxV1ayDEGl2737WcYLIP04DGuHP76/FC8Bgk9JrT9sqCvvvRodYX+0Rlsfyle7Wfp9nc0rg3XpiM8vrPxn7u/L9Xdr0QmUT9LsDP7dtVVV0nv3r11tQCsKOCWunJtYYvJWMh3otWFcPFaUFAgubm5GvLz8wNp/i2Ow9u3XnnlFa0/nEh3gipx5OEHe3uWjvu0k+ZNG3uxytGyeWMZPnighr8c2d1LJYQQQgghOxqszVq7dm0NGM6vV69eSEA6LK7hwjWSeEUahDfELo5BgBj2r0bg8qIRV/EKl4HDux7gxYL0OSxU0CYaeHCwVhpCCCGEEOIHo4pOeLotQiSx6g9+0eqCs666gHKoBwHtQNj6RwkiEbNiO+uUo+WDl++X/kd081LKcuiBnQK+rnPmLdItODKKeK1fr45ceM4p8tS/bpJ3nr9XXpt6p9xx/SWy/37tvRIiT90/Qe6acJkXEzl4/321H1dedLaXIpJtngiGnX6cPDZlnEwz9bz5zBT516Sr5fij+5QRpVPvmyAfv/Kw/O/5f8k+e7WVhyZfJ++/9KDsu/ceXglCCCGEEOKAsPSLTSc4/cLTxV3wuwC4YyMJVwR3PMSrC+UJ2O2K17atW+rW+TVkZKTrtn69srPA/C4D/532ifz8y3LdV9eBZqGuA40bNZAHJl0jp5/QX1q1bKb11q1TS7oe1EnFat9eh3oly6dO7Vpy761XyIgzB0m7tq0kKzNDatfKlk6mzctHnyU3XTXa+jKGkWnK3XnDZSpaIXD/WLXGyyGEEEIIIQ5nefULThfKS8M23J/VhfBj/KK1SpbXffduJ0/cM16euPcGObybdQfoe/ghKjqfe/BmFYAO+Csc5rkM5OXly7ffL5Ivvvpe4yDc+jpm1BnSsnkT3f9m7gK5cfIj8ugzrxnlXaJic8z5Z6gbwq13PyEPPPGylgM/LVkmV9xwj7z42vsah+V273ZtdH/Rz7/JzXc9LpP/9bSsWbdR03p1P1BOGdRP98NZuWadjLvjAbls/J2yafNWL5UQQgghhDj84jU8OJHqAkRquGB1aS6O4ESr33K7PYuro1zxCoPl10ZY7tayqezb3g6rwzWg/V67y+JflkvjhvU1DXQ9sKNaTsHs736UAtOxz33itc9hh3h7Io3Mcb08MZyzLVdu/MejMvPrefLymx/JpzO/1XS4FLTdfTdZvHSZ/LLsD00DKD9/4RL5Y+UaqZWdJX/pa1chKDQX4Po7HpIZs+boagS33/ukpoNTjjvK2wtl8v1TZdY387Q+QgghhBBSFghLv/CMJYQLV3+eE7zhAtZvfS2PcsXrwp9/lbG3PSD/fu5NL8UuzQDL55U33iMrV6/zUuEyEBSnX8y2onXpr8sDZToa8Yslr8A+Rvw6N4QfFi41J1Wo++Chqa/KBVfdrmHFn6u91Mi033N3tc6Cn35eFmI9nffjz7JtW57uw8LbIIKbw7bcfG+PEEIIIYREwlleI4lQF/zpLviFa7RjIwnXKolXsHvrFnLumYPUsvnRjK9UdI4ednLIRCj4qx7WdX8vZidVXTTydA2FRXZdR9DnsIN0Cz9Vx+atOd6eZcOmLfLrsj805OcXeKmRqeNZesHGCMP+G7ds8fZCyxJCCCGEkNiAqAwXny74BWp4uj/uBK4TreHC1YnWuIjXFk0bqwsA3pQFX9Lvf1wsDRrUlcaN/C4DnUIE6TFH9ZRTB/bVsHur5l4q/F6tddZZREG9unW8vYqTk5Pr7Yk0qF+2nob16nl7oWUJIYQQQkhs5OXlGR2VI1u2bJHNmzfLpk2bNGzcuFG3SMebs5xg9QvXSGIVwZVDiCRmEY/GdsUrfF5H/G2ivPm/T1UJT5zyb/nr1ZNkrTchCvhdBn5fsUrfquUPzoIKv1m4Diz+5feAqt6vQ7vACgZg1LCT5YVHbtWw1x6tNa3E90Yg524Afv51uRSZkwRYNcAvhLt02ltq187W/VVr1smmLZyQRQghhBBSURYtWiTz5s2TOXPmyFdffSWzZs2SL774Qj7//HMN8+fPlz/++ENFbrjFNVzAIkDorl+/Xl8Ru3LlSlm1apWsWbNGw9q1azUgLRppe3XuMQE79uWAEIaeONTXDNp4QX7QJxVCFKrYAeF51V/P1i0EKXxVsUzWux99EQhYCqv9nnZFgHXrN6kg3rvd7tK2dQvJyszU1QK25uTKwV06yPDTj9PJWujOv59/07RVIngV6amD7KSr+kagrlq7Xt0W1pgtxPA+e+4uaWmpcsB+7WXL1m3SYe+2ctnoIQFr8HOvvis//rRU908+rm/A//XVaR/rBLCgHLa4uE8nG+y1cNi8kAKWwOsZI+TFSGhLtj4r2l3dLu4I7oemW4JHWfDKxvBSLl7meN/B/rxI7UTCthReNrxH7hzDnqUiNBGeFKn28nD9xt8q9hErRftmR/NiPC8/OD5Qlz6UmX0vHop33r6MsuWitR/pmtl2IqF98vLLlAirSsuE1ROt3mB6eH+QHjwmejkXD2vT7CLuT/PlKoiHpJV5FWrwFaDA7ofXgnT9v+77idS2SwvmhLbpPyYqgSLll42prgBRypZJtv3FXwMIz3bxMm37otgNzQ2LBY4NXhtNMsH+9YWW97Pdcw77jN15hOO93NbD7Ye2XbHrGx/C26yOPkTD35dE6leikiyfJdgRfYNldfny5bJ06VINP//8syxZsiQQYI2tU6eO1K9fX38H/aIVmtFtEZAOa+3ChQvlxx9/lN9//13rdmHFihUaIGohhiOxXcvr9uh+cOeAhXPh4t9kw8bNuu/ns9lzvb2glfafj78UmMzV89Aucvu4i+TyC8+SrKxMKTEn/s9/v2TUuxXNq9asl6W/rdB9tDXusnNl8Al2+atHnvqvLPnVrifbqcOeMuHqC2Ts30ZIsyaNNA2rCUCkEkIIIYSQigP3AFhWEZy49AtOCFpYS/2WV7+l1QlXuANgC8sr6oB1dfXq1RHDhg0bvNbLUmXx6n/16+dfBUWqn2/nLtS1XwGsopj9v37DJrlk7D/klbc+0mWvMCEMVtDZc36Uv990n3z06VdaHkDFY/3WL7/9QS2r+UbUFhZaXwgcc/n4e+Spl6bJr7//qYIXbWHN1389/qLc+I+H9WIRQgghhJAdA7SWs7iGi9dwAQtdZ0cqK0dK/8FjzNEYjCk2G5iaEUxSiqlc91PLjs4lMIGLgY05B9+oUWAwKfyC6Rl7adjifHXrnbjNC14bRK1V3sZtmi2rbQJzLV2SH3870cAQmFZvKC21HzKGAdw+CB0WQF4w3V839vBJWjCYjNLmH8p4yVo/omYLFw1bymKaDODqxj+UA7YtG/ztAsT8w4YuH+dhcy2lpdYNJSXFLnsWKOedor9eTQpGtd9IC287EijjzgFfHuzj2BL0x1Skb2ILv34R6g1PM19HrSvVJNsHJfOdQd0hxXB97MXEedk6bH/0nBzeSYe3YXrs7VnsNTPHpqSGlHV7OCfU7OoPqc/nQ450LWOCi7u0kGMMLt3u288wWAbpwWNcOfz1+XGfdak5T9eGBlMccX+77vr5465WTfO+ay4fbfnrtCuiIG5zAdJt17xySEPU4Pqsx3pbVx/axtZ/Pog6Vxeb58C+Lx44Edd7S+gxoe2XBX31pUerK/SPzmD7W+KVDznKFNX7gEHPU9O8a2IKujrNX5geF+xX6Dm7a4S2gmn4H45DXrDVYB2W4LGhBNLc/dSjxGs7FHw+vnLY1+O1EzbJxMu/vvHFteHadITHdzb+c/f3pbr7lcgk6mcJEqlvzZs3l969e0unTp0kIyMjIFSLfKIV+/iNxBaW1ZkzZ+q2MkS6ExBCCCGEEBIzzvKan5+vwb+KgBOuCPF4gKR4JYQQQgghlQaCFMLULX0VyefVCVcXqgLFKyGEEEIIqRLO8uqEq9s6i6s/ULwSQgghhJBqBYLU+bY6a2u8La4OildCCCGEEFJpcnNzdemrdevWBd66hYD1XxGwTuzWrVv1LV2IY4ks+MVWFq42YNAz9tKwdTOLudqASfNN4nV14x9XGwjC1QYA0oPHuHL46/PD1QaChB4T2n5Z0FdferS6Qv/oDLa/XG3AfpZuf0fj2nBtOsLjOxv/ufv7Ut39SmQS9bMEidy38ohH/yLdCQghhBBCCElIKF4JIYQQQkjSQPFKCCGEEEKSBopXQgghhBCSNFC8EkIIIYSQpCG1U/u23i4hhBBCCCGJTeoZxx8pjRvU8aKEEEIIIYQkLqnt2rSUI7ofIGneup2EEEIIIYQkKqkZGely6AH7SsP6tL4SQgghhJDERidstWzWRPZp18bs7fg3jxBCCCGEEFJZVLxmZaZLrx4HSYN6tfUVmXj1p25dMHE6FRBCCCGEkOom5c8//lBza3FxsXzw6dfy7fcL7bve8U5sff9sqgrXbdtyJTc3V7bl5klhYSEOSTzMmYS8/xv7EVQ33gfsLwUFX+Le+Yyt7nrHun1fRSiilyaAqS9wjO6Y3bIN2yJe2669KOBovG1c/2lZ25ngu4x14+HeD453w6Pq0LqDb/22beujiCkT6CrSTByHea9qN9hM/yvD8T5id+30tfFmxyulIbxdtGSDRY/UInj3uCYp7r395jFJt7aFYBFfUVubLwHngDR3TFRMNsrou9bxr8T3rnNt3x/3UeackBSaVoLjzbGpJtn+HaEVvcpB9LrZ89Q/Da0C/TH4C3p/N7YJfzv+fcRsXfavN5jnDtM+mj7hlLQ5/+GIeHF3Tey5m5hmBa9TALfr+qoVorw/w/0datMa9//1gdLAH5StCOX1CBMNvO/aVWlASqBOX7pJDCQE+2A/BxfHgzdq0KhWhP9snjs/xGyKLeIKunbd3zyasvW60g57/UNTI5WLQHgRr4+RCO2pIez+ErgGIRcJ2HhphPsR8lxxd55A/2+KuziulL0eGjV4dQXa1MJIsMeYqJbQypHnlTfoeXiHKfoZhaUZglc0NMP2JByU8ZVDH7Q/kcp6uL7vIFztIT3Qc93xlJaUSEGU3+jA34kh8H3z2Dm9Sz4ifpZgJ32e5aLft7DPMRH6tR2q2se8vLygeCWEEEIIISSR6dGzpxWvGzdulKLiYnnn41ny6RffGjEP60iJ95RrFXLia3mDkeGhNhA8lXi7PvD06S8F2wktr6jbbK3x02AzaXktW2/Z62uON8fS8ur+DrVpjfv/+gAtrz7Ci3h9jERoTw1h95fANQi5SMDGaXkNw/V9B+FqD+mBnuuOh5bX+BLxswQ76fMsF/2+hX2OidCv7VDVPoZYXhf/slz+9cR/ZMOmXBPDBXHiNbXs/TCBCXw5sTHn4P+Lc6fh/wIDFHFp2LofqhTvxG0eSmlJEzd7Wq+N2zRbVtsE5obtkvz424mG+7EA+LG3fUF9dh+EfvjBHx5bLlg39vBJWuxPgooVlPGStX5EzRb+zcEfDpPm0x6ubvxDOWDbssHfLkAMbeH/GvfyrYAJli0tLdZtSkqabgPlvFP016tJwaj2G2nhbUcCZdw5lJgbPPZxrLrJmIpU7IRfvwj1hqcVm3+oS8WrqVe/M6g7pBiuj72YOC9bh+2PnpPDO+nwNoJi1WKvmTnWPG2E9Nfb4pxQs6s/pD4j3B1I1zImuLhLCznG4NLtvv0Mg2WQHjzGlcNfnx/3WUNMuTY0mOKI+9t1188fd7Vqmvddc/loy19nqj5hIW5zAdJt17xySEPU4Pqsx3pbVx/axtZ/Poji+tt9VwvAvi8eOBHXe0voMaHtlwV99aVHqyv0j85g+1vilQ85yhTV+4BBz1PTvGtiCro6zV+YHhfsV+g5u2uEtoJp+B+OQ16w1WAdluCxoQTS3P3Uo8RrOxR8Pr5y2NfjtRM2ycTLv77xxbXh2nSEx3c2/nP396W6+5XIJOpnCRK5b+URj/7pnWBbbr58PONL2bgpRxMJIYQQQghJRFS8rlq7XhYuWeY9XxNCCCGEEJKYpBYVFcv3P/4sG7ds85IIIYQQQghJTFJ//2O1fPbV91JUHOpbRAghhBBCSKKR+tr/ZsifazZ5UUIIIYQQQhKX1G9/WOLtEkIIIYQQkthEWneEEEIIIYSQhITilRBCCCGEJA0Ur4QQQgghJGmgeCWEEEIIIUkDxSshhBBCCEkaKF4JIYQQQkjSQPFKCCGEEEKSBopXQgghhBCSNFC8EkIIIYSQpIHilRBCCCGEJA0Ur4QQQgghJCkoLCykeCWEEEIIIclBbm4uxSshhBBCCEkOSktLKV4JIYQQQhKZO++8U37//XfZbbfdvJTq57DDDpNly5bJhRde6KXsPCheCSGEEFKt9OzZU9544w356aef5KuvvpLx48dLRkaGl5v4HHLIISour7zySi8leUDfIUJd+Pbbb+XGG2+UzMxMr0TVuOKKK+Tkk0/2YvGB4pUQQggh1UazZs3k6aefVqvivffeK7NmzZK//vWvcvXVV3slyM7gk08+UdH62WefyahRo+S+++7zcqoGxOtJJ53kxeIDxSshhBBCqo0OHTpI7dq15fHHH5cHH3xQxowZI2+//bY0aNBA84cOHaqCdtGiRSpymzZtKq+88oosWbIkYB2cOXOmWmzB0UcfrUJswYIFWmfDhg01vTo56qij5MMPP9Q+vfTSS7Lnnnt6Ofb80P+FCxfKU089pecHICC/++47+d///ie77767pu1I0NbUqVPlb3/7m0ybNk0GDRok7du317y//OUv8vHHH8sPP/wgjz32WMRrGqnM3LlzNa9///5qWQco99FHH2m5Rx99tFKfD8UrIYQQQqqN+fPny9q1a9XaeuaZZ0qtWrV0/9prr5WDDjpI/vGPf+hw9nPPPSf9+vWT6667Tt5//33JysrS/BYtWqi4Q9oee+yhgignJ0cF1IABA2Ts2LFeS9VD27Zt5d///reUlJTIQw89JPvtt5+KxLS0NDnwwANl8uTJen7PP/984Pw6d+4sN910k6xcuVJF78EHH+zVtnOYMWOGbvfdd1+9po888oheUzwMQIjis/ETrcwdd9yh+XAHQT7KPfzwwyHlrrnmGi1TESheCSGEEFJtbNq0SX0iv/nmGxVyc+bMUZ/X7Oxsta5C4Jx33nkyZcoU2bBhg3Tq1Enee+89PRaThrp37677SDvxxBMlPT1dLYewZsIPtXfv3ppfXaBP8N+9/vrr5Z///KeKt7322kt9TZcuXaoC+/zzzw+cX8eOHTUN3HDDDXLXXXfJW2+9pfGdBZajArBsn3DCCYFrCgs4rmmvXr003xGtzIsvvqj5iL/zzjuBcth3n094XbFA8UoIIYSQauXXX3+VCy64QLp27aoWOsxgnzhxoooniD4MP8MtAEPMED+//fabuhH06NFDxeuWLVtUDLVq1UrrwzEvv/yyDs83btxY06oLt0LA8uXLdQvBBpCO8xs3bpwO2fvPr3nz5lrGHYPloXYmsH6DgoKCwDVFP53LQ/g1jaUMcOVgXS6v3PageCWEEEJItTF8+HC11kG4wn3gnnvuUf/Pvn37qv8rhtJPP/10HW5fs2aNd5SomwCO6datm/q44s1Lq1at0rzBgwdLmzZtNOC46uTPP//UrRNuzn8V6ZdeeqmeH/rrPz9YowEms1UHRxxxhG4x3O+uKVw64AKB0KVLF01zxFIG+MvBhQBh//3317SKkLZX5x4TsJMiUPUpXsAmGPdSkg+cQwydDy/i4ikhGYgEE2xeSAGLXjfd8bYVJ7QlW1+KNujqdnFHcD803RI8yoJPNLyUi5c53newPy9SO5GwLYWXDe+RO8ewZ6kITYQnRaq9PFy/8RSLfcRK0b7Z0bwYz8sPjg/UpU/HZt+Lh+Kdty+jbLlo7Ue6ZradSGifvPwyJcKq0jJh9USrN5ge3h+kB4+JXs7Fw9o0u4j703y5CuIhaYHvmsN+Dg67H14L0vX/uu8nUtsuLZgT2qb/mKgEipRfNqa6AkQpWybZ9hd/DSA828XLtO2LYjc0NywWODZ4bTTJBPvXF1rez3bPOewzducRjv39crj90LYrdn3jQ3ib1dGHaPj7kgj9gqUVVlRM3Dr++ON1Ug8ELYav4RcKf9HTTjtNh9rXr1+vE7fgNzlixAi1UmI4HpZYiN9hw4apqIXbASYd4RjUVRW291nCinrWWWdJXl6eTjSDLy7CunXrVACec845GoeVcfTo0erLChcJuAfg/IqLiwPnB9cB+MhC4MFFomXLllo3fHzhx7t161avVcv2+rY90PchQ4Zo32H5hYsGXB3effddnUDmrumhhx6qFtmBAweqD+6KFStUdMM/FpPKIpXBdcdnhDYgXLGSwdlnnx34fFy5L7/80uvN9snPz6fllRBCCCHVx/fff6/iDkIPM91POeUUee2113SpLEy+mjdvnvrEQlzBLxbWVEx2givB6tWrpaioSC2v4Oeff1ZxCDF41VVXSZ8+fbTMzgKrCtxyyy2BAGsqJmPBpxXuABdffLGK7JEjR2q/IUbDz69169a6xYsJ2rVrpwLczdTfkaDvcNXANXviiSf0swDwO8bDBR4gsOwVrLLh17S8MvDlhc8vLOz4fDAZD5+PK+e3psdKSv/BY8xjKp5ni80Gah3BJKWUeE+5qWUNHAlMwC8EG3MOvgfvwPN4uO+InrGXphY5s6tb78RtXvDaIGofbGzcptmy2iYw19Il+fG3Ew1YEbR6Q2mp+RxMWTxJuX0Q+mSFvGC6v27s4ZO0qI3RlDb/UMZL1voRNdvUVLTuyps073SAqxv/UA7YtmzwtwsQ81teXD7Ow+ZaSkvN354hJSVNt4Fy3in669WkYFT7jbTwtiOBMu4c8AXDPo4tQX9MRam4puHXL0K94WnF5h/qSjXJqFe/M6g7pBiuj72YOC9bh+2PnpPDO+nwNkyPvT2LvWbm2JTUkLJuD+eEml39IfWV+MqbdC1jgou7tJBjDC7d7tvPMFgG6cFjXDn89flxn3WpOU/XhgZTHHF/u+76+eOuVk3zvmsuH23560xNxbM54jYXIN12zSuHNEQNrs96rLd19aFtbP3ng6gbLbB5Duz74oETcb23hB4T2n5Z0FdferS6Qv/oDLa/JV75kKNMUb0PGPQ8Nc27Jqagq9P8helxwX6FnrO7RmgrmIb/4TjkBVsN1mEJHhtKIM3dTz1KvLZDwefjK4d9PV47YZNMvPzrG19cG65NR3h8Z+M/d39fqrtfiUyifpYgkftWHlXtH1wqIt0JCCGEEEIISUgoXgkhhBBCSNJA8UoIIYQQQpIGildCCCGEEJI02AlbpcWybf1vkr95jZQUFXhZhBCy88GM4yZNmngxQgghRHSJNBCYsLVt3TLJXb+CwpUQQgghhCQ0Kl7zNts3HhBCCCGEEJLIqHgtLS7UCCGEEEIIIYkMJ2wRQgghhJCkgeKVEEIIIYQkDRSvhBBCCCEkaaB4JYQQQgghSQPFKyGEEEIISRoSXry2a9dOXn31Vbnyyiu9FEIIIYQQUlNJ26tzjwm565d50Yqzxx57yKWXXiqjRo2S0047TQ488ED5448/9C052+Pkk0+WTp06ycKFC72UsmnFxcXy559/yptvvik//fSTNGzYUNN3BqmpqfLkk0/K8OHDZcmSJdqPWIh0XoSQ2MjNzZXatWt7MUIIIcT+NoD8/PyqWV5r1aolN998s3Tp0kX+85//yL///W9p06aN3HDDDVKnTh2vVHQg8k455RRZtSr4koTwtC1btsj//vc/Wbp06U5/ZSSEeL169XS/c+fOsnnzZt3fHpHOK1ZSUlK8PUIIIYQQEk7Mltd77rlH3nvvPS9mwZD+oEGDNP36669Xgbl69Wq1jn799deydetW2W+//eTqq6+W8847T4444ggVdCtXrpSpU6eqMMzMzNS8999/Xx5++OEyaS1btlTrZ4cOHSQrK0vuu+8+SU9Pl9NPP11Gjx4t++67r7ZVVFQkhx12mIwbN07OPPNMVeaTJk2SFi1ayOzZs70eV4wzzjhDLcuLFi2SQw45RJ544gmpW7eu5rnzGjlypJ7XmjVr1DIb6bzy8vJk7733lr///e9y/vnny1FHHSWlpaXy888/y8EHHywPPPCAtGrVSs4++2y19qI9ilhSU6HllRBCSDgVtrxCuEZi2bJl6iIwYMAAueaaa+SAAw6QH374QcaOHStz5szRH6Abb7xRmjZtqsIUAhMCDsLumWee0Y5A2E2YMEG+/PJLFX7haXAbABs3blSBCCD+Zs2aJd9//70ceuih0q1bN2ncuLFcccUVkp2drRbgHj16aNn169drPx0Qhc2aNQuE+vXrezmhZGRkSPfu3WXevHny0ksv6bmgrZKSEj0fnBeOfeSRR7T8VVddpcdEOi9YobG/2267yWOPPaYC/oILLlDh6sC1e+211+Tll18OnCchhBBCCAllu+I1mnAFBQUFanHFhKohQ4bIQw89JLfccov07NlT2rdvL8ccc4yKSYiyadOmyfTp0zUOEQdXgMLCQg3PPfecis+PP/64TBoskeFA4N15553y+OOPaxzWUbgupKWlqRUT4f7779e8cGA5hZB2ASISojqcrl27qlvEu+++K5999pmmwcoM1wFYWiFUp0yZIg8++KBeI/Q9Jycn4nn16dNHxS/KoV8TJ07U+nB94BYBXn/9dbUqo/4GDRpoGiGEEEIICaVc8VqecHVAbL3wwgty3HHHyZgxY9TKCD9YDNfDsgnc8Pm5556r8UaNGqlLgRsad9ZQCNXwNBcPB6LQDeFDEKNOACtr8+bNA/Fwtm3bJrfeequKVoTJkyfL77//7uUG6d27t27htgD/VfS3b9++KthheQUrVqzQ/N9++02vFazQEMLh54D+APQN5XGeKAdXASde4UaAPuO6wT2CEEIIIYSUJap4jUW4HnnkkWq9hHCF6IKYg1UUVklYQ92EJVga4fPpAtwDnLUzkjiNJljLY8OGDbqFUCxP/MEN4dtvv5VffvlFA6yl6LsfWFzhIgBGjBghF198sQpl1Aur8tq1azUP4hMuEHvuuaf6vsJVAccC/zk4NwBMZkN5iFT47Tqx66jMeRNCCCGE1CQiitdYhCtwS1dhohGsk1gqa9iwYZoHf1QMucP387LLLpPx48fLbbfdJm+99ZZaNWGRhOCEKLz22mtV1IFIabEwY8YMtV5CaGKiFZa3igZEIobmXQifHAIRCgEO9wMnuAcOHKh5J5xwgrpAwAJ7+eWXy+DBg/X8MIEME9HgSBx+Dl988YVafP/2t7/pZDK3Zi18aSFiCSGEEEJIbJQRr7EKV4DZ9Zic9c0336g/KAQc3AgwKQsTqjAkjolNWIUAPrH9+vXTY5YvX64WR7gbwCp51llnqejDZKjwNAjSWEAb8BlFHRCUaKOywKcVwNUBVtmDDjpILaqwlPbq1UtFKiZgwQILsY5zgTCFYIcwDj8HTBrDdYDbwNChQ3WiF9wV4AvsluIihBBCCCHbJ6X/4DGl6xbP8KKVA0PvcBGAdRHiEcPrfr9T5EP4YRY+JlXBL7Z169Zq3dy0aZMKTQznY9krHBuehjqxfBSsvAi//vqr1o9he9SJPFhQMXyPlyNAXMI/FS4NmNSFFQHatm2rfYkVvJQA4htLdPktswsWLFCrK9Z9RdsQ47Auw8KK/rjVCyKdl/864NzhOwsLNAQ/xDf2cV0IqcngO7yz13QmhBCS2MAQCKCv4iJeEwW85QtWUCyr1b9/fxWTsIxiPVWKQkKSA4pXQggh4fjFa7mrDSQbsIBiQhV8XmHdhM/pzJkzo67lSgghhBBCkotdyvIKMCyPCVMYrsdQPtwLsKwWISQ5oOWVEEJIOLus5RXAVQD+qHhjVceOHSlcCSGEEEJ2IXY58UoIIYQQQnZdKF4JIYQQQkjSQPFKCCGEEEKSBopXQgghhBCSNFC8EkIIIYSQpEGXyipcNdeLEkJI9YK31u22225ejBBCCBF9uyrYJZfKIoQQQgghuy4Ur4QQQgghJGmgeCWEEEIIIUkDfV4JIQlFuM9renq6HH/88XL44YdLw4YNvVRS3WzcuFG++OILefvtt6WoqMhLJYSQHQN9XgkhScOJJ54oAwcOpHBNMPB54HPB50MIITsTildCSELTq1cvb48kIvx8CCE7G4pXQkhCU69ePW+PJCL8fAghO5u4itdmzZrJk08+KU2bNvVSyueoo46SJk2aeLGK06BBA22vS5cuXorIPvvsI7feeqsXI4QQy4svvqj+tKR6eGd6HW+PEEKqRlzFa8+ePdVxv0ePHl5K+UC8Nm7c2Ittn5SUFG8vlOHDh0tGRoYXI4SQskC8/vHHH16M7EyccMXWH4aNzNR0QgipCHEXr6+++moZ8dq3b1+57bbb5I477pDjjjtO00aOHCktW7aU0aNHy/77769p8J1Cudtvv12GDBmiYhWWVKRdfvnlOjkgHIhlzEAbNGiQlxLKgAED9PjJkyfLGWecoWmo86abbpILLrhA7rzzTrnkkkuka9euMmHCBO1ju3bttBxAn2DJRZ+OPvpoL5UQUt08++yz+r3H9/Kuu+7yUkW/07jPHHvssfLKK69o2g033CC//PKLXHvttTJjxgxNi3Y8iT8Dj8zRbZtGM0PC0HMzZNWqVZpHCCGxEjfx2rZtW8nMzJT33ntP6tSpE1jqpnXr1jobFeIPgrFfv34qWjHcv3LlSnn00Udl3rx5Wn7w4MEqMvFDg/p69+6tddSvX18ee+wxmTZtmsbDeeGFF9SK26JFCy/Fkp2dLR07dpSJEyfK+PHjVVyjXgDXBhx3/fXXS/v27WW//fZT8frBBx/ISSedpGVatWqlfZo0aZLWccwxx6hrBCGketm2bZvMnj1bxSmWakJYsGCBLFq0SN544w2NP/fcc/odLygokFtuuUX23HNPvb8cccQRUY8nOw4nYA844IBAABSvhJCKEjfxCmE4a9YsKS0t1R8FZ33t1KmT/PDDD5KTk6M/IjfffLOsXbtW8/xAPM6fP182b94sxcXFMnPmTE0DWNMLx0cD6w3iB+ucc87xUix5eXn649SnT5+A1RZ+sgB1bt26Vfu0YsUK+emnnzR92bJlAYGKvqMvsAIPGzZM0tLSZPfdd9c8Qkj1Ubt2bbnyyiv1+40HW9x3cF9p06aNNGrUSG688UaZM2eOugrgoTqcaMeTHYsTrIQQUhXiIl4xvN+9e3d1D7j77rvVYgoxGwkIxlgXtI7m4xqJTz75RC2t/nb32GMPue6661TELl68WHJzc72cUPDDheD2IVIdELbvv/++BpzbwoULvRxCSHUBK+nZZ5+tIvSQQw6RunXrajpGfV5//XV9qcGnn34qp556quTn52uen2jHE0IISXziIl47dOigPxBjxoxRawa2EIAQj/iRgAWzVq1aOqkKQ/NwGwCFhYWaDn788Ufp3LmzLruSmpqqlltYbGMFonPq1KlqZXXARQCWVPi4YWiqoku6YAgSlpx169ZpPSUlJTrcSAipXnC/gEvQaaedpj7qGzZs0PTp06fr/Qf3D7gErV69WtasWaN5sMC6EZxox5MdS/iEreenFno5hBASO3ERr/ihgMuAH7gOwAoKyyX8yeBzCpcBlIOvK8D+qFGjVNxiCRsM4Y0dO1YnSOG4zz//XMvFyu+//y4ffvihFxP57rvv1LICf9vTTz9df8ScWI6F5cuXqxVn3Lhx6jMHKw6su4SQ6gW+81u2bFF3oClTpuhDJkZ1MOqD5fcwUROTtkaMGKF54IQTTtD7y5dffhn1eLJjgd+rf8LWNVd8XWauAiGEbI+U/oPHlBaumutFCSGkesGDrJvwCTCpkyQ2WDWGEEJ2JFhZCmDOUtwmbBFCCCGEELKjoXglhCQ0GN4niQs/H0LIzobilRCS0FTU953sXL744gtvjxBCdg4Ur4SQhObNN9/UiZhYA5okDvg88LlgjW1CCNmZcMIWISShCJ+wRQghhHDCFiGEEEIISUooXgkhhBBCSNJA8UoIIYQQQpIGildCCCGEEJI0ULwSQgghhJCkgeKVEEIIIYQkDVwqixCSUIQvlZWeni7HH3+8HH744dKwYUMvlSQ7Gzdu1BccvP3221JUVOSlEkJIZLhUFiEkaTjxxBNl4MCBFK67GPg88bni8yWEkIpA8UoISWh69erl7ZFdEX6+hJCKQvFKCElo6tWr5+2RqrJlyxZvr2pUtJ7yyvPzJYRUlLiK12bNmsmTTz4pTZs29VLK56ijjpImTZp4sYrToEEDeeyxx7xY/GnevLncd999ut+4cWMZO3as7hNCqpf58+fLcccd58Usr732mlxyySW6v99++8mGDRt0P5xvvvlGTjjhBC9WMxg0aJB06dJFhg8f7qVY3nzzTb0W8Cl29zoQLb2i9UQrXxnemV7H2yOE1HTiKl579uypjvc9evTwUsoH4hWiMFZSUlK8vZ3P+vXrZdKkSV6MEEKSh2nTpskTTzzhxSx//PGH3H333fLss8/K66+/LrNmzZLp06dHTQcVqQdEKl8ZnHDF1h+GjczUdEJIzSLu4vXVV18tI1779u0rt912m9xxxx0Ba8nIkSOlZcuWMnr0aNl///01Db5PKHf77bfLkCFDVKzus88+mnb55Zerc3+sRKoLROoLGDBggKZPnjxZzjjjDC81iN8K27t3b7n11ls13HvvvRocaBfpaPfoo4/2UgkhiUR+fr7ceOONahk877zzJDc3V9MhvmBBxL3mqaee0jRYamFRvOiii+TRRx/VNJRDGsrhnlFaWqrp4eBY3H8waoP7wfnnny95eXmaB7GH9pF+1113aRrKn3baaXLttddK//795bLLLpP3339f04499lj54YcftByI1NeKMHfuXOnUqZOOYGFFhyOOOEK++uqrqOnRqGj5yjDwyBzdtmk0MyQMPTdDVq1apXmEkJpD3MRr27ZtJTMzU9577z2pU6dOYKmb1q1b62xSiLmbbrpJ+vXrp6IV7gUrV67UH4N58+Zp+cGDB+sPwQ033KD1QSSC+vXrq3sAnuJjIVpd0fqSnZ0tHTt2lIkTJ8r48eNVhOOYaHz22WdabsKECbpkw8svv6zprVq10nZhoUVdxxxzjLpSEEISi61bt6owxD0Fo0XvvvuuLFmyRKZMmSLPPPOMvPLKK3qPWr58uZZfu3at3k/wsL106VIt9/TTT8tbb70lP/74o7osROO3336Tq6++WkVoYWGh3iO3bdsms2fP1nawVBTCggULtDwsmdddd5288847MmfOHJk5c6YaBc455xy5//77tUx5fY2VnJwcvWc7MjIy1Dc1Wno0Klq+sjgBe8ABBwQCoHglpOYRN/EKwYfhIlggcFN21lc8kcNagBtcQUGB3HzzzfpDEA581ODHtnnzZikuLtYbNtIABCKOj5VodUXrCywh+AHo06dPwLoLK8L2gDUEAvzzzz/XOOpHe7C0DBs2TNLS0mT33XfXPEJI4gBfe+dvv+++++r3GPcvfGfdwye+y4sWLdIyeAjFQzRAOYywwOUJ5fFAjPVKo4E5AK6t9u3ba1u1a9eWK6+8Uu87eDDHfdPdF1Eey0hlZWXpyFPXrl01HfcXJ1DL6+uujBOshJCaTVzEK4bku3fvrkPy8H2ClRNiNhKweMS6IHU8fVwj1eX6sscee6ilAyJ28eLFgSHE8sAPSbdu3coM161YsUItLAi4FgsXLvRyCCHxAqM74d9TPJTWrVvXi8UO7g0lJSW6D7E4YsQIDRgVwn1te+D4aG4D4bi2YGU9++yzVcQecsghUfuN8u7elZqaGnLvrExf/eAa4iHeAasw+hEtPRoVLU8IIVUlLuK1Q4cO6kM2ZswYtSZgC6sARCFu0hB6tWrV0uEkDLVjqB7gJod0gKG3zp0767IpuEnDcuv376oI0eqK1he4CCxbtkxmzJihQ1DbW7oFN2v4rj3++OM6/OeA5aNNmzaybt06rQ8/Uv58Qkh8wL0F95iPPvpI4xhlwdC9czWqDHgYxcMr3H9wn0D9ke4FeDCHpRWrGeA7DtcDvP2rIuAeBVcljN60a9cu6soI0Yi1r+UBKybui3jTFUQx3KFg5Y2WHo2Klq8K4RO2np9a6OUQQmoScRGvEIcYxvID1wHc5GGJhD8XfEQxTI9yGDYD2B81apTefPFKSAyhYWIDJjzhODccXx6YIOAmTyFceOGFUeuK1pfvvvtOLSDwhT399NNlzZo1AVEdCViY4VYA1wDXLob5MKSHSRTjxo2TW265RU499VT1pyWExBc8lD744IM68oGJU0OHDtXJT5jAVFnwEH7ppZeqRRSuAJiIGcldaa+99tKHdCz/hLbhCnDKKad4ubEBf3v4hcJNCb6reOjFSFCsxNrX8sAcgKuuukrvYyeddJIKYqwAEy09GhUtXxXg9+qfsHXNFV9LixYtvFxCSE0hpf/gMaWFq+Z6UUIIqV7w8OkmfAI3w78ynHzyyeoP6oCFEg+YO4Kd2VY0EqEPlQET4QghpDx+/fVX3WIeFMUrISShiKd4JckBxSshZHv4xWvcVhsghJAdwY5YdokkDvx8CSEVheKVEJLQxOL7TpKX8pYZI4SQSFC8EkISGrw3/8MPP9QVBciuAz5PfK5vvPGGl0IIIbFBn1dCSEIR7vNKCCGE0OeVEEIIIYQkJRSvhBBCCCEkaaB4JYQQQgghSQPFKyGEEEIISRooXgkhhBBCSNJA8UoIIYQQQpIGLpVFCEkowpfKSk9Pl+OPP14OP/xwadiwoZdKEp2NGzfqCwjefvttKSoq8lIJIaRycKksQkjScOKJJ8rAgQMpXJMMfF743PD5EUJIPKF4JYQkNL169fL2SDLCz48QEm8oXgkhCU29evW8PbI9tmzZ4u1VjXjVA/j5EULiTVzFa7NmzeTJJ5+Upk2beinlc9RRR0mTJk28WMVp0KCBttelSxcvRWSfffaRW2+9VfcbN24sY8eO1f1o7L333oHy0dheOzsD9OGxxx7zYvGnefPmct999+l+LNeNkOpk/vz5ctxxx3kxy2uvvSaXXHKJ7u+3336yYcMG3Q/nm2++kRNOOMGL7XhefPFF9eMFK1eulHPOOUf3gT9v2bJllbZSDho0SO9Pw4cP91Isb775pp4rfIbd9xtES49XPZXhnel1vD1CCCmfuIrXnj17qmN+jx49vJTygXiFUIqVlJQUby8U3GgzMjK8WJD169fLpEmTvFjVidbOrka8rxshNRkI1D/++EP3W7ZsKU8//bTuA39eVZg2bZo88cQTXsyCeu+++2559tln5fXXX5dZs2bJ9OnTo6aDeNVTUZxwxdYfho3M1HRCCPETd/H66quvlhGvffv2ldtuu03uuOOOgLVk5MiReiMfPXq07L///poGqwPK3X777TJkyBAVq7BwIu3yyy9X5/9wIJYxAw0Wg3D81kQQqR9+0A/cjOvXr++lBCmvHTBgwACte/LkyXLGGWdoGvp+0003yQUXXCB33nmnWoW6du0qEyZM0D60a9dOywGcOyy5OPejjz7aS42NSNcNRDvfSH31479uvXv31n4h3HvvvRocVekzIdVJfn6+3Hjjjfp9Pu+88yQ3N1fTIcJgScS95qmnntI0WGphWbzooovk0Ucf1TSUQxrK4XtUWlqq6eHccMMN8ssvv8i1114rM2bMCLGuhueFE6kvFWHu3LnSqVMnHbXBig1HHHGEfPXVV1HToxGvespj4JE5um3TaGZIGHpuhqxatUrzCCHEETfx2rZtW8nMzJT33ntP6tSpE1jqpnXr1jrbFAIHQq5fv34qWjEMjyE0/BjMmzdPyw8ePFh/CHBTR30QTgBiEkPmsApE4oUXXlArbosWLbyUskTrhwPuC6NGjZJHHnlENm/e7KWGEq2d7Oxs6dixo0ycOFHGjx+vIh79B3ChwHHXX3+9tG/fXoczIV4/+OADOemkk7RMq1at9Nxh7UQdxxxzjLpgxEK06xbtfMvrayQ+++wzLYc+Y3mKl19+WdOr0mdCqputW7fKZZddpvcUPJi+++67smTJEpkyZYo888wz8sorr+g9avny5Vp+7dq1+h3Dw/bSpUu1HCyob731lvz444/qshCJW265Rfbcc089FuLOT3l55fUlVnJycvSe7MCoEXxZo6VHI171bA8nYA844IBAABSvhJBw4iZeIYIwbAQLxOzZswPWVzyZ//DDD3qjKygokJtvvll/CMKBqIMfG4RjcXGxzJw5U9MARBOOjwbWE3zjjTdCfMnCKa8fEJjw8fzkk09k0aJFmhaJaO3k5eXpD0yfPn0C1mFYIwD6jh9KtLlixQr56aefNB0WGCf20DecM6ymw4YNk7S0NNl99901b3tEu27Rzre8vpbHaaedpg8bn3/+ucar0mdCqhs8rDp/+3333Vf/tnH/wt+xeyDD37e7H+C76kZkUA7WU7g8oTweErGeaTwpry+7Mk6wEkJIecRFvGKYunv37jpMjWF3WP4gZiMBIRfrgtXRfFwjAeEJq2K0dsPx9wP73333nXTu3FlSU8u/JJHa2WOPPeS6665TYbh48eLAEGQ4EPZueBFb/Dg5IGzff/99DbiGCxcu9HIqTqTr5s431r76gVDt1q1bmaHLePaZkIqA0Z3wv108qNWtW9eLxQ6+LyUlJboPV58RI0ZowKgQ7mvbA8dHcxuoCpXpix9cIzy4OgoLC/X6REuPRrzqIYSQeBEX8dqhQwf1IRszZoxceeWVuoUwg1BasGCBip9atWrpsBKGn91wPW52SAcYeoN4xLIqEJCw3MJyGCv48Zg6dapaFCNRXj8g5DC0jx8w+JiVR6R2MOwOSyr81jDEVdGlYWBRadOmjaxbt07rQT+2bdvm5ZZPtOsW7Xwr2lf8QJ1//vny+OOPh/SpKn0mpKrg3oJ7zEcffaRxjDxg6N65GlUGPKDhgQ4uMfjuoP5I3w88uMLSitUM8HcP1wO8/SsaGFqPNnIULS/WvpQHrJi4F2DECA+ucAGCz3209GjEq55YCJ+w9fzUQi+HEEKCxEW8QjBhmMsPXAdwk4d1Dq8HhN8khq5RDkN0APvwM8XNGcvFYDgbw/eYBITj3BB1rPz+++/y4YcferFQyusHwI8Q/F379++vy2eVR3g7sNrWrl1b/UtPP/10WbNmTUCUxwJ82TA5Y9y4ceoHd+qpp6p1NxxMinCTpxAuvPDCqNct2vlWtK+wpsOtAK4Brl28OSfWPhOyI8CD2oMPPqijAZg4NXToUJ18tb2Hz/LAQ/ill14qZ599troCYHJiJGG511576UM6Vh9B2/BlP+WUU7zcsqBP+H5++eWXXkqQaHmx9qU84Pd+1VVX6XcX/vUQxPDZj5YejXjVEwvwe/VP2Lrmiq/LnctACKl5YLQrpf/gMaWFq+Z6SYQQUr3ggcxN+ARuhn9lOPnkk9Vf1AELJh66dgQ7o62deT7xBBPdCCGkKmDFJ4BRe4pXQkhCEU/xShIDildCSFVx4hXEbbUBQgjZEcTzVaVk58PPjxASbyheCSEJTUV930liEe9lxAghhOKVEJLQ4P35mCAZ7eUhJDHB54XPDWtjE0JIPKHPKyEkoQj3eSWEEELo80oIIYQQQpISildCCCGEEJI0ULwSQgghhJCkgeKVEEIIIYQkDRSvhBBCCCEkaaB4JYQQQgghSQOXyiKEJBThS2XhPdabNm3SLdk1SU9PlwYNGkhmZqaXQgghofiXyqJ4JYQkFOHide3atTJx4kQ55phjJDWVg0W7GiUlJfLpp5/KVVddJc2bN/dSCSEkFIpXQkjCEi5eEf/6669lw4YNUlxc7KWSXYW0tDRp1KiRHHnkkVK/fn0vlRBCQuFLCgghSUVBQYEUFRVJaWkpwy4W8Lni8yWEkFiheCWEJDyRRA/DrhWqQp06deTMM8+UunXreinxA3V27dpVhgwZIpdffrkMHTpUjjrqKGnYsKFXoupcc8018uSTT+qWELJ9KF4JIQkPxA18Ixl2zVAV8Qrheu2118qxxx4bd7cSTCIbPny4DBw4UNq1aycpKSnSqlUrOeKII2TUqFGaFg86deoUso0He+21l9x1110yduxYvUYO7CMNeShDSDISV/HarFkzfXps2rSpl1I+eHpt0qSJF6sccPD/+9//Lrfddpvceuut0rdv30D6fffdp/uEkOTGb6GD/+vxxx8fkrYrBfj4Dhs2LGJeZcMLL7wgf/zxR8S87YU33nhDr/egQYPk3nvvDaS//vrrmgbReOONN6pw9B9X0VAZ6tWrJ1dccYXsvvvusnnzZsnNzfVyqg6E6imnnKK/a99++63885//lHvuuUemTJkiH374odSuXVtOO+20hPTTxcTGK6+8Un9f9913X/2NhGhFwD7SkIcyFZ0E+c70oBAmpLqIq3jt2bOn+i/16NHDSykfiNfGjRt7se2Dm4kfOPpjGAczVa+//nqZPHmyzkjGF5MQsusAcRNuqfPHd5UAAYgH76eeeipifmXDiy++KMuXL4+YV17AMRBrTz/9tPz3v/+VWbNmySeffKICe9KkSWqsePPNN2XBggXy8ccfR6wjllAZ8ZqdnS1jxoyRvffeW+NZWVly4IEH6v3fhZYtW2peZWjfvr20bdtW5s6dK2+//bZs27ZN09HXL774Qj777DMVg4n4e4Nris/OAQsxrNMIfmvxsmXLtGysOOGKrT8MG8klzsjOJa6rDcD6OWPGDDn88MP1SdwBa+hf/vIXfcKD0Hz33Xdl5MiRcthhh+n6jbgxzps3T3r16qXDMxCp33//vbz00kt6Azn33HNlzZo1snjxYpk2bZpXq8g+++yjQzr+trp37y5bt27V5XUgaC+77DJNHzBggIplrCf4zTffyH/+8x9NP+OMM+Tggw/WffQL/QPR0gkhO5ZIqw383//9n6xbt07jsIJdd9110qFDB/nll1+kS5cuupTW/Pnz5YEHHlAfxZ9//lkOOuggmTBhgmRkZOhxflAHrGh77LGHfPfdd9KmTRu1Kv74449R63jllVfk2WefVYEJixvuS5G444479KH8wgsv1DjufQ8//LCKrOeff17vPXjI79+/v1oN0ZdbbrlF+wDxdfTRR8uIESNUJEYjUj3g7rvv1msFgYV77Kmnnqr9h/iCBXH8+PF6n412fDjvvfeeHvuvf/1L4zgPWDdRN64PfEHBxRdfLMcdd5yccMIJGj/ggAN0Gw3c3/3ACggrbqxWTAznw3CxvWH7/Px8+cc//iFLly71UmIH1mb8BkCg+4WgAz6vOG/83UHAVwT4tsbiIoCHAvS/MkBYox0I8Ehg5jZcB3JycryU2IBYbdNophezLN9wmBzacam0aNHCSyEk/uyQ1QbwBcEC07jZ4Uvjfnxat24tJ554otx+++1y0003Sb9+/fRpGDeElStXyqOPPqrCFeUHDx6s1tMbbrhB6+vdu7fWgRvaY489FiJcAW54EKl+Zs+erT9AfvCE3rFjR/2Bw80bFmLUj6EmCG2k4QcHfcOPVLR0Qkj1AJEFIYKA/S1btujw58svvyyrV6/WLdLxgAthC2EGq9Krr74aOM4fUPa3336TSy65JFDmnXfeiVoH7ikQbrgPQcDCkoly4fUiQHx+8MEHuj9nzhwVWhCmGzdulC+//FKtqhjGx/0M9z60ifsY7o94GMfLGCA+w+t1IVo9EFFvvfWW9g33VWxxnXAuEHk333yzis1ox0dqC8YFjHC5OAwQSKtVq5bsv//+mrZo0SIVshDFrtxXX33lfXJlQZ4r5wKuQUWsr/jcYvE3hTX29NNP92IVA8eiX3l5eV5KKPic8CBTGeturL6tVfGBhSiF8P3999+9lCBIq4xwBQOPtMfgAcUFsGrVKt0SsjOIm3iFIMSQEm5AEJDOdQBfvh9++EG/JFgOBTfQcMEJ9ttvP735wm8JN4SZM2dqGsDNsjJfMgduPrCa9OnTRy27AD8osObCSgsrB6y48JnFDSlaOiGkesD3D/cPBOzDigjrJsQFLIfwg0U61gvFwzOGQmHxRLo7zh9cWVhYEYcFFhbeaHVA7EH44UEYAu7xxx/X9sPrRYBFGEPMsAp/9NFHWgfSIQJhjYUYfuKJJ/ReiQd4tIm6IJZcHcDth4do9eCa4L6G+xVGlyC2XT04F7RT3vH+NlzA9cWx0eJYexfWPbxgAA/4Lh3h888/1/b9IM1fxgX0rSL89NNP3t72qazhAT7COBZ/G5HA9YbBBp9zRcHDQizEWm5nsz3LOiE7mriIVwzzY7ge7gEYtoLFFGI2EhCFuAHGQriPazgYRgyfHAbRjGFEP7j5wPoAEQtriXPqRxzWDohuWBEwvIabUbR0Qkj1gAdaZ6WD2IHgcnGISXynw9Nx/0C6i/tDeFm/uItUhxNtLh0i1l8uPEBQY1IP3Kjw0Iw0PMT/9a9/VUGEkSBM+InUZng8PESrB6L0kUce0cX+4ZOJoX0YA3AM6kO95R3vb8MF3Pf8cdwbIbLdPly2MDJ16KGHhpRzAX6wDuxHKoOAzxd9jBUYI8pzq3Dgc4OvbmWAMQWfOX7Lwt/8hYcbnDf+PmB1rij4ncTn44IffzrKVRbnNoCRxHCQ5iZxEZKMxEW8wtKAGxCc5zF7EVvcSCEa4bMD6yuGmXCzhBB0wyy4YSIdYFiuc+fOOnsUP0YQobjJlgf8mODD6vyu8EU86aSTtC9+4CKA4T/8kGBoA20A+Jdh+GnhwoXqAwYfJlguoqUTQqoHiBAndHDfwOjIihUrVEDBHx0jJEjHkDjyIDghbpDujvMHlPULRIgntBGtDowCwZq5fv16wVD86NGjZcmSJSF1+gMEJPwgca+B2xPScC/E0kQQPRBDaAfthfdle+I1Wj24v8HlCn3FMk4Y4YJFFcfgPokRrPKO97fhAsrByonrgdEvjKrhfo68Bx98UO+5GJYPP84fMGcAIVKeC7EaNPxgroR/LgL+FuC3jIlkLsAIgfOtDLAu4nOAexpG4eAWgd+obt26yTnnnKOuIHALgftJIoLfYb+/K1wF/C4EcLvA71xlCJ+w9fxUjkySnUtcxCuEJqyUfnCTwxMrfmDg8A//UbgMoBxuqAD7uMniZoghOzxNY/05DHvhuEjDTn7wg4ObFSZiYbIYZlLiJgnrqh9MyIB1AX63uNHiRgzRjCdr/BDBLwh58FNDXrR0Qkj1AAsYvu8I2MdEzvvvv18uuOACjWOiELYQaXfeeafeV2A1hJuQO84fUBbCxMWxjxCtDliqsAg+JjbhBx/iFH76/jr9AaIQD70o59IgejDyhD7D5x+TWxAP7wviwMXDQ7R6MLkMD9mw2EFcY64BhrZxDPqBVQMgtqIdH94OAka2INyuvvpqnZyEUS0YC5wvMIQhXBAQ4A8cqY5YgjvnioL+OwGLerAyAHxwXcDQf2XA9YL1HEYYiGtsEcdEPUxMw3XFxDj4C1e27zsSGIAgrh2Y6IL5JAj+SS8QtyhbUeD3iklbLlxzxdecrEV2KnFdbYAQQqpKpNUGIJT8P7qRwOgNrIEQtX6w4giEjQNCJNoa0NHqiEZF6q4MO7p+PzuzrXBgBcTatpV9axX6DvF+6aWXVml+hMOtYIPrgfVsYbHEiCH6B39miGJY4eMFRizhogYf16q4CvjBAx4eODChEatFuOsCazmssnjAwt96ZdweCKkO/L8BFK+EkIQiknjFqMz2JsbACvjQQw/pYvKVJR51kIqz55576koLlRWv8D3FajVY7QbuEVXloosuUt9e+OmGL+tFCKkeKF4JIQlLJPGKpbAqM6ubJAcQr/Ajrax4JYTs+vjFa9yWyiKEkB2F80dl2DUDPl9CCIkVildCSMLjJlQx7NqBEEJigW4DhJCEItxtAEs+YV1S98Y9suuBt27hdb2YREQIIZGgzyshJGEJF69YgxSTcLAluyZYngzLfPFlMISQaFC8EkISlnDxSgghhHDCFiGEEEIISUooXgkhhBBCSNJA8UoIIYQQQpIGildCCCGEEJI0ULwSQgghhJCkgeKVEEIIIYQkDRSvhBBCCCEkaaB4JYQkDZFeKVqTAyGE1ET4kgJCSEIR7SUFJSUlUlxcrNuaLtxSUlIkNTVV0tLSdEsIIbs6fMMWISRhiSReIVaLiookNzdXtxCwNRkIVrxStVatWrqFmCWEkF0ZildCSMISTbwWFBRITk6O5Ofny6RJd6hgQ3qK+Yf/HNYoi/+ZnDBNp+W94/xUtK7wdFevpppkl+Yn2K6vIq0DRK4/vK82LjJ27FjJysqSOnXqSGZmpqYTQsiuDF8PSwhJSuA2gACxFxB1KhRdgAC1Ii8ELy8cV84eZ/a9w1xRm605gfptPVZY+ptx+S4tvA96mK1Jy9hs1OHV47UJEA0e78oEzzl4HQghpOZB8UoISQqccAtixR2SncwDKOUvqoLT23eCUMWg+WfrVKloythSfgHq2rR5tqz75+9PUGh67SEvmK3YIraOQBnUjKJa3O6741wdwb64dtyxXhlCCKlhULwSQpIOq+cg3Dwx58WduAsKPptmo0HBqVuTaGWorSVQyjvYLwy1Dq9uTbVFELXlNNG172W6MgZNDznQV85g99AGitl/moq4r35CCCEUr4SQZETVnpV8QYJxKzytAMS+FYNB8QcxaTVh8J87XMsHiyo2DYkoZDO1Dt2z9bgKVL8abB2+Pnn/t/mI2RQrWP2ggD3Otol8c5z5F94vQgipiVC8EkKSlKCF1co/v8CMRFAQWhFYVgkiD6JU5aNW7upy2+AxqCPYPjAJ+E+LWCuq1mB2bL1IR36wDpSwcRuC5ewWPXH9sAKZEEIIxSshJOlwAlHFnvlnY07o2ZjFCT4XByhn/u+JQnu8tWo6oalS0ickg/VYbFm3tccrZoOoPQ5HWaFs67VbLeTKB+q1/XDlALb2eE/I6rGuPCGE1FwoXgkhSQhEHAJUHeJG9KnQw77Ns2LP4aVpYSsIEWw6sPs2DULRikUbd/UE6wupWnH1mD0c40Vte45gm+54tOHKaI4eZw+2ZZyg9dJC6iOEkJoJxSshJOlIz6olaZkmZGVLama22c/SrYYMu5X0TC9kiWSYYLalJl6aluFtM6XE7GtIRUjXbbEJRZImheb2WJSSZvbN1sV1my4FpalSUGJCaYrZmoC4CflmP784RfJKxGzFbEslrxjB7AdCimwrLJXcIoQSySks1q0LyNtWaNILEIq8UCJb84tka0Gx5hFCSE2G4pUQkpzACGkNmZ6tEgT3gFo2fcbK0lIj/NTaaQm3ZOJoTXHJvuoCJT0raAgmDcmwkFqLr2ctNeIW/zRdC+L/2Ld12O6YtDJVolxJoK5gAdsOIYTUZCheCSFJRwkEnFFx+g9bjWtSMM0Wsfv6OlkrLBEvQYahxKhHCFota4JKRihKLx9CF2g+6kF6iq3PtuCKOhmM+m1bOBbt2FLYR1m0h3o0UevAPqK61XSNYceXZmu39ds8QgipqVC8EkKSDicAVWfaBCsUEYxKRB4yEC/x4hCPxU6XIu6ll5YaQWj2ES+BKDVlSjTNlgnUq2VN0Hxf/SbBBlPGHI88lCsphoXViE4v3R5sjwOoB0k2zZbx9x/9spkWm+bVSQghNZiU/oPHlBaumutFCSGkevnzzz9lt91282IWiLb8/HzZsmWLbu+8516k2kxPzKnw0z21T3riL4iRmW4nUA6CEGV1P5AAwYldU14ttbYF5KMNi9sizTvEbFVcamEkpvrKAytKg7j+Id2X4TUWSPFnaTulcvP4cZKdnS316tWTrKwsk+7qQpkUqV+/vtSpU0fS0tK8VEKqH7zSOCcnRzZv3hz23SBk+/z666/eHi2vhJAkBD97sEFC6em+9zsYkINOuJp0/EhayyeUn3cMoiWmBuRpGZPsWUKt5dMTmhq8MihvK/TSvV2Uhy42EdRuj0cbtoD7kdYyWgL9QBaOs9ZWzUGWAVEEjWLrDjEVuLLlAeGKQOFKEg38Tbq/T0KqAsUrISTpsMIQWwzPY6gfwYpIKx6xtcP5Wt4E6xZgg/VLtelOLGLfS9E9YMWipyrh64pyXraKTxOs1dOrT/MQx47Jd0IV4hlxCNCAYDXBq1rLeEkagO6b/ur52UTXZnnA4kpIIsO/UVJVKF4JIUmHm8Gv8tAzTVq7qBV3bsgfQOup3lMdqYowkA5NiFhg4paX5iZa6bFGmGowVSIN9dh81I+tycUxgZitwwpX9EOPsn1AwGHIcnETbP2uD3Zf/W+1AMpoIRNwICqIDi2uJNHh3yipKhSvhJCkw1lU3YQqK/PMP4g8I1qxwYQpGDydmHXWWpvmCUAIQpMAfan6EHENdtgfx6IerznN0309HhHEcQBEpcuHbMXxEKLoh+2nZqMv5vhgv8w+Ekx9qEarQl3B6gJBm9V/2Nv1aNy4sVx//fVeLJRRo0bJscceKy1atJAHHnjASyWE1FQoXgkhSQjEIf5v/0EFBobmi4tNFHIWcbtvjbAQk0EpWFJq8ky+Kle1jkJMenWYPN2acjjWWmZtPvJwnG3DS4NQRTD/cFxJSVEgX2Wn1u/qxtYGbR/lTZ2wGyPoibl+QvR67aagXQ04dtdj/fr1Mm7cOPnggw+8lFB+++03Wbp0qV6PV1991UslhNRE0vbq3GNCSc4qL0oIIdXL1q1bdRZ9OJipXFBQoNsBfzkaks+IRIg5I/pUnHqYiF3P1YhDaEFYUc2OCkSvIOLQvNCQtoweZvNURNoItrYoZKUVkVqXJypROiUl1AYQEJemCq+Ii2o8NdWtQoAabd3qImAi9liVsD5ce8i35zJj+v9Jenq6rjSArTsv0KBBA29P5Oijj5YLL7xQrZawbM6fP186dOggl19+uey7774ybNgwjaP9iy++WAYOHCiLFy+WjRs3ejWEgrKXXnqpdOzYUYYOHSoHH3ywfPXVV7L33nvLX//6V+nataucccYZsueee8qcOXO0r0cddZTWfcwxx0hGRobWHwlYVe+55x5ZuHChxo8//ng9rnv37tKwYUPt+x9//CEnn3yyTJkyRfbbbz854ogjtAzOE0PRP//8sx5LEh+sOEBIRfDfl2h5JYQkHVZAWqGHUGz21ZLqWSaRD1EJoWj+U3GXmpqOIzUPeK6okmqqCAhXL08Fo6mn2Ihja0UtRqYKzVTU6wUULzFiGmXRH5TXLgFPw6alpepxWrXJKw5YZZFqRTH6qX1MSdM0bd8IVhdcpehrqk+olgeEbadOnWTIkCFywAEHyCGHHCK5ubmaByE7cuRI6dOnj+y+++4aP+ecc1QUHn744WoFjUbz5s1VEPfq1Ut/TPCggXNv1aqVjBgxQnr27KmCuk2bNpp2yimnyLnnnqtCF3VjqaRo4PrDqtq6dWs57rjjVAgfdthh2o7ruwNlzjzzTLngggtU4EIkYyk1Uj3cdNNN5QZC4gnFKyEk6YAQNFJP92GJLS4qkcLCYsnLL5KCoiIpMnG1ZsJiaYLqPYjPgJXUiEIdtodItfWBtLR0rdWK0zRPVKaqgCwsKpbR542QC00oKi407RaZA+FWAHFq5SUEcXFxqfapEKLWiFkcB1GWapQn6s1IzzQhXdJQNwJaLEmxProqmNF3U5cKVXOcilorWtFX5McC1sN97rnnpF+/fnL//ffrurDoFwQexODvv/8unTt3lrVr18pHH30kK1eulLp166pF9vvvv/dqKQuOxfD9gQceqG20bNlSVq1apemwfEIk//jjjypWYU399ttv5fPPP5fevXvLrbfeKp9++ul2rW6w8MJyO3PmTO1/pPKwvBaZz/rss8+WZ599Vmew16pVSy33ZOdz8803e3tlKS+PkMpA8UoISTpS1FxqBSNEYXp6mqSnmWBEodGjagGFaCwyQg/7EG0QsSpoTb7qP0ySKkZ+kYrMIlO+uMiIUpMHkQjxiPpR90WjRsroc4er20K+CRecOwLdME3BogqxaQSrpzi1a6noj9kxbaBUkakXx+UasZebl6vbgsIi0x58XlMkxZTNzMzQc8jQc0k3qbg9exZbA7Zad0CAl88ee+whEydOlCZNmsj//d//qbgEOAcAMQvrLIQ1RB8sqtjPzMzcrgDEsTjGHZuXlxdIdyIZ7UIoIw8CF23Begoxur2lkuBeAMHqjoNVGu2EAxcETOCCxXj48OEyffp02bBhg5dLdjaRRCqFK9kRULwSQpIPVXSweqZYC6bZpqelSoYJmUb4WAEIqyZsqxCrRlxiqF6PgwBEjlGCUINGYMKKWlhUJHkFhbLNiK2t27bJttw8Ey+S888ZZoRnIXSkNttrnwbSq0N9tZ6mm+NTjVCFmIYVFa2hXrXYmttrejosrWnapywTsjPNMUaYos+wshYUFhoha9rLyZWtuTmm7XzJM8K2sKhARTXag1a1ZwFRjXOIzfLarl07tYRec801smLFCnUNiHWJInedYgHXEsDXFm0gjmF8WF9hcYUfLFwLIEhheUW/ttcPWHZxnHvZAlwEwoFvLHxtIXLxUNK2bVu1+sLaS6oPv1ilcCU7CopXQkjSAZEJ1wBYV4thPVULqnUBgJBRX1Gzr+IPAQJL9RiEVolqVhhGIUAzM9IlO7uW1MrOktom1DGhVpYd2ofEzcsvEF13FSZZU+GyLbUlrXEbeePFB4wg9trDTmmxlikwfcvLyzV9tJZWHF9QZPprOgRRmGYazkjPMG1kSd062VKnVrbUq23az8yWrMxMFWsQv2gLXYZBV88DQtkoWQjfWMBwPayg8+bNUwG7Zs0aqV27tpcbfzCE/+CDD8pdd92l1t17771X1q1bJ6+88oq89NJLKlw/++wzeeKJJ7brNgDRDSvqW2+9pctnwbUh3OcVbg8vvvii+sg+9NBDcv755+v5wXJMqheIVgpXsiNJ6T94TGnhqrlelBBCqpc///xTdtttNy9mgeiDfyWGobG9bfKdXgaEKSyS1q8VAT6nZqPiFS4DcAdw7gLFpUVqEYV4VV9Vs5MGQZim5k2T6NWH8qYctiYmF4w4x8RRwGInVYlMfe55e4D2AxZgCFTkwFXATh6DqMYwOgQ1spCGsugDqjF7kor2PXQCmCkJIexsrDgWFVsf2RKZcsftKkxh0XTD6g5MwHLgWn3yySdSWFioVlFcP0ziwhD87NmzdUY/+Pjjj2WvvfZSqyiEInxNIXpVRHvgWmApq9WrV4cci9UGMBFrwoQJ6oeKlQEgThs1aqTpcOXA8P6iRYvMKZRK+/bt5bXXXotYN/r3/vvvy2mnnabpc+fOlV9++UVFKULTpk3VCusvs2TJElmwYIFeA/jsok1YeUlig4cPQirCr7/+6u2ZWyfFKyEkkYhFvI698WYjfqwlEkPzEJNBAWqFHNJU/qlotP6uEI26TU2TUiNs06yK1XRTHPOvsNFqLKXyxccvyUcffC7P33ax/GvaTFm5cp3cdt4gmbWtjcmHT6pdLQATqmx9Zh/CzFuaS0VrKWy4kKJG1KqVFvIUXgvopTkP03d1czDHuji6hIlcpSk4zmz18BJzfLHcOuHGmMRrVXnnnXf0ejlwXlhOKxxMsMJKA5jE5UTt9oi1brJrQvFKKgrFKyEkYYlFvE68fbIRbEaEwvNJdRsEqC2nk6SQpgrUug8YFagTqrAqAYbwIShR3uapNDT/UAFWHIA7QaamQSA7YdglxVtDFMeYpG/y9/CEqa0L4llXKTAVYGg/sKSV2WoZs+sdqpZiWIUxiawQLgXFRswaHaf2XpQ3fVVBjNNTQWvFrFej3D5xwk4RrxUh3CJLSHlQvJKK4heveLavMnDUf/LJJ9WnCWH8+PE6NLU9MLxz9913q69SRcHM2Pvuu8+Lia7xh9mt0WjWrJn2EcNO2wPDa2PHjvViFcddjxNOOMFLseAHZvLkyTJ69GgvpeJs7zwJqQnk5OXJlm35snnbNtmy1YScHNm8NUdy8wpU3EIQ2vVZIRqNZDT/waKJlQOyMzMl2wg+bLN00lWqZKbbCVW1szOllhGF8IO1E78ydYLVyOFnS/dhE+Seu6dq+/96+TMth5CdlaFiFT648G/dui1H+7Npy1bZnLNNckx8m+lnrulzfn6eKZMnBQX5UlSISWKmn1hCFsIaqx4Uw4e3SCeXYQJZfmGxCQVSYAJ8SiHA1UqcgOCeTOFKCNkZxO0uiBsrRCsChBsWjt6eBQBLpjz//PPy73//20upPBB1EJ3RwMLZ6GOPHj28lOhgge5JkyZ5scqDdQ39FhGsn4gbfFXY3nkSUhPAXPU0892ybgPpKkTr1KolWVmZkonJVlhqKsWUwvfPBPiK6lJaJmCyVFYmhKnZGhGLfRSDX6ouZ5WL2f/bdNWBbXnbdPY/JlJhiHv35vXl0LNvVBNoIUSlEaF5+YWSZ4RoQRGW5oKvqskrNuLT7BcUFcg2I2ixakG+itUSI6gxRJ6ufpm1smtJ3Tq1pX69+tK4QUNp0qiBNG7YQBrVry8N6tWTBnXrSt1atb2JXOlqjd3eagM4D0ISGf6NkqoSl9fDYvgKr+fDzFCAoT38oHTp0kW+++47fRML3sgyYMAAcwNOUwd7rMmHt77AeX/58uU6SQD5sMLiNYIQaD/88IO+hvBvf/ubTjoAeJ0h1i/E0i94O8z//vc/fVMMLL1oDwttY/gqHPhjoSze1uLq2meffeSiiy5SUYk3tcBf65tvvlHL5u23367lUWbMmDHq03XWWWfpFtYcWE/RT5yLWz/RgeuBc0EfMdsW5wbwphl8abGGItoBuDZ4rSLKwzqMc47WL7wBJ/w8I10z0L9/f31tYrdu3fQaYyIGlpaJ9FkQkkjE8nrYo485Vu8x6jPqPR+6SU2BwXnP2grgb6pZBohQWDAxiQnCVFcugLXT1GtXLSgRLEkF31KEKy/5q4paPIhu+Gm1NDfb1p32klsn3S2DzzxLBXMWVizIzJJsiGcjSrONIIb1FiI60/TTLt1lfVnTjHBNxT7cAby+69bbd93XB1/4ypqO41+xefiGQMbyWl9+8ZmeP8Q3tv6HZAhcpBOSqOAta25tYEJixa+1dtj4E95BjfX28HrAwYMHqyUTC2ZDZEGkPfPMMyruYKXFTFEIPghVlIH1FpZSrNsXC6gDYu7RRx/VGbLhoB4sn/Lee+/p4th+fzosgv2f//xH3QTwIwCxFw5cDV544QVdsgVCEDNqMbP2gw8+kJNOOskrVRYs9YJ3bwPM7sVxmJnrQD9wbeBKcMMNN2g/Ya0FkfoVfp7Rrhn6e+qpp8ptt92mdbt1D6N9FoQkGzl5+bJ1W65sNT+A2M/JNcHsb83N1aH6jVu3aNiCIfu8bSp6IVChb2GFhXDMzICLQC2pi2WqzHepVhbcACBEYZWFO0G6XPO3S8yx1kcWivJH3DHN7lf//VAFJVLht4pbKYS0qVp9X9XCC+FqBCzWgYVwLigs1nVcN+dslY1btsr6TZtk/WYTNm2WjZtMf03YZAJcDrZtg2sBltjKU1HtBLeR8FC1ZhsdzPSHAQHHEZJI4G8Sf5ubzN8+IVVhh1heAYQSFpCGdQOCD2IMllZs4XSLSRl9+/bVhayx/iCG9JctW6aLW0PkwVIIUYub9v777x+wlqIO+LT5La8Aw+l4pWGkd3JDpME5HG1h+Rb0AVZIWFgh/t59910th6VigL9uVwb7+OKhL3htIazFsFzCkollZvy46/HYY4/pe8VnzJih7gp42sSTAyyksKQiDdcHy9LAugKLCc4dS8NE6tdPP/0Ucp7RrhnOD8vK4K06qBeCFu1gwe9onwUhiUIsltdeffqqcMTkfrWoYuvFIUzhEmCtn5k6PI84vq+2FMqYguY/nVhlArZqHTWiFQ+6OA6+sG+/+boRjcVaxh3bzDORrjF1HH+i7+EVfTBFkOsmZOE7irVo4duK18Vi1QGUsNZUr+8G91pY+Lri/JCOMlikNs2IX33JQRZ8dbOltgn/9/FHUS2vAFYtiAQIWQaGRAn4m6TFlVSWnWJ5hVUR77sGEINYlw8BE7QgHMOBK8B1112nf9hYE9AtSI0befiNuSLgWIg7CGW0DcsmLJSRwI/F9trSHx3vFwdb+4MYGfxwff3119oeLLAQk9sjUvvR+hXtmuHHGmI1ErF8FoQkOrCW1q9TO7DFIv918XIBDbCgZun3ABZQiFlVlNCC3j8LRKS3p0lWVOJ7i1e4bjMBQ/T47ul30PsH5uuyV6JW1A1qOd1ktptk02ZrOYXItvcHIzCNGK5t+lS3lumXEdRZGUaM4s1bWJ0AXfPq19sx+phi39gFIZ6Vnq3nAfFsBTTuB+X7vBJCyK7ODhGvWEQaPpewSGJh6jZt2qjvJ6yEsKRi5m04sA4iH1ZKiF5neYG/KCyVzsIAwRYJiLVI776GjyostfBbvfLKK3ULwRmtnngDwTpo0CA9b1hr/cAS3LlzZz1X/DDBEut8VqPhP89o1wyWW5w3XCRQL64/iPWzICQZCEpQI+jM33JBoRGdcB/I3aYiEmHz1q2BV73qbH/z/YEgxdJUOqu/BL6uCKWanue5I+B1sJhc5QStQ+2lXhTp0JEQmSo2zXctMzM94PeKlQ0Q7Bu10tRyWrtWltSB4Dbf1fr16krjBg2kUb360qh+PRPqSIN6dXTiWaYel2b6afph+lVozg2iGl2xi24RQkjNJW7iFcLSLZV13nnnyeOPP64CCYLt9ddf17en3HLLLeqLiWH1cDCxC0PdmCh1+umnqysBRNqGDRvUtxQ+mn//+981PRKzZs2SUaNGlVmiC4IQeX6wFmE062u8wZA8hvgjWV2Rh1cnwq8V1w1WUbwLvDz85xntmuGa45rBLxd+uvhs8EMb62dBSKKDBy8sIbUtt0B9XLfmWcFZZNL1NbFGVCJg+SpdQSA/T7aZh1isIgBxunnrFnNsvvqzQhCmppaqwKxlxGX9urVNqCXXXHaxaSnU4qqY3S4p1scVqRCuWGoLPrPqL2tCWrrJ00PsqAn0ropgHIMMo3o1H1vTtrWsam2m30aoGnGdk5srW43o1mW3tubIRiPG12/cqL6yhBBSk+FLCnZR4LeHoUv8UF599dU6eezLL7/0cglJXGJ5ScHfx91g06VERapFJaIJnrXU7qp1FEJRxaJJyMQyWbrsVIrgrVYo5kgxEZ1/ZVJHnzdCrblTn31e/j3sHFlrRGW+ydHHPVNXt1MGyBEnD1erLcS0HdaHEIU1Nk2/e/qCAVRqG9d+OTcBK2KRZ9o0dRSXFktRIVY4gBW5QM8LZUpMOkgRTPyyvX3gnn/ogydGWzAqpXURQsguTNxfUkASDyzL5SzhWFLLv8oBIclOvTp1pG6tWlLbCLdamMiky1JBMJpbGtSn1XgWI+yQB1/YurWzpTbEK4b0IVwhIlEE5X2HQQxOvPpiGXHyAM3TMuZ/TrgCCNefXrxLl9vK2ZYrW7bm6AsTNm3eJus3wUq6WdZu2GjCJrO/SVcTyNmWJ1tNGawNm59vX1IAtwC4L0C44oETlmIs2QXf1hJ9g4HVuBCxuuSX529LCCE1lbisNkASD/jOwucYAe4FzmJDSKITy2oD/fr3sxZO8z8IU7jGYLQBKwzYt2fhRQSZ+gICvMAgI8OKVWcRDQWWUG/PZGmu+V/hd+9J6aY10vzAw+Wf/31FJEtkW7oNe/foKnvvd6BsXjRbsvc6RI8FVljCMxYVwrpq/q9uDCYYMep8VyFQ8YIDrNtabIIY0Q0/V/TdvrXL9D0L52Df9OVesGBXR0grd53XWIFPPFyHfvvtN72u8aRu3bq6oglWbcGa0lgxBUv4YbYwZ5sTQirDTlltgBBCdhR+qaa6E/+z4/2KtVSWGFFWpFZRXVd18xaz3SKbTHBv0MrNyzdCMt8IykIjijEhCmP1OL5EGv/lfG3H1lUqa42+W1NQaoLIxzO/kr9dPFoO676/KWGtpAiw0qK820K4mo0BAtn22sZNihGseHGBLs1lBChEKUQodCheYoDJXliyC0K2Tu1sqVenlk7owsSuqgLheu2118qxxx6rDwPxBK/HxktoBg4cqMv34ZywdCJWXIG/PtIIIaQqULwSQpIO9QzwjZ47WycmaGHVgFxMzjKiFRO1CjFL35RFgG9qUXGpvlULS8vpcL8RspuMuN1gxC2G+BE2bt6qqxWgVghcCDAnQ/3MnD1fRagjIFS9fddF2z9bA4KuRZuRJllYh9aIVFiQw42nmA6GEZPgqIk7umrAqn3FFVfo67ux9qZbYi8e4DrBZQkvP/n222/ln//8p9xzzz0yZcoU+fDDD3WC6WmnnaZrTleEd6ZXXbATQnYdKF4JIUmH03kp5hZW7IlS+JHm5OXq0lhYeUD9Rj0hGQAWUkjKFGx9UtBTjjYtOMwPMYZh+VDRaAUlNOXh3btI44YNpFGDetKwfl1dqaBOLbwmNssb7ocotWu2atsmpMHimp6qKxOkmbrT0jK85l2P0Gs32ctaYi3YsemVBZO8sFwgXiAD4HaA10/jVdQu4OUllQUvQcESfnPnzpW33347sBQfrtcXX3whn332mVp90U6sOOGKrT8MG5mp6YSQmgfFKyEk6YDEg/W1oAhrs+bKFqzlmrdNiuA/qiLP6lEM2we0nwHH6YEwiZqNljFbtW4ibkK6ScRrXdutmoHSsviluyAZ9R9AUQhILJV18sTnNA0vI8BbvLKysqWuEWf169aVBvXq6TquELcuNKxf34hbLKmVqXVAzEIkwy3B1KKyFaAt64qAdP8ZAKRVHAznw1Vgn3328VKseL388st1uT4XsMSee6tfRYEoRZ/xBsFIwBoLn9/w1STKY+CRObpt02hmSBh6bkbgRTiEkJoFxSshJOmAnyZeu1pghBBeuwo9B59RKEtrsSxVNwFYLgN4ZTBED/lnJSDUKw7DeqtGzGWmSy28CatWlmzYZ6D07NbFljHY8iiLNoLxQB1mD4IWehOCNBV9QK5JQ58gcGGBRR78beGqsA5uCus3mrBB1qxfLxs3bpYtW2E9zpHcvAIpKMR52uXAELRuiO9KcMkll8TkbwpBi3WjKwOOhTiNNilLV1Ywn1dFrbtOwGISmAuA4pWQmgnFKyEk6cDbp7Iy0/R1q3g9bP26sHbiDVX1pF6dbKmTnS21a+FNV1asQjSajao/FZZIMBoQlllMjsK6r5jlX7t2LX3JgF2zFT6t8+S+jxeYohCMdjjfHRvEREwSgKsCzLoqUrGrWN9VTAqDZTgvv0AFHvoB4PIAUVpsthDjELbww7WvnsVSW+tlzbr1ul23YaO+qKAy/PTTT97e9sE1qAx//PGHHhvtDYbwhcUENbwFsKI4wUoIIRSvhJCkA9pRxSGG3nEbM1sIRviSpqWmS0ZmlmRn19JXsTbEa1fr19OAV7LWrV3biFv4pdoltLJN2bpG+CKuM/5NtagLjXQ6+1pty7kMgKnPvmDS7AB/IB2FDLDIlpTC0uqJZeQbZarruKpwzZcirGpgklFG8w2qY42Qhoi1mhZv2rKi1pyZySpWiyWOxQS0yoC3+X3yySdeLDoQ1v/973+9WMWYP3++9htvMGzevLmXaoGva79+/dQS/fPPP3uphBBScSheCSHJB0Set02z+hDaz4o96EFkmoAJXSr/YH01AWulYmg7MwuuAVhPNUvFFmbcwyKan5+nArGoCBZa63oAUJ0Tqm7Y3lpjdcdpULtr9lHEFis19RVKIVY3yLMrHzhRCvGNw+yUMhPMgRo3/1M3BrOPPpeYf3bSl33DFo6tLE8//bR8+umnXkx0eP/ee++VSZMmBcJNN90kCxYs8EpUDFhH0ccmTZrIiBEjpFevXtK5c2fp1q2bnHPOOdKmTRuZM2eOri1bUcInbD0/tdDLIYTUNCheCSFJhzeqr+oP+tJZOT0ZaHYhLb1/EIsqGOE7avexhVjFeq/5hYWBfQQskYXh+g2b7JuxrMC0PPLEk0bYFpq4TQnqSFfC+rxC9EJwwopZWAhRbARsUXFAuKpyhSzVt2bBh9bWCFcCXQ3BqwflYXnFrVrdDFAOzrlV4MknnwwIWFhzsTLAokWLAgFD/5XhyCOPlP79+6tLB17hiy3iWBrruOOOU5eB//u//5Np06bpeVUU+L36J2xdc8XX0qJFCy+XEFKToHglhCQdsIpC7MHKpwrSBFgsdV91pPUz1XyNmkSzW1xSqi8lwKtcMYRvrauQjxYUh67SUGwiRjAWFFgLH8ps2LhZNhpxC7GJNvD/LVvx2tetkp+Xp5bbErgIFBfqW6vw+lcI44JCO9SP9V21Ea+vWgOagTBFvqfKA/02qMB1+Sa4/aoAAYs372EoHyEeQLwCCGIsk/Xggw/Kiy++KP/73//UDeH+++9X0VwZ4erwT9hCoHglpGZC8UoISU6M7gu3gEKGumF9tWYiG/rQJEFI5njW1aCAgsDFBCuISpRDOo7HtkQnUWVkpGu9WhdSsX6sqdCLqjvAttw82WwE8cZNm3VS1bZtELHm2LR0qVe3rjRqUF8a1KsrtWvV0klhWANWl8oK/IOwtpZZgFULXP2qY/E/EyC+4wVeIPDuu+9669hWnTVr1uhLD9566y19PTX2MUls9uzZ6gu7fv16ryQhhFQNildCSNIBaae61LuDBayRqvRsPDAUX1wsubkQrblGwNp3+MM6iHSoRntEiaSZulTEemISAYIVZa0CtnFw9bH7a7hjyn2mLVPeiE67ikGqTvzSlxRkZhhhmKFLZKUbAYw4hCvEbMMGDaRZ08bSomkTadKokTTChDIjbvEaWAjbNM8Ci/awuoG6EuB8TLD9rTro93/+8x/ZtGmTl1I1HnroIfWf/f77770UQgjZMVC8EkKSDifgVLNCV3oJKRB9JoIh/+IiI1rz8mXz1lxdM1WtpUacoowd9jfgOBNQT5HWBYFo6sA+8sy+teTaBmAYRfbh3e2yTdi3FlSDqR/CtVZWti4XZaWzFZ+B9gy61JZXH9rD62GzsrOkVq1aUrcOhG19adqksTRt3FgaN2gojUxoWL+B1DPCthaEsRHEhBBSk6F4JYQkHbCa6lupIFyNolQ5qOLU5mPFgG25uSbke0PxdpKWakYIUD3CvphA9S7yzTElJbCymjSYYU1Z1A0L6zXHHiCT7r7H1G8nfC2of6iWs3WnSDrcA4zwhMUVltYUFahevV4Z94IExNFP11c4IOipeHHtm/kvLT1VMjLT1G0hG6sj1K4j9erVk/r169mChBBSQ6F4JYQkHVhyCjP5i02A8NNgRGFBvl2SCu/Uzy/MNyU9QQtxaDYY2nehtDTVHIN8CEu83jXdxK0gRcBarOYwFZNNjxllyuF2aa2s+jYvzbH1wiUAi+9nmK2+YxaYeu0xEKfwZ7XBxrWEtm37V2r+Q6L1gIW1156TzU9JtQdAaOOlCoQQUpOheCWEJB052/Jky9Zt+iaq3LxcI0YxI79UxV12lh1+r5NdW62WaUZopqUbsQkR6B2vQ/lmC6Go/q9GVEIewuKKdAhGGE8RkA7NCQOq863dd9Ns8/9SI3gzpXZtrBcL31YrhnEAhDQCsALVdAxqWOM2TVc5UJFqBDT6gwyvh1hmClErZG3boFQVtS1DCCE1FYpXQkjSkZJSagReivqAYgZ/epp9pWtqWrrZGlGJN2dlZxkRW1tDg3r11Xe0QX0jamvVlsz0DMnINGWNqISMtULSCk6IVWv1tG1BQjogQvHviy+/1+NWvfuItPlzuk7McvnqUwsVrfV6dULUAq3X7kPsqnuBEaOuLdcu/HXhtwuRjfNBXajSCl+vLkIIqaFQvBJCkg4I1rq16+jEKCg6/2oDEIBW5WFjLZoQfrCqpqVlShYEb+3aUq9uHWnUsKE0atRIJ0nVrVtXJ07p0lEQkSkl3koDqM8IUNOG+q+aep/4aL689uViWb5ms8ycPU8WvXCX3HzJ+VrGCWG1pqqQRUdgXTUb7BuQX4wlt0xZ6xKASWamj6YMrMTONUAtvsVm3xSx+2aXlldCSA2H4pUQknRkZmTaIX6IVKMmrUC0ediB1VL1rGekhOaEqrWWTCtocfuzgjZFRXBWZoYK4sYNG0jTJo2kSaOG0mnzN7Jb80b2lbLpWJvVNnPjfQ/J3+96UPqPuUX2HXKN3PvudzLhoSdtn9TqappTC2uwH05f276iD96+pmmSFBcZUVtkBbO61XonAIFrRa1J8c6JEEJqKhSvhJCkQ0WfEXFYcUBXHoAFU9ORa62car20xZCjog8vHXDiD+XVT1aH+o2oVT9TWw77qakZcvNjb0t6pyNl/fuPSyMjZps2biL169e1a7FiVQFUYnhw6jMqVvECgyCmIlOZ9kUtsCZqsgNiFn1SK621qMI6ixUG0G/7di/vHMwOzq+osFDTraglhJCaC8UrISQJsVZUWE2dNRVK0glTndnvCUBr4bTpanVF8ERnqSnnhu81aKrJNBXhRQE//rlRnvzXv6QxXiSw5B2TXyyFhUWycfNmWb12raxZt142bd4kubl5kpefJ0VFEJh4nSwaMCJUBS2W4ELNXufM1vXBiVpN9USs9luPtfsw5KYbMQ1hC1ToEkJIDYbilRCSdEDoWdFphaodojc3NChBowpTU+xSVgAiUYUplqsyQlLLmjQrINNUPAbEpB6Csqi3RB566jmZv2K91D/qHFmzx1+koKBQCgqNOPVUMvqQl18oObnbjIjdYsTsBiNq15ntWiNwN8k2k55fUKBv9gpYZU1DWOILfcHx2plAsJZaFeVqdUU/0I4VtAg4D0IIqclQvBJCkg4IPPiX2hUG7Dg6rJR2jVZssXSWXQMWBk91C0iFW4B1DVAjaECAYr1YvIHLJiEboBz2H376ea03Nz9PNm/JMQLWCFGdNGXEM954gK05DtZRuBOYltQ9AUIXS3pt3LRF1hpR++eqNbJy9SpZt269vkAhL69AiopNKCwy5xB0B4AbBEQtLKxWwCLAgou4ndBFCCE1mZT+g8eUFq6a60UJIaR6+fPPP2W33XbzYhb4pubn58uWLVt026/fEi+nZvLRR3tJdna2vnELk8nsBDRCCNl1+fXXX709Wl4JIYQQQkgSQfFKCCFJBi2thJCaDN0GCCEJRSxuA/qygCjsCsIO51se8PWFuwDdBgghNQW/2wDFKyEkoYgmXjFRauvWrbr1izu/cAsXceXl+dmR4i+aEA1PLy+OfX8c4jUzM1PfCobtjuw/IYQkAhSvhJCEJZp4xata8/KwlipWESgNCDb/1i/iIsUd/n0QHndESw/HLyz9hKdHi8ey9e+jX3iNLSZtYRtrPwkhJFmheCWEJCyRxCuAaIOAdS4DfsEWbd+xPXG3I8WfE52RiJQXnuaP+/dhfU3z3gpGCCG7OlxtgBCSdECkQaxlZGRogMUxUkCZ8KDrwZYTUPeOCpHacyFSXyOdkwvu3BFQFvUTQkhNg+KVEJI0hAtDF3ZlIp2vC4QQUhOheCWEEEIIIUkDxSshhBBCCEkaKF4JIYQQQkjSQPFKCCGEEEKSBi6VRQhJKMKXyiosLJRNmzbpliQWWAGhQYMG+qIEQgjZkXCdV0JIwhIuXteuXSsTJ06UY445RpeXIokB1tv99NNP5aqrrpLmzZt7qYQQsmOgeCWEJCzh4hXxr7/+WjZs2KAvKSCJAdaZbdSokRx55JFSv359L5UQQnYMfEkBISSpKCgoCLwWliExAj4PfC6EELKzoXglhCQ8kcQTQ2IEQgjZ2VC8EkISHogk+FgyJFageCWEVAdx8XnFbNN7771XVqxYoXFMqvjuu+/k5ZdfVp+o0aNHy6RJkzSvohx11FHy/fffy7p167wUy0UXXSStW7eWrKwsbX/16tWa/uqrr8qcOXN0nxCSfETyeZ0xY4Zs3LjRSwmybNkyufnmm2XVqlX6utRhw4bJmWee6eVWjBdffFH9N/1tk/Jp2LChHHvssTH5vL4zvY4MPDLHixFCSMWI+4QtiMe77rpLLrjgAo1nZGTI2LFj5b333pPZs2drWmXBLONnnnlGFi9e7KWE0rFjR/2xwg8YIST5iSReMasdE7b8wOfy5JNPlksvvVQFFPLPPvtsvRd069bNKxU7p556qlx//fVy6KGHeinlA6sjBHNNBsaJ4447brviFcI1Es9PLZRnn6TfLCFk++zwCVtYj/Hnn3/WHyAsoXLfffdpOqwiJ554ou6Du+++W1q1aqX7vXr1kttuu01uv/12GTJkiP4ojBw5Ulq2bKmW2/3331/LxcIll1wiJ510ku5jHcKHHnpIdt99d9lnn33k2muvlb/97W8yefJkFdvIB2j/1ltv1faPPvpoTSOEJAYYooZY9Ydvv/1Wv78DBgzQeL169fS7n5+fr/H//ve/csIJJ8igQYNk6tSpmoaH6bPOOksfriF4R40aJVu3bpXx48fL0qVLNX369OnlHo80jPw88sgjmrYrhP3226/cEOkYBHwuseAsrm0azQwJQ8/NUKs5IYRUBLW8ipRKihSbDawICCYppURToW9TksitKeCDhY05Bz0FD3ca4X5aesZemlpTzK61qgTTbCl7bRC1Bhcbt2m2rLYJzLV0SX787UTDHKk1g9JS61cGMe/2QajFB3nBdH/d2MMnaTH9NP9PwT+U8ZK1fkTNNjUVrbvyJs332+Tqxj+UA7YtG/ztAsTQFv6vcS8f52FzLaWldvmjlJQ03QbKeafor1eTglHtN9LC244EyrhzwI8u9nFsCfpjKkrFNQ2/fhHqDU8rNv9QV6pJtj/m5juDukOK4frYi4nzsnXY/ug5ObyTDm/D9Njbs9hrZo5NSQ0p6/ZwTqjZ1R9SX4mvvEnXMia4uEsLOcbg0u2+/QyDZZAePMaVw1+fH/dZl5rzdG1oMMUR97frrp8/7mrVNO+75vLRlr9OuyYs4jYXIN12zSuHNEQNrs96rLd19aFtbP3ngyiuv913tQDs++KBE3G9t4QeE9p+WdBXX3q0ukL/6Ay2vyVe+ZCjTFG9Dxj0PDXNuyamoKvT/IXpccF+hZ6zu0ZoK5iG/+E45AVbDdZhCR4bSiDN3U89Sry2Q8Hn4yuHfT1eO2GTTLz86xtfXBuuTUd4fGfjP3d/X6q7X4lMon6WIJH7Vh7x6F+kOwEhhBBCCCEJCcUrIYQQQghJGiheCSGEEEJI0kDxSgghhBBCkgaKV0IIIYSQBObOO++U33//PaHWoT7ssMN0re0LL7zQS9l5ULwSQgghpFrp2bOnvPHGG/LTTz/JV199pcvXYc34ZOGQQw5RcXnllVd6KckD+g4R6gKWIbzxxhslMzPTK1E1rrjiCl2TO55QvBJCCCGk2mjWrJk8/fTTalXE2zpnzZolf/3rX+Xqq6/2SpCdwSeffKKi9bPPPtM1sN0a/VUF4tWtvR8vKF4JIYQQUm106NBBateuLY8//rg8+OCDMmbMGHn77bf17Z1g6NChKmgXLVqkIrdp06byyiuvyJIlSwLWwZkzZ6rFFuBFQxBiCxYs0DrxGuPqBq+6//DDD7VPL730kuy5555ejj0/9H/hwoXy1FNP6fkBCEi8av9///ufvmhpR4O28EIWvMhp2rRp+oKW9u3ba95f/vIX+fjjj+WHH36Qxx57LOI1jVRm7lz7Btf+/furZR2g3EcffaTlHn300Up9PhSvhBBCCKk25s+fL2vXrlVrK173XqtWLd3HGzEPOugg+cc//qHD2c8995z069dPrrvuOnn//fclKytL81u0aKHiDml77LGHCqKcnBwVUHgDH96cV520bdtW/v3vf+tLbPDGT7y1DiIxLS1NDjzwQH3jJ87v+eefD5xf586d5aabbpKVK1eq6D344IO92nYOM2bM0O2+++6r1xRvFMQ1xcMAhCg+Gz/Rytxxxx2aD3cQ5KPcww8/HFLummuu0TIVgeKVEEIIIdXGpk2b1Cfym2++USE3Z84c9XnNzs5W6yoEznnnnSdTpkyRDRs2SKdOneS9997TYzFpqHv37rqPNLyCHq+NhuUQ1kz4ofbu3Vvzqwv0Cf67119/vfzzn/9U8bbXXnupryleSw2Bff755wfOr2PHjpoGbrjhBrnrrrvkrbfe0vjOIjc3V7ewbOOV2O6awgKOa4pX6vuJVubFF1/UfMTfeeedQDnsu88nvK5YoHglhBBCSLXy66+/ygUXXCBdu3ZVCx1msE+cOFHFE0Qfhp/hFoAhZoif3377Td0IevTooeJ1y5YtKoZatWql9eGYl19+WYfnGzdurGnVhVshYPny5bqFYANIx/mNGzdOh+z959e8eXMt447ZGa819gPrNygoKAhcU/TTuTyEX9NYygBXDtbl8sptD4pXQgghhFQbw4cPV2sdhCvcB+655x71/+zbt6/6v2Io/fTTT9fh9jVr1nhHiboJ4Jhu3bqpj2thYaGsWrVK8wYPHixt2rTRgOOqkz///FO3Trg5/1WkX3rppXp+6K///GCNBpjMVh0cccQRusVwv7umcOmACwRCly5dNM0RSxngLwcXAoT9999f0ypC2l6de0zATopA1ad4AZtg3EtJPnAOMXQ+vIiLp4RkIBJMsHkhBSx63XTH21ac0JZsfSnaoKvbxR3B/dB0S/AoCz7R8FIuXuZ438H+vEjtRMK2FF42vEfuHMOepSI0EZ4UqfbycP3GUyz2EStF+2ZH82I8Lz84PlCXPh2bfS8einfevoyy5aK1H+ma2XYioX3y8suUCKtKy4TVE63eYHp4f5AePCZ6ORcPa9PsIu5P8+UqiIekBb5rDvs5OOx+eC1I1//rvp9Ibbu0YE5om/5johIoUn7ZmOoKEKVsmWTbX/w1gPBsFy/Tti+K3dDcsFjg2OC10SQT7F9faHk/2z3nsM/YnUc49vfL4fZD267Y9Y0P4W1WRx+i4e9LIvQLllZYUTFx6/jjj9dJPRC0GL6GXyj8RU877TQdal+/fr1O3ILf5IgRI9RKieF4WGIhfocNG6aiFm4HmHSEY1BXVdjeZwkr6llnnSV5eXk60Qy+uAjr1q1TAXjOOedoHFbG0aNHqy8rXCTgHoDzKy4uDpwfXAfgIwuBBxeJli1bat3w8YUf79atW71WLdvr2/ZA34cMGaJ9h+UXLhpwdXj33Xd1Apm7poceeqhaZAcOHKg+uCtWrFDRDf9YTCqLVAbXHZ8R2oBwxUoGZ599duDzceW+/PJLrzexQcsrIYQQQqqN77//XsUdhB5mup9yyiny2muv6VJZmHw1b9489YmFuIJfLKypmOwEV4LVq1dLUVGRWl7Bzz//rOIQYvCqq66SPn36aJmdBVYVuOWWWwIB1lRMxoJPK9wBLr74YhXZI0eO1H5DjIafX+vWrXWLFxO0a9dOBbibqb8jQd/hqoFr9sQTT+hnAeB3jIcLPEBg2StYZcOvaXll4MsLn19Y2PH5YDIePh9Xzm9Nj5WU/oPHmMdUPM8Wmw3UOoJJSinxnnJTyxo4EpiAXwg25hx8D96B5/Fw3xE9Yy9NLXJmV7feidu84LVB1D7Y2LhNs2W1TWCupUvy428nGrAiaPWG0lLzOZiyeJJy+yD0yQp5wXR/3djDJ2lRG6Mpbf6hjJes9SNqtqmpaN2VN2ne6QBXN/6hHLBt2eBvFyDmt7y4fJyHzbWUlpq/PUNKSppuA+W8U/TXq0nBqPYbaeFtRwJl3DngC4Z9HFuC/piKUnFNw69fhHrD04rNP9SVapJRr35nUHdIMVwfezFxXrYO2x89J4d30uFtmB57exZ7zcyxKakhZd0ezgk1u/pD6ivxlTfpWsYEF3dpIccYXLrdt59hsAzSg8e4cvjr8+M+61Jznq4NDaY44v523fXzx12tmuZ911w+2vLXmZqKZ3PEbS5Auu2aVw5piBpcn/VYb+vqQ9vY+s8HUTdaYPMc2PfFAyfiem8JPSa0/bKgr770aHWF/tEZbH9LvPIhR5mieh8w6HlqmndNTEFXp/kL0+OC/Qo9Z3eN0FYwDf/DccgLthqswxI8NpRAmrufepR4bYeCz8dXDvt6vHbCJpl4+dc3vrg2XJuO8PjOxn/u/r5Ud78SmUT9LEEi96084tG/SHcCQgghhBBCEhKKV0IIIYQQkjRQvBJCCCGEkKSB4pUQQgghhCQNdsJWabFsW/+b5G9eIyVFBV4WIYTsfDDjuEmTJl6MEEIIEV0izaGW123rlknu+hUUroQQQgghJKFR8Zq32b7xgBBCCCGEkERGxWtpcaFGCCGEEEIISWQ4YYsQQgghhCQNFK+EEEIIISRpoHglhBBCCCFJA8UrIYQQQghJGiheCSGEEEJI0pDw4rVdu3by6quvypVXXumlEEIIIYSQmkraXp17TMhdv8yLVpw99thDLr30Uhk1apScdtppcuCBB8off/yhb8nZHieffLJ06tRJFi5c6KWUTSsuLpY///xT3nzzTfnpp5+kYcOGmr4zSE1NlSeffFKGDx8uS5Ys0X7EQqTzIoTERm5urtSuXduLEUIIIfa3wVEly2utWrXk5ptvli5dush//vMf+fe//y1t2rSRG264QerUqeOVig5E3imnnCKrVgVfkhCetmXLFvnf//4nS5cu3emvjIQQr1evnu537txZNm/erPvbI9J5xUpKSoq3RwghhBBCwonZ8nrPPffIe++958UsGNIfNGiQpl9//fUqMFevXq3W0a+//lq2bt0q++23n1x99dVy3nnnyRFHHKGCbuXKlTJ16lQVhpmZmZr3/vvvy8MPP1wmrWXLlmr97NChg2RlZcl9990n6enpcvrpp8vo0aNl33331baKiorksMMOk3HjxsmZZ54p+fn5MmnSJGnRooXMnj3b63HFOOOMM9SyvGjRIjnkkEPkiSeekLp162qeO6+RI0fqea1Zs0Yts5HOKy8vT/bee2/5+9//Lueff74cddRRUlpaKj///LMcfPDB8sADD0irVq3k7LPPVmsv2qOIJTUVWl4JIYSEU2HLK4RrJJYtW6YuAgMGDJBrrrlGDjjgAPnhhx9k7NixMmfOHP0BuvHGG6Vp06YqTCEwIeAg7J555hntCITdhAkT5Msvv1ThF54GtwGwceNGFYgA4m/WrFny/fffy6GHHirdunWTxo0byxVXXCHZ2dlqAe7Ro4eWXb9+vfbTAVHYrFmzQKhfv76XE0pGRoZ0795d5s2bJy+99JKeC9oqKSnR88F54dhHHnlEy1911VV6TKTzghUa+7vttps89thjKuAvuOACFa4OXLvXXntNXn755cB5EkIIIYSQULYrXqMJV1BQUKAWV0yoGjJkiDz00ENyyy23SM+ePaV9+/ZyzDHHqJiEKJs2bZpMnz5d4xBxcAUoLCzU8Nxzz6n4/Pjjj8ukwRIZDgTenXfeKY8//rjGYR2F60JaWppaMRHuv/9+zQsHllMIaRcgIiGqw+natau6Rbz77rvy2WefaRqszHAdgKUVQnXKlCny4IMP6jVC33NyciKeV58+fVT8ohz6NXHiRK0P1wduEeD1119XqzLqb9CggaYRQgghhJBQyhWv5QlXB8TWCy+8IMcdd5yMGTNGrYzwg8VwPSybwA2fn3vuuRpv1KiRuhS4oXFnDYVQDU9z8XAgCt0QPgQx6gSwsjZv3jwQD2fbtm1y6623qmhFmDx5svz+++9ebpDevXvrFm4L8F9Ff/v27auCHZZXsGLFCs3/7bff9FrBCg0hHH4O6A9A31Ae54lycBVw4hVuBOgzrhvcIwghhBBCSFmiitdYhOuRRx6p1ksIV4guiDlYRWGVhDXUTViCpRE+ny7APcBZOyOJ02iCtTw2bNigWwjF8sQf3BC+/fZb+eWXXzTAWoq++4HFFS4CYMSIEXLxxRerUEa9sCqvXbtW8yA+4QKx5557qu8rXBVwLPCfg3MDwGQ2lIdIhd+uE7uOypw3IYQQQkhNIqJ4jUW4Ard0FSYawTqJpbKGDRumefBHxZA7fD8vu+wyGT9+vNx2223y1ltvqVUTFkkITojCa6+9VkUdiJQWCzNmzFDrJYQmJlpheatoQCRiaN6F8MkhEKEQ4HA/cIJ74MCBmnfCCSeoCwQssJdffrkMHjxYzw8TyDARDRPFws/hiy++UIvv3/72N51M5tashS8tRCwhhBBCCImNMuI1VuEKMLsek7O++eYb9QeFgIMbASZlYUIVhsQxsQmrEMAntl+/fnrM8uXL1eIIdwNYJc866ywVfZgMFZ4GQRoLaAM+o6gDghJtVBb4tAK4OsAqe9BBB6lFFZbSXr16qUjFBCxYYCHWcS4QphDsEMbh54BJY7gOcBsYOnSoTvSCuwJ8gd1SXIQQQgghZPuk9B88pnTd4hletHJg6B0uArAuQjxieN3vd4p8CD/MwsekKvjFtm7dWq2bmzZtUqGJ4Xwse4Vjw9NQJ5aPgpUX4ddff9X6MWyPOpEHCyqG7/FyBIhL+KfCpQGTurAiQNu2bbUvsYKXEkB8Y4kuv2V2wYIFanXFuq9oG2Ic1mVYWNEft3pBpPPyXwecO3xnYYGG4If4xj6uCyE1GXyHd/aazoQQQhIbGAIdcRGviQLe8gUrKJbV6t+/v4pJWEaxnipFISHJAcUrIYSQcPzitdzVBpINWEAxoQo+r7Buwud05syZUddyJYQQQgghycUuZXkFGJbHhCkM12MoH+4FWFaLEJIc0PJKCCEknF3W8grgKgB/VLyxqmPHjhSuhBBCCCG7ELuceCWEEEIIIbsuFK+EEEIIISRpoHglhBBCCCFJA8UrIYQQQghJGiheCSGEEEJI0qBLZRWumutFCSGkesFb63bbbTcvRgghhIi+XdVByyshhBBCCEkaKF4JIYQQQkjSQPFKCCGEEEKSBvq8EkISinCf1/T0dDn++OPl8MMPl4YNG3qppLrZuHGjfPHFF/L2229LUVGRl0oIITsG+rwSQpKGE088UQYOHEjhmmDg88Dngs+HEEJ2JhSvhJCEplevXt4eSUT4+RBCdjYUr4SQhKZevXreHklE+PkQQnY2cRWvzZo1kyeffFKaNm3qpZTPUUcdJU2aNPFiFadBgwbaXpcuXbwUkX322UduvfVWL0YIISJz586VE044wYsFiZZO4s870+t4e4QQUjXiKl579uypjvs9evTwUsoH4rVx48ZebPukpKR4e6EMHz5cMjIyvBghhJBEwglXbP1h2MhMTSeEkIoQd/H66quvlhGvffv2ldtuu03uuOMOOe644zRt5MiR0rJlSxk9erTsv//+mgbfKZS7/fbbZciQISpWYUlF2uWXX66TA8KBWMYMtEGDBnkpoQwYMECPnzx5spxxxhmahjpvuukmueCCC+TOO++USy65RLp27SoTJkzQPrZr107LAfQJllz06eijj/ZSCSHVDb67uJ8ce+yx8sorr3ipIq+//rpaU3G/eOqpp7zUIDNmzJAjjzxS1q1b56VYwtO3Vw+JnYFH5ui2TaOZIWHouRmyatUqzSOEkFiJm3ht27atZGZmynvvvSd16tQJLHXTunVrnY0K8QfB2K9fPxWtGO5fuXKlPProozJv3jwtP3jwYBWZN9xwg9bXu3dvraN+/fry2GOPybRp0zQezgsvvKBW3BYtWngpluzsbOnYsaNMnDhRxo8fr+Ia9QK4NuC466+/Xtq3by/77befitcPPvhATjrpJC3TqlUr7dOkSZO0jmOOOUZdIwgh1cuiRYvkjTfe0GWannvuOf0uFxQUyJIlS2TKlCnyzDPPqKDFfWb58uXeUXYZrrFjx2oZv8tSePr26iEVxwnYAw44IBAAxSshpKLETbxCGM6aNUtKS0tl9uzZAetrp06d5IcffpCcnBz9cbn55ptl7dq1mucH4nH+/PmyefNmKS4ulpkzZ2oa2LRpkx4fDaw3iB+yc845x0ux5OXl6Q9Pnz59AlZb+MkC1Ll161bt04oVK+Snn37S9GXLlgUEKvqOvsAKPGzYMElLS5Pdd99d8wgh1UebNm2kUaNGcuONN8qcOXPkxRdf1Idn3IPwPXUPnPj+QugCfM/hYoTvM0ZaHJHSy6uHVB4nWAkhpCrERbxieL979+7qHnD33XerxRRiNhIQjLEuaB3NxzUSn3zyiVpa/e3usccect1116mIXbx4seTm5no5oUBwI7h9/Gg58MP2/vvva8C5LVy40MshhFQXGN3BsD5eXvDpp5/KqaeeKvn5+ZoHt6ARI0ZowMgO7k0AD664R2Fh/ZKSEk0D0dKj1UMIIaR6iYt47dChg/5wjBkzRq688krdQgBCPC5YsEAtmLVq1dJJVRiah9sAKCws1HTw448/SufOnXXZldTUVLXcwmIbKxCdU6dOVSurAy4CsKTClw1DUxVd0gWWFlh44AOHevDDtm3bNi+XEFJdTJ8+Xe8zuE/A9Wf16tWyZs0a6datmz6owuUH9x3ch9z3vm7dujJu3DhNe+ihhzQNREovrx5SecInbD0/tdDLIYSQ2ImLeMUPCIbZ/MB1AFZQWC7hlwafU7gMoBx8XQH2R40apT8O8DnDED/8zjBBCsd9/vnnWi5Wfv/9d/nwww+9mMh3330ntWvXVn/b008/XX/cnFiOBfi4wbqDH7ZbbrlFrTuw7hJCqheM7sA3FRMyMWkL1lE8aOJB+tJLL5Wzzz5bfe3vvffeEJcjPBjfdddd6ieLZbIc4enbq4dUDvi9+idsXXPF12XmKhBCyPZI6T94TGnhquBNnBBCqhM8yLoJnwBD9iSxwaoxhBCyI8HKUo64TdgihBBCCCFkR0PxSghJaLZs2eLtkUSEnw8hZGdD8UoISWgq6vtOdi5YpYEQQnYmFK+EkITmzTff1ImYWAOaJA74PPC5YI1tQgjZmXDCFiEkoQifsEUIIYRwwhYhhBBCCElKKF4JIYQQQkjSQPFKCCGEEEKSBopXQgghhBCSNFC8EkIIIYSQpIHilRBCCCGEJA1cKosQklCEL5WVnp4uxx9/vBx++OHSsGFDL5UkOxs3btQXHLz99ttSVFTkpRJCSGS4VBYhJGk48cQTZeDAgRSuuxj4PPG54vMlhJCKQPFKCEloevXq5e2RXRF+voSQikLxSghJaOrVq+ftkaqyZcsWb69qVLSe8srz8yWEVJS4itdmzZrJk08+KU2bNvVSyueoo46SJk2aeLGK06BBA3nssce8WPxp3ry53HfffbrfuHFjGTt2rO4TQqqX+fPny3HHHefFLK+99ppccsklur/ffvvJhg0bdD+cb775Rk444QQvVjMYNGiQdOnSRYYPH+6lWN588029FvApdvc6cPnll0v//v01D2HWrFmaXtF6opWvDO9Mr+PtEUJqOnEVrz179lTH+x49engp5QPxClEYKykpKd7ezmf9+vUyadIkL0YIIcnDtGnT5IknnvBilj/++EPuvvtuefbZZ+X1119XgTp9+nTNW716tdx7773y1ltvacC9HVS0nkjlK4MTrtj6w7CRmZpOCKlZxF28vvrqq2XEa9++feW2226TO+64I2AtGTlypLRs2VJGjx4t+++/v6bB9wnlbr/9dhkyZIiK1X322UfTYAmAc3+sRKoLROoLGDBggKZPnjxZzjjjDC81iN8K27t3b7n11ls14AaP4EC7SEe7Rx99tJdKCEkk8vPz5cYbb1TL4HnnnSe5ubmaDvEFCyLuNU899ZSmwVILi+JFF10kjz76qKahHNJQDveM0tJSTQ8Hx+L+g1Eb3A/OP/98ycvL0zyIPbSP9LvuukvTUP60006Ta6+9Vi2fl112mbz//vuaduyxx8oPP/yg5UCkvlaEuXPnSqdOnXQECys6HHHEEfLVV19pHsQrzglCdOvWrZoWjfLqiRcDj8zRbZtGM0PC0HMzZNWqVZpHCKk5xE28tm3bVjIzM+W9996TOnXqBJa6ad26tc4mhZi76aabpF+/fipa4V6wcuVK/TGYN2+elh88eLD+ENxwww1aH0QiqF+/vroH4Ck+FqLVFa0v2dnZ0rFjR5k4caKMHz9eRTiOicZnn32m5SZMmCCbNm2Sl19+WdNbtWql7cJCi7qOOeYYdaUghCQWEGQQhrinYLTo3XfflSVLlsiUKVPkmWeekVdeeUXvUcuXL9fya9eu1fsJHraXLl2q5Z5++mm1Sv7444/qshCN3377Ta6++moVoYWFhXqP3LZtm8yePVvbwVJRCAsWLNDysGRed9118s4778icOXNk5syZahQ455xz5P7779cy5fU1VnJycvSe7cjIyAj4pkK84v525513qkhft26dpkeivHriiROwBxxwQCAAildCah5xE68QfHhKx9M6bsrO+oonclgLcIMrKCiQm2++WX8IwoGPGvzYNm/eLMXFxXrDRhqAQMTxsRKtrmh9gSUEPwB9+vQJWHdhRdgesIZAgH/++ecaR/1oD5aWYcOGSVpamuy+++6aRwhJHOBr7/zt9913X/0e4/6F76x7+MR3edGiRVoGD6F4iAYohxEWuDyhPB6IsV5pNDAHwLXVvn17bat27dpy5ZVX6n0HD+a4b7r7IspjGamsrCwdeerataum4/7iBGp5fa0qqAuWXzyUQzRjZMw9oFc3TrASQmo2cRGvGJLv3r27DsnD9wlWTucjFQ4sHrEuSB1PH9dIdbm+7LHHHmrpgIhdvHhxYAixPPBD0q1btzLDdStWrFALCwKuxcKFC70cQki8wOhO+PcUD6V169b1YrGDe0NJSYnuQyyOGDFCA0aFcF/bHjg+mttAOK4tWFnPPvtsFbGHHHJI1H6jvLt3paamhtw7K9NXP7iGeIh3wCqMfqB/GPqHOAZ48C/P8hqtHkII2VHERbx26NBBfcjGjBmj1gRsceODKMRNGkKvVq1aOpyEoSgM1QPc5JAOMPTWuXNnXTYFN2lYbv3+XRUhWl3R+gIXgWXLlsmMGTN0CGp7S7fgZg3ftccff1yH/xywfLRp00Zv9KgPPwL+fEJIfMC9BfeYjz76SOMYZcHQvXM1qgx4GMXDK9x/cJ9A/ZHuBXgwh6UVqxngOw7XA7z9qyLgHgVXJYzetGvXLurKCNGIta/lASsm7ot40xVEMdyhYOXFvRzuT0h3I1duXkIkotWzIwifsPX81EIvhxBSk4iLeIU4xDCWH7gO4CYPSyT8ueAjimF6lMOwGcD+qFGj9OaLV0JiCA0TGzDhCce54fjywAQBN3kK4cILL4xaV7S+fPfdd2oBgS/s6aefLmvWrAmI6kjAwgy3ArgGuHYxzIchPUyiGDdunNxyyy1y6qmnqj8tISS+4KH0wQcf1JEP+GQOHTpUJz9hAlNlwUP4pZdeqhZRuAJgImYkd6W99tpLH9Kx/BPahivAKaec4uXGBvzt4RcKNyX4ruKhd3sTo/zE2tfywByAq666Su9jJ510kgpirAADqynO76yzztLz23vvvXUbjWj17Ajg9+qfsHXNFV9LixYtvFxCSE0hpf/gMaWFq+Z6UUIIqV7w8OkmfAI3w78ynHzyyWo9dMBCiQfMHcHObCsaidCHyoCJcIQQUh6//vqrt0fxSghJMOIpXklyQPFKCNkefvEat9UGCCFkR7Ajll0iiQM/X0JIRaF4JYQkNLH4vpPkpbxlxgghJBIUr4SQhAbvzf/www91RQGy64DPE5/rG2+84aUQQkhs0OeVEJJQhPu8EkIIIfR5JYQQQgghSQnFKyGEEEIISRooXgkhhBBCSNJA8UoIIYQQQpIGildCCCGEEJI0ULwSQgghhJCkgUtlEUISivClstLT0+X444+Xww8/XBo2bOilkkRn48aN+gKCt99+W4qKirxUQgipHFwqixCSNJx44okycOBACtckA58XPjd8foQQEk8oXgkhCU2vXr28PZKM8PMjhMQbildCSEJTr149b49sjy1btnh7VSNe9QB+foSQeBNX8dqsWTN58sknpWnTpl5K+Rx11FHSpEkTL1ZxGjRooO116dLFSxHZZ5995NZbb9X9xo0by9ixY3U/GnvvvXegfDS2187OAH147LHHvFj8ad68udx33326H8t1I6Q6mT9/vhx33HFezPLaa6/JJZdcovv77befbNiwQffD+eabb+SEE07wYjueF198Uf14wcqVK+Wcc87RfeDPW7ZsWaWtlIMGDdL70/Dhw70Uy5tvvqnnCp9h9/0Gl19+ufTv31/zEGbNmqXpFa0nWnpleGd6HW+PEELKJ67itWfPnuqY36NHDy+lfCBeIZRiJSUlxdsLBTfajIwMLxZk/fr1MmnSJC9WdaK1s6sR7+tGSE0GAvWPP/7Q/ZYtW8rTTz+t+8CfVxWmTZsmTzzxhBezoN67775bnn32WXn99ddVoE6fPl3zVq9eLffee6+89dZbGnDvBhWpp7z6K4oTrtj6w7CRmZpOCCF+4i5eX3311TLitW/fvnLbbbfJHXfcEbCWjBw5Um/ko0ePlv3331/TYHVAudtvv12GDBmiYhUWTqTBUgDn/3AgljEDDRaDcPzWRBCpH37QD9yM69ev76UEKa8dMGDAAK178uTJcsYZZ2ga+n7TTTfJBRdcIHfeeadahbp27SoTJkzQPrRr107LAZw7LLk496OPPtpLjY1I1w1EO99IffXjv269e/fWfiHgxw7BUZU+E1Kd5Ofny4033qjf5/POO09yc3M1HSIMlkTca5566ilNg6UWlsWLLrpIHn30UU1DOaShHL5HpaWlmh7ODTfcIL/88otce+21MmPGjBDranheOJH6UhHmzp0rnTp10lEbrNhwxBFHyFdffaV5EK/oMwTn1q1bNS0a0eopr/6KMvDIHN22aTQzJAw9N0NWrVqleYQQ4oibeG3btq1kZmbKe++9J3Xq1AksddO6dWudbQqBAyHXr18/Fa0YhscQGn4M5s2bp+UHDx6sPwS4qaM+CCcAMYkhc1gFIvHCCy+oFbdFixZeSlmi9cMB94VRo0bJI488Ips3b/ZSQ4nWTnZ2tnTs2FEmTpwo48ePVxGP/gO4UOC466+/Xtq3b6/DmRCvH3zwgZx00klaplWrVnrusHaijmOOOUZdMGIh2nWLdr7l9TUSn332mZZDnzdt2iQvv/yyplelz4RUNxBsl112md5T8GD67rvvypIlS2TKlCnyzDPPyCuvvKL3qOXLl2v5tWvX6ncMD9tLly7VcrCgwmr5448/qstCJG655RbZc8899ViIOz/l5ZXXl1jJycnRe7IDo0bOlxXiFd9pPFRDhK9bt07TIxGtnvLqrwxOwB5wwAGBACheCSHhxE28QgThKR5P87Nnzw5YX/Fk/sMPP+iNrqCgQG6++Wb9IQgHog5+bBCOxcXFMnPmTE0DEE04PhpYT/CNN94I8SULp7x+QGDCx/OTTz6RRYsWaVokorWTl5enPzB9+vQJWIdhjQDoO34o0eaKFSvkp59+0nRYYJzYQ99wzrCaDhs2TNLS0mT33XfXvO0R7bpFO9/y+loep512mj5sfP755xqvSp8JqW7wsOr87ffdd1/928b9C3/H7oEMf9/ufoDvqhuRQTlYT+HyhPJ4SMR6pvGkvL5UFdQFay8eRDFShhEn91Ba3TjBSggh5REX8Yph6u7du+swNYbdYflzPlThQMjFumB1NB/XSEB4wqoYrd1w/P3A/nfffSedO3eW1NTyL0mkdvbYYw+57rrrVBguXrw4MAQZDoS9G17EFj9ODgjb999/XwOu4cKFC72cihPpurnzjbWvfiBUu3XrVmboMp59JqQiYHQn/G8XD2p169b1YrGD70tJSYnuw9VnxIgRGjAqhPva9sDx7nsdTyrTFz+4RnhwdRQWFur1wbnC0uvuP3jYLc/yGq2eaOmEELKjiYt47dChg/qQjRkzRq688krd4sYIobRgwQIVP7Vq1dJhJQxVueF63OyQDjD0BvGIZVUgIGG5heUwVvDjMXXqVLUoRqK8fkDIYWgfN3X4mJVHpHYw7A5LKvzWMMRV0aVhYFFp06aN/oCgHvRj27ZtXm75RLtu0c63on3FD9T5558vjz/+eEifqtJnQqoK7i24x3z00Ucax8gDhu6dq1FlwAMaHujgEoPvDuqP9P3AgyssrVjNAH/3cD3A27+igaH1aCNH0fJi7Ut5wIqJewFGjPDgChcg+NzjXg2XH6S70Ro37yAS0eqJll4VwidsPT+10MshhJAgcRGvEEwY5vID1wHc5GGdw+sB4TeJoWuUwxAdwD78THFzxnIxGM7G8D0mAeE4N0QdK7///rt8+OGHXiyU8voB8CMEf1csH4Pls8ojvB1YbWvXrq3+paeffrqsWbMmIMpjAb5smJwxbtw49YM79dRT1bobDiZFuMlTCBdeeGHU6xbtfCvaV1jT4VYA1wDXLt6cE2ufCdkR4EHtwQcf1NEA+GwOHTpUJ19t7+GzPPAQfumll8rZZ5+trgCYnBhJWO611176kI7VR9A2fNlPOeUUL7cs6BO+n19++aWXEiRaXqx9KQ/4vV911VX63YV/PQQxfPZhHUX/zzrrLO0/7nfYRiNaPdHSqwL8Xv0Ttq654uty5zIQQmomKf0HjyktXDXXixJCSPWCBzI34RO4Gf6V4eSTT1brogMWTDx07Qh2Rls783ziCSa6EUJIVcCKTw6KV0JIQhFP8UoSA4pXQkhV8YvXuK02QAghO4J4vqqU7Hz4+RFC4g3FKyEkoamo7ztJLOK9jBghhFC8EkISGrw/HxMko708hCQm+LzwuWFtbEIIiSf0eSWEJBThPq+EEEIIfV4JIYQQQkhSQvFKCCGEEEKSBopXQgghhBCSNFC8EkIIIYSQpIHilRBCCCGEJA0Ur4QQQgghJGngUlmEkIQifKmswsJC2bRpk25JYpKeni4NGjSQzMxML4UQQuKLf6ksildCSEIRLl7Xrl0rEydOlGOOOUZSUzlYlGiUlJTIp59+KldddZU0b97cSyWEkPhC8UoISVjCxSviX3/9tWzYsEGKi4u9VJIopKWlSaNGjeTII4+U+vXre6mEEBJf+JICQkhSUVBQIEVFRVJaWsqQYAGfCz4fQgjZWVC8EkISnkiiiSGxQlWoU6eOnHnmmVK3bl0vJX6gzq5du8qQIUPk8ssvl6FDh8pRRx0lDRs29EpUnWuuuUaefPJJ3RJCdjwUr4SQhAfiCL6VDPENcMPAZLhIeRUJVRGvEK7XXnutHHvssXF3C8EksuHDh8vAgQOlXbt2kpKSIq1atZIjjjhCRo0apWnxoFOnTiHbeLDXXnvJXXfdJWPHjtVr5MA+0pCHMoTUROIqXps1a6ZPn02bNvVSygdPv02aNPFilQMTBP7+97/LbbfdJrfeeqv07ds3kH7ffffpPiEkufFb+OD/evzxx4ekJXOYM2dOxPOJll7R8MYbb2g9gwYNknvvvTeQDkHXpUsXGTZsWEj5yobKUK9ePbniiitk9913l82bN0tubq6XU3UgVE855RT9Xfr222/ln//8p9xzzz0yZcoU+fDDD6V27dpy2mmnJaSfLiYmXnnllfr7uO++++pvHEQrAvaRhjyUqegkxnemB4UwIclKXMVrz5491f+pR48eXkr5QLw2btzYi20f3Iz8YKIAhoEw0/X666+XyZMn64xkfLEJIbsOEEfhlj5/PJmDE3+xplckLF++XMXa008/Lf/9739l1qxZ8sknn2jeW2+9JY8//rhe3/DjKhrQz4qSnZ0tY8aMkb333lvjWVlZcuCBB+r924WWLVtqXmVo3769tG3bVubOnStvv/22bNu2TdPR1y+++EI+++wzFYOJ+HuBa4rPzgELMazTCH5r8bJly7RsrDjhiq0/DBvJJc5IchF38frqq6+WEa+whsIyescdd8hxxx2naSNHjtQb0+jRo2X//ffXtF69emm522+/Xf2TIFb32WcfTYNIhaXAD4ZMIJZnz56t8S1btshrr72mojacAQMGaD0QuGeccYaXKrqPfiH06dPHS42eTgjZ+eAHGt91BAwt5+TkyEUXXaRDzbBEQZjgPjBixAi55JJL9CEWP/Sw5Lnj/AFlzzrrLB1+RR0YQt66dWu5dbz44otqwcQ9DKIvvE5/+Mc//qH3K5T9z3/+E0iHgDzhhBPUCjp16lRNw/lAUGF/+vTper9ctWpV1PRo9UQKsN527NgxMOx82GGH6Tm6fH8b/rDffvuVG8LLV0RAAQzn49ri/u6AeMV9Hp+JCxMmTKj00DhEKc7tm2++8VJCgTUWffevbBErzsfVBT/+9Kr4wP7rX/9SceqAdRrBgZnXDzzwgBeLjYFH5ui2TaOZIWHouRn6t0VIshA38YonXCxQ/d577+mN0t0QWrduLSeeeKIK0ptuukn69eunohVf7JUrV8qjjz4q8+bN0/KDBw9WcXnDDTdofb1799Y6MKzz2GOPybRp0zTuwLAJ1oD0gxvzjz/+6MUseMLHDRxrRY4fP15FNurHjeDwww/XNIhU9C0jIyNqOiGkeoDIyM/P14B9PKhCtL788suyevVq3SJ98eLFct1116lgxA8/Hqbdcf6Asr/99puKVFfmnXfeiVoH7ikPP/yw3oeeffZZFbIoF14vwvz589WqiTK4v2GL/i5cuFCH7R955BF56qmnNCxdulRfvgCRhf5gBAnuT5hkFC09Wj2R+gJ/VjzMuziGmJHm4q4NF3fhq6++8q58WZAXXh7XDfXECq57LP6mELSnn366F6sYOBb9ysvL81JCwblDvFfGuhurb2tVfGDxgIaHoN9//91LCYI0+LyiTEVxAvaAAw4IBEDxSpKJuIlXCEIMSeEGBgHprK/48v7www/6JcNyKjfffHMZwQnwNI+bPvyecEOZOXOmpgHcbCvzJXXg5vXKK6+oBdVZb/Hkv2bNGrW2wNICCwB+HHBDi5ZOCKke8P3D/QMB+/BjhMsRxEn//v3VDxbpWG8UD8+wBP7lL3/RdHecP7iyEIOI77HHHrqebLQ6vvzyS52xjgdhCEBYXtF+eL0I6BvuL7hvwOoH0Qtwf8SxGMbHQzH6vmDBAm0TbWMU6qSTTpLOnTtrPdHSo9Xj74MLyMN5xBr3h88//1z77QdpkcqirxXhp59+8va2T2UNB3/88Ycei882EvicYHD55ZdfvJTYgcElFmItt7NxgpWQZCUu4hXD+927d9dhrbvvvlstphCzkYAoxA0zFsJ9XMNZt25dmclhEM2YhOAHNy9YUiBiYS1xkwIQhzUYPwZwXcAQFW5m0dIJIdUDHmidlQ9iyW8thJDDdzo8HfcPpLu4P4SXhYCDAItWhxN5Lh0i1l/OH2DphFUUi/bDtxIuUngoRx2wNmISEQKEpxOkmLiEeyYe/F2fo6VHq8ffBxdw3/LHcW+DRdLFw883PHz88cfeJyC6H6kMgnM/iBUYE+B7uz1wrnCRqAwwhuAzw/ULf/MXHk4woobP9+eff/ZSYwe/c/hcXfDjT0e5yoI+wu3A7yrgQJqbxEVITSQu4rVDhw56A4PzPWY/YosbOEQjLAKwvtaqVUufgiEE3TANfiyQDjAshxswbtb4MYIIhcW2PDBUhndqwyIC8EWGhQJ98QMXAQz/zZgxQ4dG0AbA5AAMX2EY7vnnn9d1/2AxiZZOCKkeIGKcUMJ9A6MjK1asUDGGCZsYIUH6xo0bNQ9CD+II6e44f0BZv2iD+EIb0erAKBCsqOvXrxe4AMAaumTJkpA6XcB9Bq5POAa+tBhpgosU7oO4Z+F+AvGBNnFPdPdBlIWYgg8r6omWHq0efx9cgL8orJw4H4xeQQTjeJcffh0ihXfffVdDpDwXcO0qCiaR4bNz4LOEO8SkSZMCAUYE/IZUBlgXcW5wL8MoGuZU4DemW7ducs4550ibNm3UJxhuGYkIfkfx2+WAq4DfhQAPMPidqgzhE7aen8qRRZJcxEW8QmjCSukHN0k88eIHBjM94T8KlwGUw40cYB83ZtxMMTyGp3E46WO4DcdFGrbyg5s2bnZYtQCTsTABADdZWFf9fPfdd7osCvxu4T+FGzl+FPBkjh8i+BUh74MPPtC8aOmEkOoBFjR83xGwj5nk999/v1xwwQUax+QlbPEwe+edd+p9BVZHuAm54/wBZSFsXBz7CNHqgEjEIvpY1gmCAVZV+On763ThoIMO0oddWN4gcuHzjyFq1IEF8mExw2QziFGMRLm+ICAP/rJ4mI+WHq2eSH3ByBSE29VXXy0XX3yxjkrhYd/lh1+HygbUUxkw98EJWNSDlQEWLVoUCBj6rwz4fOBO4vx9sUUcS2NhEh0+j//7v//TeRSV7fuOBAYciGsHJmdhPgiC/xWZELcoW1Hg9+qfsHXNFV9LixYtvFxCEp+U/oPHlBaumutFCSGkesGDrH8GOOKYNOX/0Y4EhN2DDz6ootbPZZddpsLIASETbQ3oaHVEoyJ172iqsy+wAmK92Mq+tQp9h+i/9NJLqzS/wXHjjTfqFtfj9ddfV4slRvzQP6xMAVEMK3q8wIgjXMzg41oVVwE/eEDDAwcmJGLlAXddMMIIqyxcIfC3Whm3B0KSEf9vAMUrISShiCReMSqzvYk1GF5+6KGHdDH6yhKPOmoie+65p77JqrLiFW4RWG0Gq9Vggm5VgUUavr3w0/3++++9VEJIMkPxSghJWCKJVyyFVZlZ4WTnAPEKP9LKildCCNkefvEat6WyCCFkRwG/TPgmMiRmwOdDCCE7C4pXQkjC4yYuMSR2IISQnQHdBgghCUW42wCWmvrrX/8aeOMeSTzw1q177rmnzHqqhBASL+jzSghJWMLFK9YixSQebEliguXFsDwYX+ZCCNlRULwSQhKWcPFKCCGEcMIWIYQQQghJSiheCSGEEEJI0kDxSgghhBBCkgaKV0IIIYQQkjRQvBJCCCGEkKSB4pUQQgghhCQNFK+EEEIIISRpoHglhCQNkV5JWpMDIYTURPiSAkJIQhHtJQUlJSVSXFys25ou3FJSUiQ1NVXS0tJ0Swghuzp8wxYhJGGJJF4hVouKiiQ3N1e3ELA1GQhWvJK1Vq1auoWYJYSQXRmKV0JIwhJNvBYUFEhOTo7k5+fLpEl3qGBDeor5h/8c1iiL/5mcME2n5b3j/FS0rvB0V6+mmmSX5ifYrq8irQNErj+8rzYuMnbsWMnKypI6depIZmamphNCyK4MXw9LCElK4DaAALEXEHUqFF2AALUiLwQvLxxXzh5n9r3DXFGbrTmB+m09Vlj6m3H5Li28D3qYrUnL2GzU4dXjtQkQDR7vygTPOXgdCCGk5kHxSghJCpxwC2LFHZKdzAMo5S+qgtPbd4JQxaD5Z+tUqWjK2FJ+AeratHm2rPvn709QaHrtIS+Yrdgito5AGdSMolrc7rvjXB3Bvrh23LFeGUIIqWFQvBJCkg6r5yDcPDHnxZ24Cwo+m2ajQcGpW5NoZaitJVDKO9gvDLUOr25NtUUQteU00bXvZboyBk0POdBXzmD30AaK2X+airivfkIIIRSvhJBkRNWelXxBgnErPK0AxL4Vg0HxBzFpNWHwnztcyweLKjYNiShkM7UO3bP1uApUvxpsHb4+ef+3+YjZFCtY/aCAPc62iXxznPkX3i9CCKmJULwSQpKUoIXVyj+/wIxEUBBaEVhWCSIPolTlo1bu6nLb4DGoI9g+MAn4T4tYK6rWYHZsvUhHfrAOlLBxG4Ll7BY9cf2wApkQQgjFKyEk6XACUcWe+WdjTujZmMUJPhcHKGf+74lCe7y1ajqhqVLSJySD9VhsWbe1xytmg6g9DkdZoWzrtVst5MoH6rX9cOUAtvZ4T8jqsa48IYTUXCheCSFJCEQcAlQd4kb0qdDDvs2zYs/hpWlhKwgRbDqw+zYNQtGKRRt39QTrC6lacfWYPRzjRW17jmCb7ni04cpojh5nD7ZlnKD10kLqI4SQmgnFKyEk6UjPqiVpmSZkZUtqZrbZz9Kthgy7lfRML2SJZJhgtqUmXpqW4W0zpcTsa0hFSNdtsQlFkiaF5vZYlJJm9s3WxXWbLgWlqVJQYkJpitmagLgJ+WY/vzhF8krEbMVsSyWvGMHsB0KKbCssldwihBLJKSzWrQvI21Zo0gsQirxQIlvzi2RrQbHmEUJITYbilRCSnMAIaQ2Znq0SBPeAWjZ9xsrSUiP81NppCbdk4mhNccm+6gIlPStoCCYNybCQWouvZy014hb/NF0L4v/Yt3XY7pi0MlWiXEmgrmAB2w4hhNRkKF4JIUlHCQScUXH6D1uNa1IwzRax+/o6WSssES9BhqHEqEcIWi1rgkpGKEovH0IXaD7qQXqKrc+24Io6GYz6bVs4Fu3YUthHWbSHejRR68A+orrVdI1hx5dma7f12zxCCKmpULwSQpIOJwBVZ9oEKxQRjEpEHjIQL/HiEI/FTpci7qWXlhpBaPYRL4EoNWVKNM2WCdSrZU3QfF/9JsEGU8YcjzyUKymGhdWITi/dHmyPA6gHSTbNlvH3H/2ymRab5tVJCCE1mJT+g8eUFq6a60UJIaR6+fPPP2W33XbzYhaItvz8fNmyZYtu77znXqTaTE/MqfDTPbVPeuIviJGZbidQDoIQZXU/kADBiV1TXi21tgXkow2L2yLNO8RsVVxqYSSm+soDK0qDuP4h3ZfhNRZI8WdpO6Vy8/hxkp2dLfXq1ZOsrCyT7upCmRSpX7++1KlTR9LS0rxUQqofvNI4JydHNm/eHPbdIGT7/Prrr94eLa+EkCQEP3uwQULp6b73OxiQg064mnT8SFrLJ5SfdwyiJaYG5GkZk+xZQq3l0xOaGrwyKG8r9NK9XZSHLjYR1G6PRxu2gPuR1jJaAv1AFo6z1lbNQZYBUQSNYusOMRW4suUB4YpA4UoSDfxNur9PQqoCxSshJOmwwhBbDM9jqB/BikgrHrG1w/la3gTrFmCD9Uu16U4sYt9L0T1gxaKnKuHrinJetopPE6zV06tP8xDHjsl3QhXiGXEI0IBgNcGrWst4SRqA7pv+6vnZRNdmecDiSkgiw79RUlUoXgkhSYebwa/y0DNNWruoFXduyB9A66neUx2pijCQDk2IWGDilpfmJlrpsUaYajBVIg312HzUj63JxTGBmK3DClf0Q4+yfUDAYchycRNs/a4Pdl/9b7UAymghE3AgKogOLa4k0eHfKKkqFK+EkKTDWVTdhCor88w/iDwjWrHBhCkYPJ2YddZam+YJQAhCkwB9qfoQcQ122B/Hoh6vOc3TfT0eEcRxAESly4dsxfEQouiH7admoy/m+GC/zD4STH2oRqtCXcHqAkGb1X/Y2/Vo3LixXH/99V4slFGjRsmxxx4rLVq0kAceeMBLJYTUVCheCSFJCMQh/m//QQUGhuaLi00UchZxu2+NsBCTQSlYUmryTL4qV7WOQkx6dZg83ZpyONZaZm0+8nCcbcNLg1BFMP9wXElJUSBfZafW7+rG1gZtH+VNnbAbI+iJuX5C9HrtpqBdDTh212P9+vUybtw4+eCDD7yUUH777TdZunSpXo9XX33VSyWE1ETS9urcY0JJziovSggh1cvWrVt1Fn04mKlcUFCg2wF/OdbouiIrQFXcGeHnuQno1oTUVE/YmgDLJ1BBaQKstWZHj1Mrq9ngMCcUzf+1DKyoVrgiE0LX1piaYp/7tYVU7Hv1Q5SiMoCCWi+OtUnaHEqVFGufrAW2RIp9/dMWvGNtKiJwI/DqMqmf/t//SXp6uq40gK07d9CgQQNvT+Too4+WCy+8UK2WsGzOnz9fOnToIJdffrnsu+++MmzYMI3DReHiiy+WgQMHyuLFi2Xjxo1eDaGg7KWXXiodO3aUoUOHysEHHyxfffWV7L333vLXv/5V/r+9Mw+SsyrX+Jmlu6d7JpMgiltcC/5QUKvcNRowcEtFLVTE5XLF4EKVReFVKgjcAlmTC6VhK5cSRMoLglqWWiXGnUAEUQuRiBsUlguKAYFZu6e3mbnv7znfmXQmM5meyRBmyPtMznzb+c53uifzza+f7z3vefnLXx7e/e53h+c973nhN7/5jb2eyfCGN7xBbb/xjW8MuVxO7c8kXNVLL700/OlPf9L2W9/6Vp33yle+MqxatUp9f+CBB8Lb3/72sHnz5vDCF74wvP71r1cdXiePou+77z6d61r6IuOAyzUftd6X3Hl1uVzLTtEZtRuYgSPgJj7MoFGwiWNJYZcd6+xK9bqsdAo+Y0xqBpLWHlAc2zDwtbq03dlp9bUH5ASgJ0LTQK8x3lR9hSxAlVaDPnR1dk/1ybqh6wuU1QLYGb9z/W6DrW7rF/W7BMCow0A29qVJaQK5lATjsU47Amxf8IIXhPe+973hxS9+cXjpS18axsbGdAyQPfHEE8PatWvDs571LG2fcMIJgsLXvva1ckFn00EHHSQgXrNmjf6Y8EGD9+AZz3hG+MAHPhBe/epXC6hXr16tfe94xzvC+vXrBbq0Taqk2cT7j6v6zGc+M7z5zW8WCL/mNa/RdVLfk6jznve8J3zkIx8R4ALJpFJzPT4655xz9lhcrsWUw6vL5Vp2ggcFiLaUk2rwRGk0GwLMcVunpP2qL2iMg0UEjAaQXV3Apm1nTioCFuO5Ta13GJBytmGmfUVwBLKoU6s3lHd2rFYNVVvW6jVBJ9fTNQziANPOjkm7FkvAmMEq9J3O2z8c1cmODGa7Qy6Hm5qTS5nP0TeuOWkga9drjOua7Yh+ffWrXw3r1q0Ln/3sZ5UXFigG8IDB+++/Pxx66KHh4YcfDj/96U/Djh07Ql9fnxzZ3/72t1kru4tzeXz/kpe8RNd42tOeFh588EHtx/kEkv/whz8IVnFT77zzznDbbbeF173udeHCCy8M27Ztm9N1w+HFub399tvV/5nq47w2m81w/PHHh+uuu04j2IvFopx7177Xeeedl63trj0dc7kWIodXl8u17GTMZ2AZIRIQxE3NuFLgCMRWa3WDSsCyLsiqNZq2P7mZWWiAHtfjnBrY4rIaKOLOakDWJA4qEw1MCEQJD8DBxS3Nd3cZWHaHHgNMHM5CLj81ghqgqtbroVIdk1tIP7g2IQ/JSY0ObHRlBcJ2DaC30WhM1RtX3Um7roGtwWxPvhD6Sj2hv800Q895znPC+eefHw488MBw8803Cy4R7SNglr5zfaAPR5X1fD4/JwByLuekc6vV6tT+BMlcF1DmGIDLtXg/gNG5UiUB7gBrOo+fC9eZLkIQGMCFY/z+978/3HLLLWFgYCA76trXmglSHVxdj4UcXl0u17ITDmpHh0GlnEyA0wDP4DPf3R1yBpY9BjxFgygAE9gEbAknkKvKI39bApkpnhWGHZ+I+8cnGga5BpsGktV6NYxVa2F0rGwQbDBqIAYQ1xvUoycTocuuzTUBrmJPIZTsun1Flga1Bpw5A88YShABmM50ZaCMG9stEKbvtNGlfdYp9QfoHavWw2h5NAyVR8LQSCUMjLQXK/jc5z5XTugnP/nJ8M9//lOhAe2mKIofCtoTrwMRa8s12OYxPu4rjitxsIQW8P7gvNKvufqBs8t5abIFQgSmi9hYYm2BXD6MPPvZz5bri9vrevzUCqsOrq7HSg6vLpdr2YnH9LU6gBmdVDmVAs+d4QJsC8EyDptUOMF45nZmj/UNtDp4pG/rOQPfvB7VF0KvwWdvqScD0WLoNRjmGKBJiAHt4JLyGB9nt1oz4JW72gj1JvAbXVOBchYfCwzX5MhWDYYroTxWtTIWypVYqnYuIQ+EN3AdwJd+9BV7Qn9frxxX9cv61I54XI8Levfddwtg//3vf4dSqZQdXXzxYeDzn/98+MxnPiN397LLLguPPPJI+OY3vxm+/vWvC1xvvfXW8OUvf3nOsAGgGxf1u9/9rtJnEdowPeaVsIevfe1ripH9whe+ED70oQ/p9eEcux5fAa0Orq7HUh1HHnfKZOPB7dmmy+VyPb7617/+FZ7+9KdnW1E4gTz65zE0y40Xfzo7gvPH9wiku4vYUtzVGKMKRKaY2Nb6cnIV+8owLhzSLBTBKmnAlZacz3kEqXbKxY2DvqwB24dD2NWFq9qpEATgmOsz0Irrx35Gl5ImJjsMsq09xeXacYErzaludJNpHFhmNW7Hti4452yBKY5meqyexACsJN6rrVu3CrRxRXn/GMTFI/hf/epXGtGPbrrppvD85z9friigSKwp0BtfQxT9JJXVQw89tMu5ZBtgINa5556rOFQyAwCnBxxwgPYzeIvH+/fcc4/6fvDBB4dvf/vbM7ZN/370ox+FY489Vvu3b98e/vKXvwhKKU9+8pPlwrbW+fOf/xz++Mc/6j0gZpdr4vK6lrb48OFyzUd//etfszW7Ezq8ulyupaR24PWMT+HqAHmM1I9QB79pcJPt02N6nRfBEDiCGAkPoC14E5DVeXw3jurqMOA0+CT8gMbYTzucw3oUZxJmAGjGZXJ0le6KtmMVLRUCQD/tK8Ea50Wgpg6xrhGqqRVd4wivkvoar6U29NpC+PSmC9uC173Vli1b4nuXiddAOq3pYoAVmQYYxJWgdi6127briSmHV9d85fDqcrmWrNqB19POOkcOZzew2dVt8MlIfgZddRuj4oxCj9nJSdoXXdi0jXsKQMWcq4AUsAgQp4FahoxW7+KzTg1nbLzM1nFcad9qGnQ2x5sKWbBWI3iqab5RATqN1yFHLH0kw4EGfanv3XYs9hnoBlJ1nkmOLCcDr1ZaIY8qm847d5/A63w03ZF1ufYkh1fXfNUKrzuf2+yFCNS/5pprFNNEOeuss/Roai7xeOeSSy5RrNJ8xcjYyy+/PNsKyvHH6NbZ9JSnPEV95LHTXOLx2hlnnJFtzV/p/Xjb296W7YnSH8GLLw4nnXRStmf+mut1ulz7g/pLxdBTyClOFWzjRoYzCYxG/oMarRgcpi9BqoEgkFlvEqeaDcaqjIXRsWqoVOuhUmtoQBb7ynZspFINw+VKOPnMjapLOixiWAFkfp/zuXzo7S2FvlIp9NtypZUVtr6iWFSsarGQDyXrZ08+H4pW6G/O4LWzq8tgNgNvgSvCLY4QKgfY6uQYcNZNrG0c9AUPE1u7FMU92cHV5XLtCy0KvCKC9YFWCuBG4ui5HABSplx//fXh6quvzvYsXEAd0DmbSJxNH1/1qldle2YXCbovuuiibGvhIq9hqyNC/kRu8HujuV6ny7U/aBi4HAMuyQQwZoBZDoOjVkYoo2FodFTQWTb4rDfqSjuVJjbgV5LJBJRT1WASsCwZZPYUAEvysvKInzoAZGcokKbKjhcMQgt58q/mdS4OKgXxOJ+cscR3Tg38ypPxIBvolcVgcg+qVBsarDU0PBIGhofD4PCgrQ+HEevzaKVsfa5EULZSq9Wz3LVNhRfg9Mb0XrMrhkO4XEtX/n/UtbdalOlheXzF9HyMDEU82uMmfthhh4W77rpLM7EwI8tRRx2lQQ0E2JOTj1lfCN7/xz/+oUECHMeFZRpBAO33v/+9piH82Mc+pkEHiOkMyV9I6hdmh/nBD36gmWJwerkeibZ5fDVdxGNRl9laUluHHHJI+OhHPyqoZKYW4rV+/etfy9nctGmT6lPnlFNOUUzX+973Pi15jId7Sj95LSl/YhLvB6+FPjLalteGmGmGX1pyKHIdxHvDtIrUxx3mNc/WL2bAmf46Z3rP0JFHHqlpE1/xilfoPWYgBqllZvpZuFxLSe1MD7tm7RFx5+TOx+kCToNIYLOQNygtFASj3ItiOq3obLKMsaPApwEqKaqsDvUYqZ638yNw2nlqeVKObRxcZeCYubcxbjXGpyoGlppYo/pnX1Y3hhUAnmQbIBWXHcQNzvqdNadC3Kxm1bJzGs0sJGGcdghTiKEMeYNnYPvmrTepv4QMsGz9kMzrYr/LtVTFLGspN7DL1a5aWWvRnNfpYg5q8u0xPeBxxx0nJ5OE2UAWkHbttdcK7nBpGSkK8AGq1MG9xSklb187og1g7sorr9QI2emiHf4o/fCHP1Ry7NZ4OpJgf+Mb31CYAH8EgL3pItTghhtuUMoWQJARtYys/fGPfxyOOeaYrNbuItULc28jRvdyHiNzk+gH7w2hBGeffbb6iVuLZurX9Nc523tGf9/5zneGjRs3qu2U93C2n4XLtdzU31sMfaVYeos9VmzZY8W2C4W8/c7kBJNpSlUGQ03FuppifGkcSMUXR1hOGDzidDJTVrlcUVqrWqOhXKuEFZRte7hSCcPl0TBokK1iH9ZxUB8dHgpDI6NheHQkVCpjSpnFNck8INA08CSMQDlh5fAC0Li2XB+CpafqNV2z/Vn2AqsbIZxtwg32fNtmpD8GgrtbrqUm/k/yf3NoaCjb43ItTI+J84oAJRJIk6IF4APGcFpZEnTLoIwjjjhCiazJP4g78fe//13JrYE8nEKglji1F73oRVNuKW0wYKPVeUU8TmdKw5nm5AbSCA7nWqRvoQ+4kDiswN/3v/991SNVDGptO9VhnV88+sK0hbjF/CHBySTNTKvS+3HVVVdpXvGf/exnClfg0yafHHBIcVLZx/tDWpr4R65Tr53UMDP16957793ldc72nvH6SCvDrDq0C9ByHRJ+z/azcLmWitpxXtcd9R8GeEI+uZUAJrlVyaNKPtVGg8ftmZNpEKkBWVYb9zRJJijgaEt+l9KsXJync6lAPYxPAWZES32zk7SeKWJnHIgVp3UlThW3lPAEQgoAT4PQHCEFeYGsJlKwUjL4juvsZ2KDGMtLRALwqmsZhMdBZYQ/hLDt5tmdV4SrBSQAsl68LJXC/0l3XF0L1T5xXnEVme8aAYPk5aMwQAtwnC5CAc4880z9xyYnYEpIzR+q6Tfm+YhzgTtAmWvjbOJQziRAb65rUYeS1vmjNJv4g3jHHXfoejiwwORcmun6s/VrtveMP57A6kxq52fhci11jcr9rGhgFa4oOVL5feNxflOP3yfj7FQGowzCKlcrYcQ+PKb42HJ1zH5HajqHR/gKHTCwxLll8NWK3jgAq2Rw2NtDKAGhBdEptd9I+33MgJUVg0qcURxfYDKfjy4poQlUincL6to329D9Y5INFOFZ/nAWGoBTm+4rtRqvoRaGR63/lXIYUlxvezNsuVwu1xNVjwm8kkSamEscSRJTr169WrGfuIQ4qRX7wzNduIMcx6UEepPzQrwoTmVyGAC2mQSszTT3NTGqOLXErZ566qla8odhtnYWWwDrW97yFr1u3NpW4QQfeuiheq24rjixKWZ1NrW+ztneM5xbXjchErTL+4/a/Vm4XEtdxIPipfJ/uDWGVFxoJU4swA7AMD6CxwFl+ljCDEo9RQ2oAjLjB8NJPb5nFceTurlcZ+gxcO3pKYQ+MgnY79eq/v5w4MqV4YCVrPcqs0CvFcAXWAVM7fO2+qcZvqxbdEV9mRKgmvocl9FDjrG0DM6q1RhoFmcNi3G2Md6WqWwpLpfLtT9r0eAVsEypsj74wQ+GL33pSwIkgO073/mOZk+54IILFIvJY/XpYmAXj7oZKPWud71LoQRA2sDAgGJLidHcsGGD9s+kX/ziF+HDH/7wbim6AEKOtYpchLO5r4stHsnziH8m15VjTJ1IXCvvG64oc4HvSa2vc7b3jPec94y4XOJ0+dnwR7Xdn4XLtdSFI1rozusRPI/qMTkFiUmRCwWjuKI8ku8r9Wr0fy6HK0olYJDH/9FJRVpaEUoKFAFHjmSQadsqEwzSmlR4AemzyB4wUibelUIGgdHw6OBweHRoUOWRwaEwMDSk42VlFKgaoDZCvR6njgVMcYEJcSA7QlonyiF2IXZK144dcrlcrv1WPknBE1QMUCM+EFfptNNO0+CxX/7yl9lRl2vpqp1JCs7f9L+GcxlpBmanyiBPgJlNJMBRO0zhCQSVtKAyLGgrabBWUodtYHRSmd8d1TXRBvU5j7bJtdoQYJIRIF4LxXppI/um87Sh9Z1t0n4cVEXqLVxgcrt2C645j77guMYmuH5yYjdftFEfPHnawlOp6B67XC7XE1eLPkmBa+mJtFzJCSelVmuWA5druQvkjEOwIriCbhTFmRrkNcfJEFBTfOvwaFVOaFyPkw9UKrXQqE/EHLA4n1ZIbaW2rAmyFACMMCHtAo5AK05pRRMaVOPgrhZwRREyswJ06lF/XKpx9TyKNtNsXgJX4mpz3XEWLruwJjHoJn0XpctgNRd6SwasfbuHR7lcLtf+JHdeXS7XklJbzuvGTdHlBC3tWIwVxREdN6CsK6tAgkSpZQPclFEJT1pRO0aagG9HJzGwkwaUeLKkqbJ9wKQBLe3jghLPCsiKRzNnNAmgzprWUu5qguLY1Z3HrV2uQ+oscsoSj0v95KLymmdaR+eefdZeO6/ExDMj1ve+9z1leFhM9fX1KWNKym7CB2h+rmRqmZ4X2+VyudqRO68ul2vZCxAkLnRqilcrpMyaGI9wyHEKuMgYp1j4xkFgLwKfqpiUqcDaa2apssYNTIFC5WXtzodiTzGUioXQ39cbVvWvtLIiPGnlynDgqv6wckWfshOQpaBkUEmqLNJdaWIEwW+X9WXn9eJ+MoN0GXzmBK7UmYJVasVVA2rqxo25cry2K8D19NNPD29605vkPC+mmB6bSWiOPvpope+j76ROJOMK8frsc7lcrr2Rw6vL5Vp2Ig3WCFPEVupKh9VsRvtTM2HZMgIfkGggaPviI3w7YOvAFPsC8abpQEawPLIHVsm/2isIzRtUdnOinUMDWtW6nFpdo0OptEiVVSz0KPvAKoNZshMcuLI/PMng9knKTmAlg9xST95KnAEstpNuxTtvyTi/XICQhrgDF3fvQRO39hOf+ISm7yb3ZkqxtxjivSBkiclP7rzzznDFFVeESy+9NGzevDn85Cc/0QDTY489Vjmn56Mtt/Rmay6Xy+Xw6nK5lqEY4a9QAZ7ZY1JmoEqaK8M92wf6ddqhnTGmkkEneIuByf50TLNgGUiSGqu3WBKIapYuGuUcAWssRsa6FmfLVbWitnQQyFUla9PqWYmhB5mDiyObZwIDgDhoxq6BodHw8MCglYHw6OCgbQ+H0fJYqIzV5CrjBAPnE+OxXTW/QBFqQLpAJpBBhBww/TRTUafCY/6FijABUvht37493HjjjVOp+HhPfv7zn4dbb71Vri/XaVcJXFm2lv86Ma/9Lpdr/5PDq8vlWnZaUSqGFcViWNlny74eOZ75XDaNqpUEs5CeODMJh3PC8FUDrXicb2Bpy0KhK5SKcZKBzq4IiDo9K9qIxAqe6hyAlDjYGF4Qb6W6murZMbsOcA24sYs2cYYjjDYFppyvEAGTJloYHw91O8agMCZVGCbllsEs5ZGBR8NDjwzacmExozzOJ1TgkEMOyfZEeP34xz+udH2pkGIvzeo3XwGlvF5mEJxJuLG89ukxzXvS0YeXtVx9wO27lP9cn5uaCMflcu1fcnh1uVzLTsBimo0q181Uq0w+UNQMWSv6ekN/X0lLYlGJQ+01MO3Jd2uCEoC1swvHNNi+vNUrhUKuoHYihOqBfQaw0UGNipDJgXErHCcrAf1gABdHyRIAvJHiivoa+GX7GNxFo0xAQAq7sWpVKbZijlcGfSUAtor8i4sYp8tSjnFUE7d5ATr55JPbijcFaMkbvRBxLnA62xSgTLLCa56vu5sAlmmtU0EOry7X/imHV5fLtewE3AkPWdoK4Acg4mwCngJbANdgFSgtFHpCycAWqCX2tL+vL/T1FvVIX7KTOHcqrpVt+0rbwlnoETjVngiocfYru17WDu7plGx/dF/Z6DCoY1ICJiFgYgL6HuvyGhDtsU7/xcsaeWZ12G8LXifncHwhuvfee7O1uUV4w0L0wAMP6NzZZjAkFpYc1MwCOF8lYHW5XC6HV5fLtewkWAT6ElPaV3w8vxPtplazpWJgJw0ijRwByeHRciiPjWnWq8GhkTA4zKP5AVsfDuXKWBgbqyl7gWa84vG+XYhr7JQ1bBchbID9AHO8ZrxgNGzpF9kL6gJXQgWAV0GoVcO5RcAp9E3zQCrupNJ2qc+8xnG1w3kJeucrZvPbunVrtjW7cE6/9a1vZVvz0+9+9zu5yMxgeNBBB2V7o4h1XbdunX5G9913X7bX5XK55q9d8rzuemN2uVyufa8dO3bs9liZexOP2xkdT57Xcy/YmO23b8Z/8dYVN4DCiIRR7OV8oKppIFqpNmzd4NAqpv0opaHSI3xbqjVb4TCDwIBJwgAIVSA8gHACIFphCBm44vRSO91LWQKDdYPg6hgTIjQUssDhVDqZ1otz9D1qwkBV/bN1HGTJNthPrSs/d4Ue0TNqHyezFdrn0vr168PatWu1zuP9L37xi7s85ieXLg7qQrRmzZpw+OGH630giwGDtIaGhpRl4GUve5mcV6a1Jrdset/b1Y1bd804cMNXGuH0U+9wR9bl2g/EPa41z6vgtb7jrmxzV6UbsMvlcu0r7Qle0yQFnzrvfIEfzKZ4UtWJSzBOg6rEc4adE83QqI+HmnK4MsGAHbdvGasKSlM6qsSAass2NDOWAhRQbJlBX9laBF3bwPklhIB1ZsrqsjaZeEAxsPZFOAFTysbrZ+1ZXV4XN2UcVhSvG13enYqOLPWAZNav+tzlU5MUzBde0QknnKC8q+VyWQO2FkO0l6CYnxF9om+t2rZtW7jtttt2vgfz1N13352tReHuPvWpT822XC7Xchb3jMSdM93T/va3v2VrdrwVXjkplbTtcrlc+1IMwpkOJNyLgFdmggKMTjvzfwSMreJel25Zk8SrGh8RItAgznS8KRDlDKoAlFpB3POyVbVo33BhJw04ExiDoAlOtcu+xYFcxL2mEAE1pcJ2D3lcu/OC2NQuoh2cX8W42jUYgKVMA0ywkF2PfK6xt1On6bqcgxP7f1dfKeeVmawWAq/opJNOCocddpgyDKSUVnujDRs2aEnIw5YtW+TeApe4w7iw/FwHBgZUx+VyufakdE9jmcqM8Mon4VZ4TcXlcrn2pZhKdHq8JPeiBK8s//vUDQZ1dnNrZbYWyms0G4JcpotNO/lCuJwdnXzCBwYZFMUNMmYMiIgYlW6YSquVZQ3gJPKtZquZootIHzs6uuS85nNW8gVdBxd2utMo8KWtLH6Vbd2DbX08m3CB2FZAN7m1xNYi4PD6r1wjaN0beOUcZsHCDcXR3lsdf/zx6guhAvfcc0+21+VyueavdP9tLffff392NIT/BxvWKfuWLP/ZAAAAAElFTkSuQmCC;" parent="1" vertex="1">
          <mxGeometry x="1470" y="1169" width="174.44" height="130" as="geometry" />
        </mxCell>
      </root>
    </mxGraphModel>
  </diagram>
</mxfile>
